<svg xmlns="http://www.w3.org/2000/svg" viewBox="0 0 95.87 147.83"><defs><style>.cls-1{fill:#4b4846;}</style></defs><title>Recurso 1</title><g id="Capa_2" data-name="Capa 2"><g id="Layer_1" data-name="Layer 1"><path class="cls-1" d="M78.63,32.49A16.9,16.9,0,0,0,61.75,49.38V84l-31.6-45.1A14.91,14.91,0,0,0,17.52,32.5h-.64A16.9,16.9,0,0,0,0,49.38V131a16.89,16.89,0,0,0,33.77,0V96.33l31,44.26.08.12A16.89,16.89,0,0,0,95.52,131V49.38A16.91,16.91,0,0,0,78.63,32.49"/><path class="cls-1" d="M92.63,3.31A8.59,8.59,0,0,0,80.56,4.68a16.46,16.46,0,0,1-11.09,6.15,16.45,16.45,0,0,1-12.19-3.5A33.78,33.78,0,0,0,9.86,12.72,8.59,8.59,0,1,0,23.3,23.41a16.6,16.6,0,0,1,23.29-2.64,33.49,33.49,0,0,0,21,7.35,33.73,33.73,0,0,0,3.87-.22A33.52,33.52,0,0,0,94,15.37,8.57,8.57,0,0,0,92.63,3.31"/></g></g></svg>