<svg xmlns="http://www.w3.org/2000/svg" viewBox="0 0 90.01 145.36"><defs><style>.cls-1{fill:#4b4846;}</style></defs><title>Recurso 2</title><g id="Capa_2" data-name="Capa 2"><g id="Layer_1" data-name="Layer 1"><path class="cls-1" d="M90,92.78v-.29A32.28,32.28,0,0,0,78.17,67.63c-6.25-5.34-15.91-9.1-24.45-10.07V47a75.21,75.21,0,0,0,7.13,4.89A16.39,16.39,0,0,0,81,49.22a16.63,16.63,0,0,0-3.33-25.61,61.21,61.21,0,0,0-23.93-8.69V8.72a8.72,8.72,0,1,0-17.44,0v6C15.73,17.49,2.09,32,2.41,51.68V52c0,21,14.5,29.4,33.87,31.72V97.55A62,62,0,0,1,26,91.6c-3-2.19-13-6.42-21.39,1.86A15.92,15.92,0,0,0,0,105.18a16.69,16.69,0,0,0,6.83,13.24,69.59,69.59,0,0,0,29.45,11.9v6.32a8.72,8.72,0,1,0,17.44,0v-5.86c9.73-1,18.07-4.36,24.33-9.74,8-6.89,12.14-16.66,12-28.26M30.69,48.17c0-2.85,1.95-5.23,5.59-6.27V54.73c-3.37-1.3-5.59-3.31-5.59-6.56m23,51.44V86.5c4.93,1.8,5.81,4.19,5.81,6.48,0,3-2.15,5.4-5.81,6.63"/></g></g></svg>