<svg xmlns="http://www.w3.org/2000/svg" viewBox="0 0 87.96 111.61"><defs><style>.cls-1{fill:#4b4846;}</style></defs><title>Recurso 15</title><g id="Capa_2" data-name="Capa 2"><g id="Layer_1" data-name="Layer 1"><path class="cls-1" d="M78.32,13A39.38,39.38,0,0,0,55,.46,16.59,16.59,0,0,0,51.06,0H18.13L17.3,0h-.42A16.9,16.9,0,0,0,0,16.9V94.72a16.89,16.89,0,1,0,33.77,0V75.88H51.06a16.81,16.81,0,0,0,4-.49A39.38,39.38,0,0,0,78.36,62.85a37.14,37.14,0,0,0,0-49.88m-24.52,25a4.18,4.18,0,0,1-4.17,4.18h-15V33.75h15a4.18,4.18,0,0,1,4.17,4.18"/></g></g></svg>