<svg xmlns="http://www.w3.org/2000/svg" viewBox="0 0 84.1 111.61"><defs><style>.cls-1{fill:#4b4846;}</style></defs><title>Recurso 14</title><g id="Capa_2" data-name="Capa 2"><g id="Layer_1" data-name="Layer 1"><path class="cls-1" d="M64.81,65.58A34.65,34.65,0,0,0,84.1,34.76c0-18-14.19-32.87-32.26-34.58A18.44,18.44,0,0,0,49.36,0H16.88A16.9,16.9,0,0,0,0,16.89H0V94.72a16.89,16.89,0,1,0,33.77,0V81.14l20.51,24.43a16.88,16.88,0,0,0,25.87-21.7ZM45.76,42.11h-12V33.75h12a4.18,4.18,0,0,1,0,8.36"/></g></g></svg>