<svg xmlns="http://www.w3.org/2000/svg" viewBox="0 0 91.29 111.59"><defs><style>.cls-1{fill:#4b4846;}</style></defs><title>Recurso 33</title><g id="Capa_2" data-name="Capa 2"><g id="Layer_1" data-name="Layer 1"><path class="cls-1" d="M77,49.53A30.87,30.87,0,0,0,52.34,0H16.88A16.9,16.9,0,0,0,0,16.88V94.7a16.9,16.9,0,0,0,16.88,16.89H57.05A34.21,34.21,0,0,0,77,49.53M56,75.25a4.18,4.18,0,0,1-4.18,4.18H34.68V71.07H51.77A4.18,4.18,0,0,1,56,75.25M34.68,38.49V30H46.06a4.26,4.26,0,0,1,0,8.52Z"/></g></g></svg>