<svg xmlns="http://www.w3.org/2000/svg" viewBox="0 0 100.05 146.35"><defs><style>.cls-1{fill:#4b4846;}</style></defs><title>Recurso 22</title><g id="Capa_2" data-name="Capa 2"><g id="Layer_1" data-name="Layer 1"><path class="cls-1" d="M99,123.87,70.81,46.31l0-.07a22.19,22.19,0,0,0-41.52,0L1,123.87a16.77,16.77,0,0,0,10,21.47,16.54,16.54,0,0,0,5.71,1,16.79,16.79,0,0,0,15.76-11L36,125.77h28.1l3.47,9.56A16.76,16.76,0,0,0,99,123.87M45.69,95,50,79.76,54.37,95Z"/><path class="cls-1" d="M48.64,26.6a8.52,8.52,0,0,1-4.26-15.9L60.84,1.14A8.52,8.52,0,1,1,69.36,15.9L52.9,25.46a8.56,8.56,0,0,1-4.26,1.14"/></g></g></svg>