<svg xmlns="http://www.w3.org/2000/svg" viewBox="0 0 98.55 147.84"><defs><style>.cls-1{fill:#4b4846;}</style></defs><title>Recurso 3</title><g id="Capa_2" data-name="Capa 2"><g id="Layer_1" data-name="Layer 1"><path class="cls-1" d="M41,26.87a8.61,8.61,0,0,1-4.32-16.06L53.29,1.16a8.61,8.61,0,0,1,8.6,14.91L45.26,25.72A8.55,8.55,0,0,1,41,26.87"/><path class="cls-1" d="M81.62,32.22A17,17,0,0,0,64.69,49.15V98.57a15.42,15.42,0,1,1-30.84,0V49.15A16.93,16.93,0,1,0,0,49.15V98.57a49.28,49.28,0,0,0,98.55,0V49.15A17,17,0,0,0,81.62,32.22"/></g></g></svg>