<svg xmlns="http://www.w3.org/2000/svg" viewBox="0 0 167.9 115.35"><defs><style>.cls-1{fill:#4b4846;}</style></defs><title>Recurso 8</title><g id="Capa_2" data-name="Capa 2"><g id="Layer_1" data-name="Layer 1"><path class="cls-1" d="M156.79,1a16.89,16.89,0,0,0-21.64,10.09L117.48,59.64,99.82,11.11a16.93,16.93,0,0,0-3.73-6A.93.93,0,0,1,96,5l-.38-.36-.3-.28L95,4.16l-.45-.39-.11-.08A16.72,16.72,0,0,0,89.72,1a16.51,16.51,0,0,0-5.54-1h-.54a16.61,16.61,0,0,0-5.46,1A17.05,17.05,0,0,0,74,3.23h0l-.58.45-.13.1-.44.37-.26.23-.27.26c-.14.12-.27.25-.4.38a1.36,1.36,0,0,1-.12.12,16.85,16.85,0,0,0-3.74,6L50.42,59.64,32.75,11.11A16.88,16.88,0,0,0,1,22.66l28.45,78.16,0,.07a22.36,22.36,0,0,0,41.84,0L84,66.25l12.58,34.57,0,.07a22.36,22.36,0,0,0,41.84,0l28.48-78.23A16.9,16.9,0,0,0,156.79,1"/></g></g></svg>