<svg xmlns="http://www.w3.org/2000/svg" viewBox="0 0 88.66 115.17"><defs><style>.cls-1{fill:#4b4846;}</style></defs><title>Recurso 11</title><g id="Capa_2" data-name="Capa 2"><g id="Layer_1" data-name="Layer 1"><path class="cls-1" d="M88.65,77.39V77.1A31.76,31.76,0,0,0,77,52.61c-6.39-5.47-16.46-9.44-25.07-10.5-8.28-1-16.66-.38-16.66-6.87,0-2.72,3.35-5.26,7.59-5.26,5.68,0,10.19,3.09,17.09,7.09a16.13,16.13,0,0,0,19.82-2.59A16.39,16.39,0,0,0,76.48,9.25,62,62,0,0,0,42.06,0C18.34.4,2,15.57,2.37,36.9v.29C2.38,59.25,18.72,67.92,39.49,71c15.4,2.25,16.15,5.73,16.15,8.35,0,1.54-2.31,5-8.87,5.27S31,80.13,25.57,76.22c-3-2.15-12.8-6.32-21.07,1.83A15.69,15.69,0,0,0,0,89.59a16.4,16.4,0,0,0,6.73,13A68.61,68.61,0,0,0,46.2,115.17h1.09c12-.19,22.25-3.63,29.58-9.94,7.89-6.78,12-16.41,11.78-27.83"/></g></g></svg>