<svg xmlns="http://www.w3.org/2000/svg" viewBox="0 0 83.03 146.35"><defs><style>.cls-1{fill:#4b4846;}</style></defs><title>Recurso 23</title><g id="Capa_2" data-name="Capa 2"><g id="Layer_1" data-name="Layer 1"><path class="cls-1" d="M66.11,112.5H33.85v-7H60.14a15,15,0,1,0,0-30.06H33.85V68.35H66.11a16.93,16.93,0,0,0,0-33.85H16.92A17,17,0,0,0,0,51.43H0v78a16.94,16.94,0,0,0,16.92,16.92H66.11a16.93,16.93,0,0,0,0-33.85"/><path class="cls-1" d="M33.21,26.87A8.61,8.61,0,0,1,28.9,10.8L45.53,1.16a8.6,8.6,0,1,1,8.61,14.9L37.51,25.71a8.53,8.53,0,0,1-4.3,1.16"/></g></g></svg>