<svg xmlns="http://www.w3.org/2000/svg" viewBox="0 0 88.27 111.59"><defs><style>.cls-1{fill:#4b4846;}</style></defs><title>Recurso 5</title><g id="Capa_2" data-name="Capa 2"><g id="Layer_1" data-name="Layer 1"><path class="cls-1" d="M71.39,77.82H49.33L85.22,26.57c.21-.3.41-.62.6-.93h0q.21-.35.39-.69l0-.05c.12-.22.23-.45.34-.67l0-.11c.1-.21.2-.42.29-.63l.09-.22c.07-.17.14-.35.2-.52l.14-.39c0-.12.08-.25.13-.37s.11-.38.16-.56l.06-.22c.06-.23.12-.47.17-.71a.19.19,0,0,1,0-.07,17.12,17.12,0,0,0,.37-3.53,16.86,16.86,0,0,0-1.76-7.5c0-.07-.07-.13-.1-.2s-.16-.31-.25-.46l-.25-.44-.12-.2a16.8,16.8,0,0,0-4.31-4.73h0l-.41-.31-.23-.15-.07,0c-.2-.14-.4-.27-.61-.39a.41.41,0,0,0-.11-.07l-.59-.34L79.3,2l-.56-.29-.22-.1L78,1.35l-.33-.13-.42-.17L76.77.89l-.29-.1a5.79,5.79,0,0,0-.63-.18l-.14,0L75,.38h0A16.46,16.46,0,0,0,71.39,0H21.18a16.89,16.89,0,1,0,0,33.77H39L3.05,85c0,.08-.1.16-.16.24v0c-.15.21-.29.43-.42.65a.16.16,0,0,0,0,.07c-.13.21-.25.42-.37.63l0,.11c-.11.2-.22.4-.32.61l-.08.18c-.09.18-.17.37-.25.56l-.12.28-.18.47-.15.43c0,.11-.08.22-.11.33s-.12.4-.18.61a1,1,0,0,1,0,.16l-.18.75v0A16.62,16.62,0,0,0,0,94.7a16.83,16.83,0,0,0,1.76,7.5c0,.07.07.13.1.2s.16.31.25.46l.25.44.12.21c.13.21.27.42.41.63h0a16.7,16.7,0,0,0,3.89,4.08l0,0,.39.29a15.78,15.78,0,0,0,2.37,1.39h0l.65.3.19.07.5.2.25.09.49.17.47.15.4.11.43.11.25.05.48.1.12,0a17.66,17.66,0,0,0,1.78.22h0c.42,0,.85,0,1.28,0h54.5a16.89,16.89,0,0,0,0-33.77"/></g></g></svg>