<svg xmlns="http://www.w3.org/2000/svg" viewBox="0 0 115.44 115.39"><defs><style>.cls-1{fill:#4b4846;}</style></defs><title>Recurso 25</title><g id="Capa_2" data-name="Capa 2"><g id="Layer_1" data-name="Layer 1"><path class="cls-1" d="M113.18,50.75h0A16.84,16.84,0,0,0,98,42.32H68a15,15,0,0,0,0,30H77.4a22.58,22.58,0,0,1-6.82,6.08,25,25,0,0,1-18.65,2.38A23.9,23.9,0,1,1,68.84,36.42,16.88,16.88,0,1,0,84.59,6.55,59,59,0,0,0,57.08,0a57.72,57.72,0,1,0,50.25,87,59.18,59.18,0,0,0,8.1-27.15,16.87,16.87,0,0,0-2.25-9.13"/></g></g></svg>