<svg xmlns="http://www.w3.org/2000/svg" width="229.872" height="22.405" viewBox="0 0 229.872 22.405"><defs><style>.a{fill:#3b3836;}.b{fill:#004d9c;}</style></defs><g transform="translate(-69.936 -92.47)"><path class="a" d="M565.385,366.268v-.054a5.93,5.93,0,0,0-2.177-4.576,9.527,9.527,0,0,0-4.687-1.962c-1.547-.191-3.115-.073-3.115-1.284,0-.509.626-.984,1.42-.984,1.061,0,1.9.578,3.194,1.326a3,3,0,0,0,4.544-2.642,3.025,3.025,0,0,0-1.453-2.558,11.584,11.584,0,0,0-6.433-1.728c-4.433.073-7.483,2.907-7.419,6.895v.054c0,4.124,3.055,5.744,6.938,6.311,2.878.42,3.018,1.071,3.018,1.56,0,.289-.431.941-1.656.986a7.723,7.723,0,0,1-3.964-1.561,3.077,3.077,0,0,0-3.937.342,2.927,2.927,0,0,0-.84,2.157,3.068,3.068,0,0,0,1.256,2.438,12.835,12.835,0,0,0,7.378,2.344l.2,0a8.557,8.557,0,0,0,5.53-1.859,6.474,6.474,0,0,0,2.2-5.2" transform="translate(-265.578 -259.31)"/><path class="a" d="M565.385,366.268v-.054a5.93,5.93,0,0,0-2.177-4.576,9.527,9.527,0,0,0-4.687-1.962c-1.547-.191-3.115-.073-3.115-1.284,0-.509.626-.984,1.42-.984,1.061,0,1.9.578,3.194,1.326a3,3,0,0,0,4.544-2.642,3.025,3.025,0,0,0-1.453-2.558,11.584,11.584,0,0,0-6.433-1.728c-4.433.073-7.483,2.907-7.419,6.895v.054c0,4.124,3.055,5.744,6.938,6.311,2.878.42,3.018,1.071,3.018,1.56,0,.289-.431.941-1.656.986a7.723,7.723,0,0,1-3.964-1.561,3.077,3.077,0,0,0-3.937.342,2.927,2.927,0,0,0-.84,2.157,3.068,3.068,0,0,0,1.256,2.438,12.835,12.835,0,0,0,7.378,2.344l.2,0a8.557,8.557,0,0,0,5.53-1.859,6.474,6.474,0,0,0,2.2-5.2" transform="translate(-265.578 -259.31)"/><path class="a" d="M565.385,366.268v-.054a5.93,5.93,0,0,0-2.177-4.576,9.527,9.527,0,0,0-4.687-1.962c-1.547-.191-3.115-.073-3.115-1.284,0-.509.626-.984,1.42-.984,1.061,0,1.9.578,3.194,1.326a3,3,0,0,0,4.544-2.642,3.025,3.025,0,0,0-1.453-2.558,11.584,11.584,0,0,0-6.433-1.728c-4.433.073-7.483,2.907-7.419,6.895v.054c0,4.124,3.055,5.744,6.938,6.311,2.878.42,3.018,1.071,3.018,1.56,0,.289-.431.941-1.656.986a7.723,7.723,0,0,1-3.964-1.561,3.077,3.077,0,0,0-3.937.342,2.927,2.927,0,0,0-.84,2.157,3.068,3.068,0,0,0,1.256,2.438,12.835,12.835,0,0,0,7.378,2.344l.2,0a8.557,8.557,0,0,0,5.53-1.859,6.474,6.474,0,0,0,2.2-5.2" transform="translate(-265.578 -259.31)"/><path class="a" d="M526.634,351.768a10.788,10.788,0,1,0,10.788,10.788,10.8,10.8,0,0,0-10.788-10.788m4.474,10.788a4.475,4.475,0,1,1-4.474-4.476,4.481,4.481,0,0,1,4.474,4.476" transform="translate(-254.792 -259.298)"/><path class="a" d="M526.634,351.768a10.788,10.788,0,1,0,10.788,10.788,10.8,10.8,0,0,0-10.788-10.788m4.474,10.788a4.475,4.475,0,1,1-4.474-4.476,4.481,4.481,0,0,1,4.474,4.476" transform="translate(-254.792 -259.298)"/><path class="a" d="M526.634,351.768a10.788,10.788,0,1,0,10.788,10.788,10.8,10.8,0,0,0-10.788-10.788m4.474,10.788a4.475,4.475,0,1,1-4.474-4.476,4.481,4.481,0,0,1,4.474,4.476" transform="translate(-254.792 -259.298)"/><path class="a" d="M390.207,363.464a3.032,3.032,0,0,0-2.591,1.476,4.592,4.592,0,0,1-3.87,2.092,4.476,4.476,0,1,1,3.779-6.875,3.156,3.156,0,1,0,5.342-3.363,11.033,11.033,0,0,0-3.843-3.631,10.789,10.789,0,1,0,0,18.783,11.064,11.064,0,0,0,3.847-3.638,3.156,3.156,0,0,0-2.667-4.843" transform="translate(-208.046 -259.298)"/><path class="a" d="M390.207,363.464a3.032,3.032,0,0,0-2.591,1.476,4.592,4.592,0,0,1-3.87,2.092,4.476,4.476,0,1,1,3.779-6.875,3.156,3.156,0,1,0,5.342-3.363,11.033,11.033,0,0,0-3.843-3.631,10.789,10.789,0,1,0,0,18.783,11.064,11.064,0,0,0,3.847-3.638,3.156,3.156,0,0,0-2.667-4.843" transform="translate(-208.046 -259.298)"/><path class="a" d="M390.207,363.464a3.032,3.032,0,0,0-2.591,1.476,4.592,4.592,0,0,1-3.87,2.092,4.476,4.476,0,1,1,3.779-6.875,3.156,3.156,0,1,0,5.342-3.363,11.033,11.033,0,0,0-3.843-3.631,10.789,10.789,0,1,0,0,18.783,11.064,11.064,0,0,0,3.847-3.638,3.156,3.156,0,0,0-2.667-4.843" transform="translate(-208.046 -259.298)"/><path class="a" d="M421.656,351.782a3.16,3.16,0,0,0-3.156,3.156v9.215a2.875,2.875,0,0,1-5.75,0v-9.215a3.156,3.156,0,0,0-6.312,0v9.215a9.186,9.186,0,0,0,18.373,0v-9.215a3.159,3.159,0,0,0-3.156-3.156" transform="translate(-219 -259.302)"/><path class="a" d="M421.656,351.782a3.16,3.16,0,0,0-3.156,3.156v9.215a2.875,2.875,0,0,1-5.75,0v-9.215a3.156,3.156,0,0,0-6.312,0v9.215a9.186,9.186,0,0,0,18.373,0v-9.215a3.159,3.159,0,0,0-3.156-3.156" transform="translate(-219 -259.302)"/><path class="a" d="M421.656,351.782a3.16,3.16,0,0,0-3.156,3.156v9.215a2.875,2.875,0,0,1-5.75,0v-9.215a3.156,3.156,0,0,0-6.312,0v9.215a9.186,9.186,0,0,0,18.373,0v-9.215a3.159,3.159,0,0,0-3.156-3.156" transform="translate(-219 -259.302)"/><path class="a" d="M495.443,352.286h-3.481a3.171,3.171,0,0,0-3.167,3.167V370a3.17,3.17,0,0,0,3.167,3.166h3.481a10.439,10.439,0,0,0,0-20.878m-.315,6.334h.315a4.1,4.1,0,1,1,0,8.2h-.315Z" transform="translate(-245.942 -259.467)"/><path class="a" d="M495.443,352.286h-3.481a3.171,3.171,0,0,0-3.167,3.167V370a3.17,3.17,0,0,0,3.167,3.166h3.481a10.439,10.439,0,0,0,0-20.878m-.315,6.334h.315a4.1,4.1,0,1,1,0,8.2h-.315Z" transform="translate(-245.942 -259.467)"/><path class="a" d="M495.443,352.286h-3.481a3.171,3.171,0,0,0-3.167,3.167V370a3.17,3.17,0,0,0,3.167,3.166h3.481a10.439,10.439,0,0,0,0-20.878m-.315,6.334h.315a4.1,4.1,0,1,1,0,8.2h-.315Z" transform="translate(-245.942 -259.467)"/><path class="a" d="M449.7,366.846h-6.017v-1.312h4.9a2.8,2.8,0,0,0,0-5.6h-4.9v-1.315H449.7a3.156,3.156,0,0,0,0-6.311h-9.172a3.158,3.158,0,0,0-3.156,3.156h0V370a3.158,3.158,0,0,0,3.156,3.156H449.7a3.156,3.156,0,0,0,0-6.312" transform="translate(-229.118 -259.472)"/><path class="a" d="M449.7,366.846h-6.017v-1.312h4.9a2.8,2.8,0,0,0,0-5.6h-4.9v-1.315H449.7a3.156,3.156,0,0,0,0-6.311h-9.172a3.158,3.158,0,0,0-3.156,3.156h0V370a3.158,3.158,0,0,0,3.156,3.156H449.7a3.156,3.156,0,0,0,0-6.312" transform="translate(-229.118 -259.472)"/><path class="a" d="M449.7,366.846h-6.017v-1.312h4.9a2.8,2.8,0,0,0,0-5.6h-4.9v-1.315H449.7a3.156,3.156,0,0,0,0-6.311h-9.172a3.158,3.158,0,0,0-3.156,3.156h0V370a3.158,3.158,0,0,0,3.156,3.156H449.7a3.156,3.156,0,0,0,0-6.312" transform="translate(-229.118 -259.472)"/><path class="a" d="M361.564,366.846h-6.017v-1.312h4.9a2.8,2.8,0,0,0,0-5.6h-4.9v-1.315h6.017a3.156,3.156,0,0,0,0-6.311h-9.172a3.159,3.159,0,0,0-3.156,3.156h0V370a3.159,3.159,0,0,0,3.156,3.156h9.172a3.156,3.156,0,0,0,0-6.312" transform="translate(-200.286 -259.472)"/><path class="a" d="M361.564,366.846h-6.017v-1.312h4.9a2.8,2.8,0,0,0,0-5.6h-4.9v-1.315h6.017a3.156,3.156,0,0,0,0-6.311h-9.172a3.159,3.159,0,0,0-3.156,3.156h0V370a3.159,3.159,0,0,0,3.156,3.156h9.172a3.156,3.156,0,0,0,0-6.312" transform="translate(-200.286 -259.472)"/><path class="a" d="M361.564,366.846h-6.017v-1.312h4.9a2.8,2.8,0,0,0,0-5.6h-4.9v-1.315h6.017a3.156,3.156,0,0,0,0-6.311h-9.172a3.159,3.159,0,0,0-3.156,3.156h0V370a3.159,3.159,0,0,0,3.156,3.156h9.172a3.156,3.156,0,0,0,0-6.312" transform="translate(-200.286 -259.472)"/><path class="a" d="M474.862,364.558a6.481,6.481,0,0,0,3.605-5.762,6.574,6.574,0,0,0-6.029-6.461,3.1,3.1,0,0,0-.464-.034h-6.068a3.158,3.158,0,0,0-3.156,3.156h0V370a3.156,3.156,0,1,0,6.311,0v-2.539l3.832,4.567a3.156,3.156,0,0,0,4.836-4.057Zm-3.561-4.387h-2.24V358.61h2.24a.781.781,0,1,1,0,1.562" transform="translate(-237.422 -259.472)"/><path class="a" d="M474.862,364.558a6.481,6.481,0,0,0,3.605-5.762,6.574,6.574,0,0,0-6.029-6.461,3.1,3.1,0,0,0-.464-.034h-6.068a3.158,3.158,0,0,0-3.156,3.156h0V370a3.156,3.156,0,1,0,6.311,0v-2.539l3.832,4.567a3.156,3.156,0,0,0,4.836-4.057Zm-3.561-4.387h-2.24V358.61h2.24a.781.781,0,1,1,0,1.562" transform="translate(-237.422 -259.472)"/><path class="a" d="M474.862,364.558a6.481,6.481,0,0,0,3.605-5.762,6.574,6.574,0,0,0-6.029-6.461,3.1,3.1,0,0,0-.464-.034h-6.068a3.158,3.158,0,0,0-3.156,3.156h0V370a3.156,3.156,0,1,0,6.311,0v-2.539l3.832,4.567a3.156,3.156,0,0,0,4.836-4.057Zm-3.561-4.387h-2.24V358.61h2.24a.781.781,0,1,1,0,1.562" transform="translate(-237.422 -259.472)"/><path class="a" d="M335.41,364.558a6.479,6.479,0,0,0,3.606-5.762,6.574,6.574,0,0,0-6.029-6.461,3.107,3.107,0,0,0-.464-.034h-6.068a3.159,3.159,0,0,0-3.156,3.156h0V370a3.156,3.156,0,0,0,6.312,0v-2.539l3.833,4.567a3.156,3.156,0,0,0,4.835-4.057Zm-3.559-4.387H329.61V358.61h2.241a.781.781,0,0,1,0,1.562" transform="translate(-191.8 -259.472)"/><path class="a" d="M335.41,364.558a6.479,6.479,0,0,0,3.606-5.762,6.574,6.574,0,0,0-6.029-6.461,3.107,3.107,0,0,0-.464-.034h-6.068a3.159,3.159,0,0,0-3.156,3.156h0V370a3.156,3.156,0,0,0,6.312,0v-2.539l3.833,4.567a3.156,3.156,0,0,0,4.835-4.057Zm-3.559-4.387H329.61V358.61h2.241a.781.781,0,0,1,0,1.562" transform="translate(-191.8 -259.472)"/><path class="a" d="M335.41,364.558a6.479,6.479,0,0,0,3.606-5.762,6.574,6.574,0,0,0-6.029-6.461,3.107,3.107,0,0,0-.464-.034h-6.068a3.159,3.159,0,0,0-3.156,3.156h0V370a3.156,3.156,0,0,0,6.312,0v-2.539l3.833,4.567a3.156,3.156,0,0,0,4.835-4.057Zm-3.559-4.387H329.61V358.61h2.241a.781.781,0,0,1,0,1.562" transform="translate(-191.8 -259.472)"/><g transform="translate(-110 -140)"><g transform="translate(0 -287)"><path class="b" d="M213.482,636.863H202.7a3.157,3.157,0,0,0,0,6.314h2.234v11.671a3.157,3.157,0,1,0,6.314,0V643.177h2.234a3.157,3.157,0,0,0,0-6.314" transform="translate(-19.607 -116.342)"/><path class="b" d="M159.15,636.548a3.16,3.16,0,0,0-3.157,3.157v9.219a2.876,2.876,0,1,1-5.752,0v-9.219a3.158,3.158,0,0,0-6.316,0v9.219a9.191,9.191,0,0,0,18.382,0v-9.219a3.161,3.161,0,0,0-3.157-3.157" transform="translate(54.589 -116.239)"/><path class="b" d="M269.967,651.041l0-.054a5.933,5.933,0,0,0-2.178-4.578,9.516,9.516,0,0,0-4.689-1.963c-1.548-.191-3.115-.073-3.115-1.285,0-.509.626-.984,1.421-.984,1.062,0,1.9.579,3.194,1.327a3,3,0,0,0,4.548-2.644,3.03,3.03,0,0,0-1.456-2.559,11.6,11.6,0,0,0-6.436-1.729c-4.434.073-7.486,2.909-7.422,6.9v.054c0,4.126,3.056,5.747,6.939,6.313,2.879.42,3.019,1.072,3.019,1.561,0,.289-.431.941-1.657.986a7.722,7.722,0,0,1-3.964-1.562,3.082,3.082,0,0,0-3.941.342,2.936,2.936,0,0,0-.84,2.158,3.072,3.072,0,0,0,1.259,2.438,12.831,12.831,0,0,0,7.38,2.345l.2,0a8.553,8.553,0,0,0,5.531-1.86,6.474,6.474,0,0,0,2.2-5.2" transform="translate(-35.223 -116.247)"/></g></g></g></svg>