<svg xmlns="http://www.w3.org/2000/svg" width="226.795" height="116.533" viewBox="0 0 226.795 116.533"><defs><style>.a{fill:#de72c6;}.b{fill:#ff392f;}.c{fill:#ffa300;}.d{fill:#009949;}.e{fill:#004d9c;}.f{fill:#3b3836;}</style></defs><g transform="translate(-73.631 -4405.419)"><g transform="translate(155.181 4409.278)"><path class="a" d="M337.579,556.79a6.486,6.486,0,0,0-6.479,6.479v31.3a6.479,6.479,0,0,0,12.958,0v-31.3A6.486,6.486,0,0,0,337.579,556.79Z" transform="translate(-281.127 -554.075)"/><path class="b" d="M308.664,593.437l-5.515-31.34a6.477,6.477,0,0,0-12.467-1.088l-5.351,14.664-5.352-14.664a6.476,6.476,0,0,0-12.466,1.088L262,593.437a6.479,6.479,0,1,0,12.761,2.25l1.328-7.545,3.152,8.636.01,0a6.475,6.475,0,0,0,12.173,0l3.153-8.636,1.328,7.545a6.479,6.479,0,1,0,12.761-2.25Z" transform="translate(-261.899 -554.061)"/><circle class="c" cx="6.479" cy="6.479" r="6.479" transform="translate(63.508 9.163) rotate(-45)"/><path class="d" d="M442.035,556.79a6.486,6.486,0,0,0-6.479,6.479v18.917a5.9,5.9,0,1,1-11.8,0V563.269a6.479,6.479,0,1,0-12.958,0v18.917a18.86,18.86,0,1,0,37.721,0V563.269A6.486,6.486,0,0,0,442.035,556.79Z" transform="translate(-303.27 -554.075)"/><path class="e" d="M384.8,556.79a6.486,6.486,0,0,0-6.479,6.479v18.917a5.9,5.9,0,1,1-11.8,0,6.479,6.479,0,0,0-12.958,0,18.86,18.86,0,1,0,37.721,0V563.269A6.486,6.486,0,0,0,384.8,556.79Z" transform="translate(-287.367 -554.075)"/></g><path class="f" d="M273.557,641.214l-1.14-6.479a1.339,1.339,0,0,0-2.578-.225l-1.106,3.032-1.106-3.032a1.339,1.339,0,0,0-2.577.225l-1.14,6.479a1.339,1.339,0,0,0,2.638.466l.275-1.561.651,1.786h0a1.339,1.339,0,0,0,2.517,0l.652-1.786.274,1.561a1.339,1.339,0,0,0,2.638-.466Z" transform="translate(-107.271 3833.854)"/><path class="f" d="M297.025,639.782v-.022a2.514,2.514,0,0,0-.924-1.943,4.043,4.043,0,0,0-1.989-.833c-.657-.081-1.322-.03-1.322-.545,0-.215.266-.417.6-.417a2.819,2.819,0,0,1,1.355.563,1.273,1.273,0,0,0,1.93-1.122,1.284,1.284,0,0,0-.617-1.086,4.923,4.923,0,0,0-2.73-.733,2.916,2.916,0,0,0-3.149,2.926v.023c0,1.75,1.3,2.438,2.944,2.678,1.222.178,1.281.455,1.281.662,0,.123-.183.4-.7.419a3.272,3.272,0,0,1-1.683-.663,1.307,1.307,0,0,0-1.671.146,1.242,1.242,0,0,0-.357.915,1.3,1.3,0,0,0,.534,1.035,5.442,5.442,0,0,0,3.131.994h.087a3.632,3.632,0,0,0,2.347-.789A2.751,2.751,0,0,0,297.025,639.782Z" transform="translate(-114.524 3833.85)"/><path class="f" d="M290.242,672.861h-2.554v-5.015a1.34,1.34,0,1,0-2.679,0V674.2a1.341,1.341,0,0,0,1.34,1.34h3.893a1.34,1.34,0,1,0,0-2.679Z" transform="translate(-113.139 3824.719)"/><path class="f" d="M286.6,650.229h-4.575a1.34,1.34,0,0,0,0,2.679h.948v4.952a1.339,1.339,0,1,0,2.678,0v-4.952h.948a1.34,1.34,0,0,0,0-2.679Z" transform="translate(-111.938 3829.241)"/><path class="f" d="M340.865,650.229h-4.575a1.34,1.34,0,1,0,0,2.679h.947v4.952a1.34,1.34,0,0,0,2.679,0v-4.952h.948a1.34,1.34,0,1,0,0-2.679Z" transform="translate(-127.016 3829.241)"/><path class="f" d="M319.326,657.457l-2.257-6.2,0-.006a1.775,1.775,0,0,0-3.32,0l-2.259,6.206a1.339,1.339,0,1,0,2.517.916l.278-.764h2.247l.278.764a1.339,1.339,0,1,0,2.517-.916Zm-4.266-2.305.347-1.221.347,1.221Z" transform="translate(-120.474 3829.276)"/><path class="f" d="M357.445,650.185a1.341,1.341,0,0,0-1.717.8l-1.4,3.85-1.4-3.85a1.339,1.339,0,1,0-2.517.916l2.257,6.2,0,.005a1.774,1.774,0,0,0,3.319,0l2.26-6.206A1.341,1.341,0,0,0,357.445,650.185Z" transform="translate(-131.288 3829.276)"/><path class="f" d="M365.984,650.1a4.579,4.579,0,1,0,4.579,4.579A4.584,4.584,0,0,0,365.984,650.1Zm1.9,4.579a1.9,1.9,0,1,1-1.9-1.9A1.9,1.9,0,0,1,367.884,654.678Z" transform="translate(-134.366 3829.277)"/><path class="f" d="M314.827,633.628a4.579,4.579,0,1,0,4.579,4.579A4.585,4.585,0,0,0,314.827,633.628Zm1.9,4.579a1.9,1.9,0,1,1-1.9-1.9A1.9,1.9,0,0,1,316.727,638.207Z" transform="translate(-120.152 3833.854)"/><path class="f" d="M329.807,655.064a1.285,1.285,0,0,0-1.1.627,1.949,1.949,0,0,1-1.643.888,1.9,1.9,0,1,1,1.6-2.918,1.34,1.34,0,1,0,2.268-1.428,4.672,4.672,0,0,0-1.631-1.541,4.58,4.58,0,1,0,0,7.972,4.694,4.694,0,0,0,1.633-1.545,1.339,1.339,0,0,0-1.132-2.055Z" transform="translate(-123.552 3829.277)"/><path class="f" d="M284.709,633.634a1.341,1.341,0,0,0-1.34,1.34v3.911a1.22,1.22,0,0,1-2.441,0v-3.911a1.34,1.34,0,1,0-2.679,0v3.911a3.9,3.9,0,0,0,7.8,0v-3.911A1.341,1.341,0,0,0,284.709,633.634Z" transform="translate(-111.261 3833.852)"/><path class="f" d="M266.711,666.625h-1.478a1.346,1.346,0,0,0-1.345,1.344v6.174a1.346,1.346,0,0,0,1.345,1.345h1.478a4.431,4.431,0,0,0,0-8.862Zm-.134,2.689h.134a1.741,1.741,0,1,1,0,3.482h-.134Z" transform="translate(-107.27 3824.686)"/><path class="f" d="M280.107,672.8h-2.554v-.557h2.082a1.19,1.19,0,0,0,0-2.379h-2.082v-.558h2.554a1.34,1.34,0,1,0,0-2.679h-3.894a1.341,1.341,0,0,0-1.34,1.34h0v6.174a1.342,1.342,0,0,0,1.34,1.34h3.894a1.34,1.34,0,1,0,0-2.679Z" transform="translate(-110.323 3824.684)"/><path class="f" d="M296.672,656.484h-2.554v-.557H296.2a1.19,1.19,0,0,0,0-2.379h-2.082v-.558h2.554a1.34,1.34,0,1,0,0-2.679h-3.894a1.341,1.341,0,0,0-1.339,1.34h0v6.174a1.341,1.341,0,0,0,1.339,1.34h3.894a1.34,1.34,0,1,0,0-2.679Z" transform="translate(-114.926 3829.219)"/><path class="f" d="M305.908,640.013h-2.553v-.557h2.081a1.19,1.19,0,1,0,0-2.379h-2.081v-.558h2.553a1.34,1.34,0,1,0,0-2.679h-3.893a1.341,1.341,0,0,0-1.34,1.34h0v6.174a1.341,1.341,0,0,0,1.34,1.34h3.893a1.34,1.34,0,1,0,0-2.679Z" transform="translate(-117.492 3833.795)"/><path class="f" d="M265.7,650.185a1.341,1.341,0,0,0-1.34,1.34v6.355a1.34,1.34,0,0,0,2.679,0v-6.355A1.341,1.341,0,0,0,265.7,650.185Z" transform="translate(-107.401 3829.254)"/><path class="f" d="M347.279,650.185a1.341,1.341,0,0,0-1.34,1.34v6.355a1.34,1.34,0,0,0,2.679,0v-6.355A1.341,1.341,0,0,0,347.279,650.185Z" transform="translate(-130.069 3829.254)"/><path class="f" d="M275.724,650.1a1.341,1.341,0,0,0-1.34,1.34v2.746l-2.507-3.578a1.183,1.183,0,0,0-1-.506h-.051a1.341,1.341,0,0,0-1.34,1.34v6.471a1.34,1.34,0,1,0,2.679,0v-2.746l2.46,3.512.007.009a1.34,1.34,0,0,0,2.432-.775v-6.471A1.341,1.341,0,0,0,275.724,650.1Z" transform="translate(-108.825 3829.276)"/><path class="f" d="M364.576,666.55H360a1.34,1.34,0,1,0,0,2.679h.948v4.952a1.34,1.34,0,1,0,2.679,0v-4.952h.947a1.34,1.34,0,1,0,0-2.679Z" transform="translate(-133.604 3824.707)"/><path class="f" d="M343.426,666.425a1.341,1.341,0,0,0-1.34,1.34v3.912a1.22,1.22,0,0,1-2.441,0v-3.912a1.34,1.34,0,1,0-2.679,0v3.912a3.9,3.9,0,0,0,7.8,0v-3.912A1.341,1.341,0,0,0,343.426,666.425Z" transform="translate(-127.575 3824.741)"/><path class="f" d="M318.057,666.425a1.341,1.341,0,0,0-1.34,1.34v3.912a1.22,1.22,0,0,1-2.44,0v-3.912a1.34,1.34,0,1,0-2.679,0v3.912a3.9,3.9,0,0,0,7.8,0v-3.912A1.341,1.341,0,0,0,318.057,666.425Z" transform="translate(-120.527 3824.741)"/><path class="f" d="M305.843,666.425a1.341,1.341,0,0,0-1.34,1.34v3.912a1.22,1.22,0,0,1-2.441,0,1.34,1.34,0,1,0-2.679,0,3.9,3.9,0,0,0,7.8,0v-3.912A1.341,1.341,0,0,0,305.843,666.425Z" transform="translate(-117.133 3824.741)"/><path class="f" d="M354.322,672.8h-2.554v-.557h2.082a1.19,1.19,0,0,0,0-2.379h-2.082v-.558h2.554a1.34,1.34,0,1,0,0-2.679h-3.894a1.341,1.341,0,0,0-1.34,1.34h0v6.174a1.342,1.342,0,0,0,1.34,1.34h3.894a1.34,1.34,0,1,0,0-2.679Z" transform="translate(-130.944 3824.684)"/><path class="f" d="M374.412,672.8h-2.554v-.557h2.081a1.19,1.19,0,0,0,0-2.379h-2.081v-.558h2.554a1.34,1.34,0,0,0,0-2.679h-3.893a1.341,1.341,0,0,0-1.34,1.34h0v6.174a1.341,1.341,0,0,0,1.34,1.34h3.893a1.34,1.34,0,0,0,0-2.679Z" transform="translate(-136.526 3824.684)"/><path class="f" d="M332.319,670.449h0a1.337,1.337,0,0,0-1.2-.669h-2.386a1.19,1.19,0,0,0,0,2.38h.749a1.792,1.792,0,0,1-.542.482,1.983,1.983,0,0,1-1.479.189,1.9,1.9,0,1,1,1.341-3.518,1.34,1.34,0,1,0,1.25-2.37,4.681,4.681,0,0,0-2.183-.519,4.58,4.58,0,1,0,3.987,6.9,4.69,4.69,0,0,0,.642-2.154A1.331,1.331,0,0,0,332.319,670.449Z" transform="translate(-123.79 3824.742)"/><path class="f" d="M306.691,655.512a2.75,2.75,0,0,0,1.531-2.445,2.791,2.791,0,0,0-2.56-2.743,1.343,1.343,0,0,0-.2-.014H302.89a1.341,1.341,0,0,0-1.34,1.339h0v6.174a1.34,1.34,0,1,0,2.679,0v-1.077l1.627,1.938a1.339,1.339,0,1,0,2.052-1.722Zm-1.511-1.862h-.951v-.663h.951a.331.331,0,1,1,0,.663Z" transform="translate(-117.735 3829.219)"/><g transform="translate(218.147 4506.64)"><path class="f" d="M358.126,689.969h-.851V688.3a.447.447,0,0,0-.893,0v2.117a.448.448,0,0,0,.447.447h1.3a.447.447,0,1,0,0-.893Z" transform="translate(-351.118 -687.852)"/><path class="f" d="M350.033,687.891h-.492a.449.449,0,0,0-.448.448V690.4a.449.449,0,0,0,.448.448h.492a1.477,1.477,0,0,0,0-2.954Zm-.045.9h.045a.58.58,0,0,1,0,1.16h-.045Z" transform="translate(-349.092 -687.863)"/><path class="f" d="M354.6,689.95h-.851v-.186h.693a.4.4,0,1,0,0-.793h-.693v-.186h.851a.447.447,0,0,0,0-.893h-1.3a.448.448,0,0,0-.447.447h0V690.4a.447.447,0,0,0,.447.446h1.3a.447.447,0,0,0,0-.893Z" transform="translate(-350.138 -687.863)"/></g><path class="f" d="M371,683.071l-1.173.278q-.211.051-.418.116t-.417.115q-.257.061-.525.132t-.518.162a.142.142,0,0,1-.056.03,4.98,4.98,0,0,0-.8.228c-.257.1-1.273.477-1.54.562q-.426.148-.842.334t-.825.41c-.1.056-.2.114-.292.173l-.29.188a.248.248,0,0,1-.341-.031.975.975,0,0,1-.118-.162.235.235,0,0,1,.079-.337c.129-.083.263-.163.4-.239l.422-.227c.38-.185,1.522-.644,1.919-.8q.7-.261,1.428-.482.248-.091.507-.176c.171-.057.342-.11.51-.161.138-.043.282-.082.433-.118l.451-.107q.569-.151,1.127-.275t1.127-.275l1.031-.245a7.539,7.539,0,0,1,1.049-.169,2.247,2.247,0,0,1,.251-.012l.256,0a.835.835,0,0,1,.157.058.171.171,0,0,1,.092.153.142.142,0,0,1-.1.136,1.7,1.7,0,0,1-.2.1.764.764,0,0,1-.211.05q-.455.092-.908.191c-.3.066-.607.147-.912.24l-.752.178Zm-2.559,1a.3.3,0,0,1,.25-.02,1.524,1.524,0,0,1,.2.1.274.274,0,0,1,.143.269.545.545,0,0,1,.021.154c-.007.15-.012.295-.017.433a4.017,4.017,0,0,1-.035.422c-.033.3-.085.624-.154.958q-.055.236-.113.464t-.113.464a2.555,2.555,0,0,0-.077.28c-.02.095-.044.194-.073.3q-.129.46-.259.92t-.274.923c-.027.112-.056.225-.087.339s-.06.226-.087.338a2.61,2.61,0,0,1-.092.348q-.056.165-.111.336-.121.427-.246.838c-.083.274-.16.557-.227.849a4.176,4.176,0,0,0-.111,1.409.225.225,0,0,1-.066.222.228.228,0,0,1-.225.022.8.8,0,0,1-.256-.178.409.409,0,0,1-.094-.3,7.523,7.523,0,0,1,.038-.812,4.355,4.355,0,0,1,.155-.792c.091-.329.184-.65.279-.964s.2-.627.3-.938q.082-.258.155-.521t.136-.533q.118-.441.234-.858t.233-.858q.153-.5.272-1t.2-1.017q.065-.4.115-.79a2.833,2.833,0,0,0-.017-.807" transform="translate(-134.756 3820.419)"/><path class="f" d="M372.611,691.993a.5.5,0,0,1,.01.212.742.742,0,0,1-.06.181l-.279.535a2.757,2.757,0,0,1-.334.5.643.643,0,0,1-.689.243.949.949,0,0,1-.345-.18.705.705,0,0,1-.207-.34.636.636,0,0,1-.022-.329c.021-.111.045-.222.072-.335a5.084,5.084,0,0,1,.16-.531q.1-.295.175-.534a.214.214,0,0,1,.25-.155.386.386,0,0,1,.069-.008.325.325,0,0,0,.069-.009.239.239,0,0,0,.1.009.283.283,0,0,1,.1.3,1.918,1.918,0,0,1-.092.316q-.066.191-.13.389a2.641,2.641,0,0,0-.1.4.819.819,0,0,0,.043.514.373.373,0,0,0,.136-.1q.107-.152.21-.288t.195-.284l.144-.193.145-.194a.3.3,0,0,1,.128-.062.335.335,0,0,1,.119-.036,1.176,1.176,0,0,0,.137-.025m-.438-2.933a2.01,2.01,0,0,1,.066.22c.018.077-.1.4-.084.482-.026.09-.049.176-.072.258a1.5,1.5,0,0,1-.094.25,1.117,1.117,0,0,1-.258.338q-.155.137-.238.046c-.038-.014-.06-.083-.066-.205.01-.1.02-.183.027-.26s.02-.162.038-.256a.84.84,0,0,1,.088-.252c.041-.074.227-.388.275-.47s.106-.11.174-.084c.022-.012.046-.023.072-.034a.588.588,0,0,0,.071-.033" transform="translate(-136.941 3818.452)"/><path class="f" d="M375.451,691.135a1.137,1.137,0,0,1-.014.607,2.547,2.547,0,0,1-.232.563,2.438,2.438,0,0,1-.363.484,5.123,5.123,0,0,1-.357.37,2.205,2.205,0,0,1-.42.306,1.389,1.389,0,0,1-.146.09,1.8,1.8,0,0,1-.164.079.891.891,0,0,1-.251.083.537.537,0,0,1-.275-.022l-.146-.013-.241-.212a.6.6,0,0,1-.195-.352,2.733,2.733,0,0,1-.006-.427,1.026,1.026,0,0,1,.137-.43q.2-.3.382-.6a5.7,5.7,0,0,1,.405-.573c.015-.025.033-.05.053-.077a.188.188,0,0,0,.039-.072.305.305,0,0,1,.092-.181c.048-.043.1-.087.152-.131a.148.148,0,0,1,.064-.031.1.1,0,0,0,.061-.046.369.369,0,0,1,.149-.139q.093-.046.206-.1a.81.81,0,0,1,.376-.09.586.586,0,0,1,.3.056.367.367,0,0,1,.218.251l.1.278Zm-.534-.112a.429.429,0,0,0-.049-.171.333.333,0,0,0-.15-.131.7.7,0,0,0-.321.187,4.685,4.685,0,0,0-.536.588,5.372,5.372,0,0,0-.435.676,1.663,1.663,0,0,0-.11.272c-.03.1-.056.191-.077.28a1.558,1.558,0,0,0-.022.244.392.392,0,0,0,.091.248.65.65,0,0,0,.218-.084l.326-.236a2.609,2.609,0,0,0,.822-.958l.046-.074.046-.074a.557.557,0,0,0,.16-.364,3.6,3.6,0,0,0-.008-.4" transform="translate(-137.486 3818.13)"/><path class="f" d="M386.919,679.369l-1.174.278c-.14.033-.279.072-.417.116s-.277.082-.418.115q-.256.061-.524.132c-.18.048-.352.1-.518.162a.138.138,0,0,1-.057.03,4.972,4.972,0,0,0-.8.228q-.387.147-.786.274-.426.149-.842.335t-.825.41c-.1.056-.2.114-.292.173l-.29.188a.248.248,0,0,1-.341-.03,1.038,1.038,0,0,1-.118-.163.234.234,0,0,1,.079-.336c.129-.084.264-.163.4-.239l.422-.227q.57-.278,1.166-.515.7-.261,1.428-.482.248-.091.506-.175t.511-.161q.207-.065.433-.118l.451-.107q.569-.151,1.127-.275t1.127-.275l1.03-.245a7.54,7.54,0,0,1,1.049-.169c.082-.009-.22.007-.135.008l.256,0a.844.844,0,0,1,.157.058.171.171,0,0,1,.092.153.142.142,0,0,1-.1.136,1.572,1.572,0,0,1-.2.095.762.762,0,0,1-.211.051c-.3.061-.22.1-.522.171s-.607.147-.913.24l-.752.178Zm-2.559,1a.3.3,0,0,1,.25-.02,1.524,1.524,0,0,1,.2.1.274.274,0,0,1,.143.268.583.583,0,0,1,.021.154q-.011.225-.017.433a4.025,4.025,0,0,1-.035.422q-.051.457-.154.958-.056.236-.113.464t-.113.464a2.527,2.527,0,0,0-.077.28c-.02.095-.044.194-.073.3l-.258.919q-.13.46-.274.924c-.027.112-.056.225-.087.338s-.061.227-.087.339a2.713,2.713,0,0,1-.092.347c-.038.11-.074.222-.111.336q-.121.427-.246.837t-.228.849a4.172,4.172,0,0,0-.11,1.409.226.226,0,0,1-.066.223.229.229,0,0,1-.225.022.8.8,0,0,1-.257-.178.415.415,0,0,1-.094-.3,7.521,7.521,0,0,1,.038-.812,4.414,4.414,0,0,1,.154-.792q.138-.494.28-.965t.3-.937q.082-.258.155-.521c.048-.176.094-.353.136-.533q.118-.441.234-.858t.233-.858q.152-.5.271-1t.2-1.018c.043-.265.082-.528.115-.79a2.832,2.832,0,0,0-.017-.807" transform="translate(-139.388 3821.445)"/><path class="f" d="M386.842,689.08a2.042,2.042,0,0,0-.176.868.206.206,0,0,0,.262.033c.156-.058.308-.121.456-.188a4.461,4.461,0,0,0,.446-.233q.347-.209.693-.395t.693-.4a.579.579,0,0,1,.316-.074.521.521,0,0,1,.021.154.308.308,0,0,1-.074.192.633.633,0,0,1-.152.131c-.088.074-.178.143-.269.206s-.183.124-.276.177l-.289.156-.289.156a1.9,1.9,0,0,0-.229.141,1.793,1.793,0,0,1-.228.142,3.777,3.777,0,0,1-.43.2,1.769,1.769,0,0,1-.451.107.615.615,0,0,1-.456-.115.326.326,0,0,1-.057-.042.12.12,0,0,0-.054-.027.334.334,0,0,1-.147-.22,1.075,1.075,0,0,1-.014-.394,3.006,3.006,0,0,1,.168-.635,4.178,4.178,0,0,1,.275-.582,3.851,3.851,0,0,1,.322-.45q.173-.208.363-.412a3.834,3.834,0,0,1,.618-.544.537.537,0,0,1,.4-.087.493.493,0,0,1,.355.194.292.292,0,0,1,.081.139.413.413,0,0,1,.006.158,1.543,1.543,0,0,1-.2.556,4.172,4.172,0,0,1-.976.979.63.63,0,0,1-.247.1c-.091.017-.177.035-.257.053a.132.132,0,0,1-.09-.011.617.617,0,0,0-.112-.037m.269-.477a1.642,1.642,0,0,0,.276-.177,3.4,3.4,0,0,0,.3-.261,2.587,2.587,0,0,0,.269-.31,1.858,1.858,0,0,0,.193-.324.328.328,0,0,0-.116.043c-.053.045-.109.09-.167.135a1.4,1.4,0,0,0-.163.15c-.1.109-.2.226-.306.35a3.6,3.6,0,0,0-.28.393" transform="translate(-141.235 3819.04)"/><path class="f" d="M392.75,688.333c.021-.133.035-.252.042-.36s.017-.216.034-.326a.948.948,0,0,1,.061-.213.621.621,0,0,0,.045-.209c.011-.087.017-.171.02-.251s0-.162,0-.248a.1.1,0,0,0-.046-.092c-.031-.02-.069-.013-.115.019l-.256.125a.671.671,0,0,0-.227.181.091.091,0,0,1-.053.044.09.09,0,0,0-.053.044c-.046.032-.09.066-.134.1s-.088.076-.131.118c-.1.129-.194.256-.292.379a4.291,4.291,0,0,0-.273.391,3.337,3.337,0,0,0-.269.541,2.391,2.391,0,0,0-.146.591.3.3,0,0,0-.01.058.112.112,0,0,1-.014.043.173.173,0,0,1-.091.085.366.366,0,0,1-.389-.163.327.327,0,0,1-.043-.117.027.027,0,0,1,0-.024.034.034,0,0,0,0-.025,3.6,3.6,0,0,0,.107-.486,1.576,1.576,0,0,1,.156-.482.837.837,0,0,0,.089-.2c.02-.069.044-.138.07-.207q.07-.239.124-.482c.036-.162.071-.326.105-.494a.714.714,0,0,0,.066-.126,1.515,1.515,0,0,0,.178.045c.061.012.125.026.193.042.029.035.076.1.14.189l.568-.421a1.24,1.24,0,0,1,.6-.221.634.634,0,0,1,.593.288.258.258,0,0,1,.051.083.919.919,0,0,0,.118-.107l.191-.2a2.382,2.382,0,0,1,.2-.182,2.422,2.422,0,0,1,.278-.2.708.708,0,0,1,.333-.1.587.587,0,0,1,.386.051.571.571,0,0,1,.2.271,1.016,1.016,0,0,1,.057.574,3.6,3.6,0,0,1-.1.531q-.067.255-.149.512c-.016.068-.029.137-.038.208a2.175,2.175,0,0,0-.019.219c.047.021.1,0,.147-.051q.185-.155.379-.312t.378-.313l.379-.313a4.54,4.54,0,0,1,.386-.282c.1.009.138.046.122.114a.716.716,0,0,1-.174.407q-.25.282-.514.543a5.552,5.552,0,0,1-.575.494c-.027.017-.053.034-.075.05l-.076.05a.692.692,0,0,1-.479.058.666.666,0,0,1-.4-.23.517.517,0,0,1-.071-.365,1.831,1.831,0,0,1,.088-.434,2.989,2.989,0,0,0,.143-.534q.047-.273.092-.554a.574.574,0,0,0-.021-.154.068.068,0,0,0-.077-.022.273.273,0,0,0-.062.038,2.538,2.538,0,0,0-.45.417,4.113,4.113,0,0,0-.579.908,2.281,2.281,0,0,0-.155.45.334.334,0,0,1-.07.175c-.035.03-.072.062-.112.1a.212.212,0,0,1-.137.056.112.112,0,0,1-.12-.035.193.193,0,0,0-.126-.065" transform="translate(-142.426 3819.368)"/><path class="f" d="M401.1,685.052a1.136,1.136,0,0,1-.015.607,2.511,2.511,0,0,1-.231.563,2.442,2.442,0,0,1-.363.484,5.129,5.129,0,0,1-.357.37,2.2,2.2,0,0,1-.42.306,1.469,1.469,0,0,1-.146.09,1.8,1.8,0,0,1-.164.079.889.889,0,0,1-.251.083.544.544,0,0,1-.275-.022l-.147-.013-.241-.212a.6.6,0,0,1-.194-.352,2.732,2.732,0,0,1-.006-.427,1,1,0,0,1,.136-.43q.2-.3.382-.6a5.577,5.577,0,0,1,.4-.573c.015-.025.033-.05.053-.077a.185.185,0,0,0,.038-.072.31.31,0,0,1,.092-.181c.048-.043.1-.087.152-.131a.157.157,0,0,1,.064-.032.1.1,0,0,0,.061-.046.369.369,0,0,1,.149-.139c.062-.03.13-.065.206-.1a.808.808,0,0,1,.376-.09.59.59,0,0,1,.3.056.367.367,0,0,1,.218.251l.1.278Zm-.535-.112a.415.415,0,0,0-.048-.171.329.329,0,0,0-.15-.131.7.7,0,0,0-.321.187,4.629,4.629,0,0,0-.536.588,5.463,5.463,0,0,0-.436.676,1.667,1.667,0,0,0-.11.272c-.03.1-.056.191-.077.28a1.474,1.474,0,0,0-.022.244.392.392,0,0,0,.091.249.652.652,0,0,0,.218-.084l.326-.236a2.615,2.615,0,0,0,.822-.958l.045-.074.046-.074a.561.561,0,0,0,.16-.364,3.439,3.439,0,0,0-.009-.4" transform="translate(-144.613 3819.82)"/><g transform="translate(73.631 4405.419)"><g transform="translate(14.457 50.552)"><path class="f" d="M173.416,627.376a1,1,0,0,1-.991-.92,11.5,11.5,0,0,0-1.669-5.244,8.374,8.374,0,0,0-1.419-1.774,1,1,0,0,1,1.29-1.515,12.579,12.579,0,0,1,3.782,8.382,1,1,0,0,1-.916,1.068Z" transform="translate(-168.991 -617.687)"/></g><g transform="translate(56.04 42.064)"><ellipse class="f" cx="2.933" cy="3.841" rx="2.933" ry="3.841" transform="translate(0 0.083) rotate(-0.815)"/></g><g transform="translate(19.145 49.981)"><path class="f" d="M203.986,650.569c-.9,0-1.748-.044-2.5-.083a47.213,47.213,0,0,1-8.919-1.351,26.706,26.706,0,0,1-9.421-4.171,19.368,19.368,0,0,1-7.665-12.595l1.964-.321a17.18,17.18,0,0,0,6.893,11.322c4.479,3.353,11.848,4.848,17.251,5.129,4.433.23,11.132.578,15.365-8.373a78.156,78.156,0,0,0,6.6-23.229l1.975.244a80.212,80.212,0,0,1-6.777,23.836c-2.072,4.382-5,7.288-8.7,8.638A17.551,17.551,0,0,1,203.986,650.569Z" transform="translate(-175.482 -616.897)"/></g><g transform="translate(5.468)"><path class="f" d="M168.444,593.443s.57-17.946,1.54-20.348a8.111,8.111,0,0,1,2.774-3.441c.613-.344,1.315-.877,1.354-1.527.071-1.166,4.029-1.426,4.029-1.426s2.793-.244,3.281-.717a4.15,4.15,0,0,1,3.608-.666,4.949,4.949,0,0,0,1.848.292l.063,0a6.316,6.316,0,0,0,2.6-.648,2.578,2.578,0,0,1,1.655-.25,3.349,3.349,0,0,0,1.777-.074,3.059,3.059,0,0,1,1.278-.2,5.032,5.032,0,0,1,2.282.752s.742.55,1.864-.3a3.52,3.52,0,0,1,3.237-.6,5.316,5.316,0,0,1,.533.212,3.505,3.505,0,0,0,1.579.35,1.568,1.568,0,0,0,.791-.18c.461-.327,1.927.292,1.927.292a2.142,2.142,0,0,0,2-.465c.807-.664,2.493.263,3.135.66a3.357,3.357,0,0,0,.6.293,13.02,13.02,0,0,1,1.467.575c2,1.14,3.42,5.678,3.859,8.47.618,3.927.815,15.139.815,15.139l1.423,2.678a10.077,10.077,0,0,1,1.179-3.6c.443-.616,1.452-2.32.582-3.2a.43.43,0,0,1-.1-.468,7.8,7.8,0,0,0,.754-3.453.544.544,0,0,1,.14-.483c.531-.549,1.729-2.192.432-4.9a3.546,3.546,0,0,1-.063-2.387,1.276,1.276,0,0,0-.55-1.8c-.9-.425-.522-1.87-.277-2.563a5.758,5.758,0,0,0,.341-1.7,2.509,2.509,0,0,0-.637-2.026.9.9,0,0,1-.327-.587,2.133,2.133,0,0,0-.619-1.42,1.122,1.122,0,0,1-.374-.514,3.713,3.713,0,0,0-1.784-1.92,3.632,3.632,0,0,1-1.97-3.351,2.661,2.661,0,0,0-1.8-2.346,2,2,0,0,1-1.241-1.144c-.354-.885-1.306-2.116-3.86-2.528-4.146-.669-2.916-.221-4.507-1.451a2.905,2.905,0,0,0-2.262-.679,2.9,2.9,0,0,1-2.5-.775l-.036-.037a2.2,2.2,0,0,0-1.642-.667,3.711,3.711,0,0,0-1.043.195,2.055,2.055,0,0,1-1.865-.336,2.022,2.022,0,0,0-1.722-.32,1.738,1.738,0,0,0-.669.367c-.835.74-2.946-.249-2.946-.249a3.7,3.7,0,0,0-3.534.373,4.692,4.692,0,0,1-2.16.8c-.548.055-1.251.119-2.094.186a11.493,11.493,0,0,0-3.653,1.114,10.431,10.431,0,0,0-1.746,1.051,5.635,5.635,0,0,1-3.876,1.025,3.292,3.292,0,0,0-3.266,2.389,1.232,1.232,0,0,1-1.027.773c-1.159.105-3.22.578-3.461,2.6,0,0-.041,1.224-2.171.992-1.481-.161-2.579,2.84-3.11,4.685a8.173,8.173,0,0,0-.281,1.9.991.991,0,0,1-.784.933c-.563.182-.765.921-.733,1.472a2.52,2.52,0,0,1-.476,1.772,7.7,7.7,0,0,0-1.3,5.356,4.836,4.836,0,0,0,.341,1.462,1.446,1.446,0,0,1-.177,1.332,4.976,4.976,0,0,0,.295,4.307,3.22,3.22,0,0,1,.381,2.208c-.214.737.7,2.283,1.262,3.147a6.8,6.8,0,0,1,.743,1.511c.539,1.556,2.192,5.167,2.052,6.676C161.628,596.039,162.588,593.443,168.444,593.443Z" transform="translate(-156.544 -547.685)"/></g><g transform="translate(26.174 30.66)"><path class="f" d="M186.515,595.491a1.343,1.343,0,0,1-.932-2.265,10.861,10.861,0,0,1,13.468-1.35,1.344,1.344,0,1,1-1.361,2.318,8.163,8.163,0,0,0-10.161.888A1.344,1.344,0,0,1,186.515,595.491Z" transform="translate(-185.216 -590.142)"/></g><g transform="translate(50.391 31.401)"><path class="f" d="M231.059,596.439a1.337,1.337,0,0,1-.914-.342c-2.1-1.87-4.249-2.577-6.4-2.1A6.673,6.673,0,0,0,221,595.331a1.344,1.344,0,0,1-1.814-1.983,9.114,9.114,0,0,1,3.829-1.939c2.127-.51,5.4-.459,8.921,2.683a1.344,1.344,0,0,1-.877,2.347Z" transform="translate(-218.75 -591.169)"/></g><g transform="translate(31.811 42.064)"><ellipse class="f" cx="2.933" cy="3.841" rx="2.933" ry="3.841" transform="translate(0 0.083) rotate(-0.815)"/></g><g transform="translate(15.505 43.84)"><rect class="f" width="8.478" height="1.99" transform="matrix(0.993, -0.115, 0.115, 0.993, 0, 0.972)"/></g><g transform="translate(22.89 37.814)"><path class="f" d="M198.137,615.878H185.093a4.43,4.43,0,0,1-4.425-4.425v-6.979a4.43,4.43,0,0,1,4.425-4.425h13.044a4.43,4.43,0,0,1,4.425,4.425v6.979A4.43,4.43,0,0,1,198.137,615.878Zm-13.044-13.839a2.438,2.438,0,0,0-2.435,2.435v6.979a2.438,2.438,0,0,0,2.435,2.435h13.044a2.438,2.438,0,0,0,2.435-2.435v-6.979a2.438,2.438,0,0,0-2.435-2.435Z" transform="translate(-180.668 -600.049)"/></g><g transform="translate(47.929 38.355)"><path class="f" d="M232.347,616.236H219.671a4.334,4.334,0,0,1-4.329-4.329v-6.782a4.333,4.333,0,0,1,4.329-4.328h12.677a4.333,4.333,0,0,1,4.329,4.328v6.782A4.334,4.334,0,0,1,232.347,616.236Zm-12.677-13.449a2.341,2.341,0,0,0-2.338,2.338v6.782a2.341,2.341,0,0,0,2.338,2.338h12.677a2.341,2.341,0,0,0,2.338-2.338v-6.782a2.341,2.341,0,0,0-2.338-2.338Z" transform="translate(-215.342 -600.797)"/></g><g transform="translate(43.375 44.319)"><path class="f" d="M214.258,611.725c-1.316-1.022-3.845-.653-4.708-.424l-.515-1.922c.165-.045,4.075-1.066,6.444.775Z" transform="translate(-209.035 -609.056)"/></g><g transform="translate(48.417 51.297)"><path class="f" d="M217.813,630.034a6.964,6.964,0,0,1-.949-.058,1,1,0,0,1,.294-1.969,5.893,5.893,0,0,0,2.06-.133,2.713,2.713,0,0,0,2.169-2.268c.535-2.827-3.688-4.977-3.731-5a1,1,0,1,1,.874-1.788,12.28,12.28,0,0,1,2.632,1.831c1.776,1.636,2.53,3.477,2.18,5.325a4.717,4.717,0,0,1-3.688,3.84A7.661,7.661,0,0,1,217.813,630.034Z" transform="translate(-216.017 -618.719)"/></g><g transform="translate(34.683 59.037)"><path class="f" d="M208.846,644.53a12.948,12.948,0,0,1-3.1-.4c-4.425-1.092-7.69-6.158-8.737-13.554a1,1,0,0,1,1.727-.8l.046.051a29.362,29.362,0,0,0,6.386,5.415c4.171,2.5,7.792,2.658,10.761.466a1,1,0,0,1,1.576.94,10.249,10.249,0,0,1-3.943,6.522A8.242,8.242,0,0,1,208.846,644.53Zm-9.228-11.023c1.256,4.783,3.622,7.95,6.6,8.686,2.53.625,4.621.4,6.214-.671a7.046,7.046,0,0,0,2.392-2.947c-3.158,1.241-6.8.694-10.683-1.634A28.164,28.164,0,0,1,199.618,633.507Z" transform="translate(-196.999 -629.438)"/></g><g transform="translate(31.997 87.638)"><path class="f" d="M201.782,674.07a11.321,11.321,0,0,1-3.71-.62,11.444,11.444,0,0,1-4.792-3.136l1.532-1.27c.23.274,5.729,6.63,14.982.105l1.147,1.627A16.351,16.351,0,0,1,201.782,674.07Z" transform="translate(-193.28 -669.043)"/></g><g transform="translate(48.31 81.817)"><path class="f" d="M248.4,695.279a1,1,0,0,1-.994-.965,36.426,36.426,0,0,0-2.725-12.076c-1.594-3.962-3.662-7.258-5.675-9.041-3.159-2.8-8.024-5.46-14.067-7.692-1.062-.391-2.073-.738-3-1.04,4.332,3.694,9.454,8.905,9.757,9.214a.995.995,0,0,1-.335,1.618,28.9,28.9,0,0,0-10.935,8.161,1,1,0,1,1-1.584-1.2,30.662,30.662,0,0,1,10.418-8.205c-3.431-3.428-10.229-9.941-12.822-11.174a1,1,0,0,1,.651-1.868c.616.142,15.19,3.566,23.238,10.7,4.67,4.139,8.823,14.465,9.069,22.546a1,1,0,0,1-.964,1.025Z" transform="translate(-215.869 -660.983)"/></g><g transform="translate(53.358 101.281)"><path class="f" d="M224.262,702.768a.995.995,0,0,1-.93-1.348L227,691.737l-3.611-1.93a.995.995,0,1,1,.938-1.755l4.382,2.34a1,1,0,0,1,.461,1.231l-3.975,10.5A.994.994,0,0,1,224.262,702.768Z" transform="translate(-222.86 -687.935)"/></g><g transform="translate(0 79.163)"><path class="f" d="M149.968,694.258h-.034a1,1,0,0,1-.962-1.028,32.885,32.885,0,0,1,2.915-11.771,26,26,0,0,1,6.166-9.069c7.792-6.691,22.7-14.631,23.327-14.966a1,1,0,0,1,1.191,1.561c-2.069,2.2-10.07,12.815-12.481,16.027a49.372,49.372,0,0,1,12.827,9.846,1,1,0,0,1-1.514,1.293,33.992,33.992,0,0,0-3.379-3.248,54.628,54.628,0,0,0-9.888-6.685,1,1,0,0,1-.332-1.475c.322-.431,5.956-7.968,9.941-13.028-5.131,2.926-13.394,7.888-18.4,12.184a24.378,24.378,0,0,0-5.642,8.363,30.865,30.865,0,0,0-2.746,11.033A1,1,0,0,1,149.968,694.258Z" transform="translate(-148.971 -657.307)"/></g><g transform="translate(24.432 104.548)"><path class="f" d="M187.967,704.444a1,1,0,0,1-.878-.525l-4.167-7.759a.995.995,0,0,1,.505-1.394l5.565-2.234a1,1,0,1,1,.742,1.847L185.2,696.2l3.64,6.779a1,1,0,0,1-.406,1.348A.983.983,0,0,1,187.967,704.444Z" transform="translate(-182.804 -692.459)"/></g><g transform="translate(31.682 79.187)"><path class="f" d="M202.58,694.267a1,1,0,0,1-.947-.689l-8.742-26.993a1,1,0,0,1-.048-.329l.174-7.944a1,1,0,0,1,1.99.044l-.17,7.775,8.69,26.833a.995.995,0,0,1-.947,1.3Z" transform="translate(-192.843 -657.34)"/></g><g transform="translate(42.302 81.818)"><path class="f" d="M212.719,695.279a1,1,0,0,1-.956-.723l-2.869-10.077a1,1,0,0,1,.11-.8l3.408-5.521-4.686-6.761a1,1,0,0,1,1.636-1.134l3.653,5.272.543-7.866v-5.7a1,1,0,1,1,1.99,0v5.73c0,.022,0,.045,0,.069l-1.834,26.576a1,1,0,0,1-.994.926Zm-1.791-10.923,1.191,4.182.474-6.88Z" transform="translate(-207.549 -660.983)"/></g><g transform="translate(35.924 90.78)"><path class="f" d="M204.213,698.728l-.068,0a1,1,0,0,1-.926-1.06l.633-9.381-4.833-4.7a1,1,0,0,1-.215-1.119l3.785-8.483a1,1,0,1,1,1.818.811l-3.5,7.849,4.665,4.534a1,1,0,0,1,.3.781l-.664,9.841A1,1,0,0,1,204.213,698.728Z" transform="translate(-198.718 -673.394)"/></g><g transform="translate(8.939 44.354)"><path class="f" d="M171.4,631.186a4.747,4.747,0,0,1-2.645-.771,5.735,5.735,0,0,1-2.3-4.216c-.471-3.365-.672-4.2-3.559-7.6a6.077,6.077,0,0,1-1.528-4.417,5.768,5.768,0,0,1,1.711-3.7,4.587,4.587,0,0,1,6.551-.012,5.592,5.592,0,0,1,1.332,1.953c.077.157.162.329.258.518a1,1,0,1,1-1.775.9c-.1-.2-.188-.376-.268-.539a3.844,3.844,0,0,0-.885-1.36,2.637,2.637,0,0,0-3.83-.031,3.862,3.862,0,0,0-.049,5.394c3.219,3.793,3.508,5,4.014,8.61a3.871,3.871,0,0,0,1.439,2.838,3.079,3.079,0,0,0,2.426.32,1,1,0,0,1,.5,1.927A5.539,5.539,0,0,1,171.4,631.186Z" transform="translate(-161.349 -609.105)"/></g></g></g></svg>