<svg xmlns="http://www.w3.org/2000/svg" xmlns:xlink="http://www.w3.org/1999/xlink" width="279.691" height="284.747" viewBox="0 0 279.691 284.747"><defs><style>.a{fill:#fff;}.b{clip-path:url(#a);}.c{fill:#4b4846;}.d{fill:#00a660;}.e{fill:#ffb52e;}</style><clipPath id="a"><circle class="a" cx="124.175" cy="124.175" r="124.175" transform="translate(7 -43)"/></clipPath></defs><g transform="translate(-48 -882.784)"><g transform="translate(48 985.181)"><circle class="a" cx="122.175" cy="122.175" r="122.175" transform="translate(0 -62)"/><g class="b" transform="translate(-7 -23)"><g transform="translate(39.484 36.606)"><g transform="translate(18.083 63.23)"><path class="c" d="M92.452,680.568a1.244,1.244,0,0,1-1.24-1.15,14.4,14.4,0,0,0-2.087-6.558,10.45,10.45,0,0,0-1.776-2.22,1.244,1.244,0,0,1,1.614-1.894,15.732,15.732,0,0,1,4.731,10.483,1.246,1.246,0,0,1-1.147,1.337Z" transform="translate(-86.918 -668.45)"/></g><g transform="translate(70.094 52.614)"><ellipse class="c" cx="3.669" cy="4.805" rx="3.669" ry="4.805" transform="translate(0 0.104) rotate(-0.815)"/></g><g transform="translate(23.945 62.516)"><path class="c" d="M127.176,710.007c-1.133,0-2.187-.056-3.127-.1a59.066,59.066,0,0,1-11.155-1.689A33.439,33.439,0,0,1,101.11,703a24.233,24.233,0,0,1-9.588-15.754l2.457-.4A21.493,21.493,0,0,0,102.6,701c5.6,4.194,14.819,6.063,21.577,6.414,5.545.289,13.924.725,19.219-10.473a97.747,97.747,0,0,0,8.256-29.054l2.47.306a100.266,100.266,0,0,1-8.477,29.813c-2.591,5.481-6.254,9.117-10.884,10.805A21.958,21.958,0,0,1,127.176,710.007Z" transform="translate(-91.522 -667.889)"/></g><g transform="translate(6.839)"><path class="c" d="M92.971,676.019s.713-22.447,1.928-25.451a10.139,10.139,0,0,1,3.469-4.3c.768-.43,1.645-1.1,1.695-1.91.088-1.458,5.039-1.784,5.039-1.784s3.493-.3,4.1-.9a5.191,5.191,0,0,1,4.513-.833,6.167,6.167,0,0,0,2.312.365l.078,0a7.876,7.876,0,0,0,3.246-.811,3.233,3.233,0,0,1,2.07-.313,4.191,4.191,0,0,0,2.224-.092,3.809,3.809,0,0,1,1.6-.252,6.285,6.285,0,0,1,2.854.942s.928.688,2.331-.382a4.4,4.4,0,0,1,4.049-.749,6.529,6.529,0,0,1,.666.265,4.384,4.384,0,0,0,1.976.438,1.965,1.965,0,0,0,.989-.225c.577-.409,2.41.367,2.41.367a2.68,2.68,0,0,0,2.506-.582c1.008-.831,3.117.329,3.92.825a4.168,4.168,0,0,0,.756.367,16.479,16.479,0,0,1,1.836.719c2.5,1.426,4.278,7.1,4.828,10.595.773,4.912,1.02,18.935,1.02,18.935l1.78,3.35a12.606,12.606,0,0,1,1.473-4.5c.554-.77,1.817-2.9.728-4.008a.54.54,0,0,1-.121-.585c.351-.842,1.189-3.044.943-4.32a.678.678,0,0,1,.176-.6c.665-.686,2.162-2.742.54-6.13a4.44,4.44,0,0,1-.079-2.985,1.6,1.6,0,0,0-.688-2.25c-1.129-.531-.653-2.339-.346-3.206a7.206,7.206,0,0,0,.426-2.121,3.137,3.137,0,0,0-.8-2.534,1.127,1.127,0,0,1-.409-.734,2.677,2.677,0,0,0-.774-1.776,1.4,1.4,0,0,1-.469-.643,4.636,4.636,0,0,0-2.232-2.4,4.546,4.546,0,0,1-2.465-4.191,3.329,3.329,0,0,0-2.252-2.936,2.5,2.5,0,0,1-1.552-1.43c-.443-1.106-1.632-2.647-4.828-3.164-5.185-.836-3.648-.275-5.637-1.814a3.64,3.64,0,0,0-2.829-.849,3.634,3.634,0,0,1-3.129-.969l-.045-.046a2.747,2.747,0,0,0-2.055-.833,4.567,4.567,0,0,0-1.3.243,2.573,2.573,0,0,1-2.332-.42,2.526,2.526,0,0,0-2.155-.4,2.169,2.169,0,0,0-.838.458c-1.043.926-3.683-.312-3.683-.312a4.629,4.629,0,0,0-4.422.467,5.876,5.876,0,0,1-2.7,1.006c-.686.068-1.565.149-2.619.233a14.358,14.358,0,0,0-4.571,1.393,13.19,13.19,0,0,0-2.183,1.314,7.046,7.046,0,0,1-4.848,1.283c-2.407-.219-3.588,1.759-4.084,2.988a1.542,1.542,0,0,1-1.285.968c-1.449.131-4.027.723-4.33,3.25,0,0-.051,1.532-2.714,1.241-1.852-.2-3.226,3.553-3.891,5.86a10.233,10.233,0,0,0-.351,2.374,1.24,1.24,0,0,1-.98,1.167c-.7.227-.956,1.151-.917,1.84a3.143,3.143,0,0,1-.6,2.217,9.635,9.635,0,0,0-1.623,6.7,6.032,6.032,0,0,0,.426,1.827,1.812,1.812,0,0,1-.222,1.667,6.228,6.228,0,0,0,.368,5.388,4.024,4.024,0,0,1,.477,2.761c-.267.922.87,2.857,1.577,3.937a8.529,8.529,0,0,1,.931,1.891c.673,1.947,2.741,6.464,2.565,8.352C84.445,679.266,85.647,676.019,92.971,676.019Z" transform="translate(-78.086 -618.785)"/></g><g transform="translate(32.738 38.349)"><path class="c" d="M100.054,655.6a1.68,1.68,0,0,1-1.165-2.833,13.583,13.583,0,0,1,16.845-1.689,1.681,1.681,0,1,1-1.7,2.9c-7.336-4.306-12.495.886-12.711,1.11A1.684,1.684,0,0,1,100.054,655.6Z" transform="translate(-98.429 -648.906)"/></g><g transform="translate(63.028 39.277)"><path class="c" d="M137.617,656.227a1.676,1.676,0,0,1-1.143-.426c-2.621-2.339-5.315-3.222-8.008-2.624a8.335,8.335,0,0,0-3.431,1.665,1.681,1.681,0,0,1-2.27-2.48,11.4,11.4,0,0,1,4.79-2.425c2.66-.638,6.755-.574,11.158,3.356a1.681,1.681,0,0,1-1.095,2.935Z" transform="translate(-122.22 -649.635)"/></g><g transform="translate(39.789 52.614)"><ellipse class="c" cx="3.669" cy="4.805" rx="3.669" ry="4.805" transform="translate(0 0.104) rotate(-0.815)"/></g><g transform="translate(19.393 54.835)"><rect class="c" width="10.604" height="2.489" transform="matrix(0.993, -0.115, 0.115, 0.993, 0, 1.215)"/></g><g transform="translate(28.63 47.298)"><path class="c" d="M117.053,675.734H100.736A5.541,5.541,0,0,1,95.2,670.2v-8.729a5.541,5.541,0,0,1,5.534-5.536h16.316a5.542,5.542,0,0,1,5.536,5.536V670.2A5.542,5.542,0,0,1,117.053,675.734Zm-16.316-17.31a3.049,3.049,0,0,0-3.045,3.047V670.2a3.049,3.049,0,0,0,3.045,3.045h16.316A3.049,3.049,0,0,0,120.1,670.2v-8.729a3.049,3.049,0,0,0-3.045-3.047Z" transform="translate(-95.202 -655.936)"/></g><g transform="translate(59.95 47.973)"><path class="c" d="M141.072,675.777H125.216a5.42,5.42,0,0,1-5.413-5.413v-8.483a5.42,5.42,0,0,1,5.413-5.415h15.856a5.421,5.421,0,0,1,5.415,5.415v8.483A5.421,5.421,0,0,1,141.072,675.777Zm-15.856-16.821a2.928,2.928,0,0,0-2.924,2.924v8.483a2.929,2.929,0,0,0,2.924,2.924h15.856A2.928,2.928,0,0,0,144,670.363v-8.483a2.927,2.927,0,0,0-2.924-2.924Z" transform="translate(-119.803 -656.466)"/></g><g transform="translate(54.253 55.434)"><path class="c" d="M121.86,665.664c-1.645-1.278-4.809-.816-5.888-.53l-.644-2.4c.206-.056,5.1-1.333,8.06.969Z" transform="translate(-115.328 -662.326)"/></g><g transform="translate(60.56 64.162)"><path class="c" d="M122.528,683.335a8.772,8.772,0,0,1-1.187-.072,1.245,1.245,0,0,1,.367-2.462,7.385,7.385,0,0,0,2.577-.167A3.393,3.393,0,0,0,127,677.8c.67-3.536-4.613-6.226-4.666-6.252a1.245,1.245,0,0,1,1.092-2.237,15.379,15.379,0,0,1,3.292,2.292c2.222,2.046,3.165,4.349,2.727,6.661a5.9,5.9,0,0,1-4.614,4.8A9.574,9.574,0,0,1,122.528,683.335Z" transform="translate(-120.282 -669.182)"/></g><g transform="translate(43.382 73.843)"><path class="c" d="M121.607,695.664a16.217,16.217,0,0,1-3.878-.505c-5.534-1.366-9.62-7.7-10.927-16.953a1.245,1.245,0,0,1,2.16-1l.056.064a36.741,36.741,0,0,0,7.988,6.773c5.217,3.128,9.747,3.324,13.461.583a1.245,1.245,0,0,1,1.972,1.176c-.032.218-.8,5.369-4.932,8.157A10.306,10.306,0,0,1,121.607,695.664Zm-11.542-13.788c1.57,5.982,4.531,9.944,8.26,10.865,3.165.782,5.78.5,7.772-.839a8.818,8.818,0,0,0,2.992-3.686c-3.951,1.552-8.507.868-13.363-2.043A35.2,35.2,0,0,1,110.065,681.876Z" transform="translate(-106.789 -676.786)"/></g><g transform="translate(40.022 109.618)"><path class="c" d="M114.784,711.173a14.173,14.173,0,0,1-4.641-.775,14.316,14.316,0,0,1-5.994-3.922l1.916-1.589c.288.343,7.166,8.292,18.741.131l1.435,2.034C123.346,709.094,119.29,711.173,114.784,711.173Z" transform="translate(-104.15 -704.886)"/></g><g transform="translate(60.425 102.337)"><path class="c" d="M160.866,742.065a1.246,1.246,0,0,1-1.244-1.207,45.586,45.586,0,0,0-3.407-15.1c-1.995-4.956-4.582-9.079-7.1-11.309-3.952-3.5-10.036-6.829-17.595-9.62-1.328-.49-2.593-.924-3.754-1.3,5.418,4.62,11.825,11.139,12.2,11.526a1.245,1.245,0,0,1-.419,2.024,36.144,36.144,0,0,0-13.678,10.208,1.245,1.245,0,0,1-1.981-1.507,38.346,38.346,0,0,1,13.032-10.263c-4.292-4.288-12.795-12.435-16.038-13.975a1.245,1.245,0,0,1,.814-2.338c.772.178,19,4.46,29.067,13.383,5.842,5.178,11.037,18.091,11.344,28.2a1.245,1.245,0,0,1-1.207,1.282Z" transform="translate(-120.176 -699.167)"/></g><g transform="translate(66.74 126.682)"><path class="c" d="M126.89,736.842a1.248,1.248,0,0,1-1.165-1.685l4.586-12.113-4.516-2.413a1.245,1.245,0,0,1,1.173-2.2l5.481,2.928a1.245,1.245,0,0,1,.578,1.539l-4.973,13.135A1.245,1.245,0,0,1,126.89,736.842Z" transform="translate(-125.137 -718.289)"/></g><g transform="translate(0 99.017)"><path class="c" d="M73.959,742.777h-.041a1.245,1.245,0,0,1-1.2-1.285,41.09,41.09,0,0,1,3.645-14.724c2.163-4.9,4.9-8.931,7.713-11.344,9.745-8.37,28.388-18.3,29.178-18.72a1.245,1.245,0,0,1,1.49,1.953c-2.588,2.749-12.6,16.029-15.612,20.047,10.362,5.74,15.808,12.041,16.044,12.316a1.244,1.244,0,1,1-1.892,1.617,42.716,42.716,0,0,0-4.227-4.062,68.368,68.368,0,0,0-12.367-8.362,1.245,1.245,0,0,1-.416-1.845c.4-.54,7.45-9.967,12.435-16.295-6.418,3.659-16.753,9.867-23.009,15.239-2.5,2.145-5.07,5.957-7.057,10.46a38.609,38.609,0,0,0-3.435,13.8A1.244,1.244,0,0,1,73.959,742.777Z" transform="translate(-72.714 -696.559)"/></g><g transform="translate(30.559 130.768)"><path class="c" d="M103.176,736.489a1.244,1.244,0,0,1-1.1-.656l-5.212-9.706a1.244,1.244,0,0,1,.633-1.744l6.96-2.794a1.245,1.245,0,0,1,.927,2.311l-5.669,2.276,4.554,8.479a1.245,1.245,0,0,1-1.095,1.835Z" transform="translate(-96.717 -721.498)"/></g><g transform="translate(39.627 99.046)"><path class="c" d="M116.019,742.771a1.244,1.244,0,0,1-1.184-.862L103.9,708.146a1.279,1.279,0,0,1-.06-.41l.218-9.937a1.245,1.245,0,0,1,2.489.055l-.213,9.725L117.2,741.143a1.244,1.244,0,0,1-.8,1.567A1.259,1.259,0,0,1,116.019,742.771Z" transform="translate(-103.84 -696.582)"/></g><g transform="translate(52.91 102.337)"><path class="c" d="M120.74,742.065a1.246,1.246,0,0,1-1.2-.9l-3.588-12.605a1.247,1.247,0,0,1,.137-.994l4.262-6.907L114.5,712.2a1.245,1.245,0,1,1,2.046-1.418l4.569,6.593.679-9.837v-7.125a1.244,1.244,0,1,1,2.489,0v7.167c0,.029,0,.057,0,.086l-2.293,33.24a1.244,1.244,0,0,1-1.113,1.152A1.091,1.091,0,0,1,120.74,742.065ZM118.5,728.4l1.49,5.231.593-8.605Z" transform="translate(-114.273 -699.167)"/></g><g transform="translate(44.934 113.548)"><path class="c" d="M114.882,739.66c-.028,0-.057,0-.085,0a1.244,1.244,0,0,1-1.159-1.326l.793-11.733-6.045-5.877a1.245,1.245,0,0,1-.27-1.4l4.735-10.612a1.245,1.245,0,0,1,2.274,1.015l-4.381,9.817,5.835,5.672a1.242,1.242,0,0,1,.374.977l-.831,12.309A1.245,1.245,0,0,1,114.882,739.66Z" transform="translate(-108.008 -707.973)"/></g><g transform="translate(11.18 55.478)"><path class="c" d="M94.068,689.98a5.931,5.931,0,0,1-3.308-.965,7.174,7.174,0,0,1-2.882-5.273c-.589-4.209-.84-5.249-4.452-9.505a7.593,7.593,0,0,1-1.911-5.523,7.212,7.212,0,0,1,2.139-4.624,5.737,5.737,0,0,1,8.194-.015,6.992,6.992,0,0,1,1.667,2.443c.1.2.2.411.323.649a1.245,1.245,0,1,1-2.22,1.125c-.126-.247-.236-.47-.336-.673a4.792,4.792,0,0,0-1.106-1.7,3.3,3.3,0,0,0-4.79-.039,4.831,4.831,0,0,0-.062,6.748c4.027,4.744,4.388,6.256,5.02,10.769a4.84,4.84,0,0,0,1.8,3.549,3.85,3.85,0,0,0,3.034.4,1.245,1.245,0,0,1,.625,2.41A6.915,6.915,0,0,1,94.068,689.98Z" transform="translate(-81.496 -662.361)"/></g></g></g></g><path class="d" d="M277.2,670.849a74.432,74.432,0,1,0-111.415-6.965l-1.688,6.3L160.982,681.8l11.619-3.114L178.9,677A74.444,74.444,0,0,0,277.2,670.849Z" transform="translate(28.691 338.999)"/><g transform="translate(201.903 917.201)"><path class="a" d="M183.644,572.7l-1.447,6.5c-.1.458-.228.6-.787.6-.845,0-.945-.217-.758-.7l2.477-6.4Zm-.5-2.046a.922.922,0,0,1,.917-.917.91.91,0,0,1,.9.917.9.9,0,0,1-.9.9A.911.911,0,0,1,183.143,570.658Z" transform="translate(-160.253 -567.15)"/><path class="a" d="M188.981,576.627c-.086.244-.013.431.13.431.285,0,.7-.416,1.074-1.045h.486a3.154,3.154,0,0,1-2.291,1.975c-.542,0-.786-.515-.529-1.259l1.317-3.794c.144-.4.071-.787-.23-.787-.271,0-.529.13-1.088.687a12.687,12.687,0,0,0-2.934,5.01h-1.074l2.633-8.6c.187-.6-.013-.673-1.188-.673l.158-.488a10.142,10.142,0,0,0,2.347-.157h.144l-2.133,6.928.027.03c1.39-2.405,2.434-3.393,3.552-3.393a.929.929,0,0,1,.987.945,2.85,2.85,0,0,1-.185.844Z" transform="translate(-158.861 -567.924)"/><path class="a" d="M193.022,570.424c1.131,0,1.761.83,1.761,2.1,0,2.019-1.832,4.41-3.765,4.41a1.831,1.831,0,0,1-1.9-2.046C189.114,572.758,191.1,570.424,193.022,570.424Zm-1.631,5.968c1.516,0,2.247-2.79,2.247-3.793s-.473-1.631-1.059-1.631c-1.431,0-2.263,2.446-2.263,3.892C190.316,575.849,190.689,576.392,191.391,576.392Z" transform="translate(-156.617 -566.86)"/><path class="a" d="M195.844,569.254c.158-.515.187-.686-1.1-.686l.157-.488a8.806,8.806,0,0,0,2.261-.157h.158l-2.635,8.617c-.114.358-.029.587.157.587.331,0,.888-.644,1.2-1.1h.488c-.616,1.032-1.5,1.962-2.291,1.962-.831,0-.831-.73-.573-1.588Z" transform="translate(-154.742 -567.924)"/><path class="a" d="M202.575,570.51l-1.474,4.782c-.116.358-.073.73.214.73.258,0,.5-.258,1.045-1.118h.429c-.559,1.189-1.36,2.019-2.033,2.019-.486,0-.773-.372-.773-.988a3.52,3.52,0,0,1,.144-1l-.03-.03c-.729,1.489-1.546,2.019-2.418,2.019a1.547,1.547,0,0,1-1.59-1.718,5.606,5.606,0,0,1,1.948-3.65,3.279,3.279,0,0,1,2.161-1.131,1.92,1.92,0,0,1,1.474.659l.271-.573Zm-4.31,5.441c1.26,0,2.662-2.993,2.662-4.009,0-.572-.3-.987-.857-.987-1.317,0-2.891,2.375-2.879,3.835A1.041,1.041,0,0,0,198.265,575.95Z" transform="translate(-153.647 -566.86)"/><path class="a" d="M207.309,575.078a1.939,1.939,0,0,1-2.133,1.845c-.873,0-1.547-.443-1.547-1.029a.572.572,0,0,1,.53-.617c.744,0,.529,1.116,1.374,1.116a.91.91,0,0,0,.93-.759c0-.958-1.718-2.131-1.718-3.392a1.758,1.758,0,0,1,1.933-1.818c.816,0,1.346.358,1.346.915a.52.52,0,0,1-.515.589c-.646,0-.473-.974-1.3-.974a.649.649,0,0,0-.673.686C205.534,572.429,207.309,573.673,207.309,575.078Z" transform="translate(-150.437 -566.86)"/><path class="a" d="M210.954,570.424c1.131,0,1.759.83,1.759,2.1,0,2.019-1.832,4.41-3.764,4.41a1.83,1.83,0,0,1-1.9-2.046C207.046,572.758,209.035,570.424,210.954,570.424Zm-1.631,5.968c1.516,0,2.247-2.79,2.247-3.793s-.473-1.631-1.059-1.631c-1.431,0-2.263,2.446-2.263,3.892C208.248,575.849,208.62,576.392,209.323,576.392Z" transform="translate(-148.982 -566.86)"/><path class="a" d="M213.718,572.156c-.143-.63-.242-.817-.415-.817-.315,0-.659.488-.874,1.232h-.443c.315-1.259,1.132-2.147,1.861-2.147.4,0,.63.271.787.972l1.089,4.81c1.216-1.546,1.775-2.747,1.775-3.794,0-.686-.4-1.016-.4-1.374a.586.586,0,0,1,.586-.615c.458,0,.759.431.759,1.089,0,1.573-1.56,4.25-3.378,6.068a5.3,5.3,0,0,1-3.765,1.933c-.63,0-1.045-.274-1.045-.7a.556.556,0,0,1,.6-.573c.572,0,.7.559,1.3.559a5.449,5.449,0,0,0,2.7-1.647Z" transform="translate(-147.616 -566.86)"/><path class="a" d="M223.634,574.79a3.469,3.469,0,0,1-2.891,2.133,1.666,1.666,0,0,1-1.775-1.818c0-2.119,2.247-4.681,3.778-4.681a1.04,1.04,0,0,1,1.116,1.1c0,.96-.887,2.177-3.793,2.719-.157,1.189.315,1.705,1.088,1.705a2.315,2.315,0,0,0,1.919-1.161Zm-1.36-3.678c-.845,0-1.588.931-2.119,2.633,1.962-.3,2.807-1.188,2.807-1.918A.7.7,0,0,0,222.273,571.111Z" transform="translate(-143.906 -566.86)"/><path class="a" d="M225.1,569.254c.158-.515.187-.686-1.1-.686l.157-.488a8.806,8.806,0,0,0,2.261-.157h.158l-2.635,8.617c-.114.358-.029.587.157.587.331,0,.888-.644,1.2-1.1h.488c-.616,1.032-1.5,1.962-2.291,1.962-.831,0-.831-.73-.573-1.588Z" transform="translate(-142.287 -567.924)"/><path class="e" d="M169.93,585.746c-.3,1.088-.016,1.6,1.131,1.6l-.13.488h-4.438l.13-.488c1.1,0,1.633-.557,1.946-1.688l1.948-7.043h-.7c-1.647,0-2.062.244-2.977,1.789h-.516l.63-2.334h8.76l-.629,2.334h-.458c-.144-1.46-.431-1.789-1.575-1.789H171.9Z" transform="translate(-166.321 -563.603)"/><path class="e" d="M173.555,586.633c-.1.274-.029.488.13.488.3,0,.716-.415,1.188-1.161h.473c-.644,1.246-1.533,2.019-2.248,2.019-.63,0-.874-.7-.6-1.487l1.143-3.351c.158-.473.187-.815-.086-.815-.342,0-.773.442-1.116,1.131h-.443c.673-1.347,1.374-1.976,2.19-1.976a.706.706,0,0,1,.744.773,5.161,5.161,0,0,1-.2.988Zm2.706-8.56-2.09,2.363h-.23l.773-2.363Z" transform="translate(-163.905 -563.603)"/><path class="e" d="M178.68,580.463c1.131,0,1.759.83,1.759,2.1,0,2.019-1.832,4.41-3.765,4.41a1.831,1.831,0,0,1-1.9-2.046C174.771,582.8,176.761,580.463,178.68,580.463Zm-1.633,5.968c1.517,0,2.247-2.79,2.247-3.793s-.473-1.631-1.059-1.631c-1.431,0-2.263,2.448-2.263,3.892C175.973,585.889,176.346,586.431,177.048,586.431Z" transform="translate(-162.723 -562.585)"/><path class="e" d="M186.28,585.746c-.3,1.088-.016,1.6,1.131,1.6l-.13.488h-4.437l.13-.488c1.1,0,1.631-.557,1.946-1.688l1.946-7.043h-.7c-1.645,0-2.06.244-2.977,1.789h-.515l.629-2.334h8.761l-.63,2.334h-.458c-.143-1.46-.431-1.789-1.574-1.789h-1.146Z" transform="translate(-159.359 -563.603)"/><path class="e" d="M192.3,584.829a3.469,3.469,0,0,1-2.891,2.133,1.666,1.666,0,0,1-1.775-1.818c0-2.119,2.247-4.681,3.778-4.681a1.04,1.04,0,0,1,1.116,1.1c0,.96-.887,2.177-3.792,2.72-.157,1.189.315,1.7,1.088,1.7a2.315,2.315,0,0,0,1.919-1.161Zm-1.36-3.678c-.845,0-1.588.931-2.119,2.633,1.962-.3,2.807-1.188,2.807-1.918A.7.7,0,0,0,190.941,581.15Z" transform="translate(-157.246 -562.585)"/><path class="e" d="M193.157,581.894c.07-.215.114-.586-.115-.586-.344,0-.86.7-1.059.987h-.416c.358-.73,1.218-1.832,2.033-1.832.689,0,.874.673.616,1.431l-.816,2.391.028.029a13.963,13.963,0,0,1,2.047-2.936,2.392,2.392,0,0,1,1.661-.915c.8,0,.9.6.643,1.447l-.716,2.318.029.029c.687-1.216,2.161-3.794,3.636-3.794.774,0,.975.7.689,1.531l-1.088,3.092c-.215.6-.331,1.045,0,1.045.3,0,.844-.716,1-.974h.415c-.372.687-1.173,1.8-1.96,1.8a.74.74,0,0,1-.788-.8,4.392,4.392,0,0,1,.317-1.332l1.088-2.934c.114-.329.086-.687-.258-.687-1.2,0-3.465,4.309-3.865,5.612h-1.059l1.474-4.825c.13-.429.272-.787-.143-.787-.988,0-3.422,3.922-3.851,5.612h-1.059Z" transform="translate(-155.573 -562.585)"/><path class="e" d="M203.175,580.463c1.131,0,1.759.83,1.759,2.1,0,2.019-1.832,4.41-3.764,4.41a1.83,1.83,0,0,1-1.9-2.046C199.267,582.8,201.256,580.463,203.175,580.463Zm-1.632,5.968c1.517,0,2.247-2.79,2.247-3.793s-.473-1.631-1.059-1.631c-1.431,0-2.263,2.448-2.263,3.892C200.467,585.889,200.841,586.431,201.543,586.431Z" transform="translate(-152.294 -562.585)"/><path class="a" d="M205.569,587.125a.922.922,0,0,1-.915.915.91.91,0,0,1-.9-.915.9.9,0,0,1,.9-.9A.91.91,0,0,1,205.569,587.125Zm-.5-2.062,1.446-6.5c.1-.459.23-.6.787-.6.845,0,.945.214.758.7l-2.477,6.4Z" transform="translate(-150.385 -563.65)"/><path class="a" d="M210.114,581.762c-.372-.843-.573-.843-1.031-.843V580.4h3.12v.518c-.844.027-1.029.342-.7,1.086l1.474,3.378,1.232-3.134c.287-.744.086-1.289-.787-1.33V580.4H215.9v.518c-.543.114-.716.358-1,1.086l-2.377,6.042c-.415,1.044-1.017,1.531-1.875,1.531-.673,0-1.145-.331-1.145-.815a.6.6,0,0,1,.616-.589c.5,0,.5.459,1.017.459.542,0,.887-.486,1.259-1.718Z" transform="translate(-148.115 -562.611)"/><path class="a" d="M217.861,582.91l-1.145-.586v-.331l1.989-.7h.358v5.7c0,1.588-.2,1.69-1.975,3.637l-.486-.315a5.279,5.279,0,0,0,1.259-3.064Zm.543-4.967a.773.773,0,1,1-.773.773A.77.77,0,0,1,218.4,577.943Z" transform="translate(-144.913 -563.658)"/><path class="a" d="M226.844,586.6l-2.177.4v-1.1a3.37,3.37,0,0,1-2.391,1.1,1.735,1.735,0,0,1-1.932-1.875v-2.806c0-1.13-.258-1.245-1.146-1.245v-.515l2.348-.16V584.4c0,1.088.443,1.588,1.3,1.588a2.74,2.74,0,0,0,1.818-.743v-2.922c0-1.13-.244-1.245-1.23-1.245v-.515l2.432-.16v4.955c0,.643.187.858.975.686Z" transform="translate(-143.808 -562.611)"/><path class="a" d="M227.411,585.2c0,.787.315,1.175,1.161,1.175v.515H225.15v-.515a.962.962,0,0,0,1.061-1.088v-3.45l-.96-.545v-.328l1.8-.674h.358v1.218h.03a3.025,3.025,0,0,1,2.29-1.218c1.332,0,2.1.674,2.1,2.22v2.719c0,.716.2,1.059,1.017,1.146v.515h-3.378v-.515c.83,0,1.159-.4,1.159-1.175v-2.377c0-.9-.416-1.574-1.346-1.574a2.973,2.973,0,0,0-1.876.845Z" transform="translate(-141.274 -562.658)"/><path class="a" d="M233.043,585.611c0,.659.158.86,1,.86a7.989,7.989,0,0,0,1.017-.071v.7a12.309,12.309,0,0,1-1.875.244c-.944,0-1.346-.386-1.346-1.26v-4.624h-1.072v-.385a4.094,4.094,0,0,0,1.788-1.474h.486v1.143h1.948v.716h-1.948Z" transform="translate(-138.882 -562.953)"/><path class="a" d="M237.365,580.292a3.191,3.191,0,0,1,3.335,3.322,3.269,3.269,0,0,1-3.221,3.435,3.4,3.4,0,0,1-3.306-3.42A3.247,3.247,0,0,1,237.365,580.292Zm.244,6.228a1.791,1.791,0,0,0,1.8-2.033c0-1.23-.488-3.664-2.1-3.664-1.074,0-1.775.6-1.775,2.261C235.533,584.358,236.135,586.52,237.609,586.52Z" transform="translate(-137.432 -562.658)"/><path class="a" d="M243.606,582.455h-.443c-.215-1.131-.673-1.632-1.461-1.632-.672,0-1.074.342-1.074.959,0,1.074,2.177,1.332,2.993,2.147a1.744,1.744,0,0,1,.458,1.23c0,1.173-.844,1.889-2.19,1.889a5.178,5.178,0,0,1-2.1-.458v-1.8h.473c.143,1.118.672,1.732,1.531,1.732.758,0,1.3-.431,1.3-1.017,0-1.1-1.889-1.074-3.063-2.247a1.772,1.772,0,0,1-.443-1.189,1.867,1.867,0,0,1,2.09-1.775,3.034,3.034,0,0,1,1.932.616Z" transform="translate(-135.128 -562.658)"/><path class="a" d="M176.415,589.443l-1.044-.573v-.328l1.889-.559h.358v8.475c0,.629.315.873,1.031.659v.572l-1.876.4h-.358v-1.074a3.553,3.553,0,0,1-2.39,1.074,2.878,2.878,0,0,1-2.692-3.063,3.628,3.628,0,0,1,3.493-3.694,5.851,5.851,0,0,1,1.588.272Zm0,4.838c0-1.745-1.1-2.333-1.889-2.333a2.19,2.19,0,0,0-1.989,2.333c0,1,.545,2.849,2.19,2.849a2.1,2.1,0,0,0,1.688-.816Z" transform="translate(-164.187 -559.384)"/><path class="a" d="M178.07,592.967a2.556,2.556,0,0,0,4.266,2.29l.3.272a3.079,3.079,0,0,1-2.662,1.56A3.046,3.046,0,0,1,177,593.782a3.188,3.188,0,0,1,2.993-3.45,2.655,2.655,0,0,1,2.648,2.635Zm3.063-.516c-.114-1.017-.629-1.588-1.416-1.588a1.613,1.613,0,0,0-1.56,1.588Z" transform="translate(-161.776 -558.384)"/><path class="a" d="M185.773,592.495h-.443c-.215-1.131-.673-1.633-1.461-1.633-.672,0-1.074.344-1.074.96,0,1.074,2.177,1.332,2.993,2.147a1.744,1.744,0,0,1,.458,1.23c0,1.173-.844,1.889-2.19,1.889a5.179,5.179,0,0,1-2.1-.458v-1.8h.473c.143,1.118.672,1.732,1.531,1.732.758,0,1.3-.431,1.3-1.017,0-1.1-1.889-1.074-3.063-2.247a1.772,1.772,0,0,1-.443-1.189,1.867,1.867,0,0,1,2.09-1.775,3.037,3.037,0,0,1,1.932.616Z" transform="translate(-159.752 -558.384)"/><path class="a" d="M191.367,595.257a2.538,2.538,0,0,1-2.621,1.832,3.09,3.09,0,0,1-3.05-3.321,3.266,3.266,0,0,1,3.379-3.436c1.175,0,2.261.344,2.261,1.289,0,.429-.214.687-.545.687-.93,0-.314-1.36-1.96-1.36a2.047,2.047,0,0,0-1.975,2.32,2.524,2.524,0,0,0,2.333,2.691,1.942,1.942,0,0,0,1.846-.915Z" transform="translate(-158.071 -558.384)"/><path class="a" d="M197.946,596.641l-2.176.4v-1.1a3.37,3.37,0,0,1-2.391,1.1,1.736,1.736,0,0,1-1.933-1.875v-2.806c0-1.131-.257-1.245-1.145-1.245V590.6l2.347-.16v3.995c0,1.088.445,1.588,1.3,1.588a2.738,2.738,0,0,0,1.819-.744v-2.92c0-1.131-.244-1.245-1.232-1.245V590.6l2.432-.16V595.4c0,.643.187.86.975.686Z" transform="translate(-156.111 -558.337)"/><path class="a" d="M196.873,589.586l-1.017-.557V588.7l1.862-.716h.358v4.5a3.187,3.187,0,0,1,2.418-1.146c1.876,0,2.692,1.875,2.692,3.264a3.405,3.405,0,0,1-3.607,3.493,6.1,6.1,0,0,1-2.706-.716Zm1.2,5.97a1.753,1.753,0,0,0,1.889,1.919,2.135,2.135,0,0,0,2.017-2.32c0-1.432-.843-2.79-2.174-2.79a2.35,2.35,0,0,0-1.732.773Z" transform="translate(-153.746 -559.384)"/><path class="a" d="M203.82,595.043c0,1.074.2,1.374,1.459,1.374v.515h-3.721v-.515a.977.977,0,0,0,1.059-1.1v-3.349l-1.059-.53v-.328l1.9-.774h.358v1.417h.027c.644-1.059,1-1.36,1.748-1.36a1.064,1.064,0,0,1,1.058.817c0,.071-.143.931-.586.931-.488,0-.6-.673-1.074-.673-.344,0-.6.242-1.173,1.058Z" transform="translate(-151.319 -558.384)"/><path class="a" d="M206.731,592.908l-1.088-.543v-.331l1.932-.7h.358v4.939c0,.788.374,1.132.888,1.146v.515H205.7v-.515a.973.973,0,0,0,1.031-1.046Zm.543-4.925a.773.773,0,1,1-.773.773A.77.77,0,0,1,207.274,587.983Z" transform="translate(-149.579 -559.384)"/><path class="a" d="M210.756,595.043c0,1.074.2,1.374,1.46,1.374v.515h-3.723v-.515a.976.976,0,0,0,1.059-1.1v-3.349l-1.059-.53v-.328l1.9-.774h.358v1.417h.029c.644-1.059,1-1.36,1.745-1.36a1.063,1.063,0,0,1,1.059.817c0,.071-.143.931-.586.931-.488,0-.6-.673-1.074-.673-.344,0-.6.242-1.173,1.058Z" transform="translate(-148.366 -558.384)"/><path class="a" d="M213.556,592.967a2.557,2.557,0,0,0,4.267,2.29l.3.272a3.079,3.079,0,0,1-2.662,1.56,3.046,3.046,0,0,1-2.978-3.306,3.188,3.188,0,0,1,2.993-3.45,2.655,2.655,0,0,1,2.648,2.635Zm3.064-.516c-.114-1.017-.63-1.588-1.416-1.588a1.615,1.615,0,0,0-1.561,1.588Z" transform="translate(-146.667 -558.384)"/><path class="a" d="M219.214,595.143c0,.86.185,1.188,1,1.275v.515h-3.264v-.515a.981.981,0,0,0,1.059-1.089v-3.392l-1.029-.6v-.328l1.875-.674h.358v1.089a3.2,3.2,0,0,1,2.391-1.089,1.712,1.712,0,0,1,1.8,1.089,3.094,3.094,0,0,1,2.32-1.089,1.75,1.75,0,0,1,1.99,1.791v3.148c0,.687.242,1.059.987,1.146v.515h-3.276v-.515c.786-.044,1.086-.388,1.086-1.188v-2.692c0-.86-.615-1.26-1.417-1.26a2.842,2.842,0,0,0-1.631.659V595.2c0,.759.185,1.131,1,1.218v.515H221.1v-.515c.817,0,1.161-.358,1.161-1.188v-2.464c0-1.059-.358-1.474-1.29-1.474a2.312,2.312,0,0,0-1.759.716Z" transform="translate(-144.765 -558.384)"/><path class="a" d="M228.9,590.332a3.191,3.191,0,0,1,3.335,3.322,3.268,3.268,0,0,1-3.221,3.435,3.4,3.4,0,0,1-3.306-3.42A3.247,3.247,0,0,1,228.9,590.332Zm.244,6.228a1.791,1.791,0,0,0,1.8-2.033c0-1.23-.488-3.664-2.1-3.664-1.074,0-1.775.6-1.775,2.261C227.066,594.4,227.668,596.56,229.142,596.56Z" transform="translate(-141.037 -558.384)"/><path class="a" d="M235.14,592.495H234.7c-.214-1.131-.673-1.633-1.46-1.633-.673,0-1.074.344-1.074.96,0,1.074,2.176,1.332,2.991,2.147a1.745,1.745,0,0,1,.459,1.23c0,1.173-.845,1.889-2.191,1.889a5.185,5.185,0,0,1-2.1-.458v-1.8h.473c.143,1.118.673,1.732,1.531,1.732.759,0,1.3-.431,1.3-1.017,0-1.1-1.889-1.074-3.063-2.247a1.779,1.779,0,0,1-.443-1.189,1.867,1.867,0,0,1,2.09-1.775,3.037,3.037,0,0,1,1.932.616Z" transform="translate(-138.733 -558.384)"/><path class="a" d="M175.473,603.006a2.557,2.557,0,0,0,4.267,2.29l.3.272a3.079,3.079,0,0,1-2.662,1.56,3.046,3.046,0,0,1-2.978-3.306,3.189,3.189,0,0,1,2.993-3.45,2.655,2.655,0,0,1,2.648,2.635Zm3.064-.516c-.114-1.015-.63-1.588-1.416-1.588a1.615,1.615,0,0,0-1.561,1.588Z" transform="translate(-162.882 -554.109)"/><path class="a" d="M181.069,606.269c0,.716.244,1.143.887,1.188v.515h-3.077v-.515a.958.958,0,0,0,.987-1.089v-6.812l-.987-.545v-.331l1.832-.657h.358Z" transform="translate(-160.974 -555.109)"/><path class="a" d="M186.393,605.182c0,.86.185,1.188,1,1.275v.515H184.13v-.515a.981.981,0,0,0,1.059-1.089v-3.392l-1.031-.6v-.328l1.876-.674h.358v1.089a3.192,3.192,0,0,1,2.391-1.089,1.712,1.712,0,0,1,1.8,1.089,3.1,3.1,0,0,1,2.32-1.089,1.75,1.75,0,0,1,1.99,1.791v3.148c0,.687.242,1.059.987,1.146v.515H192.6v-.515c.787-.044,1.088-.388,1.088-1.188v-2.692c0-.86-.616-1.26-1.417-1.26a2.846,2.846,0,0,0-1.633.659v3.264c0,.759.187,1.131,1,1.218v.515h-3.363v-.515c.816,0,1.159-.358,1.159-1.188V602.8c0-1.059-.358-1.474-1.289-1.474a2.31,2.31,0,0,0-1.759.716Z" transform="translate(-158.739 -554.109)"/><path class="a" d="M196.8,602.119a1.231,1.231,0,0,0-1.316-1.132c-.559,0-1.1.344-1.1.673s.587.8.215.974l-.844.4c-.087.044-.472-.673-.472-.988,0-.673.758-1.675,2.632-1.675,1.362,0,2.09.445,2.09,1.531v3.666c0,.53.317.687.8.372l.13.516a1.565,1.565,0,0,1-1.161.672c-.545,0-.9-.371-.974-1.029a3.084,3.084,0,0,1-2.119,1.029,1.516,1.516,0,0,1-1.6-1.531c0-.887.6-1.431,2.19-1.976l1.531-.529Zm-.758,1.8c-1.159.431-1.688.716-1.688,1.317a.911.911,0,0,0,1,.931,1.943,1.943,0,0,0,1.446-.744v-1.791Z" transform="translate(-154.928 -554.109)"/><path class="a" d="M200.089,605.082c0,1.074.2,1.374,1.46,1.374v.515h-3.723v-.515a.976.976,0,0,0,1.059-1.1V602l-1.059-.529v-.329l1.9-.774h.358v1.417h.029c.644-1.059,1-1.36,1.747-1.36a1.063,1.063,0,0,1,1.058.817c0,.071-.141.931-.586.931-.488,0-.6-.673-1.074-.673-.344,0-.6.242-1.173,1.058Z" transform="translate(-152.907 -554.109)"/><path class="a" d="M205.635,602.119a1.231,1.231,0,0,0-1.316-1.132c-.559,0-1.1.344-1.1.673s.587.8.215.974l-.844.4c-.087.044-.472-.673-.472-.988,0-.673.757-1.675,2.632-1.675,1.36,0,2.09.445,2.09,1.531v3.666c0,.53.317.687.8.372l.13.516a1.565,1.565,0,0,1-1.161.672c-.545,0-.9-.371-.974-1.029a3.084,3.084,0,0,1-2.119,1.029,1.516,1.516,0,0,1-1.6-1.531c0-.887.6-1.431,2.19-1.976l1.531-.529Zm-.759,1.8c-1.159.431-1.688.716-1.688,1.317a.911.911,0,0,0,1,.931,1.945,1.945,0,0,0,1.446-.744v-1.791Z" transform="translate(-151.167 -554.109)"/><path class="a" d="M209.709,607.081h-.458l-2.2-5.354c-.214-.529-.344-.657-.844-.728v-.518h3.007V601c-.875.027-1.061.358-.817.944l1.474,3.478,1.374-3.134c.315-.716.057-1.273-.758-1.287v-.518h2.532V601c-.542.1-.686.242-1.044,1.029Z" transform="translate(-149.341 -554.063)"/><path class="a" d="M212.608,602.947l-1.088-.543v-.331l1.932-.7h.358v4.939c0,.788.374,1.132.888,1.146v.515h-3.121v-.515a.973.973,0,0,0,1.031-1.046Zm.543-4.925a.773.773,0,1,1-.773.773A.77.77,0,0,1,213.151,598.022Z" transform="translate(-147.077 -555.109)"/><path class="a" d="M216.592,606.269c0,.716.242,1.143.887,1.188v.515H214.4v-.515a.959.959,0,0,0,.988-1.089v-6.812l-.988-.545v-.331l1.834-.657h.358Z" transform="translate(-145.85 -555.109)"/><path class="a" d="M219.428,606.269c0,.716.244,1.143.887,1.188v.515h-3.077v-.515a.959.959,0,0,0,.988-1.089v-6.812l-.988-.545v-.331l1.832-.657h.358Z" transform="translate(-144.643 -555.109)"/><path class="a" d="M223.173,600.371a3.191,3.191,0,0,1,3.335,3.322,3.269,3.269,0,0,1-3.221,3.435,3.4,3.4,0,0,1-3.308-3.42A3.248,3.248,0,0,1,223.173,600.371Zm.244,6.228a1.789,1.789,0,0,0,1.8-2.033c0-1.23-.486-3.664-2.1-3.664-1.074,0-1.775.6-1.775,2.261C221.341,604.437,221.941,606.6,223.417,606.6Z" transform="translate(-143.475 -554.109)"/><path class="a" d="M229.414,602.534h-.445c-.214-1.131-.672-1.633-1.46-1.633-.673,0-1.074.344-1.074.96,0,1.074,2.176,1.332,2.993,2.147a1.744,1.744,0,0,1,.458,1.23c0,1.173-.845,1.889-2.19,1.889a5.19,5.19,0,0,1-2.106-.458v-1.8h.473c.144,1.118.673,1.732,1.533,1.732.759,0,1.3-.429,1.3-1.017,0-1.1-1.891-1.074-3.064-2.247a1.778,1.778,0,0,1-.442-1.189,1.865,1.865,0,0,1,2.089-1.775,3.039,3.039,0,0,1,1.933.616Z" transform="translate(-141.171 -554.109)"/><path class="a" d="M232.519,600.371a3.191,3.191,0,0,1,3.335,3.322,3.268,3.268,0,0,1-3.221,3.435,3.4,3.4,0,0,1-3.306-3.42A3.247,3.247,0,0,1,232.519,600.371Zm.244,6.228a1.79,1.79,0,0,0,1.8-2.033c0-1.23-.488-3.664-2.1-3.664-1.074,0-1.775.6-1.775,2.261C230.687,604.437,231.289,606.6,232.763,606.6Z" transform="translate(-139.495 -554.109)"/><path class="a" d="M175.946,615.222c0,.86.185,1.188,1,1.275v.515h-3.264V616.5a.981.981,0,0,0,1.059-1.088v-3.393l-1.031-.6v-.328l1.876-.674h.356V611.5a3.194,3.194,0,0,1,2.391-1.089,1.713,1.713,0,0,1,1.8,1.089,3.1,3.1,0,0,1,2.32-1.089,1.749,1.749,0,0,1,1.989,1.789v3.149c0,.687.242,1.059.988,1.146v.515H182.16V616.5c.787-.044,1.088-.388,1.088-1.188v-2.692c0-.86-.616-1.26-1.419-1.26a2.845,2.845,0,0,0-1.631.659v3.264c0,.759.187,1.131,1,1.218v.515h-3.363V616.5c.816,0,1.159-.358,1.159-1.188v-2.464c0-1.059-.359-1.474-1.289-1.474a2.316,2.316,0,0,0-1.761.716Z" transform="translate(-163.186 -549.835)"/><path class="a" d="M189.814,616.72l-2.176.4v-1.1a3.371,3.371,0,0,1-2.391,1.1,1.735,1.735,0,0,1-1.932-1.875V612.44c0-1.131-.258-1.245-1.146-1.245v-.515l2.347-.16v3.995c0,1.088.445,1.59,1.3,1.59a2.745,2.745,0,0,0,1.819-.744V612.44c0-1.131-.244-1.245-1.23-1.245v-.515l2.432-.16v4.954c0,.643.187.86.974.687Z" transform="translate(-159.574 -549.788)"/><path class="a" d="M190.381,615.321c0,.787.315,1.175,1.161,1.175v.515H188.12V616.5a.961.961,0,0,0,1.059-1.088v-3.45l-.96-.545v-.328l1.8-.674h.358v1.218h.03a3.022,3.022,0,0,1,2.29-1.218c1.332,0,2.1.674,2.1,2.22v2.719c0,.716.2,1.059,1.015,1.146v.515h-3.378V616.5c.83,0,1.159-.4,1.159-1.175v-2.377c0-.9-.415-1.574-1.346-1.574a2.973,2.973,0,0,0-1.875.845Z" transform="translate(-157.04 -549.835)"/><path class="a" d="M199.071,609.522l-1.045-.572v-.331l1.891-.556h.356v8.473c0,.629.315.873,1.031.659v.572l-1.875.4h-.358v-1.074a3.558,3.558,0,0,1-2.391,1.074,2.878,2.878,0,0,1-2.692-3.063,3.628,3.628,0,0,1,3.493-3.694,5.818,5.818,0,0,1,1.59.274Zm0,4.838c0-1.745-1.1-2.333-1.889-2.333a2.19,2.19,0,0,0-1.99,2.333c0,1,.545,2.85,2.19,2.85a2.1,2.1,0,0,0,1.69-.817Z" transform="translate(-154.541 -550.834)"/><path class="a" d="M202.813,610.411a3.191,3.191,0,0,1,3.335,3.322,3.268,3.268,0,0,1-3.221,3.435,3.4,3.4,0,0,1-3.306-3.421A3.247,3.247,0,0,1,202.813,610.411Zm.244,6.228a1.79,1.79,0,0,0,1.8-2.032c0-1.232-.488-3.666-2.1-3.666-1.074,0-1.775.6-1.775,2.261C200.981,614.477,201.583,616.639,203.057,616.639Z" transform="translate(-152.143 -549.835)"/><path class="a" d="M212.706,609.522l-1.045-.572v-.331l1.889-.556h.358v8.473c0,.629.315.873,1.031.659v.572l-1.876.4h-.356v-1.074a3.559,3.559,0,0,1-2.391,1.074,2.878,2.878,0,0,1-2.692-3.063,3.628,3.628,0,0,1,3.493-3.694,5.819,5.819,0,0,1,1.59.274Zm0,4.838c0-1.745-1.1-2.333-1.891-2.333a2.19,2.19,0,0,0-1.989,2.333c0,1,.545,2.85,2.19,2.85a2.1,2.1,0,0,0,1.69-.817Z" transform="translate(-148.736 -550.834)"/><path class="a" d="M214.359,613.046a2.556,2.556,0,0,0,4.266,2.29l.3.272a3.08,3.08,0,0,1-2.662,1.56,3.046,3.046,0,0,1-2.978-3.306,3.188,3.188,0,0,1,2.993-3.45,2.655,2.655,0,0,1,2.648,2.635Zm3.064-.516c-.115-1.015-.63-1.588-1.417-1.588a1.613,1.613,0,0,0-1.56,1.588Z" transform="translate(-146.326 -549.835)"/><path class="a" d="M222.624,616.308c0,.716.244,1.144.887,1.188v.515h-3.077V617.5a.957.957,0,0,0,.987-1.088v-6.814l-.987-.545v-.331l1.832-.656h.358Z" transform="translate(-143.282 -550.834)"/><path class="a" d="M226.367,610.411a3.191,3.191,0,0,1,3.335,3.322,3.269,3.269,0,0,1-3.221,3.435,3.4,3.4,0,0,1-3.306-3.421A3.247,3.247,0,0,1,226.367,610.411Zm.244,6.228a1.79,1.79,0,0,0,1.8-2.032c0-1.232-.488-3.666-2.1-3.666-1.074,0-1.775.6-1.775,2.261C224.535,614.477,225.137,616.639,226.611,616.639Z" transform="translate(-142.115 -549.835)"/><path class="a" d="M232.609,612.574h-.443c-.215-1.131-.673-1.632-1.461-1.632-.672,0-1.074.342-1.074.959,0,1.074,2.177,1.332,2.993,2.147a1.744,1.744,0,0,1,.458,1.23c0,1.173-.845,1.889-2.19,1.889a5.154,5.154,0,0,1-2.1-.458v-1.8h.473c.143,1.118.672,1.732,1.531,1.732.759,0,1.3-.429,1.3-1.017,0-1.1-1.889-1.074-3.064-2.247a1.778,1.778,0,0,1-.442-1.189,1.866,1.866,0,0,1,2.09-1.775,3.037,3.037,0,0,1,1.932.616Z" transform="translate(-139.811 -549.835)"/><path class="a" d="M186.132,623.068l-1.146-.586v-.331l1.99-.7h.358v5.7c0,1.59-.2,1.689-1.976,3.637l-.486-.315a5.273,5.273,0,0,0,1.26-3.064Zm.543-4.966a.773.773,0,1,1-.773.773A.77.77,0,0,1,186.676,618.1Z" transform="translate(-158.423 -546.56)"/><path class="a" d="M195.114,626.759l-2.176.4v-1.1a3.371,3.371,0,0,1-2.391,1.1,1.736,1.736,0,0,1-1.933-1.875v-2.806c0-1.131-.257-1.245-1.145-1.245v-.515l2.347-.158v3.994c0,1.088.445,1.59,1.3,1.59a2.745,2.745,0,0,0,1.819-.744v-2.921c0-1.131-.244-1.245-1.232-1.245v-.515l2.432-.158v4.953c0,.643.187.86.975.687Z" transform="translate(-157.317 -545.513)"/><path class="a" d="M200.068,621.81a3.835,3.835,0,0,1-1.373-.086,2.4,2.4,0,0,1,.214,1,2.482,2.482,0,0,1-2.648,2.3,4.387,4.387,0,0,1-.9-.114c-.287.244-.429.372-.429.545,0,.344.329.458,1.517.458h1.145c1.317,0,2.277.559,2.277,1.5,0,1.374-1.59,2.362-3.765,2.362-2.019,0-2.777-.816-2.777-1.317,0-.4.329-.816,1.218-1.489-.545-.244-.817-.5-.817-.816,0-.344.372-.788,1.188-1.46a2.112,2.112,0,0,1-1.173-1.919,2.368,2.368,0,0,1,2.505-2.334,5.639,5.639,0,0,1,1.4.2,7.064,7.064,0,0,0,1.8.23,4.3,4.3,0,0,0,.616-.043Zm-3.621,5.4a10.136,10.136,0,0,1-1.417-.114c-.486.486-.673.7-.673,1.017,0,.83,1.618.944,2,.944.917,0,2.576-.271,2.576-1.086,0-.545-.516-.76-1.775-.76Zm-.029-2.719c.816,0,1.23-.63,1.23-1.59a1.625,1.625,0,0,0-1.431-1.832c-.644,0-1.216.616-1.216,1.574C195,623.642,195.5,624.488,196.418,624.488Z" transform="translate(-154.823 -545.56)"/><path class="a" d="M206.217,626.759l-2.177.4v-1.1a3.371,3.371,0,0,1-2.391,1.1,1.735,1.735,0,0,1-1.932-1.875v-2.806c0-1.131-.258-1.245-1.146-1.245v-.515l2.348-.158v3.994c0,1.088.443,1.59,1.3,1.59a2.742,2.742,0,0,0,1.818-.744v-2.921c0-1.131-.244-1.245-1.23-1.245v-.515l2.432-.158v4.953c0,.643.187.86.975.687Z" transform="translate(-152.59 -545.513)"/><path class="a" d="M205.558,623.085a2.556,2.556,0,0,0,4.266,2.29l.3.272a3.079,3.079,0,0,1-2.662,1.56,3.046,3.046,0,0,1-2.978-3.306,3.188,3.188,0,0,1,2.993-3.45,2.655,2.655,0,0,1,2.648,2.635Zm3.064-.515c-.114-1.017-.63-1.59-1.416-1.59a1.615,1.615,0,0,0-1.561,1.59Z" transform="translate(-150.073 -545.56)"/><path class="a" d="M211.2,625.77c0,.659.157.858,1,.858a7.743,7.743,0,0,0,1.017-.071v.7a12.532,12.532,0,0,1-1.876.242c-.944,0-1.344-.386-1.344-1.259v-4.624h-1.074v-.386a4.106,4.106,0,0,0,1.789-1.474h.486V620.9h1.948v.716H211.2Z" transform="translate(-148.183 -545.855)"/><path class="a" d="M213.468,623.085a2.585,2.585,0,0,0,2.478,2.979,2.611,2.611,0,0,0,1.789-.689l.3.272a3.083,3.083,0,0,1-2.663,1.56A3.045,3.045,0,0,1,212.4,623.9a3.188,3.188,0,0,1,2.991-3.45,2.656,2.656,0,0,1,2.649,2.635Zm3.064-.515c-.114-1.017-.63-1.59-1.416-1.59a1.615,1.615,0,0,0-1.561,1.59Z" transform="translate(-146.704 -545.56)"/><path class="a" d="M221.173,622.613h-.445c-.214-1.131-.673-1.632-1.46-1.632-.673,0-1.074.344-1.074.96,0,1.074,2.176,1.332,2.991,2.147a1.745,1.745,0,0,1,.459,1.231c0,1.175-.845,1.889-2.19,1.889a5.167,5.167,0,0,1-2.106-.458v-1.8h.473c.144,1.116.673,1.731,1.531,1.731.76,0,1.3-.429,1.3-1.017,0-1.1-1.889-1.072-3.063-2.247a1.779,1.779,0,0,1-.443-1.189,1.867,1.867,0,0,1,2.09-1.775,3.038,3.038,0,0,1,1.933.616Z" transform="translate(-144.68 -545.56)"/><path class="a" d="M223.246,624.828a.892.892,0,0,1-.887.887.88.88,0,0,1-.874-.887.867.867,0,0,1,.874-.873A.88.88,0,0,1,223.246,624.828Z" transform="translate(-142.834 -544.068)"/></g></g></svg>