<svg xmlns="http://www.w3.org/2000/svg" xmlns:xlink="http://www.w3.org/1999/xlink" width="155.119" height="155.119" viewBox="0 0 155.119 155.119"><defs><style>.a,.b,.f{fill:#fff;}.b{opacity:0.283;}.c{clip-path:url(#a);}.d{fill:#4b4846;}.e,.f{stroke:none;}</style><clipPath id="a"><circle class="a" cx="67.235" cy="67.235" r="67.235"/></clipPath></defs><g transform="translate(-86.076 -2502.076)"><g class="b" transform="translate(86.076 2502.076)"><path class="e" d="M 77.55974578857422 154.6190032958984 C 72.33096313476562 154.6190032958984 67.10566711425781 154.0922546386719 62.02900695800781 153.0534210205078 C 57.08188629150391 152.0411071777344 52.21542739868164 150.5304565429688 47.5648078918457 148.5634765625 C 42.99820709228516 146.6318969726562 38.59428787231445 144.2415161132812 34.47536468505859 141.458740234375 C 30.39472579956055 138.7019805908203 26.55752563476562 135.5359954833984 23.07032585144043 132.0487670898438 C 19.58292579650879 128.5613861083984 16.41696548461914 124.7242202758789 13.66034603118896 120.6438598632812 C 10.87740612030029 116.5247039794922 8.486966133117676 112.1207809448242 6.555466175079346 107.5544204711914 C 4.58872652053833 102.9044647216797 3.078086376190186 98.03804016113281 2.065546274185181 93.09036254882812 C 1.026726365089417 88.01377868652344 0.500006377696991 82.78854370117188 0.500006377696991 77.55978393554688 C 0.500006377696991 72.33096313476562 1.026726365089417 67.10568237304688 2.065546274185181 62.02906036376953 C 3.078006505966187 57.08130264282227 4.588626384735107 52.21483993530273 6.555466175079346 47.56484222412109 C 8.486966133117676 42.99846267700195 10.87738609313965 38.59450149536133 13.66032600402832 34.47529983520508 C 16.41696548461914 30.39494132995605 19.58292579650879 26.55776214599609 23.07032585144043 23.07034111022949 C 26.55742645263672 19.58316230773926 30.39462661743164 16.41718101501465 34.47534561157227 13.66034126281738 C 38.5946044921875 10.87732124328613 42.99852752685547 8.486941337585449 47.5648078918457 6.555581569671631 C 52.21536636352539 4.588561534881592 57.08182525634766 3.077901601791382 62.02900695800781 2.065621614456177 C 67.10564422607422 1.026741623878479 72.33092498779297 0.5000016689300537 77.55974578857422 0.5000016689300537 C 82.78852844238281 0.5000016689300537 88.01384735107422 1.026741623878479 93.09056854248047 2.065601587295532 C 98.03776550292969 3.077941656112671 102.904167175293 4.588601589202881 107.5545883178711 6.555581569671631 C 112.1201629638672 8.486581802368164 116.5241088867188 10.87696170806885 120.6440658569336 13.66034126281738 C 124.7244491577148 16.41702079772949 128.5616302490234 19.5830020904541 132.0489807128906 23.07034111022949 C 135.5360412597656 26.55744171142578 138.7020111083984 30.3946418762207 141.4589080810547 34.47529983520508 C 144.2421417236328 38.59524154663086 146.6324462890625 42.99920272827148 148.5634002685547 47.56482315063477 C 150.5302124023438 52.21448135375977 152.0409088134766 57.08094024658203 153.0535125732422 62.02906036376953 C 154.0922698974609 67.10581970214844 154.6189727783203 72.33112335205078 154.6189727783203 77.55978393554688 C 154.6189727783203 82.78839874267578 154.0922698974609 88.01364135742188 153.0534820556641 93.09036254882812 C 152.0408935546875 98.03844451904297 150.5302124023438 102.9048614501953 148.5634002685547 107.5544052124023 C 146.6323089599609 112.1203384399414 144.2420043945312 116.5242614746094 141.4588928222656 120.6438598632812 C 138.7020111083984 124.7245025634766 135.5360412597656 128.5616760253906 132.0489807128906 132.0487670898438 C 128.5615844726562 135.5360870361328 124.7244033813477 138.7020416259766 120.6440658569336 141.458740234375 C 116.5242691040039 144.2419586181641 112.1203231811523 146.6323394775391 107.5545883178711 148.5634765625 C 102.9041900634766 150.5304412841797 98.03778839111328 152.0410614013672 93.09056854248047 153.0534210205078 C 88.01382446289062 154.0922546386719 82.78850555419922 154.6190032958984 77.55974578857422 154.6190032958984 Z M 77.55974578857422 12.51704120635986 C 73.14696502685547 12.51704120635986 68.73688507080078 12.96164131164551 64.45200347900391 13.83848190307617 C 60.2757682800293 14.69306182861328 56.167724609375 15.96824169158936 52.24198532104492 17.62862205505371 C 48.38742828369141 19.25900077819824 44.67018508911133 21.27670097351074 41.19348526000977 23.62564086914062 C 37.7496452331543 25.95216178894043 34.51102828979492 28.62424087524414 31.56760597229004 31.56764221191406 C 28.6244068145752 34.51088333129883 25.95232582092285 37.74946212768555 23.62556648254395 41.19346237182617 C 21.27618598937988 44.67108154296875 19.25848579406738 48.38838195800781 17.62848663330078 52.24209976196289 C 15.96810626983643 56.16794204711914 14.69292640686035 60.27592086791992 13.83836650848389 64.45196533203125 C 12.96152591705322 68.73746490478516 12.51694679260254 73.14756011962891 12.51694679260254 77.55978393554688 C 12.51694679260254 81.97202301025391 12.96152591705322 86.38211822509766 13.83834648132324 90.66757965087891 C 14.69292640686035 94.84360504150391 15.96810626983643 98.95158386230469 17.62848663330078 102.8774032592773 C 19.25846672058105 106.7310791015625 21.27618598937988 110.4483642578125 23.62556648254395 113.9259643554688 C 25.95228576660156 117.3699188232422 28.62436676025391 120.6084823608398 31.567626953125 123.5516586303711 C 34.51100540161133 126.4950180053711 37.74962615966797 129.1670837402344 41.19350814819336 131.4935760498047 C 44.67054748535156 133.8426818847656 48.38778686523438 135.8603210449219 52.24196624755859 137.490478515625 C 56.16760635375977 139.1508178710938 60.2756462097168 140.4259948730469 64.45200347900391 141.2805786132812 C 68.73694610595703 142.1574249267578 73.14702606201172 142.6020050048828 77.55974578857422 142.6020050048828 C 81.97242736816406 142.6020050048828 86.38254547119141 142.1574249267578 90.66758728027344 141.2805786132812 C 94.84390258789062 140.4259796142578 98.95188903808594 139.1508178710938 102.8774490356445 137.490478515625 C 106.7314071655273 135.8604278564453 110.4486465454102 133.8427581787109 113.9259033203125 131.4935760498047 C 117.3701248168945 129.1666870117188 120.6086883544922 126.4946212768555 123.551628112793 123.5516586303711 C 126.4947280883789 120.6086044311523 129.1667633056641 117.3700637817383 131.4934997558594 113.9259643554688 C 133.8428497314453 110.4485244750977 135.8604888916016 106.7312393188477 137.4904022216797 102.8774032592773 C 139.1508331298828 98.95184326171875 140.4260101318359 94.84386444091797 141.2805328369141 90.66757965087891 C 142.1573486328125 86.38310241699219 142.6019287109375 81.97299957275391 142.6019287109375 77.55978393554688 C 142.6019287109375 73.14659881591797 142.1573486328125 68.73650360107422 141.2805023193359 64.45196533203125 C 140.4260101318359 60.27570343017578 139.1508331298828 56.16772079467773 137.4904022216797 52.24209976196289 C 135.8604888916016 48.38822174072266 133.8428192138672 44.67092132568359 131.4934997558594 41.19346237182617 C 129.1669921875 37.74958038330078 126.4949493408203 34.51098251342773 123.551628112793 31.56764221191406 C 120.6087265014648 28.62470245361328 117.3701629638672 25.95262145996094 113.9259262084961 23.62564086914062 C 110.4488067626953 21.27652168273926 106.7315673828125 19.25884246826172 102.8774490356445 17.62862205505371 C 98.95176696777344 15.96826171875 94.84378814697266 14.69306182861328 90.66758728027344 13.83848190307617 C 86.38260650634766 12.96164131164551 81.97248840332031 12.51704120635986 77.55974578857422 12.51704120635986 Z"/><path class="f" d="M 77.55974578857422 154.1190032958984 C 82.75490570068359 154.1190032958984 87.94650268554688 153.5956878662109 92.99032592773438 152.5635681152344 C 97.90522766113281 151.5578460693359 102.7398071289062 150.0570831298828 107.3598098754883 148.1029815673828 C 111.8958053588867 146.1844177246094 116.2711029052734 143.8095550537109 120.364143371582 141.0444183349609 C 124.4181289672852 138.3055572509766 128.2305297851562 135.1600189208984 131.6954193115234 131.6952209472656 C 135.1599884033203 128.2306213378906 138.3055114746094 124.4182205200195 141.0445861816406 120.3639602661133 C 143.8096313476562 116.2711181640625 146.1843872070312 111.8958435058594 148.1029205322266 107.359619140625 C 150.0568389892578 102.7404632568359 151.5576629638672 97.90586090087891 152.5636444091797 92.99014282226562 C 153.5956878662109 87.94631958007812 154.1189727783203 82.75479888916016 154.1189727783203 77.55978393554688 C 154.1189727783203 72.36470031738281 153.5956878662109 67.17314147949219 152.5636444091797 62.12930297851562 C 151.5576629638672 57.21352005004883 150.0568695068359 52.37886047363281 148.1028900146484 47.75958251953125 C 146.1845092773438 43.22370147705078 143.8097534179688 38.84838104248047 141.0445861816406 34.75522232055664 C 138.3055114746094 30.7009220123291 135.1599884033203 26.88850212097168 131.6954498291016 23.42390251159668 C 128.2305603027344 19.95906257629395 124.4181671142578 16.81352233886719 120.3641662597656 14.07464122772217 C 116.2709426879883 11.30934143066406 111.8956680297852 8.934501647949219 107.3598098754883 7.016081809997559 C 102.7397842407227 5.061941623687744 97.90518951416016 3.561181545257568 92.99032592773438 2.555461645126343 C 87.94652557373047 1.523341655731201 82.75492858886719 1.000001668930054 77.55974578857422 1.000001668930054 C 72.36452484130859 1.000001668930054 67.17296600341797 1.523341655731201 62.12922668457031 2.555461645126343 C 57.21440505981445 3.561141729354858 52.37974548339844 5.0619215965271 47.75956726074219 7.016081809997559 C 43.22304534912109 8.934861183166504 38.8477668762207 11.30970191955566 34.75524520874023 14.07464122772217 C 30.70088577270508 16.81368255615234 26.88846588134766 19.95920181274414 23.42388725280762 23.42388153076172 C 19.95898628234863 26.88880157470703 16.81346702575684 30.70122146606445 14.07464599609375 34.75522232055664 C 11.30976676940918 38.84766006469727 8.93488597869873 43.22296142578125 7.015966415405273 47.75962066650391 C 5.061986446380615 52.37922286987305 3.561246395111084 57.21388244628906 2.555406332015991 62.12930297851562 C 1.523326396942139 67.17300415039062 1.000006437301636 72.36456298828125 1.000006437301636 77.55978393554688 C 1.000006437301636 82.75494384765625 1.523326396942139 87.94646453857422 2.555406332015991 92.99010467529297 C 3.561326503753662 97.90546417236328 5.062086582183838 102.7400817871094 7.015966415405273 107.3596420288086 C 8.934906005859375 111.8962631225586 11.30978679656982 116.2715454101562 14.07464599609375 120.3639602661133 C 16.81346702575684 124.4179382324219 19.95898628234863 128.2303161621094 23.42388725280762 131.6952209472656 C 26.8885669708252 135.1599578857422 30.70098686218262 138.3054809570312 34.75526809692383 141.0444183349609 C 38.84742736816406 143.8091430664062 43.22272491455078 146.1839752197266 47.75956726074219 148.1029815673828 C 52.37980651855469 150.0570983886719 57.2144660949707 151.557861328125 62.12924575805664 152.5635681152344 C 67.17298889160156 153.5956878662109 72.36456298828125 154.1190032958984 77.55974578857422 154.1190032958984 M 77.55974578857422 12.01704120635986 C 82.00608825683594 12.01704120635986 86.44992828369141 12.46504211425781 90.76782989501953 13.3486213684082 C 94.97634887695312 14.20984172821045 99.11614990234375 15.49490165710449 103.0722274780273 17.16812133789062 C 106.9560852050781 18.81092071533203 110.7019653320312 20.84414100646973 114.2058258056641 23.2113208770752 C 117.6764450073242 25.55612182617188 120.9397888183594 28.24864196777344 123.9051666259766 31.21410179138184 C 126.8710098266602 34.1799430847168 129.5634918212891 37.44332122802734 131.9078063964844 40.9135627746582 C 134.2752227783203 44.41776275634766 136.3084259033203 48.16372299194336 137.9509124755859 52.04732131958008 C 139.6241912841797 56.00334167480469 140.9092254638672 60.14314270019531 141.7703704833984 64.35169982910156 C 142.6539306640625 68.66915893554688 143.1019287109375 73.11299896240234 143.1019287109375 77.55978393554688 C 143.1019287109375 82.00659942626953 142.6539306640625 86.450439453125 141.7703704833984 90.767822265625 C 140.9092254638672 94.97642517089844 139.6241912841797 99.11621856689453 137.950927734375 103.0721588134766 C 136.3084259033203 106.9557418823242 134.2752227783203 110.70166015625 131.9078063964844 114.2058639526367 C 129.5632629394531 117.6763229370117 126.8707885742188 120.9396591186523 123.9051895141602 123.9052047729492 C 120.9397430419922 126.8706817626953 117.6764068603516 129.5631866455078 114.2058029174805 131.9078826904297 C 110.7018051147461 134.275146484375 106.955924987793 136.3083343505859 103.0722045898438 137.9509887695312 C 99.11626434326172 139.6241760253906 94.97646331787109 140.9092254638672 90.76782989501953 141.7704467773438 C 86.44986724853516 142.6540069580078 82.00602722167969 143.1020050048828 77.55974578857422 143.1020050048828 C 73.11342620849609 143.1020050048828 68.66962432861328 142.6540069580078 64.35176849365234 141.7704467773438 C 60.14308547973633 140.9092407226562 56.00322723388672 139.6241760253906 52.04720687866211 137.9509887695312 C 48.16328811645508 136.3082580566406 44.41738510131836 134.2750549316406 40.91362762451172 131.9078979492188 C 37.44336700439453 129.5635833740234 34.17996597290039 126.8710784912109 31.21406555175781 123.9052200317383 C 28.24832725524902 120.9395217895508 25.5557861328125 117.6762008666992 23.21126556396484 114.2058639526367 C 20.84380722045898 110.7014999389648 18.810546875 106.9556045532227 17.16796684265137 103.0721817016602 C 15.49474620819092 99.11594390869141 14.20968627929688 94.97618103027344 13.34850597381592 90.767822265625 C 12.46494674682617 86.44944000244141 12.01694679260254 82.00562286376953 12.01694679260254 77.55978393554688 C 12.01694679260254 73.11398315429688 12.46494674682617 68.67014312744141 13.34850597381592 64.35172271728516 C 14.20968627929688 60.14336013793945 15.49474620819092 56.00356292724609 17.1679859161377 52.04732131958008 C 18.810546875 48.16388320922852 20.84380722045898 44.41794204711914 23.21126556396484 40.91353988647461 C 25.55582618713379 37.44318008422852 28.24834632873535 34.1798210144043 31.21406555175781 31.21410179138184 C 34.17998504638672 28.24818229675293 37.44338607788086 25.55564117431641 40.9135856628418 23.21134185791016 C 44.41702651977539 20.84432220458984 48.16292572021484 18.81108093261719 52.04720687866211 17.1681022644043 C 56.00334548950195 15.49488162994385 60.14320755004883 14.2098217010498 64.35176849365234 13.3486213684082 C 68.66956329345703 12.46504211425781 73.11336517333984 12.01704120635986 77.55974578857422 12.01704120635986 M 77.55974578857422 155.1190032958984 C 72.29736328125 155.1190032958984 67.038330078125 154.5888366699219 61.92876815795898 153.5432586669922 C 56.9492073059082 152.5243072509766 52.05096817016602 151.0037841796875 47.37002563476562 149.0239868164062 C 42.77418518066406 147.0800476074219 38.34146499633789 144.6741485595703 34.1954460144043 141.873046875 C 30.08840560913086 139.0984344482422 26.22640609741211 135.9120025634766 22.71676635742188 132.4023284912109 C 19.20722579956055 128.8927764892578 16.02068710327148 125.0308227539062 13.24602603912354 120.9237594604492 C 10.44482612609863 116.7775802612305 8.038926124572754 112.3450012207031 6.094966411590576 107.7491989135742 C 4.115366458892822 103.0688400268555 2.594866275787354 98.17062377929688 1.575706362724304 93.19060516357422 C 0.5301063656806946 88.08090209960938 6.389160262187943e-06 82.82194519042969 6.389160262187943e-06 77.55978393554688 C 6.389160262187943e-06 72.29758453369141 0.5301063656806946 67.03855895996094 1.575706362724304 61.9288215637207 C 2.594706296920776 56.94906234741211 4.115126609802246 52.05080032348633 6.094966411590576 47.37005996704102 C 8.038926124572754 42.77420043945312 10.44482612609863 38.34160232543945 13.24602603912354 34.19540023803711 C 16.02068710327148 30.08834075927734 19.20722579956055 26.22636222839355 22.71676635742188 22.71678161621094 C 26.22640609741211 19.20706176757812 30.08840560913086 16.0206413269043 34.1954460144043 13.24602127075195 C 38.34146499633789 10.44492149353027 42.77408599853516 8.038981437683105 47.37002563476562 6.095081806182861 C 52.05088806152344 4.115241527557373 56.94904708862305 2.594721555709839 61.92876815795898 1.575761675834656 C 67.038330078125 0.5301616191864014 72.29736328125 1.647949261496251e-06 77.55974578857422 1.647949261496251e-06 C 82.82212829589844 1.647949261496251e-06 88.08116912841797 0.5301616191864014 93.19080352783203 1.575761675834656 C 98.17036437988281 2.594721555709839 103.068603515625 4.115261554718018 107.7493667602539 6.095081806182861 C 112.3451232910156 8.038841247558594 116.777587890625 10.44480133056641 120.9239654541016 13.24602127075195 C 125.0307464599609 16.02054214477539 128.8926696777344 19.20694160461426 132.4025421142578 22.71678161621094 C 135.9121704101562 26.22646141052246 139.0985412597656 30.08844184875488 141.8731994628906 34.19540023803711 C 144.6743927001953 38.34188079833984 147.0802917480469 42.77448272705078 149.0239105224609 47.37005996704102 C 151.0036926269531 52.05036163330078 152.5241851806641 56.94864273071289 153.5433502197266 61.9288215637207 C 154.5888671875 67.03858184814453 155.1189727783203 72.29759979248047 155.1189727783203 77.55978393554688 C 155.1189727783203 82.82192230224609 154.5888671875 88.08087921142578 153.5433502197266 93.19060516357422 C 152.5241851806641 98.17072296142578 151.0036926269531 103.068962097168 149.0239105224609 107.7491989135742 C 147.0802917480469 112.3447418212891 144.6744842529297 116.7772827148438 141.8731994628906 120.9237594604492 C 139.0985412597656 125.0307006835938 135.9121704101562 128.8926544189453 132.4025421142578 132.4023284912109 C 128.8926696777344 135.9120941162109 125.0307464599609 139.0984954833984 120.9239654541016 141.873046875 C 116.777587890625 144.6742248535156 112.3451232910156 147.0801391601562 107.7493667602539 149.0239868164062 C 103.068603515625 151.0037841796875 98.17036437988281 152.5243072509766 93.19080352783203 153.5432586669922 C 88.08116912841797 154.5888366699219 82.82212829589844 155.1190032958984 77.55974578857422 155.1190032958984 Z M 77.55974578857422 13.01704120635986 C 73.18068695068359 13.01704120635986 68.80430603027344 13.45820140838623 64.55224609375 14.32832145690918 C 60.40818786621094 15.1763219833374 56.33196640014648 16.4416618347168 52.43674468994141 18.08912086486816 C 48.61234664916992 19.70676231384277 44.92360687255859 21.70890235900879 41.47340774536133 24.03994178771973 C 38.05554580688477 26.34890174865723 34.84180450439453 29.00056076049805 31.92116546630859 31.92120170593262 C 29.00046730041504 34.84192276000977 26.34882545471191 38.05572128295898 24.03988647460938 41.47336196899414 C 21.70886611938477 44.92380142211914 19.70658683776855 48.61246109008789 18.08898544311523 52.43688201904297 C 16.44148635864258 56.33226013183594 15.17616653442383 60.40844345092773 14.32820606231689 64.55220031738281 C 13.45818614959717 68.804443359375 13.01694679260254 73.18083953857422 13.01694679260254 77.55978393554688 C 13.01694679260254 81.93875885009766 13.45818614959717 86.31513977050781 14.32820606231689 90.56735992431641 C 15.17616653442383 94.71110534667969 16.44148635864258 98.78726196289062 18.08898544311523 102.6826400756836 C 19.70658683776855 106.5070190429688 21.70886611938477 110.1956405639648 24.03988647460938 113.6460647583008 C 26.34874725341797 117.0635986328125 29.0003662109375 120.2773590087891 31.92116546630859 123.1981048583984 C 34.84180450439453 126.1187210083008 38.05554580688477 128.7703399658203 41.47340774536133 131.0792541503906 C 44.92368698120117 133.4102783203125 48.61234664916992 135.4124145507812 52.43674468994141 137.0299835205078 C 56.33196640014648 138.6774597167969 60.40818786621094 139.9427642822266 64.55224609375 140.7907409667969 C 68.80422973632812 141.6608276367188 73.18060302734375 142.1020050048828 77.55974578857422 142.1020050048828 C 81.93888854980469 142.1020050048828 86.31526947021484 141.6608276367188 90.56734466552734 140.7907409667969 C 94.7113037109375 139.9427642822266 98.78744506835938 138.6774749755859 102.6826629638672 137.0299835205078 C 106.506965637207 135.4124603271484 110.1955261230469 133.4103546142578 113.6460037231445 131.0792541503906 C 117.0637664794922 128.7702484130859 120.2776031494141 126.1185989379883 123.1980667114258 123.1981048583984 C 126.1186065673828 120.2776184082031 128.7702331542969 117.0638427734375 131.0791931152344 113.6460647583008 C 133.4102935791016 110.1956253051758 135.4124603271484 106.5069808959961 137.0299072265625 102.6826400756836 C 138.6773834228516 98.78764343261719 139.9427337646484 94.71147918701172 140.7906646728516 90.56735992431641 C 141.6607818603516 86.31562042236328 142.1019287109375 81.93922424316406 142.1019287109375 77.55978393554688 C 142.1019287109375 73.18035888671875 141.6607818603516 68.80397796630859 140.7906646728516 64.55220031738281 C 139.9427337646484 60.40810012817383 138.6773834228516 56.3319206237793 137.0299072265625 52.43688201904297 C 135.4124603271484 48.61250305175781 133.4102935791016 44.92382049560547 131.0791931152344 41.47336196899414 C 128.7702331542969 38.05548095703125 126.118522644043 34.84168243408203 123.1980667114258 31.92120170593262 C 120.2776031494141 29.00068092346191 117.0637664794922 26.34902191162109 113.6460037231445 24.03994178771973 C 110.1957092285156 21.70894241333008 106.5071487426758 19.70680236816406 102.6826629638672 18.08912086486816 C 98.78744506835938 16.44164085388184 94.7113037109375 15.1763219833374 90.56734466552734 14.32832145690918 C 86.315185546875 13.45820140838623 81.93888854980469 13.01704120635986 77.55974578857422 13.01704120635986 Z"/></g><g transform="translate(96.378 2512.517)"><circle class="a" cx="67.235" cy="67.235" r="67.235"/><g class="c"><g transform="translate(29.117 26.994)"><g transform="translate(13.335 46.628)"><path class="d" d="M91,677.386a.917.917,0,0,1-.914-.848,10.615,10.615,0,0,0-1.539-4.836,7.7,7.7,0,0,0-1.31-1.637.918.918,0,0,1,1.19-1.4,11.6,11.6,0,0,1,3.489,7.731.919.919,0,0,1-.846.986Z" transform="translate(-86.918 -668.45)"/></g><g transform="translate(51.689 38.799)"><ellipse class="d" cx="2.706" cy="3.543" rx="2.706" ry="3.543" transform="translate(0 0.077) rotate(-0.815)"/></g><g transform="translate(17.657 46.101)"><path class="d" d="M117.814,698.948c-.836,0-1.613-.041-2.306-.077a43.557,43.557,0,0,1-8.226-1.246,24.661,24.661,0,0,1-8.69-3.847,17.87,17.87,0,0,1-7.07-11.617l1.812-.3a15.85,15.85,0,0,0,6.359,10.443c4.131,3.092,10.928,4.471,15.912,4.73,4.089.213,10.268.534,14.173-7.723a72.083,72.083,0,0,0,6.088-21.426l1.821.225a73.941,73.941,0,0,1-6.251,21.985c-1.911,4.042-4.612,6.723-8.026,7.968A16.192,16.192,0,0,1,117.814,698.948Z" transform="translate(-91.522 -667.889)"/></g><g transform="translate(5.043)"><path class="d" d="M89.063,660.991s.526-16.553,1.421-18.768a7.476,7.476,0,0,1,2.558-3.174c.566-.317,1.213-.808,1.25-1.408.065-1.075,3.716-1.315,3.716-1.315s2.576-.224,3.026-.661a3.828,3.828,0,0,1,3.328-.614,4.547,4.547,0,0,0,1.7.269l.057,0a5.81,5.81,0,0,0,2.394-.6,2.384,2.384,0,0,1,1.527-.231,3.091,3.091,0,0,0,1.64-.068,2.807,2.807,0,0,1,1.178-.186,4.633,4.633,0,0,1,2.1.695s.684.507,1.719-.282a3.247,3.247,0,0,1,2.986-.552,4.837,4.837,0,0,1,.491.2,3.235,3.235,0,0,0,1.457.323,1.449,1.449,0,0,0,.729-.166c.425-.3,1.777.271,1.777.271a1.976,1.976,0,0,0,1.848-.429c.744-.613,2.3.242,2.891.608a3.063,3.063,0,0,0,.558.27,12.191,12.191,0,0,1,1.354.531c1.841,1.051,3.155,5.237,3.56,7.813.57,3.622.752,13.964.752,13.964l1.313,2.47a9.3,9.3,0,0,1,1.086-3.317c.408-.568,1.34-2.14.537-2.956a.4.4,0,0,1-.089-.432,7.186,7.186,0,0,0,.7-3.186.5.5,0,0,1,.13-.445c.49-.506,1.594-2.022.4-4.521a3.274,3.274,0,0,1-.058-2.2,1.176,1.176,0,0,0-.507-1.659c-.833-.392-.482-1.725-.255-2.364a5.314,5.314,0,0,0,.315-1.564,2.313,2.313,0,0,0-.588-1.868.831.831,0,0,1-.3-.542,1.974,1.974,0,0,0-.571-1.31,1.03,1.03,0,0,1-.346-.474,3.419,3.419,0,0,0-1.646-1.771,3.352,3.352,0,0,1-1.818-3.091,2.455,2.455,0,0,0-1.661-2.165,1.845,1.845,0,0,1-1.144-1.054c-.327-.816-1.2-1.952-3.56-2.333-3.824-.617-2.69-.2-4.157-1.338a2.685,2.685,0,0,0-2.086-.626,2.68,2.68,0,0,1-2.308-.714l-.033-.034a2.027,2.027,0,0,0-1.515-.614,3.371,3.371,0,0,0-.961.179,1.9,1.9,0,0,1-1.72-.31,1.863,1.863,0,0,0-1.589-.295,1.6,1.6,0,0,0-.618.338c-.769.683-2.716-.23-2.716-.23a3.413,3.413,0,0,0-3.261.345,4.332,4.332,0,0,1-1.991.742c-.506.05-1.154.11-1.931.172a10.594,10.594,0,0,0-3.37,1.027,9.733,9.733,0,0,0-1.61.969,5.2,5.2,0,0,1-3.575.946,3.036,3.036,0,0,0-3.012,2.2,1.137,1.137,0,0,1-.947.714c-1.068.1-2.97.533-3.193,2.4,0,0-.038,1.13-2,.916-1.366-.148-2.379,2.62-2.869,4.322a7.546,7.546,0,0,0-.259,1.751.915.915,0,0,1-.723.861c-.519.167-.705.849-.676,1.357a2.318,2.318,0,0,1-.439,1.635,7.105,7.105,0,0,0-1.2,4.941,4.449,4.449,0,0,0,.314,1.347,1.336,1.336,0,0,1-.163,1.229,4.592,4.592,0,0,0,.271,3.973,2.967,2.967,0,0,1,.352,2.036c-.2.68.641,2.107,1.163,2.9a6.289,6.289,0,0,1,.686,1.394c.5,1.435,2.021,4.766,1.892,6.159C82.776,663.386,83.662,660.991,89.063,660.991Z" transform="translate(-78.086 -618.785)"/></g><g transform="translate(24.142 28.279)"><path class="d" d="M99.627,653.841a1.239,1.239,0,0,1-.859-2.089,10.017,10.017,0,0,1,12.422-1.246,1.24,1.24,0,1,1-1.254,2.139,7.53,7.53,0,0,0-9.373.819A1.241,1.241,0,0,1,99.627,653.841Z" transform="translate(-98.429 -648.906)"/></g><g transform="translate(46.478 28.964)"><path class="d" d="M133.574,654.5a1.236,1.236,0,0,1-.843-.314c-1.933-1.725-3.92-2.376-5.905-1.935a6.145,6.145,0,0,0-2.53,1.228,1.24,1.24,0,0,1-1.674-1.829,8.411,8.411,0,0,1,3.532-1.788c1.961-.47,4.981-.423,8.228,2.475a1.239,1.239,0,0,1-.807,2.164Z" transform="translate(-122.22 -649.635)"/></g><g transform="translate(29.341 38.799)"><ellipse class="d" cx="2.706" cy="3.543" rx="2.706" ry="3.543" transform="translate(0 0.077) rotate(-0.815)"/></g><g transform="translate(14.301 40.437)"><rect class="d" width="7.82" height="1.836" transform="matrix(0.993, -0.115, 0.115, 0.993, 0, 0.896)"/></g><g transform="translate(21.112 34.879)"><path class="d" d="M111.315,670.536H99.283a4.086,4.086,0,0,1-4.081-4.081v-6.437a4.086,4.086,0,0,1,4.081-4.082h12.032a4.087,4.087,0,0,1,4.082,4.082v6.437A4.087,4.087,0,0,1,111.315,670.536ZM99.283,657.771a2.248,2.248,0,0,0-2.246,2.247v6.437a2.248,2.248,0,0,0,2.246,2.246h12.032a2.248,2.248,0,0,0,2.246-2.246v-6.437a2.248,2.248,0,0,0-2.246-2.247Z" transform="translate(-95.202 -655.936)"/></g><g transform="translate(44.209 35.377)"><path class="d" d="M135.487,670.706H123.795a4,4,0,0,1-3.992-3.992v-6.255a4,4,0,0,1,3.992-3.993h11.692a4,4,0,0,1,3.993,3.993v6.255A4,4,0,0,1,135.487,670.706Zm-11.692-12.4a2.159,2.159,0,0,0-2.157,2.157v6.255a2.16,2.16,0,0,0,2.157,2.157h11.692a2.159,2.159,0,0,0,2.157-2.157v-6.255a2.158,2.158,0,0,0-2.157-2.157Z" transform="translate(-119.803 -656.466)"/></g><g transform="translate(40.008 40.879)"><path class="d" d="M120.145,664.788c-1.213-.943-3.546-.6-4.342-.391l-.475-1.773c.152-.041,3.758-.983,5.944.714Z" transform="translate(-115.328 -662.326)"/></g><g transform="translate(44.658 47.315)"><path class="d" d="M121.938,679.619a6.469,6.469,0,0,1-.875-.053.918.918,0,0,1,.27-1.816,5.442,5.442,0,0,0,1.9-.123,2.5,2.5,0,0,0,2-2.092c.494-2.607-3.4-4.591-3.441-4.611a.918.918,0,0,1,.806-1.649,11.343,11.343,0,0,1,2.428,1.69c1.638,1.509,2.334,3.207,2.011,4.912a4.352,4.352,0,0,1-3.4,3.542A7.055,7.055,0,0,1,121.938,679.619Z" transform="translate(-120.282 -669.182)"/></g><g transform="translate(31.991 54.454)"><path class="d" d="M117.716,690.707a11.958,11.958,0,0,1-2.86-.373c-4.081-1.007-7.094-5.681-8.058-12.5a.918.918,0,0,1,1.593-.741l.041.047a27.1,27.1,0,0,0,5.89,4.995c3.847,2.307,7.188,2.451,9.926.43a.918.918,0,0,1,1.454.868,9.461,9.461,0,0,1-3.637,6.015A7.6,7.6,0,0,1,117.716,690.707ZM109.2,680.54c1.158,4.412,3.341,7.333,6.091,8.012a6.985,6.985,0,0,0,5.732-.619,6.5,6.5,0,0,0,2.206-2.718c-2.913,1.144-6.273.64-9.854-1.507A25.959,25.959,0,0,1,109.2,680.54Z" transform="translate(-106.789 -676.786)"/></g><g transform="translate(29.513 80.835)"><path class="d" d="M111.992,709.522a10.449,10.449,0,0,1-3.422-.572,10.558,10.558,0,0,1-4.42-2.892l1.413-1.172c.212.253,5.285,6.115,13.82.1l1.058,1.5A15.077,15.077,0,0,1,111.992,709.522Z" transform="translate(-104.15 -704.886)"/></g><g transform="translate(44.559 75.466)"><path class="d" d="M150.182,730.8a.919.919,0,0,1-.917-.89,33.616,33.616,0,0,0-2.512-11.138,23.14,23.14,0,0,0-5.235-8.34c-2.914-2.583-7.4-5.036-12.975-7.094-.979-.361-1.912-.682-2.769-.959,4,3.407,8.72,8.214,9,8.5a.918.918,0,0,1-.309,1.493,26.654,26.654,0,0,0-10.087,7.528.918.918,0,1,1-1.461-1.112,28.278,28.278,0,0,1,9.61-7.568c-3.165-3.162-9.435-9.17-11.827-10.306a.918.918,0,0,1,.6-1.724c.569.131,14.012,3.289,21.435,9.869,4.308,3.818,8.139,13.341,8.365,20.8a.918.918,0,0,1-.89.946Z" transform="translate(-120.176 -699.167)"/></g><g transform="translate(49.216 93.419)"><path class="d" d="M126.43,731.971a.92.92,0,0,1-.859-1.243l3.382-8.932-3.33-1.779a.918.918,0,0,1,.865-1.62l4.042,2.159a.918.918,0,0,1,.426,1.135l-3.667,9.686A.918.918,0,0,1,126.43,731.971Z" transform="translate(-125.137 -718.289)"/></g><g transform="translate(0 73.018)"><path class="d" d="M73.632,730.642H73.6a.918.918,0,0,1-.887-.947A30.3,30.3,0,0,1,75.4,718.836a23.956,23.956,0,0,1,5.688-8.365c7.186-6.172,20.934-13.5,21.516-13.8a.918.918,0,0,1,1.1,1.44c-1.909,2.027-9.289,11.82-11.513,14.783a45.529,45.529,0,0,1,11.831,9.082.918.918,0,1,1-1.4,1.192,31.519,31.519,0,0,0-3.117-3A50.418,50.418,0,0,0,90.392,714a.918.918,0,0,1-.307-1.361c.3-.4,5.494-7.35,9.17-12.016-4.733,2.7-12.354,7.276-16.968,11.238a22.493,22.493,0,0,0-5.2,7.714,28.471,28.471,0,0,0-2.533,10.177A.918.918,0,0,1,73.632,730.642Z" transform="translate(-72.714 -696.559)"/></g><g transform="translate(22.535 96.432)"><path class="d" d="M101.48,732.553a.917.917,0,0,1-.809-.484l-3.844-7.158a.918.918,0,0,1,.467-1.286l5.133-2.061a.918.918,0,0,1,.683,1.7l-4.181,1.679,3.358,6.253a.918.918,0,0,1-.807,1.353Z" transform="translate(-96.717 -721.499)"/></g><g transform="translate(29.222 73.039)"><path class="d" d="M112.821,730.643a.917.917,0,0,1-.873-.636l-8.064-24.9a.944.944,0,0,1-.044-.3L104,697.48a.918.918,0,1,1,1.835.04l-.157,7.172,8.015,24.751a.918.918,0,0,1-.591,1.156A.93.93,0,0,1,112.821,730.643Z" transform="translate(-103.84 -696.582)"/></g><g transform="translate(39.017 75.466)"><path class="d" d="M119.042,730.8a.919.919,0,0,1-.883-.667l-2.646-9.3a.919.919,0,0,1,.1-.733l3.143-5.093-4.322-6.236a.918.918,0,1,1,1.509-1.046l3.37,4.862.5-7.254v-5.254a.918.918,0,1,1,1.835,0v5.285c0,.022,0,.042,0,.064l-1.691,24.512a.917.917,0,0,1-.821.85A.826.826,0,0,1,119.042,730.8Zm-1.652-10.076,1.1,3.858.438-6.346Z" transform="translate(-114.273 -699.167)"/></g><g transform="translate(33.135 83.734)"><path class="d" d="M113.077,731.34l-.063,0a.918.918,0,0,1-.854-.977l.585-8.652-4.458-4.334a.918.918,0,0,1-.2-1.032l3.492-7.825a.918.918,0,0,1,1.677.748l-3.231,7.239,4.3,4.183a.916.916,0,0,1,.276.72l-.613,9.077A.918.918,0,0,1,113.077,731.34Z" transform="translate(-108.008 -707.973)"/></g><g transform="translate(8.245 40.911)"><path class="d" d="M90.767,682.728a4.373,4.373,0,0,1-2.439-.712,5.29,5.29,0,0,1-2.126-3.889c-.435-3.1-.62-3.871-3.283-7.009a5.6,5.6,0,0,1-1.409-4.073,5.318,5.318,0,0,1,1.577-3.41,4.231,4.231,0,0,1,6.042-.011,5.157,5.157,0,0,1,1.229,1.8c.071.145.149.3.238.479a.918.918,0,1,1-1.637.83c-.093-.182-.174-.347-.248-.5a3.535,3.535,0,0,0-.816-1.254,2.432,2.432,0,0,0-3.532-.029,3.563,3.563,0,0,0-.046,4.976c2.97,3.5,3.236,4.613,3.7,7.942a3.569,3.569,0,0,0,1.328,2.617,2.838,2.838,0,0,0,2.237.3.918.918,0,0,1,.461,1.777A5.105,5.105,0,0,1,90.767,682.728Z" transform="translate(-81.496 -662.361)"/></g></g></g></g></g></svg>