<svg xmlns="http://www.w3.org/2000/svg" width="88.826" height="55.634" viewBox="0 0 88.826 55.634"><defs><style>.a{fill:#3b3836;}.b{fill:#de72c6;}.c{fill:#ff392f;}.d{fill:#ffa300;}.e{fill:#009949;}.f{fill:#004d9c;}</style></defs><g transform="translate(-207.013 -279.805)"><path class="a" d="M281.06,363.707l-.7-3.96a.818.818,0,0,0-1.575-.138l-.676,1.853-.676-1.853a.818.818,0,0,0-1.575.138l-.7,3.96a.819.819,0,0,0,1.613.284l.168-.953.4,1.091h0a.818.818,0,0,0,1.539,0l.4-1.091.168.953a.819.819,0,0,0,1.613-.284Z" transform="translate(-37.566 -43.701)"/><path class="a" d="M305.127,362.837v-.014a1.54,1.54,0,0,0-.565-1.187,2.468,2.468,0,0,0-1.215-.509c-.4-.05-.808-.019-.808-.333,0-.132.162-.255.368-.255a1.724,1.724,0,0,1,.828.344.778.778,0,0,0,1.18-.686.785.785,0,0,0-.377-.664,3.01,3.01,0,0,0-1.669-.448,1.783,1.783,0,0,0-1.924,1.789v.014c0,1.07.792,1.49,1.8,1.637.747.109.783.278.783.4,0,.075-.112.244-.43.256a2,2,0,0,1-1.028-.4.8.8,0,0,0-1.022.089.761.761,0,0,0-.218.56.8.8,0,0,0,.326.632,3.329,3.329,0,0,0,1.914.608h.053a2.22,2.22,0,0,0,1.434-.482A1.68,1.68,0,0,0,305.127,362.837Z" transform="translate(-51.723 -43.709)"/><path class="a" d="M299.125,395.3h-1.561v-3.065a.819.819,0,1,0-1.637,0v3.884a.82.82,0,0,0,.819.819h2.379a.819.819,0,1,0,0-1.637Z" transform="translate(-49.02 -61.532)"/><path class="a" d="M295.29,375.4h-2.8a.819.819,0,0,0,0,1.638h.579v3.026a.819.819,0,1,0,1.638,0v-3.026h.579a.819.819,0,0,0,0-1.638Z" transform="translate(-46.676 -52.704)"/><path class="a" d="M348.67,375.4h-2.8a.819.819,0,1,0,0,1.638h.579v3.026a.819.819,0,1,0,1.637,0v-3.026h.58a.819.819,0,0,0,0-1.638Z" transform="translate(-76.106 -52.704)"/><path class="a" d="M326.736,379.772l-1.38-3.79v0a1.084,1.084,0,0,0-2.028,0l-1.381,3.793a.819.819,0,0,0,1.539.56l.17-.467h1.373l.17.467a.819.819,0,0,0,1.539-.56Zm-2.607-1.409.212-.747.212.747Z" transform="translate(-63.338 -52.637)"/><path class="a" d="M364.531,375.328a.82.82,0,0,0-1.049.489l-.856,2.353-.857-2.353a.819.819,0,0,0-1.539.56l1.38,3.79v0a1.084,1.084,0,0,0,2.029,0l1.381-3.793A.819.819,0,0,0,364.531,375.328Z" transform="translate(-84.445 -52.637)"/><path class="a" d="M373.877,375.273a2.8,2.8,0,1,0,2.8,2.8A2.8,2.8,0,0,0,373.877,375.273Zm1.161,2.8a1.161,1.161,0,1,1-1.161-1.161A1.163,1.163,0,0,1,375.038,378.072Z" transform="translate(-90.453 -52.634)"/><path class="a" d="M323.554,359.071a2.8,2.8,0,1,0,2.8,2.8A2.8,2.8,0,0,0,323.554,359.071Zm1.161,2.8a1.161,1.161,0,1,1-1.161-1.161A1.163,1.163,0,0,1,324.715,361.87Z" transform="translate(-62.709 -43.701)"/><path class="a" d="M337.268,378.307a.786.786,0,0,0-.672.383,1.191,1.191,0,0,1-1,.542,1.161,1.161,0,1,1,.98-1.784.819.819,0,1,0,1.386-.873,2.863,2.863,0,0,0-1-.942,2.8,2.8,0,1,0,0,4.873,2.868,2.868,0,0,0,1-.944.819.819,0,0,0-.692-1.257Z" transform="translate(-69.346 -52.634)"/><path class="a" d="M293.225,359.077a.819.819,0,0,0-.818.818v2.391a.746.746,0,0,1-1.492,0V359.9a.819.819,0,0,0-1.638,0v2.391a2.383,2.383,0,0,0,4.767,0V359.9A.82.82,0,0,0,293.225,359.077Z" transform="translate(-45.354 -43.705)"/><path class="a" d="M276.876,391.53h-.9a.823.823,0,0,0-.822.822v3.773a.822.822,0,0,0,.822.822h.9a2.708,2.708,0,0,0,0-5.416Zm-.082,1.643h.082a1.064,1.064,0,0,1,0,2.129h-.082Z" transform="translate(-37.566 -61.597)"/><path class="a" d="M289.156,395.309h-1.561v-.341h1.272a.727.727,0,1,0,0-1.454h-1.272v-.341h1.561a.819.819,0,0,0,0-1.638h-2.38a.82.82,0,0,0-.819.819h0v3.773a.82.82,0,0,0,.819.819h2.38a.819.819,0,0,0,0-1.637Z" transform="translate(-43.524 -61.6)"/><path class="a" d="M305.45,379.254h-1.561v-.341h1.272a.727.727,0,0,0,0-1.454h-1.272v-.341h1.561a.819.819,0,0,0,0-1.638h-2.38a.82.82,0,0,0-.818.819h0v3.773a.82.82,0,0,0,.818.819h2.38a.819.819,0,1,0,0-1.637Z" transform="translate(-52.508 -52.749)"/><path class="a" d="M314.536,363.052h-1.561v-.34h1.272a.727.727,0,0,0,0-1.454h-1.272v-.341h1.561a.819.819,0,1,0,0-1.637h-2.379a.819.819,0,0,0-.819.819h0v3.773a.82.82,0,0,0,.819.819h2.379a.819.819,0,0,0,0-1.638Z" transform="translate(-57.517 -43.816)"/><path class="a" d="M276.433,375.358a.82.82,0,0,0-.818.819v3.884a.819.819,0,1,0,1.637,0v-3.884A.82.82,0,0,0,276.433,375.358Z" transform="translate(-37.822 -52.681)"/><path class="a" d="M356.683,375.358a.82.82,0,0,0-.819.819v3.884a.819.819,0,1,0,1.638,0v-3.884A.82.82,0,0,0,356.683,375.358Z" transform="translate(-82.065 -52.681)"/><path class="a" d="M284.469,375.279a.82.82,0,0,0-.819.819v1.678l-1.532-2.187a.724.724,0,0,0-.613-.31h-.031a.82.82,0,0,0-.819.819v3.955a.819.819,0,0,0,1.638,0v-1.679l1.5,2.146,0,.006a.819.819,0,0,0,1.486-.473V376.1A.819.819,0,0,0,284.469,375.279Z" transform="translate(-40.601 -52.637)"/><path class="a" d="M371.995,391.456h-2.8a.819.819,0,0,0,0,1.638h.579v3.026a.819.819,0,0,0,1.638,0v-3.026h.579a.819.819,0,0,0,0-1.638Z" transform="translate(-88.966 -61.556)"/><path class="a" d="M350.986,391.334a.82.82,0,0,0-.819.819v2.391a.746.746,0,0,1-1.492,0v-2.391a.819.819,0,1,0-1.637,0v2.391a2.383,2.383,0,0,0,4.766,0v-2.391A.82.82,0,0,0,350.986,391.334Z" transform="translate(-77.199 -61.489)"/><path class="a" d="M326.03,391.334a.82.82,0,0,0-.818.819v2.391a.746.746,0,0,1-1.492,0v-2.391a.819.819,0,1,0-1.637,0v2.391a2.383,2.383,0,0,0,4.766,0v-2.391A.82.82,0,0,0,326.03,391.334Z" transform="translate(-63.441 -61.489)"/><path class="a" d="M314.015,391.334a.82.82,0,0,0-.819.819v2.391a.746.746,0,0,1-1.492,0,.819.819,0,1,0-1.637,0,2.383,2.383,0,0,0,4.766,0v-2.391A.82.82,0,0,0,314.015,391.334Z" transform="translate(-56.816 -61.489)"/><path class="a" d="M362.162,395.309H360.6v-.341h1.272a.727.727,0,1,0,0-1.454H360.6v-.341h1.561a.819.819,0,0,0,0-1.638h-2.38a.82.82,0,0,0-.819.819h0v3.773a.82.82,0,0,0,.819.819h2.38a.819.819,0,0,0,0-1.637Z" transform="translate(-83.774 -61.6)"/><path class="a" d="M381.924,395.309h-1.561v-.341h1.272a.727.727,0,1,0,0-1.454h-1.272v-.341h1.561a.819.819,0,0,0,0-1.638h-2.38a.82.82,0,0,0-.818.819h0v3.773a.819.819,0,0,0,.818.819h2.38a.819.819,0,1,0,0-1.637Z" transform="translate(-94.67 -61.6)"/><path class="a" d="M339.122,393.792h0a.816.816,0,0,0-.734-.409H336.93a.727.727,0,1,0,0,1.454h.458a1.086,1.086,0,0,1-.331.295,1.21,1.21,0,0,1-.9.116,1.159,1.159,0,1,1,.819-2.151.819.819,0,1,0,.764-1.448,2.866,2.866,0,0,0-1.334-.318,2.8,2.8,0,0,0-.692,5.5,2.816,2.816,0,0,0,.729.1,2.787,2.787,0,0,0,2.4-1.375,2.866,2.866,0,0,0,.393-1.316A.818.818,0,0,0,339.122,393.792Z" transform="translate(-69.809 -61.487)"/><path class="a" d="M315.341,378.661a1.681,1.681,0,0,0,.935-1.495,1.705,1.705,0,0,0-1.564-1.676.816.816,0,0,0-.12-.009h-1.574a.82.82,0,0,0-.819.818h0v3.773a.819.819,0,0,0,1.638,0v-.659l.994,1.185a.819.819,0,0,0,1.254-1.053Zm-.923-1.138h-.582v-.406h.582a.2.2,0,0,1,0,.406Z" transform="translate(-57.991 -52.749)"/><g transform="translate(207.013 279.805)"><path class="b" d="M279.091,283.506a3.967,3.967,0,0,0-3.962,3.962V306.61a3.962,3.962,0,1,0,7.924,0V287.468A3.966,3.966,0,0,0,279.091,283.506Z" transform="translate(-244.567 -281.845)"/><path class="c" d="M235.613,305.9l-3.373-19.167a3.961,3.961,0,0,0-7.624-.665l-3.273,8.968-3.273-8.968a3.961,3.961,0,0,0-7.624.665L207.074,305.9a3.962,3.962,0,0,0,7.8,1.376l.812-4.615,1.928,5.282.006,0a3.96,3.96,0,0,0,7.445,0L227,302.662l.812,4.615a3.962,3.962,0,0,0,7.8-1.376Z" transform="translate(-207.013 -281.819)"/><circle class="d" cx="3.962" cy="3.962" r="3.962" transform="translate(38.839 5.604) rotate(-45)"/><path class="e" d="M372.678,283.506a3.966,3.966,0,0,0-3.962,3.962v11.57a3.61,3.61,0,0,1-7.22,0v-11.57a3.962,3.962,0,1,0-7.924,0v11.57a11.534,11.534,0,0,0,23.069,0v-11.57A3.967,3.967,0,0,0,372.678,283.506Z" transform="translate(-287.815 -281.845)"/><path class="f" d="M316.341,283.506a3.966,3.966,0,0,0-3.962,3.962v11.57a3.61,3.61,0,1,1-7.219,0,3.962,3.962,0,1,0-7.925,0,11.534,11.534,0,0,0,23.069,0v-11.57A3.967,3.967,0,0,0,316.341,283.506Z" transform="translate(-256.755 -281.845)"/></g></g></svg>