<svg xmlns="http://www.w3.org/2000/svg" xmlns:xlink="http://www.w3.org/1999/xlink" width="198.045" height="120.528" viewBox="0 0 198.045 120.528"><defs><style>.a{fill:#fff;}.b{fill:#00a660;}.c{clip-path:url(#a);}.d{fill:#4b4846;}</style><clipPath id="a"><circle class="a" cx="42.175" cy="42.175" r="42.175"/></clipPath></defs><g transform="translate(-16 -513.003)"><g transform="translate(38 -10)"><path class="b" d="M188.027,0H132.952a31.058,31.058,0,0,0-30.966,30.966h0a30.932,30.932,0,0,0,11.1,23.7l-2.225,8.557,8.675-2.393,2.82-.778a30.691,30.691,0,0,0,10.6,1.88h55.075a31.057,31.057,0,0,0,30.966-30.966h0A31.057,31.057,0,0,0,188.027,0Z" transform="translate(-42.949 523.003)"/><g transform="translate(130.229 540.523)"><path class="a" d="M280.681,51.645c.1-.085.2-.162.28-.228s.164-.131.241-.2q.472-.434.958-.815t1-.732a3.016,3.016,0,0,1,.333-.148,2.962,2.962,0,0,0,.333-.148c.1-.024.15.018.145.127a.528.528,0,0,1-.04.125q-.232.285-.428.574a1.638,1.638,0,0,1-.5.475c-.051.043-.1.081-.145.115a.457.457,0,0,0-.119.132,1.992,1.992,0,0,1-.237.263l-.264.247q-.269.225-.535.461t-.535.461a.88.88,0,0,1-.645.291.711.711,0,0,1-.492-.183.609.609,0,0,1-.256-.446l-.062-.262a.065.065,0,0,0-.032-.038,1.57,1.57,0,0,0-.192.161c-.136.14-.268.279-.4.416s-.26.277-.4.417a.856.856,0,0,1-.175.133c-.1.086-.2.164-.3.233s-.2.139-.307.211a1.307,1.307,0,0,1-.672.274.877.877,0,0,1-.38-.048,1.3,1.3,0,0,1-.383-.209,1.373,1.373,0,0,1-.309-.33.674.674,0,0,1-.112-.422,2.78,2.78,0,0,1,.058-.486,1.406,1.406,0,0,1,.182-.446q.277-.48.6-.936a5.712,5.712,0,0,1,.73-.853,1.112,1.112,0,0,1,.46-.293,1.383,1.383,0,0,1,.586.045q.116.3.077.373a1.013,1.013,0,0,1-.275.249l-.154.129a1.2,1.2,0,0,0-.148.15c-.18.212-.355.43-.524.654a6.377,6.377,0,0,0-.465.709,4.024,4.024,0,0,0-.2.508.514.514,0,0,0,.065.468.683.683,0,0,0,.191-.068,5.8,5.8,0,0,0,1.126-.981l.545-.613a3.2,3.2,0,0,0,.554-.627l.467-.7a1.085,1.085,0,0,0,.164-.327q.06-.187.127-.387.224-.605.447-1.223t.5-1.211q.356-.729.687-1.568.068-.2.13-.376c.041-.117.084-.242.13-.376l.023-.1q.107-.325.271-.364a.934.934,0,0,1,.526.128.669.669,0,0,1,.14.105,1.355,1.355,0,0,0,.149.241,1.806,1.806,0,0,0-.254.532q-.083.285-.2.587-.067.2-.165.419t-.209.43q-.273.5-.507,1.018a9.094,9.094,0,0,0-.4,1.063q-.13.423-.281.8t-.282.8q-.1.347-.163.672t-.092.678a.228.228,0,0,0,0,.1.627.627,0,0,1,.012.147" transform="translate(-276.06 -43.47)"/><path class="a" d="M292.978,54.416a2.961,2.961,0,0,0-.254,1.258.3.3,0,0,0,.38.048q.338-.126.661-.272a6.469,6.469,0,0,0,.645-.337q.5-.3,1-.572c.334-.179.365-.128.7-.33a.843.843,0,0,1,.458-.109.793.793,0,0,1,.03.223.444.444,0,0,1-.107.279.935.935,0,0,1-.22.191c-.128.107.045-.035-.086.058s-.265.178-.4.256-.289.157-.418.226l-.419.226a2.722,2.722,0,0,0-.331.2,2.6,2.6,0,0,1-.331.205,5.284,5.284,0,0,1-.623.286,2.54,2.54,0,0,1-.654.155.888.888,0,0,1-.661-.166.5.5,0,0,1-.083-.061.165.165,0,0,0-.079-.039.484.484,0,0,1-.214-.318,1.562,1.562,0,0,1-.02-.571,4.341,4.341,0,0,1,.242-.921,6.235,6.235,0,0,1,.4-.843,5.653,5.653,0,0,1,.467-.652q.251-.3.526-.6a5.47,5.47,0,0,1,.9-.788.781.781,0,0,1,.58-.126.717.717,0,0,1,.516.281.434.434,0,0,1,.117.2.6.6,0,0,1,.008.229,2.213,2.213,0,0,1-.292.806A6.059,6.059,0,0,1,294,54.265a.921.921,0,0,1-.358.142c-.132.024-.257.049-.373.077a.192.192,0,0,1-.13-.016.877.877,0,0,0-.162-.054m.389-.691a2.281,2.281,0,0,0,.4-.256,4.837,4.837,0,0,0,.429-.378,3.756,3.756,0,0,0,.389-.449,2.67,2.67,0,0,0,.28-.47.481.481,0,0,0-.169.063c-.077.065-.157.13-.241.2a2.048,2.048,0,0,0-.237.217q-.22.237-.443.508a5.094,5.094,0,0,0-.407.568" transform="translate(-285.445 -47.852)"/><path class="a" d="M305.61,42.84c.108.016.216.035.324.058s.218.049.328.079a.443.443,0,0,1,.132.22,1.041,1.041,0,0,1,.024.257,5.261,5.261,0,0,1-.138,1.059q-.122.515-.255,1.03-.075.282-.149.563l-.149.563q-.175.544-.347,1.1t-.344,1.121a3.744,3.744,0,0,0-.128.47,3.842,3.842,0,0,1-.128.47q-.064.19-.119.367a2.074,2.074,0,0,1-.144.348.306.306,0,0,1-.336.023,1.124,1.124,0,0,1-.35-.246.568.568,0,0,1-.049-.2,1.935,1.935,0,0,0,.045-.255,1.934,1.934,0,0,1,.044-.255q.2-.683.4-1.377t.422-1.381q.177-.521.321-1.039t.252-1.052l.13-.618q.062-.291.13-.617c.016-.107.03-.219.045-.334s.028-.234.042-.357" transform="translate(-292.442 -42.84)"/></g><g transform="translate(78.365 537.367)"><path class="a" d="M248.124,41.45a3.6,3.6,0,0,0-2.871-5.778h-4.135a1.972,1.972,0,0,0-1.97,1.97v9.078a1.972,1.972,0,0,0,1.97,1.97H245.8a3.99,3.99,0,0,0,2.321-7.239Zm-2.449,3a.488.488,0,0,1-.487.488h-1.994v-.975h1.994A.488.488,0,0,1,245.675,44.45Zm-2.481-4.287v-.995h1.327a.5.5,0,0,1,0,.995Z" transform="translate(-202.38 -35.447)"/><path class="a" d="M191.551,44.69H187.8V37.317a1.97,1.97,0,0,0-3.939,0V46.66a1.972,1.972,0,0,0,1.97,1.97h5.724a1.97,1.97,0,1,0,0-3.939Z" transform="translate(-169.702 -35.255)"/><path class="a" d="M160.011,42.423a1.891,1.891,0,0,0-1.618.921,2.866,2.866,0,0,1-2.415,1.305,2.794,2.794,0,1,1,2.358-4.291,1.97,1.97,0,1,0,3.334-2.1,6.882,6.882,0,0,0-2.4-2.266,6.734,6.734,0,1,0,0,11.722,6.9,6.9,0,0,0,2.4-2.271,1.969,1.969,0,0,0-1.664-3.022Z" transform="translate(-149.246 -35.123)"/><path class="a" d="M216.942,35.137a1.972,1.972,0,0,0-1.97,1.97v5.751a1.794,1.794,0,1,1-3.588,0V37.107a1.97,1.97,0,1,0-3.939,0v5.751a5.733,5.733,0,1,0,11.467,0V37.107A1.972,1.972,0,0,0,216.942,35.137Z" transform="translate(-183.643 -35.131)"/><g transform="translate(0.159 18.603)"><path class="a" d="M158.607,81.309h-6.941a2.032,2.032,0,0,0,0,4.065H153.1v7.513a2.032,2.032,0,0,0,4.065,0V85.374h1.438a2.032,2.032,0,0,0,0-4.065Z" transform="translate(-149.634 -81.023)"/><path class="a" d="M199.674,80.612a6.948,6.948,0,1,0,6.948,6.948A6.956,6.956,0,0,0,199.674,80.612Zm2.883,6.948a2.883,2.883,0,1,1-2.883-2.883A2.886,2.886,0,0,1,202.557,87.56Z" transform="translate(-175.102 -80.611)"/><g transform="translate(34.256)"><path class="a" d="M302.786,92.12l-1.73-9.831a2.032,2.032,0,0,0-3.911-.341l-1.678,4.6-1.679-4.6a2.032,2.032,0,0,0-3.911.341l-1.73,9.831a2.032,2.032,0,1,0,4,.706l.416-2.367.989,2.709h0a2.031,2.031,0,0,0,3.819,0l.989-2.709.417,2.367a2.032,2.032,0,1,0,4-.706Z" transform="translate(-265.736 -80.609)"/><path class="a" d="M242.367,81.309h-6.941a2.032,2.032,0,1,0,0,4.065h1.438v7.513a2.032,2.032,0,0,0,4.065,0V85.374h1.438a2.032,2.032,0,1,0,0-4.065Z" transform="translate(-233.394 -81.023)"/><path class="a" d="M332.092,80.612a6.948,6.948,0,1,0,6.948,6.948A6.956,6.956,0,0,0,332.092,80.612Zm2.883,6.948a2.883,2.883,0,1,1-2.883-2.883A2.886,2.886,0,0,1,334.975,87.56Z" transform="translate(-287.62 -80.611)"/><path class="a" d="M269.958,91.111h-3.875v-.845h3.158a1.805,1.805,0,0,0,0-3.61h-3.158v-.847h3.875a2.032,2.032,0,1,0,0-4.065h-5.907a2.035,2.035,0,0,0-2.032,2.033h0v9.367a2.034,2.034,0,0,0,2.032,2.032h5.907a2.032,2.032,0,1,0,0-4.065Z" transform="translate(-250.312 -81.28)"/></g></g><path class="a" d="M181.7,81.064a2.035,2.035,0,0,0-2.033,2.033v9.644a2.033,2.033,0,1,0,4.066,0V83.1A2.035,2.035,0,0,0,181.7,81.064Z" transform="translate(-167.228 -62.275)"/><g transform="translate(12.443 14.919)"><path class="a" d="M180.706,74.829a1.034,1.034,0,0,1-.518-1.93l2-1.159a1.034,1.034,0,1,1,1.034,1.791l-2,1.159A1.033,1.033,0,0,1,180.706,74.829Z" transform="translate(-179.671 -71.601)"/></g></g></g><g transform="translate(-1380.542 -1019.542)"><circle class="a" cx="42.175" cy="42.175" r="42.175" transform="translate(1396.542 1568.723)"/><g class="c" transform="translate(1396.542 1568.723)"><g transform="translate(18.264 16.933)"><g transform="translate(8.365 29.248)"><path class="d" d="M89.478,674.055a.575.575,0,0,1-.574-.532,6.659,6.659,0,0,0-.965-3.033,4.83,4.83,0,0,0-.822-1.027.576.576,0,0,1,.747-.876,7.277,7.277,0,0,1,2.188,4.849.577.577,0,0,1-.531.618Z" transform="translate(-86.918 -668.45)"/></g><g transform="translate(32.423 24.338)"><ellipse class="d" cx="1.697" cy="2.223" rx="1.697" ry="2.223" transform="translate(0 0.048) rotate(-0.815)"/></g><g transform="translate(11.076 28.918)"><path class="d" d="M108.015,687.371c-.524,0-1.012-.026-1.446-.048a27.315,27.315,0,0,1-5.16-.781,15.471,15.471,0,0,1-5.451-2.413,11.21,11.21,0,0,1-4.435-7.287l1.137-.186a9.942,9.942,0,0,0,3.989,6.551c2.591,1.94,6.855,2.8,9.981,2.967,2.565.134,6.441.335,8.89-4.844a45.215,45.215,0,0,0,3.819-13.44l1.143.141a46.381,46.381,0,0,1-3.921,13.791,9.115,9.115,0,0,1-5.035,5A10.157,10.157,0,0,1,108.015,687.371Z" transform="translate(-91.522 -667.889)"/></g><g transform="translate(3.163)"><path class="d" d="M84.972,645.26s.33-10.383.892-11.773a4.689,4.689,0,0,1,1.6-1.991c.355-.2.761-.507.784-.883.041-.674,2.331-.825,2.331-.825a6,6,0,0,0,1.9-.415,2.4,2.4,0,0,1,2.088-.385,2.857,2.857,0,0,0,1.069.169l.036,0a3.644,3.644,0,0,0,1.5-.375,1.5,1.5,0,0,1,.958-.145,1.937,1.937,0,0,0,1.029-.042,1.761,1.761,0,0,1,.739-.116,2.905,2.905,0,0,1,1.32.436s.429.318,1.078-.177a2.037,2.037,0,0,1,1.873-.346,3.02,3.02,0,0,1,.308.122,2.028,2.028,0,0,0,.914.2.911.911,0,0,0,.458-.1c.267-.189,1.115.17,1.115.17a1.24,1.24,0,0,0,1.159-.269c.466-.385,1.442.152,1.813.382a1.92,1.92,0,0,0,.35.17,7.638,7.638,0,0,1,.849.333c1.155.66,1.979,3.285,2.233,4.9.357,2.272.472,8.759.472,8.759l.823,1.549a5.831,5.831,0,0,1,.681-2.081c.256-.356.84-1.342.337-1.854a.25.25,0,0,1-.056-.271,4.507,4.507,0,0,0,.436-2,.314.314,0,0,1,.081-.279,2.366,2.366,0,0,0,.25-2.835,2.054,2.054,0,0,1-.037-1.381.738.738,0,0,0-.318-1.041c-.522-.246-.3-1.082-.16-1.483a3.332,3.332,0,0,0,.2-.981,1.451,1.451,0,0,0-.369-1.172.521.521,0,0,1-.189-.34,1.238,1.238,0,0,0-.358-.822.647.647,0,0,1-.217-.3,2.145,2.145,0,0,0-1.032-1.111,2.1,2.1,0,0,1-1.14-1.939,1.54,1.54,0,0,0-1.042-1.358,1.157,1.157,0,0,1-.718-.661,2.593,2.593,0,0,0-2.233-1.463c-2.4-.387-1.687-.127-2.608-.839a1.683,1.683,0,0,0-1.309-.393,1.681,1.681,0,0,1-1.448-.448l-.021-.021a1.271,1.271,0,0,0-.951-.385,2.107,2.107,0,0,0-.6.112,1.19,1.19,0,0,1-1.079-.194,1.169,1.169,0,0,0-1-.185,1,1,0,0,0-.388.212c-.482.428-1.7-.144-1.7-.144a2.141,2.141,0,0,0-2.045.216,2.718,2.718,0,0,1-1.249.465c-.317.031-.724.069-1.211.108a6.647,6.647,0,0,0-2.114.644,6.084,6.084,0,0,0-1.01.608,3.261,3.261,0,0,1-2.243.594,1.9,1.9,0,0,0-1.889,1.382.713.713,0,0,1-.594.447c-.67.061-1.863.335-2,1.5,0,0-.024.709-1.256.574-.857-.093-1.492,1.644-1.8,2.711a4.735,4.735,0,0,0-.163,1.1.574.574,0,0,1-.453.54c-.326.1-.442.532-.424.851a1.454,1.454,0,0,1-.276,1.025,4.457,4.457,0,0,0-.751,3.1,2.79,2.79,0,0,0,.2.845.838.838,0,0,1-.1.771,2.881,2.881,0,0,0,.17,2.492,1.862,1.862,0,0,1,.221,1.277c-.124.426.4,1.322.73,1.821a3.945,3.945,0,0,1,.43.875c.312.9,1.268,2.99,1.187,3.863C81.028,646.762,81.584,645.26,84.972,645.26Z" transform="translate(-78.086 -618.785)"/></g><g transform="translate(15.143 17.739)"><path class="d" d="M99.18,652a.777.777,0,0,1-.539-1.31,6.283,6.283,0,0,1,7.792-.781.778.778,0,1,1-.787,1.341,4.723,4.723,0,0,0-5.88.514A.779.779,0,0,1,99.18,652Z" transform="translate(-98.429 -648.906)"/></g><g transform="translate(29.155 18.168)"><path class="d" d="M129.342,652.685a.776.776,0,0,1-.529-.2,4.117,4.117,0,0,0-3.7-1.214,3.856,3.856,0,0,0-1.587.77.778.778,0,1,1-1.05-1.147,5.274,5.274,0,0,1,2.215-1.122,5.566,5.566,0,0,1,5.161,1.552.778.778,0,0,1-.506,1.358Z" transform="translate(-122.22 -649.635)"/></g><g transform="translate(18.405 24.338)"><ellipse class="d" cx="1.697" cy="2.223" rx="1.697" ry="2.223" transform="translate(0 0.048) rotate(-0.815)"/></g><g transform="translate(8.97 25.365)"><rect class="d" width="4.905" height="1.152" transform="matrix(0.993, -0.115, 0.115, 0.993, 0, 0.562)"/></g><g transform="translate(13.243 21.879)"><path class="d" d="M105.31,665.094H97.762a2.563,2.563,0,0,1-2.56-2.56V658.5a2.563,2.563,0,0,1,2.56-2.561h7.548a2.564,2.564,0,0,1,2.561,2.561v4.038A2.563,2.563,0,0,1,105.31,665.094Zm-7.548-8.007a1.41,1.41,0,0,0-1.409,1.409v4.038a1.41,1.41,0,0,0,1.409,1.409h7.548a1.41,1.41,0,0,0,1.409-1.409V658.5a1.41,1.41,0,0,0-1.409-1.409Z" transform="translate(-95.202 -655.936)"/></g><g transform="translate(27.731 22.191)"><path class="d" d="M129.641,665.4h-7.334a2.507,2.507,0,0,1-2.5-2.5v-3.924a2.507,2.507,0,0,1,2.5-2.5h7.334a2.508,2.508,0,0,1,2.5,2.5v3.924A2.507,2.507,0,0,1,129.641,665.4Zm-7.334-7.781a1.354,1.354,0,0,0-1.353,1.353v3.924a1.355,1.355,0,0,0,1.353,1.353h7.334a1.354,1.354,0,0,0,1.353-1.353v-3.924a1.354,1.354,0,0,0-1.353-1.353Z" transform="translate(-119.803 -656.466)"/></g><g transform="translate(25.096 25.642)"><path class="d" d="M118.35,663.87a3.679,3.679,0,0,0-2.724-.245l-.3-1.112c.1-.026,2.357-.617,3.728.448Z" transform="translate(-115.328 -662.326)"/></g><g transform="translate(28.013 29.679)"><path class="d" d="M121.321,675.729a4.074,4.074,0,0,1-.549-.034.576.576,0,0,1,.17-1.139,3.412,3.412,0,0,0,1.192-.077,1.57,1.57,0,0,0,1.256-1.312c.31-1.635-2.134-2.88-2.158-2.892a.576.576,0,0,1,.505-1.035,7.116,7.116,0,0,1,1.523,1.06,3.323,3.323,0,0,1,1.261,3.081,2.73,2.73,0,0,1-2.134,2.222A4.423,4.423,0,0,1,121.321,675.729Z" transform="translate(-120.282 -669.182)"/></g><g transform="translate(20.067 34.158)"><path class="d" d="M113.643,685.518a7.509,7.509,0,0,1-1.794-.234c-2.56-.632-4.45-3.563-5.055-7.842a.576.576,0,0,1,1-.465l.026.029a17,17,0,0,0,3.695,3.133c2.413,1.447,4.509,1.538,6.227.27a.576.576,0,0,1,.912.544,5.934,5.934,0,0,1-2.281,3.773A4.767,4.767,0,0,1,113.643,685.518ZM108.3,679.14c.726,2.767,2.1,4.6,3.821,5.026a4.382,4.382,0,0,0,3.6-.388,4.078,4.078,0,0,0,1.384-1.705c-1.827.718-3.935.4-6.181-.945A16.277,16.277,0,0,1,108.3,679.14Z" transform="translate(-106.789 -676.786)"/></g><g transform="translate(18.513 50.706)"><path class="d" d="M109.069,707.794a6.685,6.685,0,0,1-4.919-2.173l.886-.735c.133.159,3.315,3.836,8.669.061l.664.941A9.458,9.458,0,0,1,109.069,707.794Z" transform="translate(-104.15 -704.886)"/></g><g transform="translate(27.951 47.338)"><path class="d" d="M139,719.01a.576.576,0,0,1-.575-.558,21.085,21.085,0,0,0-1.576-6.987,14.516,14.516,0,0,0-3.284-5.231,26.249,26.249,0,0,0-8.139-4.45c-.614-.227-1.2-.428-1.737-.6,2.506,2.137,5.47,5.152,5.645,5.331a.576.576,0,0,1-.194.936,16.718,16.718,0,0,0-6.327,4.722.576.576,0,0,1-.916-.7,17.738,17.738,0,0,1,6.028-4.747c-1.985-1.983-5.919-5.752-7.419-6.464a.576.576,0,0,1,.376-1.081c.357.082,8.79,2.063,13.446,6.191,2.7,2.4,5.105,8.368,5.247,13.044a.576.576,0,0,1-.558.593Z" transform="translate(-120.176 -699.167)"/></g><g transform="translate(30.872 58.599)"><path class="d" d="M125.948,726.871a.577.577,0,0,1-.539-.78l2.121-5.6-2.089-1.116a.576.576,0,0,1,.542-1.016l2.535,1.355a.576.576,0,0,1,.267.712l-2.3,6.076A.576.576,0,0,1,125.948,726.871Z" transform="translate(-125.137 -718.289)"/></g><g transform="translate(0 45.802)"><path class="d" d="M73.29,717.938h-.019a.576.576,0,0,1-.557-.594,19.008,19.008,0,0,1,1.686-6.811,15.025,15.025,0,0,1,3.568-5.247c4.508-3.872,13.132-8.466,13.5-8.659a.576.576,0,0,1,.689.9c-1.2,1.271-5.827,7.415-7.222,9.273a28.563,28.563,0,0,1,7.421,5.7.576.576,0,1,1-.875.748,19.783,19.783,0,0,0-1.955-1.879A31.632,31.632,0,0,0,83.8,707.5a.576.576,0,0,1-.193-.853c.187-.25,3.446-4.611,5.752-7.537a77.446,77.446,0,0,0-10.643,7.049A14.11,14.11,0,0,0,75.454,711a17.859,17.859,0,0,0-1.589,6.384A.576.576,0,0,1,73.29,717.938Z" transform="translate(-72.714 -696.559)"/></g><g transform="translate(14.136 60.489)"><path class="d" d="M99.7,728.433a.575.575,0,0,1-.508-.3l-2.411-4.49a.576.576,0,0,1,.293-.807l3.22-1.293a.576.576,0,0,1,.429,1.069L98.1,723.662l2.107,3.922a.576.576,0,0,1-.506.849Z" transform="translate(-96.717 -721.498)"/></g><g transform="translate(18.33 45.816)"><path class="d" d="M109.473,717.948a.576.576,0,0,1-.548-.4l-5.058-15.618a.592.592,0,0,1-.028-.19l.1-4.6a.576.576,0,1,1,1.151.025l-.1,4.5,5.028,15.526a.576.576,0,0,1-.37.725A.585.585,0,0,1,109.473,717.948Z" transform="translate(-103.84 -696.582)"/></g><g transform="translate(24.475 47.338)"><path class="d" d="M117.265,719.01a.576.576,0,0,1-.554-.418l-1.66-5.831a.577.577,0,0,1,.064-.46l1.972-3.195-2.711-3.912a.576.576,0,1,1,.946-.656l2.114,3.05.314-4.551v-3.3a.576.576,0,1,1,1.151,0v3.315c0,.013,0,.026,0,.04l-1.061,15.376a.575.575,0,0,1-.515.533A.5.5,0,0,1,117.265,719.01Zm-1.036-6.32.689,2.42.274-3.98Z" transform="translate(-114.273 -699.167)"/></g><g transform="translate(20.785 52.524)"><path class="d" d="M111.188,722.63l-.039,0a.576.576,0,0,1-.536-.613l.367-5.427-2.8-2.718a.576.576,0,0,1-.125-.647l2.19-4.909a.576.576,0,0,1,1.052.469l-2.026,4.541,2.7,2.624a.574.574,0,0,1,.173.452l-.385,5.694A.576.576,0,0,1,111.188,722.63Z" transform="translate(-108.008 -707.973)"/></g><g transform="translate(5.172 25.662)"><path class="d" d="M87.312,675.137a2.744,2.744,0,0,1-1.53-.446,3.319,3.319,0,0,1-1.333-2.439c-.273-1.947-.389-2.428-2.059-4.4A3.513,3.513,0,0,1,81.5,665.3a3.335,3.335,0,0,1,.989-2.139,2.653,2.653,0,0,1,3.79-.007,3.232,3.232,0,0,1,.771,1.13c.045.091.094.19.15.3a.576.576,0,0,1-1.027.521c-.058-.114-.109-.217-.155-.312a2.22,2.22,0,0,0-.512-.787,1.525,1.525,0,0,0-2.215-.018,2.235,2.235,0,0,0-.029,3.121c1.863,2.194,2.03,2.894,2.322,4.982a2.239,2.239,0,0,0,.833,1.642,1.781,1.781,0,0,0,1.4.185.576.576,0,0,1,.289,1.115A3.2,3.2,0,0,1,87.312,675.137Z" transform="translate(-81.496 -662.361)"/></g></g></g></g></g></svg>