<svg xmlns="http://www.w3.org/2000/svg" width="113.248" height="21.764" viewBox="0 0 113.248 21.764"><defs><style>.a{fill:#ff392f;}.b{fill:#3b3836;}</style></defs><g transform="translate(-74.934 -542)"><g transform="translate(0 78.993)"><path class="a" d="M88.9,303.125a3.187,3.187,0,0,0-3.183,3.183v15.377a3.183,3.183,0,1,0,6.366,0V306.308a3.186,3.186,0,0,0-3.183-3.183" transform="translate(13.765 159.899)"/><path class="a" d="M72.206,321.129l-2.71-15.4a3.182,3.182,0,0,0-6.124-.534l-2.63,7.2-2.629-7.2a3.182,3.182,0,0,0-6.124.534l-2.71,15.4a3.183,3.183,0,1,0,6.269,1.1l.652-3.707,1.549,4.243h.005a3.181,3.181,0,0,0,5.98,0l1.549-4.243.653,3.707a3.183,3.183,0,1,0,6.269-1.1" transform="translate(25.702 159.907)"/></g><path class="b" d="M-705.815-124.058a2.949,2.949,0,0,0-2.522,1.437,4.469,4.469,0,0,1-3.766,2.036,4.362,4.362,0,0,1-4.357-4.357A4.362,4.362,0,0,1-712.1-129.3a4.341,4.341,0,0,1,3.678,2.022,3.054,3.054,0,0,0,2.611,1.45,3.075,3.075,0,0,0,3.072-3.072,3.067,3.067,0,0,0-.483-1.652,10.733,10.733,0,0,0-3.74-3.534,10.465,10.465,0,0,0-5.137-1.358,10.512,10.512,0,0,0-10.5,10.5,10.512,10.512,0,0,0,10.5,10.5,10.46,10.46,0,0,0,5.139-1.361,10.761,10.761,0,0,0,3.745-3.541,3.064,3.064,0,0,0,.476-1.642,3.075,3.075,0,0,0-3.072-3.072" transform="translate(836.604 677.442)"/><path class="b" d="M421.656,351.782a3.16,3.16,0,0,0-3.156,3.156v9.215a2.875,2.875,0,0,1-5.75,0v-9.215a3.156,3.156,0,0,0-6.312,0v9.215a9.186,9.186,0,0,0,18.373,0v-9.215a3.159,3.159,0,0,0-3.156-3.156" transform="translate(-255.439 190.218)"/><path class="b" d="M199.523,537.335h-5.937V525.676a3.114,3.114,0,0,0-6.228,0v14.772a3.117,3.117,0,0,0,3.114,3.114h9.051a3.114,3.114,0,1,0,0-6.227Z" transform="translate(-52.358 19.438)"/><path class="b" d="M327.619,23.478a5.808,5.808,0,0,0-4.633-9.321h-6.672a3.182,3.182,0,0,0-3.178,3.178V31.979a3.181,3.181,0,0,0,3.178,3.178h7.56a6.438,6.438,0,0,0,3.745-11.679Zm-3.952,4.841a.787.787,0,0,1-.786.786h-3.217V27.532h3.217A.787.787,0,0,1,323.667,28.318Zm-4-6.917V19.8H321.8a.8.8,0,1,1,0,1.6Z" transform="translate(-142.137 527.843)"/></g></svg>