<svg xmlns="http://www.w3.org/2000/svg" width="192.999" height="73.076" viewBox="0 0 192.999 73.076"><defs><style>.a{fill:#009949;}.b{fill:#ffa300;}.c{fill:#ff392f;}.d{fill:#004d9c;}.e{fill:#3b3836;}</style></defs><path class="a" d="M235.385,14.306a8.1,8.1,0,0,0-6.457-12.991h-9.3A4.434,4.434,0,0,0,215.2,5.744V26.155a4.434,4.434,0,0,0,4.429,4.429h10.536a8.973,8.973,0,0,0,5.219-16.278Zm-5.508,6.746a1.1,1.1,0,0,1-1.1,1.1H224.3V19.956h4.483A1.1,1.1,0,0,1,229.876,21.052ZM224.3,11.411V9.176h2.984a1.118,1.118,0,1,1,0,2.235Z" transform="translate(-132.527 -0.81)"/><path class="b" d="M100.15,21.546H91.706V4.965a4.429,4.429,0,1,0-8.857,0v21.01A4.434,4.434,0,0,0,87.278,30.4H100.15a4.429,4.429,0,1,0,0-8.857Z" transform="translate(-51.021 -0.33)"/><path class="c" d="M24.207,16.414a4.253,4.253,0,0,0-3.637,2.072,6.444,6.444,0,0,1-5.431,2.935,6.282,6.282,0,1,1,5.3-9.648,4.43,4.43,0,1,0,7.5-4.72,15.469,15.469,0,0,0-5.393-5.1,15.141,15.141,0,1,0,0,26.358,15.507,15.507,0,0,0,5.4-5.106,4.428,4.428,0,0,0-3.742-6.8Z" transform="translate(0 0)"/><path class="d" d="M160.667.034a4.434,4.434,0,0,0-4.429,4.429V17.394a4.035,4.035,0,1,1-8.069,0V4.463a4.429,4.429,0,1,0-8.857,0V17.394a12.892,12.892,0,1,0,25.784,0V4.463A4.434,4.434,0,0,0,160.667.034Z" transform="translate(-85.792 -0.021)"/><g transform="translate(0.357 41.829)"><path class="e" d="M21.106,110.556H5.5a4.57,4.57,0,0,0,0,9.14H8.732V136.59a4.57,4.57,0,0,0,9.14,0V119.7h3.234a4.57,4.57,0,1,0,0-9.14Z" transform="translate(-0.929 -109.913)"/><path class="e" d="M119.7,108.889a15.622,15.622,0,1,0,15.622,15.622A15.639,15.639,0,0,0,119.7,108.889Zm6.482,15.622a6.482,6.482,0,1,1-6.482-6.482A6.489,6.489,0,0,1,126.184,124.511Z" transform="translate(-64.452 -108.886)"/><g transform="translate(77.026)"><path class="e" d="M365.4,134.764l-3.89-22.106a4.568,4.568,0,0,0-8.793-.767l-3.775,10.343-3.775-10.343a4.568,4.568,0,0,0-8.793.767l-3.89,22.106a4.57,4.57,0,0,0,9,1.587l.937-5.322,2.224,6.092.007,0a4.567,4.567,0,0,0,8.587,0l2.224-6.092.937,5.322a4.57,4.57,0,0,0,9-1.587Z" transform="translate(-282.094 -108.881)"/><path class="e" d="M221.605,110.556H206a4.57,4.57,0,1,0,0,9.14h3.234V136.59a4.57,4.57,0,0,0,9.14,0V119.7h3.234a4.57,4.57,0,0,0,0-9.14Z" transform="translate(-201.428 -109.913)"/><path class="e" d="M436.672,108.889a15.622,15.622,0,1,0,15.622,15.622A15.64,15.64,0,0,0,436.672,108.889Zm6.482,15.622a6.482,6.482,0,1,1-6.482-6.482A6.489,6.489,0,0,1,443.154,124.511Z" transform="translate(-336.678 -108.886)"/><path class="e" d="M287.8,132.659h-8.713v-1.9h7.1a4.059,4.059,0,0,0,0-8.117h-7.1v-1.9H287.8a4.57,4.57,0,0,0,0-9.14H274.517a4.575,4.575,0,0,0-4.57,4.57h0v21.061a4.575,4.575,0,0,0,4.57,4.57l.076,0H287.8a4.57,4.57,0,0,0,0-9.14Z" transform="translate(-243.624 -110.554)"/></g></g><path class="e" d="M311.763,45.817q.273-.228.5-.4c.149-.117.292-.233.429-.347q.838-.771,1.7-1.447t1.777-1.3a5.494,5.494,0,0,1,.592-.263,5.166,5.166,0,0,0,.592-.263c.181-.043.267.032.258.225a.929.929,0,0,1-.071.221q-.411.507-.76,1.019a2.9,2.9,0,0,1-.884.844c-.091.076-.177.144-.258.2a.816.816,0,0,0-.21.234,3.545,3.545,0,0,1-.421.468l-.468.438q-.478.4-.951.818t-.951.819a1.559,1.559,0,0,1-1.145.517,1.263,1.263,0,0,1-.874-.324,1.083,1.083,0,0,1-.454-.792l-.11-.465a.118.118,0,0,0-.057-.068,2.855,2.855,0,0,0-.341.285q-.363.373-.7.74t-.7.74a1.542,1.542,0,0,1-.312.237q-.274.229-.536.413t-.545.375a2.313,2.313,0,0,1-1.193.488,1.549,1.549,0,0,1-.675-.086,2.317,2.317,0,0,1-.68-.37,2.44,2.44,0,0,1-.548-.585,1.2,1.2,0,0,1-.2-.75,4.967,4.967,0,0,1,.1-.863,2.49,2.49,0,0,1,.323-.792q.493-.853,1.058-1.662a10.224,10.224,0,0,1,1.3-1.514,1.985,1.985,0,0,1,.817-.521,2.46,2.46,0,0,1,1.042.08q.206.524.136.663a1.779,1.779,0,0,1-.488.443l-.273.228a2.149,2.149,0,0,0-.264.267q-.479.565-.931,1.162a11.371,11.371,0,0,0-.826,1.259,7.185,7.185,0,0,0-.358.9.913.913,0,0,0,.115.831,1.2,1.2,0,0,0,.339-.121,10.278,10.278,0,0,0,2-1.741l.969-1.089a5.675,5.675,0,0,0,.983-1.112l.831-1.24a1.929,1.929,0,0,0,.292-.58c.07-.221.145-.449.226-.687q.4-1.076.793-2.171t.881-2.151q.633-1.294,1.221-2.784.12-.356.23-.668c.074-.207.15-.43.23-.668l.041-.173c.127-.384.287-.6.481-.646a1.655,1.655,0,0,1,.934.229,1.162,1.162,0,0,1,.249.186,2.4,2.4,0,0,0,.265.428,3.211,3.211,0,0,0-.451.945q-.147.505-.346,1.043-.12.356-.294.744t-.371.763q-.485.893-.9,1.808a16.062,16.062,0,0,0-.718,1.888q-.232.751-.5,1.427t-.5,1.427a12.068,12.068,0,0,0-.29,1.194q-.108.577-.164,1.2a.4.4,0,0,0,0,.183,1.125,1.125,0,0,1,.021.261" transform="translate(-186.939 -19.752)"/><path class="e" d="M335.419,51.587a5.26,5.26,0,0,0-.452,2.234.531.531,0,0,0,.675.086q.6-.224,1.174-.483a11.5,11.5,0,0,0,1.146-.6q.894-.539,1.783-1.016c.592-.318.648-.227,1.244-.586a1.492,1.492,0,0,1,.813-.193,1.394,1.394,0,0,1,.053.4.79.79,0,0,1-.189.495,1.677,1.677,0,0,1-.39.338c-.228.191.08-.062-.153.1s-.47.316-.71.455q-.4.217-.743.4t-.743.4a4.791,4.791,0,0,0-.588.365,4.739,4.739,0,0,1-.589.364,9.436,9.436,0,0,1-1.106.508,4.507,4.507,0,0,1-1.161.275,1.579,1.579,0,0,1-1.174-.294.991.991,0,0,1-.148-.108.3.3,0,0,0-.139-.069.86.86,0,0,1-.379-.565,2.766,2.766,0,0,1-.036-1.014,7.689,7.689,0,0,1,.43-1.635,10.942,10.942,0,0,1,.708-1.5,10,10,0,0,1,.829-1.158q.445-.535.935-1.06a9.722,9.722,0,0,1,1.59-1.4,1.389,1.389,0,0,1,1.031-.224,1.276,1.276,0,0,1,.915.5.766.766,0,0,1,.208.36,1.07,1.07,0,0,1,.015.406,3.942,3.942,0,0,1-.519,1.432,10.741,10.741,0,0,1-2.511,2.517,1.634,1.634,0,0,1-.635.253q-.353.063-.663.137a.339.339,0,0,1-.231-.027,1.526,1.526,0,0,0-.289-.1m.691-1.227a4.065,4.065,0,0,0,.71-.454,8.489,8.489,0,0,0,.761-.672,6.652,6.652,0,0,0,.69-.8,4.72,4.72,0,0,0,.5-.833.841.841,0,0,0-.3.112q-.2.172-.429.347a3.69,3.69,0,0,0-.42.386q-.391.42-.788.9a9.1,9.1,0,0,0-.721,1.009" transform="translate(-205.426 -28.384)"/><path class="e" d="M359.206,30.061q.286.041.576.1t.582.141a.788.788,0,0,1,.234.39,1.827,1.827,0,0,1,.042.456,9.319,9.319,0,0,1-.245,1.881q-.217.914-.453,1.829-.132.5-.264,1t-.265,1q-.311.966-.617,1.952t-.611,1.991a6.718,6.718,0,0,0-.227.834,6.83,6.83,0,0,1-.227.834q-.115.338-.212.652a3.719,3.719,0,0,1-.257.618.543.543,0,0,1-.6.041,1.987,1.987,0,0,1-.622-.437,1,1,0,0,1-.088-.349,3.323,3.323,0,0,0,.079-.453,3.43,3.43,0,0,1,.079-.453q.356-1.213.71-2.446t.749-2.452q.314-.926.57-1.845t.447-1.869q.122-.578.232-1.1t.231-1.1c.027-.19.053-.388.08-.593s.049-.415.074-.633" transform="translate(-219.207 -18.512)"/><path class="e" d="M77.4,109.97a4.576,4.576,0,0,0-4.571,4.571v21.686a4.571,4.571,0,0,0,9.143,0V114.541A4.577,4.577,0,0,0,77.4,109.97Z" transform="translate(-44.851 -67.723)"/><g transform="translate(27.979 33.545)"><path class="e" d="M75.158,94.577a2.325,2.325,0,0,1-1.165-4.339l4.492-2.607a2.325,2.325,0,1,1,2.325,4.027l-4.491,2.607A2.316,2.316,0,0,1,75.158,94.577Z" transform="translate(-72.83 -87.319)"/></g></svg>