<svg xmlns="http://www.w3.org/2000/svg" width="331" height="191.24" viewBox="0 0 331 191.24"><defs><style>.a{fill:#de72c6;}.b{fill:#ff392f;}.c{fill:#ffa300;}.d{fill:#009949;}.e{fill:#004d9c;}.f{fill:#fff;}</style></defs><g transform="translate(-783 -207)"><path class="a" d="M173.1,384.362a4.842,4.842,0,0,0-4.837,4.837v23.366a4.837,4.837,0,0,0,9.674,0V389.2A4.842,4.842,0,0,0,173.1,384.362Z" transform="translate(652.046 -175.335)"/><path class="b" d="M163.087,411.728l-4.117-23.4a4.835,4.835,0,0,0-9.307-.812l-3.995,10.947-3.995-10.947a4.835,4.835,0,0,0-9.307.812l-4.117,23.4a4.837,4.837,0,1,0,9.527,1.68l.991-5.633,2.354,6.448.007,0a4.834,4.834,0,0,0,9.088,0l2.354-6.448.991,5.633a4.837,4.837,0,1,0,9.527-1.68Z" transform="translate(654.825 -175.333)"/><circle class="c" cx="4.837" cy="4.837" r="4.837" transform="translate(830.411 213.84) rotate(-45)"/><path class="d" d="M237.745,384.362a4.842,4.842,0,0,0-4.837,4.837v14.122a4.406,4.406,0,1,1-8.813,0V389.2a4.837,4.837,0,1,0-9.674,0v14.122a14.08,14.08,0,1,0,28.16,0V389.2A4.842,4.842,0,0,0,237.745,384.362Z" transform="translate(648.847 -175.335)"/><path class="e" d="M204.592,384.362a4.842,4.842,0,0,0-4.837,4.837v14.122a4.406,4.406,0,1,1-8.813,0,4.837,4.837,0,1,0-9.674,0,14.08,14.08,0,1,0,28.16,0V389.2A4.842,4.842,0,0,0,204.592,384.362Z" transform="translate(651.145 -175.335)"/><g transform="translate(783.01 251.918)"><path class="f" d="M163.1,457.841l-4.116-23.4a4.835,4.835,0,0,0-9.307-.812l-4,10.947-3.995-10.947a4.835,4.835,0,0,0-9.307.812l-4.117,23.4a4.837,4.837,0,1,0,9.527,1.68l.991-5.633,2.354,6.447.007,0a4.835,4.835,0,0,0,9.088,0l2.353-6.447.991,5.633a4.837,4.837,0,1,0,9.527-1.68Z" transform="translate(-128.186 -430.447)"/><path class="f" d="M226.714,452.657l0-.082a9.085,9.085,0,0,0-3.337-7.014,14.591,14.591,0,0,0-7.182-3.008c-2.372-.292-4.774-.111-4.774-1.968,0-.779.96-1.508,2.177-1.508,1.626,0,2.918.886,4.894,2.033a4.6,4.6,0,0,0,6.967-4.049,4.637,4.637,0,0,0-2.228-3.92,17.766,17.766,0,0,0-9.861-2.649c-6.793.112-11.468,4.457-11.368,10.568v.083c0,6.32,4.68,8.8,10.631,9.672,4.411.643,4.626,1.641,4.626,2.391,0,.442-.66,1.442-2.539,1.511s-4.522-1.273-6.074-2.392a4.719,4.719,0,0,0-6.036.525,4.492,4.492,0,0,0-1.288,3.3,4.7,4.7,0,0,0,1.927,3.736,19.657,19.657,0,0,0,11.305,3.592l.314,0a13.119,13.119,0,0,0,8.474-2.849A9.924,9.924,0,0,0,226.714,452.657Z" transform="translate(-133.255 -430.45)"/><path class="f" d="M206.253,545.507h-9.221V527.4a4.837,4.837,0,0,0-9.674,0v22.944a4.842,4.842,0,0,0,4.837,4.837h14.058a4.836,4.836,0,1,0,0-9.673Z" transform="translate(-132.287 -436.832)"/><path class="f" d="M196.6,476.958H180.084a4.837,4.837,0,1,0,0,9.674h3.423v17.88a4.836,4.836,0,1,0,9.673,0v-17.88H196.6a4.837,4.837,0,1,0,0-9.674Z" transform="translate(-131.447 -433.671)"/><path class="f" d="M348.634,476.958H332.116a4.837,4.837,0,0,0,0,9.674h3.422v17.88a4.837,4.837,0,0,0,9.674,0v-17.88h3.422a4.837,4.837,0,0,0,0-9.674Z" transform="translate(-141.984 -433.671)"/><path class="f" d="M289.913,503.159l-8.15-22.389-.007-.02a6.406,6.406,0,0,0-11.986,0l-8.157,22.408a4.837,4.837,0,1,0,9.09,3.309l1-2.759h8.112l1,2.759a4.837,4.837,0,0,0,9.09-3.309Zm-15.4-8.323,1.254-4.41,1.254,4.41Z" transform="translate(-137.413 -433.647)"/><path class="f" d="M396.06,476.9a4.843,4.843,0,0,0-6.2,2.891l-5.059,13.9-5.06-13.9a4.837,4.837,0,1,0-9.09,3.309l8.149,22.389.007.02a6.407,6.407,0,0,0,11.986,0l8.157-22.408A4.842,4.842,0,0,0,396.06,476.9Z" transform="translate(-144.97 -433.647)"/><path class="f" d="M417.928,476.594a16.534,16.534,0,1,0,16.535,16.535A16.553,16.553,0,0,0,417.928,476.594Zm6.861,16.535a6.861,6.861,0,1,1-6.861-6.861A6.869,6.869,0,0,1,424.789,493.129Z" transform="translate(-147.121 -433.646)"/><path class="f" d="M274.6,430.449a16.534,16.534,0,1,0,16.534,16.534A16.553,16.553,0,0,0,274.6,430.449Zm6.86,16.534a6.861,6.861,0,1,1-6.86-6.86A6.869,6.869,0,0,1,281.465,446.983Z" transform="translate(-137.188 -430.448)"/><path class="f" d="M318.792,494.521a4.644,4.644,0,0,0-3.972,2.262,7.038,7.038,0,0,1-5.93,3.205,6.861,6.861,0,1,1,5.791-10.536,4.838,4.838,0,1,0,8.188-5.155,16.9,16.9,0,0,0-5.889-5.565,16.536,16.536,0,1,0,0,28.786,16.947,16.947,0,0,0,5.9-5.576,4.835,4.835,0,0,0-4.087-7.422Z" transform="translate(-139.564 -433.646)"/><path class="f" d="M191.743,430.464a4.842,4.842,0,0,0-4.837,4.837v14.123a4.406,4.406,0,0,1-8.813,0V435.3a4.837,4.837,0,0,0-9.674,0v14.123a14.08,14.08,0,0,0,28.16,0V435.3A4.843,4.843,0,0,0,191.743,430.464Z" transform="translate(-130.974 -430.449)"/><path class="f" d="M138.376,522.9H133.04a4.859,4.859,0,0,0-4.854,4.854V550.04a4.858,4.858,0,0,0,4.854,4.854h5.337a16,16,0,0,0,0-32Zm-.483,9.708h.483a6.287,6.287,0,1,1,0,12.575l-.483,0Z" transform="translate(-128.186 -436.855)"/><path class="f" d="M177.859,545.2h-9.22v-2.011h7.515a4.3,4.3,0,0,0,0-8.59h-7.515v-2.016h9.22a4.837,4.837,0,0,0,0-9.674H163.8a4.842,4.842,0,0,0-4.837,4.837h0v22.291a4.842,4.842,0,0,0,4.837,4.837l.08,0h13.977a4.837,4.837,0,0,0,0-9.674Z" transform="translate(-130.319 -436.856)"/><path class="f" d="M224.267,499.477h-9.221v-2.011h7.515a4.3,4.3,0,0,0,0-8.591h-7.515V486.86h9.221a4.837,4.837,0,0,0,0-9.674H210.209a4.842,4.842,0,0,0-4.837,4.837h0v22.291a4.842,4.842,0,0,0,4.837,4.837l.08,0h13.978a4.837,4.837,0,1,0,0-9.674Z" transform="translate(-133.535 -433.687)"/><path class="f" d="M250.145,453.332h-9.221v-2.011h7.515a4.3,4.3,0,0,0,0-8.591h-7.515v-2.015h9.221a4.837,4.837,0,0,0,0-9.674H236.087a4.842,4.842,0,0,0-4.837,4.837h0v22.291a4.842,4.842,0,0,0,4.837,4.837l.08,0h13.978a4.837,4.837,0,0,0,0-9.674Z" transform="translate(-135.329 -430.489)"/><path class="f" d="M134.344,476.836a4.842,4.842,0,0,0-4.836,4.837v22.944a4.836,4.836,0,1,0,9.673,0V481.673A4.842,4.842,0,0,0,134.344,476.836Z" transform="translate(-128.277 -433.663)"/><path class="f" d="M362.9,476.836a4.842,4.842,0,0,0-4.836,4.837v22.944a4.836,4.836,0,1,0,9.673,0V481.673A4.842,4.842,0,0,0,362.9,476.836Z" transform="translate(-144.118 -433.663)"/><path class="f" d="M166.391,476.61a4.842,4.842,0,0,0-4.837,4.837v9.917l-9.05-12.922a4.273,4.273,0,0,0-3.62-1.828c-.06,0-.12,0-.181,0a4.842,4.842,0,0,0-4.837,4.837v23.366a4.837,4.837,0,0,0,9.674,0V494.9l8.882,12.68.024.034a4.837,4.837,0,0,0,8.782-2.8V481.447A4.842,4.842,0,0,0,166.391,476.61Z" transform="translate(-129.272 -433.647)"/><path class="f" d="M415.066,522.685H398.548a4.837,4.837,0,1,0,0,9.674h3.422v17.88a4.837,4.837,0,0,0,9.674,0v-17.88h3.422a4.837,4.837,0,0,0,0-9.674Z" transform="translate(-146.589 -436.84)"/><path class="f" d="M356.248,522.336a4.842,4.842,0,0,0-4.837,4.837V541.3a4.406,4.406,0,1,1-8.813,0V527.173a4.836,4.836,0,1,0-9.673,0V541.3a14.08,14.08,0,1,0,28.159,0V527.173A4.842,4.842,0,0,0,356.248,522.336Z" transform="translate(-142.376 -436.816)"/><path class="f" d="M285.174,522.336a4.842,4.842,0,0,0-4.836,4.837V541.3a4.406,4.406,0,1,1-8.813,0V527.173a4.837,4.837,0,1,0-9.674,0V541.3a14.08,14.08,0,1,0,28.159,0V527.173A4.842,4.842,0,0,0,285.174,522.336Z" transform="translate(-137.45 -436.816)"/><path class="f" d="M250.953,522.336a4.842,4.842,0,0,0-4.837,4.837V541.3a4.406,4.406,0,1,1-8.813,0,4.837,4.837,0,0,0-9.674,0,14.08,14.08,0,1,0,28.16,0V527.173A4.843,4.843,0,0,0,250.953,522.336Z" transform="translate(-135.078 -436.816)"/><path class="f" d="M385.786,545.2h-9.221v-2.011h7.515a4.3,4.3,0,0,0,0-8.59h-7.515v-2.016h9.221a4.837,4.837,0,1,0,0-9.674H371.728a4.842,4.842,0,0,0-4.837,4.837h0v22.291a4.842,4.842,0,0,0,4.837,4.837l.08,0h13.978a4.837,4.837,0,0,0,0-9.674Z" transform="translate(-144.73 -436.856)"/><path class="f" d="M442.07,545.2h-9.221v-2.011h7.515a4.3,4.3,0,0,0,0-8.59h-7.515v-2.016h9.221a4.837,4.837,0,1,0,0-9.674H428.012a4.843,4.843,0,0,0-4.837,4.837h0v22.291a4.842,4.842,0,0,0,4.837,4.837l.08,0H442.07a4.837,4.837,0,0,0,0-9.674Z" transform="translate(-148.631 -436.856)"/><path class="f" d="M327.172,536.866h0a4.823,4.823,0,0,0-4.337-2.416h-8.615a4.3,4.3,0,1,0,0,8.59h2.7a6.444,6.444,0,0,1-1.954,1.741,7.155,7.155,0,0,1-5.341.683,6.846,6.846,0,1,1,4.841-12.7,4.838,4.838,0,1,0,4.514-8.558,16.9,16.9,0,0,0-7.882-1.874,16.536,16.536,0,1,0,14.4,24.929,16.943,16.943,0,0,0,2.319-7.778A4.823,4.823,0,0,0,327.172,536.866Z" transform="translate(-139.73 -436.816)"/><path class="f" d="M252.265,495.971a9.93,9.93,0,0,0,5.526-8.83,10.077,10.077,0,0,0-9.241-9.9,4.841,4.841,0,0,0-.71-.052h-9.3a4.842,4.842,0,0,0-4.837,4.837v22.3a4.837,4.837,0,0,0,9.674,0v-3.891l5.874,7a4.837,4.837,0,1,0,7.41-6.218Zm-5.456-6.723h-3.434v-2.395h3.434a1.2,1.2,0,0,1,0,2.395Z" transform="translate(-135.499 -433.687)"/><path class="f" d="M435.155,560.9l-2.551.6q-.458.109-.907.25t-.908.249q-.556.132-1.14.287t-1.125.354a.3.3,0,0,1-.123.063,10.734,10.734,0,0,0-1.73.5c-.56.214-2.768,1.037-3.346,1.22q-.926.323-1.831.728t-1.792.891q-.338.184-.637.375t-.628.409a.539.539,0,0,1-.742-.066,2.153,2.153,0,0,1-.256-.354.509.509,0,0,1,.171-.732q.42-.272.879-.519l.92-.494c.825-.4,3.308-1.4,4.171-1.743q1.523-.568,3.1-1.047.54-.2,1.1-.382t1.108-.35q.45-.141.941-.258l.981-.233q1.234-.327,2.449-.6t2.449-.6l2.24-.531a16.2,16.2,0,0,1,2.278-.367,4.58,4.58,0,0,1,.546-.027l.555.007a1.816,1.816,0,0,1,.341.127.372.372,0,0,1,.2.332.308.308,0,0,1-.224.295,3.424,3.424,0,0,1-.435.207,1.645,1.645,0,0,1-.458.108q-.988.2-1.973.417t-1.983.522l-1.635.387Zm-5.562,2.182a.653.653,0,0,1,.543-.042,3.454,3.454,0,0,1,.434.225.594.594,0,0,1,.311.583,1.165,1.165,0,0,1,.045.335q-.022.489-.035.941a8.845,8.845,0,0,1-.076.916q-.11.994-.335,2.083-.121.512-.245,1.008t-.245,1.008a5.222,5.222,0,0,0-.166.609q-.066.31-.159.642-.281,1-.562,2t-.595,2.007c-.058.244-.12.49-.188.735s-.131.492-.189.736a5.8,5.8,0,0,1-.2.755c-.082.239-.162.483-.242.732q-.264.926-.535,1.82t-.5,1.844a9.083,9.083,0,0,0-.241,3.063.488.488,0,0,1-.144.483.5.5,0,0,1-.49.047,1.709,1.709,0,0,1-.557-.385.9.9,0,0,1-.2-.642,16.461,16.461,0,0,1,.083-1.765,9.517,9.517,0,0,1,.335-1.72q.3-1.072.608-2.1t.656-2.038q.179-.56.336-1.133t.3-1.158q.257-.959.508-1.865t.507-1.864q.331-1.081.589-2.178t.442-2.211q.141-.863.249-1.717a6.138,6.138,0,0,0-.036-1.753" transform="translate(-148.227 -439.324)"/><path class="f" d="M434.823,576.838a1.1,1.1,0,0,1,.022.461,1.679,1.679,0,0,1-.131.395q-.309.591-.6,1.162a6.119,6.119,0,0,1-.726,1.088,1.4,1.4,0,0,1-1.5.528,2.061,2.061,0,0,1-.749-.392,1.524,1.524,0,0,1-.451-.739,1.394,1.394,0,0,1-.048-.715c.046-.24.1-.483.155-.727a10.776,10.776,0,0,1,.348-1.153c.152-.428.278-.814.381-1.162a.463.463,0,0,1,.543-.336.833.833,0,0,1,.151-.019.66.66,0,0,0,.151-.019.5.5,0,0,0,.212.02.614.614,0,0,1,.208.658,4.111,4.111,0,0,1-.2.687q-.144.415-.283.844a5.82,5.82,0,0,0-.21.862,1.787,1.787,0,0,0,.092,1.118.825.825,0,0,0,.3-.208q.232-.331.455-.626t.423-.618c.105-.141.21-.28.315-.421l.316-.42a.665.665,0,0,1,.278-.135.748.748,0,0,1,.258-.079,2.356,2.356,0,0,0,.3-.053m-.951-6.374a4.245,4.245,0,0,1,.144.479c.04.167-.225.858-.183,1.047-.056.2-.107.383-.155.561a3.193,3.193,0,0,1-.2.543,2.407,2.407,0,0,1-.559.734q-.338.3-.517.1c-.082-.032-.129-.18-.142-.446.022-.208.042-.4.058-.565s.044-.352.083-.556a1.855,1.855,0,0,1,.193-.546c.089-.162.491-.844.6-1.023s.232-.238.38-.182c.047-.025.1-.049.155-.073a1.459,1.459,0,0,0,.154-.073" transform="translate(-149.146 -440.152)"/><path class="f" d="M440.039,574.41a2.465,2.465,0,0,1-.033,1.32,5.508,5.508,0,0,1-.5,1.225,5.283,5.283,0,0,1-.787,1.051,11.1,11.1,0,0,1-.776.8,4.834,4.834,0,0,1-.913.666,3.194,3.194,0,0,1-.316.2,3.6,3.6,0,0,1-.356.17,1.887,1.887,0,0,1-.544.181,1.19,1.19,0,0,1-.6-.048l-.317-.028-.524-.463a1.306,1.306,0,0,1-.423-.763,5.988,5.988,0,0,1-.014-.93,2.223,2.223,0,0,1,.3-.933q.431-.655.831-1.3a12.162,12.162,0,0,1,.88-1.244,1.8,1.8,0,0,1,.115-.166.424.424,0,0,0,.084-.158.661.661,0,0,1,.2-.393c.1-.094.215-.189.329-.286a.344.344,0,0,1,.14-.067.21.21,0,0,0,.132-.1.783.783,0,0,1,.325-.3q.2-.1.448-.227a1.76,1.76,0,0,1,.817-.194,1.276,1.276,0,0,1,.651.122.8.8,0,0,1,.475.544l.213.606Zm-1.162-.243a.909.909,0,0,0-.106-.372.716.716,0,0,0-.327-.285,1.537,1.537,0,0,0-.7.408,9.981,9.981,0,0,0-1.164,1.278,11.645,11.645,0,0,0-.947,1.468,3.725,3.725,0,0,0-.239.592c-.066.212-.121.415-.167.61a3.443,3.443,0,0,0-.047.53.872.872,0,0,0,.2.541,1.447,1.447,0,0,0,.476-.182l.707-.513a5.683,5.683,0,0,0,1.786-2.082l.1-.162.1-.161a1.208,1.208,0,0,0,.348-.791,7.681,7.681,0,0,0-.018-.877" transform="translate(-149.376 -440.287)"/><path class="f" d="M461.627,554.649l-2.55.605c-.305.072-.608.155-.908.249s-.6.178-.907.25q-.557.131-1.141.288t-1.125.353a.289.289,0,0,1-.123.064,10.892,10.892,0,0,0-1.73.5q-.839.321-1.706.595-.926.324-1.832.728t-1.792.892q-.336.184-.637.375c-.2.129-.409.265-.628.409a.538.538,0,0,1-.741-.066,2.264,2.264,0,0,1-.257-.354.509.509,0,0,1,.172-.732q.419-.272.879-.519l.919-.494q1.238-.6,2.532-1.119,1.523-.568,3.1-1.047.54-.2,1.1-.382t1.108-.349q.45-.141.94-.258l.981-.233q1.236-.327,2.449-.6t2.449-.6l2.24-.531a16.351,16.351,0,0,1,2.279-.368c.179-.02-.478.016-.293.018l.554.006a1.8,1.8,0,0,1,.342.127.372.372,0,0,1,.2.332.307.307,0,0,1-.223.3,3.483,3.483,0,0,1-.435.207,1.622,1.622,0,0,1-.458.109c-.659.133-.477.228-1.134.372s-1.318.318-1.982.522l-1.635.388Zm-5.561,2.183a.653.653,0,0,1,.543-.043,3.533,3.533,0,0,1,.434.225.6.6,0,0,1,.311.583,1.2,1.2,0,0,1,.045.335q-.022.49-.036.941a8.856,8.856,0,0,1-.076.917q-.109.993-.334,2.082-.121.512-.245,1.008c-.083.33-.165.667-.245,1.008a5.428,5.428,0,0,0-.167.61q-.064.308-.158.642-.282,1-.562,2t-.6,2.007c-.057.244-.12.489-.188.735s-.13.491-.188.735a5.662,5.662,0,0,1-.2.756q-.123.357-.241.731-.264.927-.535,1.819t-.5,1.845a9.079,9.079,0,0,0-.241,3.062.489.489,0,0,1-.144.483.5.5,0,0,1-.49.048,1.725,1.725,0,0,1-.558-.386.892.892,0,0,1-.2-.642,16.2,16.2,0,0,1,.083-1.764,9.6,9.6,0,0,1,.334-1.72q.3-1.072.609-2.1t.656-2.038q.177-.56.336-1.133t.3-1.159q.255-.958.507-1.864t.508-1.865q.331-1.079.588-2.177t.443-2.212q.141-.861.249-1.717a6.132,6.132,0,0,0-.035-1.752" transform="translate(-150.175 -438.893)"/><path class="f" d="M458.225,571.538a4.44,4.44,0,0,0-.381,1.887c.128.155.318.178.57.072q.507-.189.991-.408a9.752,9.752,0,0,0,.968-.505q.755-.455,1.506-.858t1.507-.858a1.257,1.257,0,0,1,.687-.163,1.237,1.237,0,0,1,.045.334.669.669,0,0,1-.16.418,1.415,1.415,0,0,1-.329.286q-.289.242-.584.45t-.6.384c-.225.122-.434.235-.628.338s-.4.217-.627.34a4.019,4.019,0,0,0-.5.307,3.942,3.942,0,0,1-.5.308,8.014,8.014,0,0,1-.934.429,3.829,3.829,0,0,1-.981.233,1.333,1.333,0,0,1-.991-.248.824.824,0,0,1-.126-.091.24.24,0,0,0-.117-.059.724.724,0,0,1-.32-.477,2.328,2.328,0,0,1-.031-.856,6.557,6.557,0,0,1,.363-1.381,9.281,9.281,0,0,1,.6-1.265,8.488,8.488,0,0,1,.7-.978q.375-.451.789-.894a8.183,8.183,0,0,1,1.343-1.183,1.174,1.174,0,0,1,.87-.189,1.077,1.077,0,0,1,.773.422.649.649,0,0,1,.176.3.9.9,0,0,1,.012.342,3.32,3.32,0,0,1-.438,1.209,9.073,9.073,0,0,1-2.121,2.127,1.384,1.384,0,0,1-.536.214q-.3.053-.56.115a.287.287,0,0,1-.2-.023,1.281,1.281,0,0,0-.244-.08m.583-1.037a3.411,3.411,0,0,0,.6-.384,7,7,0,0,0,.643-.568,5.591,5.591,0,0,0,.583-.673,3.985,3.985,0,0,0,.421-.7.716.716,0,0,0-.254.095q-.173.145-.362.293a3.174,3.174,0,0,0-.355.326q-.329.356-.665.762a7.965,7.965,0,0,0-.61.853" transform="translate(-150.952 -439.904)"/><path class="f" d="M468.976,570.489c.047-.288.077-.547.091-.781s.038-.47.074-.709a2.143,2.143,0,0,1,.131-.463,1.332,1.332,0,0,0,.1-.456c.024-.189.038-.371.044-.545s.008-.352.01-.538a.219.219,0,0,0-.1-.2.221.221,0,0,0-.249.042c-.186.091-.372.181-.558.271a1.489,1.489,0,0,0-.493.394.2.2,0,0,1-.115.1.2.2,0,0,0-.115.1c-.1.07-.2.144-.292.224s-.191.167-.284.258q-.316.42-.634.824a8.786,8.786,0,0,0-.593.849,7.162,7.162,0,0,0-.585,1.174,5.34,5.34,0,0,0-.317,1.284.923.923,0,0,0-.021.126.216.216,0,0,1-.03.094.372.372,0,0,1-.2.185.8.8,0,0,1-.844-.353.718.718,0,0,1-.095-.254.071.071,0,0,1,0-.053.066.066,0,0,0,0-.053,7.686,7.686,0,0,0,.234-1.056,3.4,3.4,0,0,1,.339-1.048,1.822,1.822,0,0,0,.193-.425c.045-.149.1-.3.152-.45q.154-.519.27-1.048t.229-1.074a1.622,1.622,0,0,0,.141-.275,3.389,3.389,0,0,0,.386.1c.132.027.273.057.419.091q.1.116.3.411l1.234-.915a2.7,2.7,0,0,1,1.3-.481,1.376,1.376,0,0,1,1.288.627.522.522,0,0,1,.113.18,1.959,1.959,0,0,0,.255-.234c.149-.15.288-.293.417-.427a5.437,5.437,0,0,1,.424-.394,5.218,5.218,0,0,1,.6-.437,1.555,1.555,0,0,1,.724-.223,1.279,1.279,0,0,1,.839.112,1.256,1.256,0,0,1,.433.588,2.221,2.221,0,0,1,.123,1.249,7.66,7.66,0,0,1-.209,1.155q-.145.553-.323,1.113c-.034.146-.062.3-.083.451s-.035.314-.043.476c.1.046.209.008.319-.11q.4-.336.824-.678t.824-.679q.4-.336.823-.678a9.957,9.957,0,0,1,.839-.613c.212.019.3.1.267.248a1.566,1.566,0,0,1-.378.884q-.546.613-1.119,1.18a11.856,11.856,0,0,1-1.248,1.073c-.06.037-.115.074-.165.108s-.1.071-.164.108a1.493,1.493,0,0,1-1.041.126,1.439,1.439,0,0,1-.878-.5,1.117,1.117,0,0,1-.154-.793,3.866,3.866,0,0,1,.191-.943,6.476,6.476,0,0,0,.311-1.162q.1-.593.2-1.2a1.167,1.167,0,0,0-.045-.335.147.147,0,0,0-.167-.047.618.618,0,0,0-.135.084,5.549,5.549,0,0,0-.977.9,8.9,8.9,0,0,0-.767,1.063,9.018,9.018,0,0,0-.492.911,5.018,5.018,0,0,0-.338.978.711.711,0,0,1-.152.382c-.076.064-.157.136-.243.213a.451.451,0,0,1-.3.123.241.241,0,0,1-.26-.077.429.429,0,0,0-.275-.141" transform="translate(-151.453 -439.766)"/><path class="f" d="M483.289,564.152a2.469,2.469,0,0,1-.033,1.321,5.508,5.508,0,0,1-.5,1.225,5.3,5.3,0,0,1-.787,1.05,11.1,11.1,0,0,1-.776.806,4.779,4.779,0,0,1-.912.665,3.252,3.252,0,0,1-.316.2,3.876,3.876,0,0,1-.357.171,1.906,1.906,0,0,1-.544.181,1.2,1.2,0,0,1-.6-.047l-.318-.029-.524-.463a1.306,1.306,0,0,1-.422-.763,5.961,5.961,0,0,1-.013-.929,2.219,2.219,0,0,1,.3-.934q.433-.655.831-1.3a12.342,12.342,0,0,1,.88-1.245,1.924,1.924,0,0,1,.116-.166.417.417,0,0,0,.083-.157.658.658,0,0,1,.2-.393c.1-.094.214-.19.329-.286a.34.34,0,0,1,.139-.068.207.207,0,0,0,.132-.1.786.786,0,0,1,.326-.3q.2-.1.447-.227a1.771,1.771,0,0,1,.817-.194,1.276,1.276,0,0,1,.651.122.8.8,0,0,1,.475.545l.213.6Zm-1.162-.242a.894.894,0,0,0-.106-.372.716.716,0,0,0-.327-.285,1.543,1.543,0,0,0-.7.407,10.1,10.1,0,0,0-1.164,1.278,11.653,11.653,0,0,0-.947,1.468,3.7,3.7,0,0,0-.239.593q-.1.317-.167.61a3.439,3.439,0,0,0-.047.529.868.868,0,0,0,.2.541,1.422,1.422,0,0,0,.475-.181l.707-.514A5.672,5.672,0,0,0,481.6,565.9c.033-.054.066-.108.1-.162l.1-.162a1.208,1.208,0,0,0,.348-.79,7.482,7.482,0,0,0-.018-.877" transform="translate(-152.373 -439.576)"/><path class="f" d="M397.581,574.015h-1.548v-3.04a.812.812,0,0,0-1.624,0v3.852a.812.812,0,0,0,.812.812h2.36a.812.812,0,0,0,0-1.624Z" transform="translate(-146.637 -440.131)"/><path class="f" d="M385.832,570.22h-.9a.815.815,0,0,0-.814.814v3.742a.815.815,0,0,0,.814.814h.9a2.686,2.686,0,0,0,0-5.371Zm-.081,1.63h.081a1.055,1.055,0,0,1,0,2.111h-.081Z" transform="translate(-145.924 -440.135)"/><path class="f" d="M392.606,573.964h-1.548v-.338h1.262a.721.721,0,0,0,0-1.442h-1.262v-.339h1.548a.812.812,0,1,0,0-1.623h-2.359a.812.812,0,0,0-.812.811h0v3.742a.813.813,0,0,0,.812.812h2.359a.812.812,0,1,0,0-1.624Z" transform="translate(-146.292 -440.135)"/></g></g></svg>