<svg xmlns="http://www.w3.org/2000/svg" width="160.599" height="36" viewBox="0 0 160.599 36"><defs><style>.a{fill:#00a660;}.b{fill:#3b3836;}.c{fill:#fff;}</style></defs><g transform="translate(-107 -500)"><circle class="a" cx="18" cy="18" r="18" transform="translate(107 500)"/><g transform="translate(-1623.882 1226.179)"><path class="b" d="M-335.895,1.922A5.834,5.834,0,0,0-339.354.068,2.514,2.514,0,0,0-339.934,0h-4.879c-.039,0-.079,0-.122,0H-345a2.5,2.5,0,0,0-2.5,2.5v11.53a2.5,2.5,0,0,0,2.5,2.5,2.5,2.5,0,0,0,2.5-2.5V11.243h2.562a2.5,2.5,0,0,0,.6-.073,5.833,5.833,0,0,0,3.445-1.857,5.526,5.526,0,0,0,1.423-3.692,5.525,5.525,0,0,0-1.429-3.7m-3.632,3.7a.62.62,0,0,1-.619.619h-2.215V5h2.215a.62.62,0,0,1,.619.619" transform="translate(2155.199 -717)"/><path class="b" d="M417.939,351.782a2.388,2.388,0,0,0-2.385,2.385v6.964a2.173,2.173,0,0,1-4.345,0v-6.964a2.385,2.385,0,0,0-4.77,0v6.964a6.943,6.943,0,0,0,13.885,0v-6.964a2.387,2.387,0,0,0-2.385-2.385" transform="translate(1429.791 -1068.782)"/><path class="b" d="M472.349,362.015a5.136,5.136,0,0,0,2.857-4.566,5.21,5.21,0,0,0-4.778-5.121,2.456,2.456,0,0,0-.368-.027h-4.809a2.5,2.5,0,0,0-2.5,2.5h0V366.33a2.5,2.5,0,1,0,5,0v-2.012l3.037,3.62a2.5,2.5,0,0,0,3.832-3.215Zm-2.822-3.477h-1.775V357.3h1.775a.619.619,0,1,1,0,1.238" transform="translate(1387.745 -1069.301)"/><path class="b" d="M472.349,362.015a5.136,5.136,0,0,0,2.857-4.566,5.21,5.21,0,0,0-4.778-5.121,2.456,2.456,0,0,0-.368-.027h-4.809a2.5,2.5,0,0,0-2.5,2.5h0V366.33a2.5,2.5,0,1,0,5,0v-2.012l3.037,3.62a2.5,2.5,0,0,0,3.832-3.215Zm-2.822-3.477h-1.775V357.3h1.775a.619.619,0,1,1,0,1.238" transform="translate(1416.276 -1069.301)"/><path class="b" d="M-940.329-122.069l-4.1-11.277,0-.01a3.243,3.243,0,0,0-3.019-2.086,3.243,3.243,0,0,0-3.019,2.086l-4.108,11.287a2.439,2.439,0,0,0,1.456,3.123,2.425,2.425,0,0,0,.831.147A2.441,2.441,0,0,0-950-120.4l.506-1.389h4.086l.506,1.389a2.439,2.439,0,0,0,3.122,1.456,2.439,2.439,0,0,0,1.456-3.123m-7.758-4.192.631-2.222.631,2.222Z" transform="translate(2818.698 -581.558)"/><path class="b" d="M-940.329-122.069l-4.1-11.277,0-.01a3.243,3.243,0,0,0-3.019-2.086,3.243,3.243,0,0,0-3.019,2.086l-4.108,11.287a2.439,2.439,0,0,0,1.456,3.123,2.425,2.425,0,0,0,.831.147A2.441,2.441,0,0,0-950-120.4l.506-1.389h4.086l.506,1.389a2.439,2.439,0,0,0,3.122,1.456,2.439,2.439,0,0,0,1.456-3.123m-7.758-4.192.631-2.222.631,2.222Z" transform="translate(2747.373 -581.558)"/><path class="b" d="M-709.3-126.42a2.337,2.337,0,0,0-2,1.139,3.542,3.542,0,0,1-2.985,1.613,3.457,3.457,0,0,1-3.453-3.453,3.457,3.457,0,0,1,3.453-3.453,3.44,3.44,0,0,1,2.915,1.6,2.421,2.421,0,0,0,2.069,1.149,2.437,2.437,0,0,0,2.434-2.434,2.431,2.431,0,0,0-.382-1.309,8.506,8.506,0,0,0-2.964-2.8,8.293,8.293,0,0,0-4.071-1.076,8.331,8.331,0,0,0-8.321,8.321,8.331,8.331,0,0,0,8.321,8.321,8.29,8.29,0,0,0,4.073-1.079,8.528,8.528,0,0,0,2.968-2.806,2.429,2.429,0,0,0,.377-1.3,2.437,2.437,0,0,0-2.434-2.434" transform="translate(2498.604 -581.558)"/><path class="b" d="M119.627,0H111.14a2.485,2.485,0,0,0,0,4.97H112.9v9.187a2.485,2.485,0,1,0,4.97,0V4.97h1.759a2.485,2.485,0,0,0,0-4.97" transform="translate(1713.31 -717)"/></g><path class="c" d="M0,3.078V.641A.641.641,0,0,1,.641,0H3.078a.641.641,0,0,1,0,1.282h-1.8v1.8A.641.641,0,0,1,0,3.078ZM15.774,0H13.337a.641.641,0,0,0,0,1.282h1.8v1.8a.641.641,0,1,0,1.282,0V.641A.641.641,0,0,0,15.774,0ZM3.078,15.133h-1.8v-1.8a.641.641,0,1,0-1.282,0v2.437a.641.641,0,0,0,.641.641H3.078a.641.641,0,1,0,0-1.282Zm12.7-2.437a.641.641,0,0,0-.641.641v1.8h-1.8a.641.641,0,1,0,0,1.282h2.437a.641.641,0,0,0,.641-.641V13.337A.641.641,0,0,0,15.774,12.7ZM7.646,3.158V7.005a.641.641,0,0,1-.641.641H3.158a.641.641,0,0,1-.641-.641V3.158a.641.641,0,0,1,.641-.641H7.005A.641.641,0,0,1,7.646,3.158ZM6.364,3.8H3.8V6.364H6.364Zm7.214,3.847H9.73a.641.641,0,0,1-.641-.641V3.158a.641.641,0,0,1,.641-.641h3.847a.641.641,0,0,1,.641.641V7.005A.641.641,0,0,1,13.578,7.646ZM12.936,3.8H10.372V6.364h2.565ZM7.646,9.73v3.847a.641.641,0,0,1-.641.641H3.158a.641.641,0,0,1-.641-.641V9.73a.641.641,0,0,1,.641-.641H7.005A.641.641,0,0,1,7.646,9.73Zm-1.282.641H3.8v2.565H6.364Zm6.388,3.022h-2.2a.641.641,0,0,1-.641-.641v-2.2a.641.641,0,0,1,.641-.641h2.2a.641.641,0,0,1,.641.641v2.2A.641.641,0,0,1,12.752,13.393Zm-.641-2.2H11.2v.914h.914Zm0,0" transform="translate(116.792 509.792)"/></g></svg>