<svg xmlns="http://www.w3.org/2000/svg" width="268" height="31" viewBox="0 0 195.067 22"><defs><style>.a{fill:#de72c6;}.b{fill:#3b3836;}</style></defs><g transform="translate(-74.933 -491)"><g transform="translate(0 27.993)"><path class="a" d="M88.9,303.125a3.187,3.187,0,0,0-3.183,3.183v15.377a3.183,3.183,0,1,0,6.366,0V306.308a3.186,3.186,0,0,0-3.183-3.183" transform="translate(13.765 159.899)"/><path class="a" d="M72.206,321.129l-2.71-15.4a3.182,3.182,0,0,0-6.124-.534l-2.63,7.2-2.629-7.2a3.182,3.182,0,0,0-6.124.534l-2.71,15.4a3.183,3.183,0,1,0,6.269,1.1l.652-3.707,1.549,4.243h.005a3.181,3.181,0,0,0,5.98,0l1.549-4.243.653,3.707a3.183,3.183,0,1,0,6.269-1.1" transform="translate(25.702 159.907)"/></g><g transform="translate(-19 -33)"><path class="b" d="M-936.558-118.568l-5.179-14.229,0-.012a4.092,4.092,0,0,0-3.809-2.632,4.092,4.092,0,0,0-3.809,2.632l-5.184,14.242a3.078,3.078,0,0,0,1.837,3.94,3.06,3.06,0,0,0,1.048.185,3.08,3.08,0,0,0,2.892-2.023l.638-1.753h5.156l.638,1.753a3.078,3.078,0,0,0,3.94,1.837,3.078,3.078,0,0,0,1.837-3.94m-9.79-5.289.8-2.8.8,2.8Z" transform="translate(1165.73 660.442)"/><path class="b" d="M-705.815-124.058a2.949,2.949,0,0,0-2.522,1.437,4.469,4.469,0,0,1-3.766,2.036,4.362,4.362,0,0,1-4.357-4.357A4.362,4.362,0,0,1-712.1-129.3a4.341,4.341,0,0,1,3.678,2.022,3.054,3.054,0,0,0,2.611,1.45,3.075,3.075,0,0,0,3.072-3.072,3.067,3.067,0,0,0-.483-1.652,10.733,10.733,0,0,0-3.74-3.534,10.465,10.465,0,0,0-5.137-1.358,10.512,10.512,0,0,0-10.5,10.5,10.512,10.512,0,0,0,10.5,10.5,10.46,10.46,0,0,0,5.139-1.361,10.761,10.761,0,0,0,3.745-3.541,3.064,3.064,0,0,0,.476-1.642,3.075,3.075,0,0,0-3.072-3.072" transform="translate(952.604 660.442)"/><path class="b" d="M-705.815-124.058a2.949,2.949,0,0,0-2.522,1.437,4.469,4.469,0,0,1-3.766,2.036,4.362,4.362,0,0,1-4.357-4.357A4.362,4.362,0,0,1-712.1-129.3a4.341,4.341,0,0,1,3.678,2.022,3.054,3.054,0,0,0,2.611,1.45,3.075,3.075,0,0,0,3.072-3.072,3.067,3.067,0,0,0-.483-1.652,10.733,10.733,0,0,0-3.74-3.534,10.465,10.465,0,0,0-5.137-1.358,10.512,10.512,0,0,0-10.5,10.5,10.512,10.512,0,0,0,10.5,10.5,10.46,10.46,0,0,0,5.139-1.361,10.761,10.761,0,0,0,3.745-3.541,3.064,3.064,0,0,0,.476-1.642,3.075,3.075,0,0,0-3.072-3.072" transform="translate(855.604 660.442)"/><path class="b" d="M-472.439,0a10.512,10.512,0,0,0-10.5,10.5,10.512,10.512,0,0,0,10.5,10.5,10.512,10.512,0,0,0,10.5-10.5A10.512,10.512,0,0,0-472.439,0m4.357,10.5a4.362,4.362,0,0,1-4.357,4.357A4.362,4.362,0,0,1-476.8,10.5a4.362,4.362,0,0,1,4.357-4.357,4.362,4.362,0,0,1,4.357,4.357" transform="translate(635.939 525)"/><path class="b" d="M-472.439,0a10.512,10.512,0,0,0-10.5,10.5,10.512,10.512,0,0,0,10.5,10.5,10.512,10.512,0,0,0,10.5-10.5A10.512,10.512,0,0,0-472.439,0m4.357,10.5a4.362,4.362,0,0,1-4.357,4.357A4.362,4.362,0,0,1-476.8,10.5a4.362,4.362,0,0,1,4.357-4.357,4.362,4.362,0,0,1,4.357,4.357" transform="translate(750.939 525)"/><path class="b" d="M-584.139,0a3.078,3.078,0,0,0-3.074,3.074v6.3l-5.753-8.213A2.722,2.722,0,0,0-595.267,0l-.115,0a3.078,3.078,0,0,0-3.074,3.074V17.926A3.078,3.078,0,0,0-595.382,21a3.078,3.078,0,0,0,3.074-3.074v-6.3l5.645,8.059.015.022a3.081,3.081,0,0,0,2.508,1.3,3.078,3.078,0,0,0,3.074-3.074V3.074A3.078,3.078,0,0,0-584.139,0" transform="translate(773.456 525)"/><path class="b" d="M122.5,0h-10.71a3.136,3.136,0,0,0,0,6.271h2.219V17.864a3.136,3.136,0,1,0,6.271,0V6.271H122.5A3.136,3.136,0,0,0,122.5,0" transform="translate(84.345 525)"/><path class="b" d="M122.5,0h-10.71a3.136,3.136,0,0,0,0,6.271h2.219V17.864a3.136,3.136,0,1,0,6.271,0V6.271H122.5A3.136,3.136,0,0,0,122.5,0" transform="translate(142.345 525)"/></g></g></svg>