<svg xmlns="http://www.w3.org/2000/svg" width="96.46" height="31.201" viewBox="0 0 96.46 31.201"><defs><style>.a{fill:#fff;}.b{fill:#00a660;}</style></defs><g transform="translate(0)"><path class="a" d="M396.395,394.631a4.308,4.308,0,0,0-4.3,4.3V419.72a4.3,4.3,0,1,0,8.606,0V398.934A4.308,4.308,0,0,0,396.395,394.631Z" transform="translate(-358.904 -392.828)"/><path class="a" d="M185.053,418.837l-3.663-20.814a4.3,4.3,0,0,0-8.279-.722l-3.554,9.738L166,397.3a4.3,4.3,0,0,0-8.279.722l-3.663,20.814a4.3,4.3,0,1,0,8.475,1.494l.882-5.011,2.094,5.736.006,0a4.3,4.3,0,0,0,8.085,0l2.094-5.736.882,5.011a4.3,4.3,0,1,0,8.475-1.494Z" transform="translate(-153.995 -392.687)"/><circle class="b" cx="4.303" cy="4.303" r="4.303" transform="translate(42.177 6.085) rotate(-45)"/><path class="a" d="M687.035,394.631a4.308,4.308,0,0,0-4.3,4.3V411.5a3.92,3.92,0,1,1-7.84,0V398.934a4.3,4.3,0,0,0-8.606,0V411.5a12.525,12.525,0,1,0,25.051,0V398.934A4.308,4.308,0,0,0,687.035,394.631Z" transform="translate(-594.878 -392.828)"/><path class="a" d="M490.111,394.631a4.308,4.308,0,0,0-4.3,4.3V411.5a3.92,3.92,0,1,1-7.84,0,4.3,4.3,0,0,0-8.606,0,12.526,12.526,0,0,0,25.051,0V398.934A4.308,4.308,0,0,0,490.111,394.631Z" transform="translate(-425.404 -392.828)"/></g></svg>