<svg xmlns="http://www.w3.org/2000/svg" width="224.83" height="21.806" viewBox="0 0 224.83 21.806"><defs><style>.a{fill:#3b3836;}.b{fill:#004d9c;}</style></defs><g transform="translate(-74.978 -327.24)"><path class="a" d="M565.385,366.268v-.054a5.93,5.93,0,0,0-2.177-4.576,9.527,9.527,0,0,0-4.687-1.962c-1.547-.191-3.115-.073-3.115-1.284,0-.509.626-.984,1.42-.984,1.061,0,1.9.578,3.194,1.326a3,3,0,0,0,4.544-2.642,3.025,3.025,0,0,0-1.453-2.558,11.584,11.584,0,0,0-6.433-1.728c-4.433.073-7.483,2.907-7.419,6.895v.054c0,4.124,3.055,5.744,6.938,6.311,2.878.42,3.018,1.071,3.018,1.56,0,.289-.431.941-1.656.986a7.723,7.723,0,0,1-3.964-1.561,3.077,3.077,0,0,0-3.937.342,2.927,2.927,0,0,0-.84,2.157,3.068,3.068,0,0,0,1.256,2.438,12.835,12.835,0,0,0,7.378,2.344l.2,0a8.557,8.557,0,0,0,5.53-1.859,6.474,6.474,0,0,0,2.2-5.2" transform="translate(-265.578 -24.31)"/><path class="a" d="M565.385,366.268v-.054a5.93,5.93,0,0,0-2.177-4.576,9.527,9.527,0,0,0-4.687-1.962c-1.547-.191-3.115-.073-3.115-1.284,0-.509.626-.984,1.42-.984,1.061,0,1.9.578,3.194,1.326a3,3,0,0,0,4.544-2.642,3.025,3.025,0,0,0-1.453-2.558,11.584,11.584,0,0,0-6.433-1.728c-4.433.073-7.483,2.907-7.419,6.895v.054c0,4.124,3.055,5.744,6.938,6.311,2.878.42,3.018,1.071,3.018,1.56,0,.289-.431.941-1.656.986a7.723,7.723,0,0,1-3.964-1.561,3.077,3.077,0,0,0-3.937.342,2.927,2.927,0,0,0-.84,2.157,3.068,3.068,0,0,0,1.256,2.438,12.835,12.835,0,0,0,7.378,2.344l.2,0a8.557,8.557,0,0,0,5.53-1.859,6.474,6.474,0,0,0,2.2-5.2" transform="translate(-265.578 -24.31)"/><path class="a" d="M565.385,366.268v-.054a5.93,5.93,0,0,0-2.177-4.576,9.527,9.527,0,0,0-4.687-1.962c-1.547-.191-3.115-.073-3.115-1.284,0-.509.626-.984,1.42-.984,1.061,0,1.9.578,3.194,1.326a3,3,0,0,0,4.544-2.642,3.025,3.025,0,0,0-1.453-2.558,11.584,11.584,0,0,0-6.433-1.728c-4.433.073-7.483,2.907-7.419,6.895v.054c0,4.124,3.055,5.744,6.938,6.311,2.878.42,3.018,1.071,3.018,1.56,0,.289-.431.941-1.656.986a7.723,7.723,0,0,1-3.964-1.561,3.077,3.077,0,0,0-3.937.342,2.927,2.927,0,0,0-.84,2.157,3.068,3.068,0,0,0,1.256,2.438,12.835,12.835,0,0,0,7.378,2.344l.2,0a8.557,8.557,0,0,0,5.53-1.859,6.474,6.474,0,0,0,2.2-5.2" transform="translate(-265.578 -24.31)"/><path class="a" d="M526.634,351.768a10.788,10.788,0,1,0,10.788,10.788,10.8,10.8,0,0,0-10.788-10.788m4.474,10.788a4.475,4.475,0,1,1-4.474-4.476,4.481,4.481,0,0,1,4.474,4.476" transform="translate(-254.792 -24.298)"/><path class="a" d="M526.634,351.768a10.788,10.788,0,1,0,10.788,10.788,10.8,10.8,0,0,0-10.788-10.788m4.474,10.788a4.475,4.475,0,1,1-4.474-4.476,4.481,4.481,0,0,1,4.474,4.476" transform="translate(-254.792 -24.298)"/><path class="a" d="M526.634,351.768a10.788,10.788,0,1,0,10.788,10.788,10.8,10.8,0,0,0-10.788-10.788m4.474,10.788a4.475,4.475,0,1,1-4.474-4.476,4.481,4.481,0,0,1,4.474,4.476" transform="translate(-254.792 -24.298)"/><path class="a" d="M390.207,363.464a3.032,3.032,0,0,0-2.591,1.476,4.592,4.592,0,0,1-3.87,2.092,4.476,4.476,0,1,1,3.779-6.875,3.156,3.156,0,1,0,5.342-3.363,11.033,11.033,0,0,0-3.843-3.631,10.789,10.789,0,1,0,0,18.783,11.064,11.064,0,0,0,3.847-3.638,3.156,3.156,0,0,0-2.667-4.843" transform="translate(-208.046 -24.298)"/><path class="a" d="M390.207,363.464a3.032,3.032,0,0,0-2.591,1.476,4.592,4.592,0,0,1-3.87,2.092,4.476,4.476,0,1,1,3.779-6.875,3.156,3.156,0,1,0,5.342-3.363,11.033,11.033,0,0,0-3.843-3.631,10.789,10.789,0,1,0,0,18.783,11.064,11.064,0,0,0,3.847-3.638,3.156,3.156,0,0,0-2.667-4.843" transform="translate(-208.046 -24.298)"/><path class="a" d="M390.207,363.464a3.032,3.032,0,0,0-2.591,1.476,4.592,4.592,0,0,1-3.87,2.092,4.476,4.476,0,1,1,3.779-6.875,3.156,3.156,0,1,0,5.342-3.363,11.033,11.033,0,0,0-3.843-3.631,10.789,10.789,0,1,0,0,18.783,11.064,11.064,0,0,0,3.847-3.638,3.156,3.156,0,0,0-2.667-4.843" transform="translate(-208.046 -24.298)"/><path class="a" d="M421.656,351.782a3.16,3.16,0,0,0-3.156,3.156v9.215a2.875,2.875,0,0,1-5.75,0v-9.215a3.156,3.156,0,0,0-6.312,0v9.215a9.186,9.186,0,0,0,18.373,0v-9.215a3.159,3.159,0,0,0-3.156-3.156" transform="translate(-219 -24.302)"/><path class="a" d="M421.656,351.782a3.16,3.16,0,0,0-3.156,3.156v9.215a2.875,2.875,0,0,1-5.75,0v-9.215a3.156,3.156,0,0,0-6.312,0v9.215a9.186,9.186,0,0,0,18.373,0v-9.215a3.159,3.159,0,0,0-3.156-3.156" transform="translate(-219 -24.302)"/><path class="a" d="M421.656,351.782a3.16,3.16,0,0,0-3.156,3.156v9.215a2.875,2.875,0,0,1-5.75,0v-9.215a3.156,3.156,0,0,0-6.312,0v9.215a9.186,9.186,0,0,0,18.373,0v-9.215a3.159,3.159,0,0,0-3.156-3.156" transform="translate(-219 -24.302)"/><path class="a" d="M495.443,352.286h-3.481a3.171,3.171,0,0,0-3.167,3.167V370a3.17,3.17,0,0,0,3.167,3.166h3.481a10.439,10.439,0,0,0,0-20.878m-.315,6.334h.315a4.1,4.1,0,1,1,0,8.2h-.315Z" transform="translate(-245.942 -24.467)"/><path class="a" d="M495.443,352.286h-3.481a3.171,3.171,0,0,0-3.167,3.167V370a3.17,3.17,0,0,0,3.167,3.166h3.481a10.439,10.439,0,0,0,0-20.878m-.315,6.334h.315a4.1,4.1,0,1,1,0,8.2h-.315Z" transform="translate(-245.942 -24.467)"/><path class="a" d="M495.443,352.286h-3.481a3.171,3.171,0,0,0-3.167,3.167V370a3.17,3.17,0,0,0,3.167,3.166h3.481a10.439,10.439,0,0,0,0-20.878m-.315,6.334h.315a4.1,4.1,0,1,1,0,8.2h-.315Z" transform="translate(-245.942 -24.467)"/><path class="a" d="M449.7,366.846h-6.017v-1.312h4.9a2.8,2.8,0,0,0,0-5.6h-4.9v-1.315H449.7a3.156,3.156,0,0,0,0-6.311h-9.172a3.158,3.158,0,0,0-3.156,3.156h0V370a3.158,3.158,0,0,0,3.156,3.156H449.7a3.156,3.156,0,0,0,0-6.312" transform="translate(-229.118 -24.472)"/><path class="a" d="M449.7,366.846h-6.017v-1.312h4.9a2.8,2.8,0,0,0,0-5.6h-4.9v-1.315H449.7a3.156,3.156,0,0,0,0-6.311h-9.172a3.158,3.158,0,0,0-3.156,3.156h0V370a3.158,3.158,0,0,0,3.156,3.156H449.7a3.156,3.156,0,0,0,0-6.312" transform="translate(-229.118 -24.472)"/><path class="a" d="M449.7,366.846h-6.017v-1.312h4.9a2.8,2.8,0,0,0,0-5.6h-4.9v-1.315H449.7a3.156,3.156,0,0,0,0-6.311h-9.172a3.158,3.158,0,0,0-3.156,3.156h0V370a3.158,3.158,0,0,0,3.156,3.156H449.7a3.156,3.156,0,0,0,0-6.312" transform="translate(-229.118 -24.472)"/><path class="a" d="M361.564,366.846h-6.017v-1.312h4.9a2.8,2.8,0,0,0,0-5.6h-4.9v-1.315h6.017a3.156,3.156,0,0,0,0-6.311h-9.172a3.159,3.159,0,0,0-3.156,3.156h0V370a3.159,3.159,0,0,0,3.156,3.156h9.172a3.156,3.156,0,0,0,0-6.312" transform="translate(-200.286 -24.472)"/><path class="a" d="M361.564,366.846h-6.017v-1.312h4.9a2.8,2.8,0,0,0,0-5.6h-4.9v-1.315h6.017a3.156,3.156,0,0,0,0-6.311h-9.172a3.159,3.159,0,0,0-3.156,3.156h0V370a3.159,3.159,0,0,0,3.156,3.156h9.172a3.156,3.156,0,0,0,0-6.312" transform="translate(-200.286 -24.472)"/><path class="a" d="M361.564,366.846h-6.017v-1.312h4.9a2.8,2.8,0,0,0,0-5.6h-4.9v-1.315h6.017a3.156,3.156,0,0,0,0-6.311h-9.172a3.159,3.159,0,0,0-3.156,3.156h0V370a3.159,3.159,0,0,0,3.156,3.156h9.172a3.156,3.156,0,0,0,0-6.312" transform="translate(-200.286 -24.472)"/><path class="a" d="M474.862,364.558a6.481,6.481,0,0,0,3.605-5.762,6.574,6.574,0,0,0-6.029-6.461,3.1,3.1,0,0,0-.464-.034h-6.068a3.158,3.158,0,0,0-3.156,3.156h0V370a3.156,3.156,0,1,0,6.311,0v-2.539l3.832,4.567a3.156,3.156,0,0,0,4.836-4.057Zm-3.561-4.387h-2.24V358.61h2.24a.781.781,0,1,1,0,1.562" transform="translate(-237.422 -24.472)"/><path class="a" d="M474.862,364.558a6.481,6.481,0,0,0,3.605-5.762,6.574,6.574,0,0,0-6.029-6.461,3.1,3.1,0,0,0-.464-.034h-6.068a3.158,3.158,0,0,0-3.156,3.156h0V370a3.156,3.156,0,1,0,6.311,0v-2.539l3.832,4.567a3.156,3.156,0,0,0,4.836-4.057Zm-3.561-4.387h-2.24V358.61h2.24a.781.781,0,1,1,0,1.562" transform="translate(-237.422 -24.472)"/><path class="a" d="M474.862,364.558a6.481,6.481,0,0,0,3.605-5.762,6.574,6.574,0,0,0-6.029-6.461,3.1,3.1,0,0,0-.464-.034h-6.068a3.158,3.158,0,0,0-3.156,3.156h0V370a3.156,3.156,0,1,0,6.311,0v-2.539l3.832,4.567a3.156,3.156,0,0,0,4.836-4.057Zm-3.561-4.387h-2.24V358.61h2.24a.781.781,0,1,1,0,1.562" transform="translate(-237.422 -24.472)"/><path class="a" d="M335.41,364.558a6.479,6.479,0,0,0,3.606-5.762,6.574,6.574,0,0,0-6.029-6.461,3.107,3.107,0,0,0-.464-.034h-6.068a3.159,3.159,0,0,0-3.156,3.156h0V370a3.156,3.156,0,0,0,6.312,0v-2.539l3.833,4.567a3.156,3.156,0,0,0,4.835-4.057Zm-3.559-4.387H329.61V358.61h2.241a.781.781,0,0,1,0,1.562" transform="translate(-191.8 -24.472)"/><path class="a" d="M335.41,364.558a6.479,6.479,0,0,0,3.606-5.762,6.574,6.574,0,0,0-6.029-6.461,3.107,3.107,0,0,0-.464-.034h-6.068a3.159,3.159,0,0,0-3.156,3.156h0V370a3.156,3.156,0,0,0,6.312,0v-2.539l3.833,4.567a3.156,3.156,0,0,0,4.835-4.057Zm-3.559-4.387H329.61V358.61h2.241a.781.781,0,0,1,0,1.562" transform="translate(-191.8 -24.472)"/><path class="a" d="M335.41,364.558a6.479,6.479,0,0,0,3.606-5.762,6.574,6.574,0,0,0-6.029-6.461,3.107,3.107,0,0,0-.464-.034h-6.068a3.159,3.159,0,0,0-3.156,3.156h0V370a3.156,3.156,0,0,0,6.312,0v-2.539l3.833,4.567a3.156,3.156,0,0,0,4.835-4.057Zm-3.559-4.387H329.61V358.61h2.241a.781.781,0,0,1,0,1.562" transform="translate(-191.8 -24.472)"/><path class="b" d="M387.929,317.891v-.054a5.934,5.934,0,0,0-2.178-4.577,9.527,9.527,0,0,0-4.687-1.963c-1.548-.19-3.114-.072-3.114-1.284,0-.508.626-.984,1.42-.984,1.061,0,1.9.579,3.193,1.326a3.016,3.016,0,0,0,3.706-.485,3.064,3.064,0,0,0-.614-4.715,11.6,11.6,0,0,0-6.434-1.728c-4.433.073-7.484,2.908-7.419,6.9v.054c0,4.124,3.055,5.744,6.937,6.311,2.878.42,3.018,1.071,3.018,1.56,0,.289-.431.941-1.657.986a7.715,7.715,0,0,1-3.964-1.56,3.079,3.079,0,0,0-3.938.342,2.934,2.934,0,0,0-.84,2.157,3.071,3.071,0,0,0,1.258,2.438,12.829,12.829,0,0,0,7.377,2.344h.2a8.56,8.56,0,0,0,5.53-1.859,6.478,6.478,0,0,0,2.2-5.2" transform="translate(-264.043 23.814)"/><path class="b" d="M387.929,317.891v-.054a5.934,5.934,0,0,0-2.178-4.577,9.527,9.527,0,0,0-4.687-1.963c-1.548-.19-3.114-.072-3.114-1.284,0-.508.626-.984,1.42-.984,1.061,0,1.9.579,3.193,1.326a3.016,3.016,0,0,0,3.706-.485,3.064,3.064,0,0,0-.614-4.715,11.6,11.6,0,0,0-6.434-1.728c-4.433.073-7.484,2.908-7.419,6.9v.054c0,4.124,3.055,5.744,6.937,6.311,2.878.42,3.018,1.071,3.018,1.56,0,.289-.431.941-1.657.986a7.715,7.715,0,0,1-3.964-1.56,3.079,3.079,0,0,0-3.938.342,2.934,2.934,0,0,0-.84,2.157,3.071,3.071,0,0,0,1.258,2.438,12.829,12.829,0,0,0,7.377,2.344h.2a8.56,8.56,0,0,0,5.53-1.859,6.478,6.478,0,0,0,2.2-5.2" transform="translate(-264.043 23.814)"/><path class="b" d="M387.929,317.891v-.054a5.934,5.934,0,0,0-2.178-4.577,9.527,9.527,0,0,0-4.687-1.963c-1.548-.19-3.114-.072-3.114-1.284,0-.508.626-.984,1.42-.984,1.061,0,1.9.579,3.193,1.326a3.016,3.016,0,0,0,3.706-.485,3.064,3.064,0,0,0-.614-4.715,11.6,11.6,0,0,0-6.434-1.728c-4.433.073-7.484,2.908-7.419,6.9v.054c0,4.124,3.055,5.744,6.937,6.311,2.878.42,3.018,1.071,3.018,1.56,0,.289-.431.941-1.657.986a7.715,7.715,0,0,1-3.964-1.56,3.079,3.079,0,0,0-3.938.342,2.934,2.934,0,0,0-.84,2.157,3.071,3.071,0,0,0,1.258,2.438,12.829,12.829,0,0,0,7.377,2.344h.2a8.56,8.56,0,0,0,5.53-1.859,6.478,6.478,0,0,0,2.2-5.2" transform="translate(-264.043 23.814)"/><path class="b" d="M362.633,303.465a3.16,3.16,0,0,0-3.156,3.156v15.247a3.156,3.156,0,0,0,6.313,0V306.621a3.16,3.16,0,0,0-3.156-3.156" transform="translate(-260.156 23.802)"/><path class="b" d="M362.633,303.465a3.16,3.16,0,0,0-3.156,3.156v15.247a3.156,3.156,0,0,0,6.313,0V306.621a3.16,3.16,0,0,0-3.156-3.156" transform="translate(-260.156 23.802)"/><path class="b" d="M362.633,303.465a3.16,3.16,0,0,0-3.156,3.156v15.247a3.156,3.156,0,0,0,6.313,0V306.621a3.16,3.16,0,0,0-3.156-3.156" transform="translate(-260.156 23.802)"/><path class="b" d="M346.079,321.316l-2.687-15.267a3.155,3.155,0,0,0-6.073-.53l-2.607,7.143-2.607-7.143a3.155,3.155,0,0,0-6.072.53l-2.687,15.267a3.156,3.156,0,1,0,6.217,1.1l.647-3.676,1.535,4.207,0,0a3.155,3.155,0,0,0,5.931,0l1.535-4.207.647,3.676a3.156,3.156,0,1,0,6.216-1.1" transform="translate(-248.32 23.81)"/><path class="b" d="M346.079,321.316l-2.687-15.267a3.155,3.155,0,0,0-6.073-.53l-2.607,7.143-2.607-7.143a3.155,3.155,0,0,0-6.072.53l-2.687,15.267a3.156,3.156,0,1,0,6.217,1.1l.647-3.676,1.535,4.207,0,0a3.155,3.155,0,0,0,5.931,0l1.535-4.207.647,3.676a3.156,3.156,0,1,0,6.216-1.1" transform="translate(-248.32 23.81)"/><path class="b" d="M346.079,321.316l-2.687-15.267a3.155,3.155,0,0,0-6.073-.53l-2.607,7.143-2.607-7.143a3.155,3.155,0,0,0-6.072.53l-2.687,15.267a3.156,3.156,0,1,0,6.217,1.1l.647-3.676,1.535,4.207,0,0a3.155,3.155,0,0,0,5.931,0l1.535-4.207.647,3.676a3.156,3.156,0,1,0,6.216-1.1" transform="translate(-248.32 23.81)"/></g></svg>