<svg xmlns="http://www.w3.org/2000/svg" width="286.194" height="93.916" viewBox="0 0 286.194 93.916"><defs><style>.a{fill:#3b3836;}.b{fill:#009949;}.c{fill:#ffa300;}.d{fill:#ff392f;}.e{fill:#004d9c;}</style></defs><g transform="translate(0 0)"><g transform="translate(0 0)"><path class="a" d="M23.66,78.311a.8.8,0,0,0-1.04,1.221,6.706,6.706,0,0,1,1.144,1.43,9.27,9.27,0,0,1,1.344,4.226.8.8,0,0,0,.8.741l.062,0a.8.8,0,0,0,.739-.86A10.137,10.137,0,0,0,23.66,78.311Z" transform="translate(-10.69 -37.38)"/><path class="a" d="M89,65.069c-1.305.018-2.344,1.42-2.32,3.129s1.1,3.081,2.408,3.062,2.344-1.42,2.32-3.129S90.31,65.05,89,65.069Z" transform="translate(-41.477 -31.135)"/><path class="a" d="M41.494,51.691a1.087,1.087,0,0,0,.818-.33,6.579,6.579,0,0,1,8.189-.716,1.083,1.083,0,1,0,1.1-1.868,8.753,8.753,0,0,0-10.854,1.088,1.083,1.083,0,0,0,.75,1.825Z" transform="translate(-19.354 -22.671)"/><path class="a" d="M79.684,51.881A5.374,5.374,0,0,1,81.9,50.808,5.733,5.733,0,0,1,87.055,52.5,1.083,1.083,0,1,0,88.5,50.883c-2.837-2.532-5.476-2.573-7.19-2.162a7.337,7.337,0,0,0-3.085,1.562,1.083,1.083,0,1,0,1.462,1.6Z" transform="translate(-37.26 -23.219)"/><path class="a" d="M51.563,65.069c-1.306.018-2.344,1.42-2.32,3.129s1.1,3.081,2.408,3.062,2.344-1.42,2.32-3.129S52.869,65.05,51.563,65.069Z" transform="translate(-23.562 -31.135)"/><path class="a" d="M66.947,102.295a8.262,8.262,0,0,0,3.178-5.256.8.8,0,0,0-1.27-.758c-2.393,1.766-5.312,1.64-8.673-.376a23.674,23.674,0,0,1-5.147-4.364L55,91.5a.8.8,0,0,0-1.392.647c.843,5.96,3.475,10.044,7.041,10.924a10.448,10.448,0,0,0,2.5.326A6.64,6.64,0,0,0,66.947,102.295ZM55.708,94.513a22.7,22.7,0,0,0,3.648,2.768c3.129,1.876,6.065,2.317,8.61,1.317a5.689,5.689,0,0,1-1.928,2.375,6.106,6.106,0,0,1-5.008.541C58.628,100.921,56.72,98.367,55.708,94.513Z" transform="translate(-25.646 -43.654)"/><path class="a" d="M58.645,74.582c-4.556-4.038-11.706-6.6-15.731-7.809.125-.041.25-.079.376-.125,2.984-1.088,5.343-3.43,7.013-6.962a64.649,64.649,0,0,0,5.462-19.209h0a3.485,3.485,0,0,0,.057-.612V34.4c0-.1-.007-.2-.015-.3a4.179,4.179,0,0,1,.5-1.038c.357-.5,1.17-1.87.469-2.583A.347.347,0,0,1,56.7,30.1a6.29,6.29,0,0,0,.608-2.783.437.437,0,0,1,.113-.389,3.3,3.3,0,0,0,.348-3.949,2.86,2.86,0,0,1-.051-1.924,1.028,1.028,0,0,0-.443-1.449c-.728-.342-.421-1.507-.223-2.066a4.627,4.627,0,0,0,.275-1.366,2.019,2.019,0,0,0-.514-1.632.729.729,0,0,1-.263-.474,1.718,1.718,0,0,0-.5-1.144.911.911,0,0,1-.3-.415,2.987,2.987,0,0,0-1.438-1.547,2.927,2.927,0,0,1-1.587-2.7,2.144,2.144,0,0,0-1.452-1.891,1.613,1.613,0,0,1-1-.922c-.285-.713-1.052-1.705-3.111-2.038-3.341-.54-2.35-.178-3.632-1.169A2.344,2.344,0,0,0,41.707,1.7a2.339,2.339,0,0,1-2.016-.625l-.029-.029A1.769,1.769,0,0,0,38.339.507,2.943,2.943,0,0,0,37.5.665a1.66,1.66,0,0,1-1.5-.271A1.626,1.626,0,0,0,34.607.136a1.391,1.391,0,0,0-.54.3c-.673.6-2.374-.2-2.374-.2a2.98,2.98,0,0,0-2.849.3,3.781,3.781,0,0,1-1.74.648c-.442.044-1.009.1-1.687.15a9.276,9.276,0,0,0-2.945.9,8.474,8.474,0,0,0-1.407.847,4.54,4.54,0,0,1-3.124.827A2.653,2.653,0,0,0,15.31,5.826a.994.994,0,0,1-.828.624c-.934.084-2.6.465-2.79,2.094,0,0-.033.987-1.749.8-1.194-.13-2.078,2.289-2.507,3.775a6.588,6.588,0,0,0-.226,1.53.8.8,0,0,1-.632.752c-.454.147-.616.742-.591,1.186A2.027,2.027,0,0,1,5.6,18.015a6.206,6.206,0,0,0-1.046,4.317,3.893,3.893,0,0,0,.274,1.178,1.166,1.166,0,0,1-.142,1.074,4.01,4.01,0,0,0,.237,3.471,2.594,2.594,0,0,1,.307,1.78c-.173.593.561,1.84,1.017,2.536a5.509,5.509,0,0,1,.6,1.218c.287.831.967,2.387,1.362,3.7a4.676,4.676,0,0,0-1,2.552A4.9,4.9,0,0,0,8.447,43.4c2.328,2.743,2.489,3.412,2.869,6.124a4.623,4.623,0,0,0,1.857,3.4,3.828,3.828,0,0,0,2.131.622c.09,0,.18,0,.272-.009a15.57,15.57,0,0,0,6.03,9.367,16.869,16.869,0,0,0,3.05,1.786C21.177,66.6,12.383,71.605,7.318,75.955a20.947,20.947,0,0,0-4.969,7.309A26.5,26.5,0,0,0,0,92.751a.8.8,0,0,0,.775.828H.8a.8.8,0,0,0,.8-.775,24.871,24.871,0,0,1,2.213-8.892,19.648,19.648,0,0,1,4.547-6.74c4.032-3.462,10.69-7.461,14.826-9.82-3.211,4.077-7.752,10.152-8.012,10.5a.8.8,0,0,0,.268,1.19,44.038,44.038,0,0,1,7.969,5.387c.107.092.211.182.312.271l-3.533,1.418a.8.8,0,0,0-.408,1.124l3.358,6.254a.8.8,0,0,0,1.413-.759l-2.934-5.464L25.034,85.9c.714.694,1.088,1.126,1.1,1.144A.8.8,0,0,0,27.357,86a39.769,39.769,0,0,0-10.338-7.935c1.565-2.084,6.045-8.032,8.6-11.2L25.533,71a.816.816,0,0,0,.039.265l7.045,21.754,0,.007c0,.014.011.027.017.041a.722.722,0,0,0,.043.093c.007.014.016.027.025.04a.8.8,0,0,0,.057.08l.031.035a.76.76,0,0,0,.072.069c.011.009.022.019.034.028a.839.839,0,0,0,.113.071l.014.007a.788.788,0,0,0,.126.049l.042.01a.811.811,0,0,0,.107.018l.024,0,.049,0h.005a.8.8,0,0,0,.14-.014c.017,0,.034-.008.051-.013s.038-.007.056-.014.014-.007.022-.009a.723.723,0,0,0,.085-.038.548.548,0,0,0,.058-.03.778.778,0,0,0,.069-.049.6.6,0,0,0,.054-.042.707.707,0,0,0,.058-.06c.015-.016.031-.032.044-.05s.033-.051.05-.077.021-.032.03-.05.022-.056.033-.084.016-.038.021-.058a.672.672,0,0,0,.014-.072.754.754,0,0,0,.014-.082v-.007l.536-7.931a.8.8,0,0,0-.241-.629l-3.76-3.655,2.663-5.968q.5-.038.988-.124l3.645,5.259-2.747,4.45a.8.8,0,0,0-.089.641L37.487,93a.8.8,0,0,0,.771.582.761.761,0,0,0,.084,0,.8.8,0,0,0,.717-.743l1.478-21.418c0-.018,0-.037,0-.055V68.176a97.583,97.583,0,0,1,9.187,8.294,24.708,24.708,0,0,0-8.4,6.613.8.8,0,1,0,1.277.971c.009-.013.287-.372.8-.931l.017.012,2.91,1.555-2.954,7.8a.8.8,0,1,0,1.5.568l3.2-8.463a.8.8,0,0,0-.372-.991l-3.123-1.669a22.774,22.774,0,0,1,6.828-4.461.8.8,0,0,0,.27-1.3c-.245-.249-4.372-4.449-7.864-7.427.749.244,1.564.523,2.419.839a36.549,36.549,0,0,1,11.337,6.2,20.2,20.2,0,0,1,4.573,7.287,29.367,29.367,0,0,1,2.2,9.732.8.8,0,0,0,.8.778h.025a.8.8,0,0,0,.777-.826C65.756,86.24,62.409,77.918,58.645,74.582ZM38.935,70.827c-6.78,4.671-11.023.754-11.792-.063l.111-5.067q.933.305,1.945.565a38.035,38.035,0,0,0,7.188,1.089c.605.031,1.284.067,2.014.067.175,0,.353,0,.534-.007Zm3.181-29.077a1.87,1.87,0,0,1-.777-.169c-.1-.056-.178-.1-.229-.124a1.884,1.884,0,0,1-.878-1.591V34.4a1.887,1.887,0,0,1,1.884-1.884H52.332A1.887,1.887,0,0,1,54.217,34.4v5.466a1.887,1.887,0,0,1-1.884,1.884ZM15.239,20.478a6.54,6.54,0,0,1,2.236-2.773c.494-.277,1.06-.707,1.092-1.23.057-.94,3.246-1.15,3.246-1.15a8.381,8.381,0,0,0,2.645-.577,3.343,3.343,0,0,1,2.907-.537,4,4,0,0,0,1.489.236l.051,0A5.1,5.1,0,0,0,31,13.922a2.076,2.076,0,0,1,1.334-.2,2.706,2.706,0,0,0,1.433-.059,2.457,2.457,0,0,1,1.029-.162,4.047,4.047,0,0,1,1.839.607s.6.443,1.5-.246a2.837,2.837,0,0,1,2.608-.482,4.1,4.1,0,0,1,.429.171,2.825,2.825,0,0,0,1.273.282,1.259,1.259,0,0,0,.637-.145c.372-.263,1.553.236,1.553.236a1.727,1.727,0,0,0,1.615-.375c.65-.535,2.009.212,2.526.532a2.691,2.691,0,0,0,.487.236,10.612,10.612,0,0,1,1.183.463c1.608.919,2.756,4.576,3.11,6.827.335,2.131.517,6.924.6,9.827a3.46,3.46,0,0,0-1.824-.52H42.116A3.493,3.493,0,0,0,38.628,34.4v1.494a7.379,7.379,0,0,0-2.535-.117V34.042a3.57,3.57,0,0,0-3.566-3.567H22.014a3.571,3.571,0,0,0-3.567,3.567v1.386l-4.417.51C14.148,32.7,14.578,22.115,15.239,20.478Zm19.25,13.564v5.624a1.965,1.965,0,0,1-1.962,1.962H22.014a1.965,1.965,0,0,1-1.962-1.962V34.042a1.965,1.965,0,0,1,1.962-1.962H32.526A1.965,1.965,0,0,1,34.489,34.042ZM17.012,52.492h0A.705.705,0,0,0,17,52.42a.8.8,0,0,0-.978-.575,2.48,2.48,0,0,1-1.955-.258A3.121,3.121,0,0,1,12.9,49.3c-.407-2.908-.64-3.883-3.234-6.939a3.112,3.112,0,0,1,.04-4.347,2.125,2.125,0,0,1,3.086.025,3.088,3.088,0,0,1,.713,1.1c.065.131.135.275.216.434a.8.8,0,0,0,1.431-.725c-.078-.153-.146-.292-.208-.418a7.743,7.743,0,0,0-.5-.92l4-.462v2.624a3.571,3.571,0,0,0,3.567,3.567H32.526a3.57,3.57,0,0,0,3.566-3.567V37.389a5.375,5.375,0,0,1,2.535.182v2.294A3.485,3.485,0,0,0,40.233,42.8a.8.8,0,0,0,.109.068l.014.007c.062.037.125.071.189.1.731.416,3.173,1.966,2.8,3.917A2.187,2.187,0,0,1,41.6,48.721a4.741,4.741,0,0,1-1.66.106.8.8,0,0,0-.237,1.587,5.659,5.659,0,0,0,.765.047,6.183,6.183,0,0,0,1.484-.175,3.8,3.8,0,0,0,2.972-3.1,4.384,4.384,0,0,0-1.3-3.838h8.712a3.46,3.46,0,0,0,1.435-.312A62.347,62.347,0,0,1,48.853,59c-3.411,7.214-8.81,6.934-12.383,6.748-4.354-.226-10.293-1.431-13.9-4.133A13.849,13.849,0,0,1,17.012,52.492ZM32.86,88.569l-1.715-5.3,1.946,1.892Zm-3.133-9.675-1.78-5.5a9.411,9.411,0,0,0,1.7.785,9.129,9.129,0,0,0,1.983.444Zm8.047,9.252-.959-3.37L38.157,82.6ZM36.023,74.1a14.694,14.694,0,0,0,2.81-1.3L38.5,77.67Z" transform="translate(0 0)"/></g><g transform="translate(71.216 6.82)"><path class="b" d="M335.619,28.627a9.017,9.017,0,0,0-7.192-14.47H318.07a4.939,4.939,0,0,0-4.933,4.934V41.825a4.939,4.939,0,0,0,4.933,4.933h11.736a9.995,9.995,0,0,0,5.813-18.131Zm-6.136,7.515a1.222,1.222,0,0,1-1.221,1.221h-4.994V34.921h4.994A1.222,1.222,0,0,1,329.484,36.142ZM323.269,25.4v-2.49h3.324a1.245,1.245,0,1,1,0,2.49Z" transform="translate(-221.048 -13.594)"/><path class="c" d="M223.808,36.92h-9.4V18.451a4.933,4.933,0,0,0-9.867,0v23.4a4.939,4.939,0,0,0,4.933,4.934h14.338a4.933,4.933,0,0,0,0-9.867Z" transform="translate(-169.085 -13.289)"/><path class="d" d="M163.52,31.362a4.736,4.736,0,0,0-4.051,2.308,7.179,7.179,0,0,1-6.049,3.269,7,7,0,1,1,5.906-10.746,4.934,4.934,0,1,0,8.352-5.258,17.236,17.236,0,0,0-6.007-5.676,16.866,16.866,0,1,0,0,29.36,17.278,17.278,0,0,0,6.015-5.687,4.933,4.933,0,0,0-4.168-7.571Z" transform="translate(-136.557 -13.078)"/><path class="e" d="M274.655,13.106a4.939,4.939,0,0,0-4.933,4.934v14.4a4.494,4.494,0,0,1-8.988,0V18.04a4.933,4.933,0,1,0-9.867,0v14.4a14.36,14.36,0,0,0,28.721,0V18.04A4.939,4.939,0,0,0,274.655,13.106Z" transform="translate(-191.253 -13.091)"/><g transform="translate(0.397 46.593)"><path class="a" d="M159.794,103.794H142.409a5.09,5.09,0,1,0,0,10.18h3.6v18.818a5.09,5.09,0,0,0,10.18,0V113.974h3.6a5.09,5.09,0,1,0,0-10.18Z" transform="translate(-137.319 -103.077)"/><path class="a" d="M239.359,102.425a17.4,17.4,0,1,0,17.4,17.4A17.421,17.421,0,0,0,239.359,102.425Zm7.22,17.4a7.22,7.22,0,1,1-7.22-7.22A7.228,7.228,0,0,1,246.579,119.826Z" transform="translate(-177.818 -102.422)"/><g transform="translate(85.798)"><path class="a" d="M446.058,131.25l-4.333-24.624a5.088,5.088,0,0,0-9.795-.854l-4.2,11.521-4.2-11.521a5.088,5.088,0,0,0-9.795.854l-4.333,24.624a5.09,5.09,0,0,0,10.026,1.768l1.043-5.929,2.477,6.785.007,0a5.088,5.088,0,0,0,9.565,0l2.477-6.785,1.043,5.929a5.09,5.09,0,0,0,10.026-1.768Z" transform="translate(-353.264 -102.42)"/><path class="a" d="M324.311,103.794H306.926a5.09,5.09,0,1,0,0,10.18h3.6v18.818a5.09,5.09,0,0,0,10.181,0V113.974h3.6a5.09,5.09,0,1,0,0-10.18Z" transform="translate(-301.836 -103.077)"/><path class="a" d="M499.445,102.425a17.4,17.4,0,1,0,17.4,17.4A17.421,17.421,0,0,0,499.445,102.425Zm7.22,17.4a7.22,7.22,0,1,1-7.22-7.22A7.229,7.229,0,0,1,506.665,119.826Z" transform="translate(-388.063 -102.422)"/><path class="a" d="M377.944,128.109h-9.7v-2.117h7.909a4.521,4.521,0,1,0,0-9.041h-7.909v-2.121h9.7a5.09,5.09,0,0,0,0-10.18h-14.8a5.1,5.1,0,0,0-5.09,5.09h0V133.2a5.1,5.1,0,0,0,5.09,5.09l.084,0h14.711a5.09,5.09,0,0,0,0-10.18Z" transform="translate(-328.737 -103.486)"/></g></g><path class="a" d="M394.777,54.7q.3-.254.554-.451c.166-.13.326-.26.478-.386q.934-.859,1.9-1.611t1.98-1.448a6.1,6.1,0,0,1,.659-.294,5.756,5.756,0,0,0,.66-.293c.2-.048.3.036.287.25a1.044,1.044,0,0,1-.078.247q-.458.565-.847,1.135a3.24,3.24,0,0,1-.985.94c-.1.085-.2.16-.287.227a.909.909,0,0,0-.235.261,3.936,3.936,0,0,1-.469.521l-.521.488q-.533.446-1.059.912t-1.059.912a1.735,1.735,0,0,1-1.276.575,1.4,1.4,0,0,1-.974-.361,1.206,1.206,0,0,1-.506-.882l-.123-.518a.131.131,0,0,0-.064-.076,3.078,3.078,0,0,0-.38.318q-.4.415-.784.824t-.784.823a1.741,1.741,0,0,1-.347.264c-.2.17-.4.323-.6.46s-.4.276-.607.417a2.579,2.579,0,0,1-1.329.543,1.719,1.719,0,0,1-.751-.1,2.576,2.576,0,0,1-.758-.412,2.717,2.717,0,0,1-.611-.652,1.332,1.332,0,0,1-.221-.835,5.517,5.517,0,0,1,.114-.961,2.767,2.767,0,0,1,.36-.882q.548-.95,1.178-1.851a11.367,11.367,0,0,1,1.445-1.687,2.209,2.209,0,0,1,.91-.58,2.738,2.738,0,0,1,1.16.09q.229.584.152.738a1.992,1.992,0,0,1-.543.493l-.3.255a2.372,2.372,0,0,0-.294.3q-.533.629-1.037,1.294a12.733,12.733,0,0,0-.92,1.4,8.038,8.038,0,0,0-.4,1.005,1.017,1.017,0,0,0,.129.926,1.337,1.337,0,0,0,.378-.135,11.446,11.446,0,0,0,2.227-1.94l1.079-1.213a6.323,6.323,0,0,0,1.1-1.239l.925-1.38a2.176,2.176,0,0,0,.325-.647c.078-.247.162-.5.251-.766q.444-1.2.884-2.419t.98-2.4q.706-1.442,1.36-3.1.134-.4.256-.745t.257-.743l.045-.193q.211-.641.535-.719a1.846,1.846,0,0,1,1.04.254,1.282,1.282,0,0,1,.277.208,2.668,2.668,0,0,0,.3.476,3.581,3.581,0,0,0-.5,1.053q-.163.563-.385,1.161-.134.4-.327.829t-.413.85q-.54.993-1,2.014a17.863,17.863,0,0,0-.8,2.1q-.257.836-.557,1.59t-.556,1.59a13.583,13.583,0,0,0-.323,1.329q-.12.643-.183,1.341a.452.452,0,0,0,0,.2,1.267,1.267,0,0,1,.023.291" transform="translate(-255.738 -25.671)"/><path class="a" d="M412.321,57.019a5.867,5.867,0,0,0-.5,2.488.592.592,0,0,0,.752.1q.669-.25,1.308-.538a12.8,12.8,0,0,0,1.276-.667q1-.6,1.986-1.132c.66-.354.722-.252,1.386-.653a1.662,1.662,0,0,1,.905-.215,1.57,1.57,0,0,1,.059.442.884.884,0,0,1-.211.551,1.852,1.852,0,0,1-.434.377c-.253.213.09-.068-.171.114s-.524.352-.79.506c-.3.161-.572.311-.828.446s-.532.286-.828.447a5.34,5.34,0,0,0-.655.406,5.2,5.2,0,0,1-.656.406,10.5,10.5,0,0,1-1.232.566,5.017,5.017,0,0,1-1.294.307,1.757,1.757,0,0,1-1.307-.328,1.062,1.062,0,0,1-.165-.12.333.333,0,0,0-.155-.077.959.959,0,0,1-.422-.629,3.077,3.077,0,0,1-.04-1.129,8.538,8.538,0,0,1,.479-1.822,12.3,12.3,0,0,1,.789-1.668,11.2,11.2,0,0,1,.924-1.29q.5-.6,1.042-1.181a10.8,10.8,0,0,1,1.771-1.559,1.546,1.546,0,0,1,1.148-.249,1.422,1.422,0,0,1,1.02.555.86.86,0,0,1,.232.4,1.192,1.192,0,0,1,.016.452,4.39,4.39,0,0,1-.578,1.595,11.977,11.977,0,0,1-2.8,2.8,1.822,1.822,0,0,1-.707.282c-.262.047-.508.1-.738.152a.376.376,0,0,1-.257-.03,1.722,1.722,0,0,0-.322-.106m.769-1.367a4.518,4.518,0,0,0,.791-.506,9.512,9.512,0,0,0,.848-.747,7.428,7.428,0,0,0,.768-.889,5.284,5.284,0,0,0,.554-.928.934.934,0,0,0-.335.125c-.152.128-.311.256-.477.387a4.054,4.054,0,0,0-.468.43q-.436.469-.878,1.005a10.313,10.313,0,0,0-.8,1.124" transform="translate(-267.524 -31.174)"/><path class="a" d="M432.252,37.744q.32.047.642.114c.214.045.431.1.648.157a.875.875,0,0,1,.261.434,2.029,2.029,0,0,1,.047.508,10.4,10.4,0,0,1-.273,2.095q-.242,1.018-.5,2.038l-.3,1.114q-.148.557-.295,1.114-.346,1.076-.687,2.174t-.681,2.218a7.531,7.531,0,0,0-.253.929,7.605,7.605,0,0,1-.253.929q-.128.376-.236.725a4.075,4.075,0,0,1-.286.688.605.605,0,0,1-.664.046,2.219,2.219,0,0,1-.693-.487,1.118,1.118,0,0,1-.1-.389,3.684,3.684,0,0,0,.088-.5,3.784,3.784,0,0,1,.088-.5q.4-1.351.79-2.725t.834-2.731q.35-1.031.636-2.055t.5-2.081q.135-.644.258-1.221t.258-1.221c.031-.212.059-.433.089-.66s.056-.462.082-.705" transform="translate(-276.311 -24.88)"/><path class="a" d="M201.409,103.313a5.1,5.1,0,0,0-5.092,5.092v24.156a5.092,5.092,0,0,0,10.184,0V108.4A5.1,5.1,0,0,0,201.409,103.313Z" transform="translate(-165.151 -56.254)"/><g transform="translate(31.165 37.366)"><path class="a" d="M198.909,92.811a2.59,2.59,0,0,1-1.3-4.833l5-2.9a2.59,2.59,0,1,1,2.59,4.486l-5,2.9A2.581,2.581,0,0,1,198.909,92.811Z" transform="translate(-196.316 -84.726)"/></g></g></g></svg>