<svg xmlns="http://www.w3.org/2000/svg" width="194.646" height="63.874" viewBox="0 0 194.646 63.874"><defs><style>.a{fill:#fff;}</style></defs><g transform="translate(0 0)"><g transform="translate(0 0)"><path class="a" d="M23.238,78.25a.546.546,0,0,0-.708.831,4.561,4.561,0,0,1,.778.973,6.3,6.3,0,0,1,.914,2.874.546.546,0,0,0,.543.5l.042,0a.545.545,0,0,0,.5-.585A6.894,6.894,0,0,0,23.238,78.25Z" transform="translate(-14.417 -50.412)"/><path class="a" d="M88.262,65.069A2.183,2.183,0,1,0,89.9,67.151,1.908,1.908,0,0,0,88.262,65.069Z" transform="translate(-55.938 -41.989)"/><path class="a" d="M41.159,50.312a.739.739,0,0,0,.556-.225,4.474,4.474,0,0,1,5.57-.487.737.737,0,1,0,.746-1.271,5.953,5.953,0,0,0-7.382.74.736.736,0,0,0,.51,1.241Z" transform="translate(-26.101 -30.575)"/><path class="a" d="M79.1,50.808a3.655,3.655,0,0,1,1.5-.73,3.9,3.9,0,0,1,3.509,1.15.737.737,0,1,0,.981-1.1,5.275,5.275,0,0,0-4.89-1.471,4.99,4.99,0,0,0-2.1,1.063.737.737,0,1,0,.995,1.087Z" transform="translate(-50.251 -31.315)"/><path class="a" d="M50.821,65.069a2.183,2.183,0,0,0,.06,4.211,2.183,2.183,0,0,0-.06-4.211Z" transform="translate(-31.777 -41.989)"/><path class="a" d="M62.677,98.756a5.619,5.619,0,0,0,2.161-3.575.545.545,0,0,0-.864-.515c-1.628,1.2-3.613,1.115-5.9-.256a16.1,16.1,0,0,1-3.5-2.968l-.024-.028a.546.546,0,0,0-.947.44c.574,4.054,2.364,6.831,4.789,7.429a7.106,7.106,0,0,0,1.7.222A4.516,4.516,0,0,0,62.677,98.756Zm-7.644-5.293a15.44,15.44,0,0,0,2.481,1.883c2.128,1.276,4.125,1.576,5.856.9a3.869,3.869,0,0,1-1.311,1.615,4.153,4.153,0,0,1-3.406.368C57.019,97.822,55.721,96.085,55.033,93.464Z" transform="translate(-34.587 -58.874)"/><path class="a" d="M39.886,50.725c-3.1-2.746-7.962-4.489-10.7-5.311.085-.028.17-.054.256-.085a8.635,8.635,0,0,0,4.77-4.735A43.969,43.969,0,0,0,37.927,27.53h0a2.37,2.37,0,0,0,.039-.416V23.4c0-.068,0-.135-.01-.2a2.842,2.842,0,0,1,.343-.706c.243-.338.8-1.272.319-1.757a.236.236,0,0,1-.053-.256,4.278,4.278,0,0,0,.414-1.893.3.3,0,0,1,.077-.265,2.241,2.241,0,0,0,.237-2.686,1.945,1.945,0,0,1-.034-1.309.7.7,0,0,0-.3-.986c-.5-.233-.286-1.025-.152-1.405A3.147,3.147,0,0,0,38.989,11a1.373,1.373,0,0,0-.349-1.11.5.5,0,0,1-.179-.322,1.169,1.169,0,0,0-.339-.778.619.619,0,0,1-.205-.282,2.031,2.031,0,0,0-.978-1.052,1.991,1.991,0,0,1-1.08-1.837,1.458,1.458,0,0,0-.987-1.286,1.1,1.1,0,0,1-.68-.627,2.455,2.455,0,0,0-2.116-1.386c-2.272-.367-1.6-.121-2.47-.8a1.594,1.594,0,0,0-1.24-.372A1.59,1.59,0,0,1,26.995.73l-.02-.02a1.2,1.2,0,0,0-.9-.365A2,2,0,0,0,25.5.452,1.129,1.129,0,0,1,24.481.268a1.106,1.106,0,0,0-.944-.176.946.946,0,0,0-.367.2C22.712.7,21.555.157,21.555.157a2.027,2.027,0,0,0-1.937.2A2.571,2.571,0,0,1,18.434.8c-.3.03-.686.065-1.147.1a6.309,6.309,0,0,0-2,.611,5.763,5.763,0,0,0-.957.576,3.087,3.087,0,0,1-2.125.562,1.8,1.8,0,0,0-1.79,1.31.676.676,0,0,1-.563.424c-.635.057-1.765.316-1.9,1.424,0,0-.022.671-1.19.544-.812-.089-1.413,1.557-1.7,2.568A4.48,4.48,0,0,0,4.9,9.963a.544.544,0,0,1-.43.511c-.309.1-.419.5-.4.807a1.378,1.378,0,0,1-.261.971A4.221,4.221,0,0,0,3.1,15.189a2.647,2.647,0,0,0,.187.8.793.793,0,0,1-.1.73,2.727,2.727,0,0,0,.161,2.361,1.764,1.764,0,0,1,.209,1.211c-.117.4.381,1.252.692,1.725a3.747,3.747,0,0,1,.408.829c.2.565.658,1.624.926,2.515A3.18,3.18,0,0,0,4.908,27.1a3.332,3.332,0,0,0,.837,2.42c1.583,1.865,1.693,2.321,1.952,4.165A3.144,3.144,0,0,0,8.96,35.992a2.6,2.6,0,0,0,1.45.423c.061,0,.123,0,.185-.006a10.59,10.59,0,0,0,4.1,6.371,11.473,11.473,0,0,0,2.074,1.214C14.4,45.3,8.422,48.7,4.977,51.658A14.247,14.247,0,0,0,1.6,56.629,18.021,18.021,0,0,0,0,63.081a.545.545,0,0,0,.527.563H.546a.545.545,0,0,0,.545-.527A16.915,16.915,0,0,1,2.6,57.07a13.363,13.363,0,0,1,3.093-4.584,73.412,73.412,0,0,1,10.083-6.678c-2.184,2.773-5.272,6.9-5.449,7.141a.546.546,0,0,0,.182.809,29.951,29.951,0,0,1,5.42,3.664l.212.184-2.4.964a.545.545,0,0,0-.277.764l2.284,4.253a.545.545,0,0,0,.961-.516l-2-3.716,2.32-.931c.486.472.74.766.751.778a.546.546,0,0,0,.83-.709,27.047,27.047,0,0,0-7.031-5.4c1.064-1.418,4.112-5.463,5.852-7.616l-.062,2.812a.555.555,0,0,0,.027.18l4.792,14.8,0,0c0,.01.008.018.012.028a.491.491,0,0,0,.029.063c0,.009.011.018.017.027a.544.544,0,0,0,.039.055l.021.024a.516.516,0,0,0,.049.047l.023.019a.571.571,0,0,0,.077.049l.01,0a.536.536,0,0,0,.086.033l.029.007a.551.551,0,0,0,.073.012l.016,0H22.7a.546.546,0,0,0,.1-.009l.035-.009c.013,0,.026,0,.038-.009l.015-.006a.493.493,0,0,0,.058-.026.374.374,0,0,0,.039-.02.53.53,0,0,0,.047-.033.412.412,0,0,0,.037-.029.481.481,0,0,0,.039-.041c.01-.011.021-.022.03-.034s.023-.035.034-.052.015-.022.021-.034.015-.038.023-.057.011-.026.015-.04a.457.457,0,0,0,.009-.049.512.512,0,0,0,.009-.056v0l.364-5.394a.544.544,0,0,0-.164-.428L20.89,54.829,22.7,50.77q.341-.026.672-.084l2.479,3.577-1.868,3.027a.547.547,0,0,0-.06.436L25.5,63.249a.545.545,0,0,0,.524.4.517.517,0,0,0,.057,0,.545.545,0,0,0,.487-.505L27.57,48.57c0-.012,0-.025,0-.038V46.368a66.367,66.367,0,0,1,6.248,5.641,16.8,16.8,0,0,0-5.711,4.5.545.545,0,0,0,.868.66c.006-.009.2-.253.547-.633l.012.008L31.515,57.6l-2.009,5.308a.545.545,0,1,0,1.02.386L32.7,57.536a.545.545,0,0,0-.253-.674l-2.124-1.135a15.489,15.489,0,0,1,4.644-3.034.545.545,0,0,0,.184-.887c-.166-.17-2.974-3.026-5.348-5.051.509.166,1.064.356,1.645.57a24.858,24.858,0,0,1,7.711,4.216,13.738,13.738,0,0,1,3.11,4.956,19.973,19.973,0,0,1,1.494,6.619.545.545,0,0,0,.545.529h.017a.545.545,0,0,0,.528-.562C44.722,58.653,42.446,52.994,39.886,50.725ZM26.48,48.171c-4.611,3.177-7.5.513-8.02-.043l.076-3.446q.635.207,1.323.384a25.869,25.869,0,0,0,4.889.741c.412.021.874.045,1.37.045.119,0,.24,0,.363,0Zm2.164-19.776a1.272,1.272,0,0,1-.528-.115c-.068-.038-.121-.067-.156-.084a1.282,1.282,0,0,1-.6-1.082V23.4a1.283,1.283,0,0,1,1.281-1.281h6.948A1.283,1.283,0,0,1,36.874,23.4v3.718a1.283,1.283,0,0,1-1.281,1.281ZM10.364,13.928a4.448,4.448,0,0,1,1.521-1.886c.336-.189.721-.481.743-.837.039-.639,2.208-.782,2.208-.782a5.7,5.7,0,0,0,1.8-.393,2.274,2.274,0,0,1,1.977-.365,2.719,2.719,0,0,0,1.013.16h.034a3.471,3.471,0,0,0,1.423-.356,1.412,1.412,0,0,1,.907-.137,1.841,1.841,0,0,0,.974-.04,1.671,1.671,0,0,1,.7-.11,2.753,2.753,0,0,1,1.251.413s.407.3,1.022-.167A1.929,1.929,0,0,1,27.71,9.1,2.788,2.788,0,0,1,28,9.214a1.921,1.921,0,0,0,.866.192.856.856,0,0,0,.433-.1c.253-.179,1.056.161,1.056.161a1.175,1.175,0,0,0,1.1-.255c.442-.364,1.366.144,1.718.362a1.831,1.831,0,0,0,.331.161,7.218,7.218,0,0,1,.8.315c1.094.625,1.875,3.112,2.115,4.643.228,1.449.351,4.709.408,6.684a2.353,2.353,0,0,0-1.24-.354H28.644A2.375,2.375,0,0,0,26.271,23.4v1.016a5.019,5.019,0,0,0-1.724-.08V23.153a2.428,2.428,0,0,0-2.425-2.426h-7.15a2.428,2.428,0,0,0-2.426,2.426V24.1l-3,.347C9.622,22.24,9.915,15.041,10.364,13.928Zm13.092,9.225v3.825a1.336,1.336,0,0,1-1.335,1.335h-7.15a1.336,1.336,0,0,1-1.335-1.335V23.153a1.336,1.336,0,0,1,1.335-1.335h7.15A1.336,1.336,0,0,1,23.456,23.153ZM11.57,35.7h0a.479.479,0,0,0-.007-.05.546.546,0,0,0-.665-.391,1.687,1.687,0,0,1-1.329-.176,2.122,2.122,0,0,1-.789-1.555c-.277-1.978-.435-2.641-2.2-4.72A2.117,2.117,0,0,1,6.6,25.853a1.445,1.445,0,0,1,2.1.017,2.1,2.1,0,0,1,.485.745c.044.089.092.187.147.3a.546.546,0,0,0,.973-.493c-.053-.1-.1-.2-.142-.284a5.266,5.266,0,0,0-.343-.626l2.723-.314v1.784A2.428,2.428,0,0,0,14.972,29.4h7.15a2.428,2.428,0,0,0,2.425-2.426V25.429a3.656,3.656,0,0,1,1.724.124v1.56a2.371,2.371,0,0,0,1.092,1.994.541.541,0,0,0,.074.046l.01,0c.042.025.085.048.129.071.5.283,2.158,1.337,1.906,2.664a1.487,1.487,0,0,1-1.189,1.244,3.224,3.224,0,0,1-1.129.072A.546.546,0,0,0,27,34.288a3.848,3.848,0,0,0,.52.032,4.206,4.206,0,0,0,1.009-.119A2.586,2.586,0,0,0,30.554,32.1a2.982,2.982,0,0,0-.887-2.611h5.925a2.353,2.353,0,0,0,.976-.212,42.4,42.4,0,0,1-3.342,10.856c-2.32,4.906-5.992,4.716-8.422,4.589-2.961-.154-7-.973-9.455-2.811A9.419,9.419,0,0,1,11.57,35.7ZM22.349,60.237l-1.167-3.6,1.323,1.286Zm-2.131-6.58-1.211-3.739a6.4,6.4,0,0,0,1.158.534,6.209,6.209,0,0,0,1.349.3Zm5.473,6.293-.652-2.292.913-1.479ZM24.5,50.4a9.994,9.994,0,0,0,1.911-.887l-.229,3.315Z" transform="translate(0 0)"/></g><g transform="translate(48.436 4.639)"><path class="a" d="M328.428,24a6.133,6.133,0,0,0-4.892-9.841h-7.044a3.359,3.359,0,0,0-3.355,3.355V32.975a3.359,3.359,0,0,0,3.355,3.355h7.982A6.8,6.8,0,0,0,328.428,24Zm-4.173,5.111a.831.831,0,0,1-.83.83h-3.4V28.279h3.4A.831.831,0,0,1,324.255,29.109Zm-4.227-7.3V20.112h2.26a.847.847,0,1,1,0,1.694Z" transform="translate(-250.506 -13.774)"/><path class="a" d="M217.644,29.434h-6.4V16.873a3.355,3.355,0,0,0-6.71,0V32.789a3.359,3.359,0,0,0,3.355,3.355h9.752a3.355,3.355,0,0,0,0-6.71Z" transform="translate(-180.425 -13.362)"/><path class="a" d="M154.9,25.513a3.221,3.221,0,0,0-2.755,1.57,4.882,4.882,0,0,1-4.114,2.224A4.759,4.759,0,1,1,152.043,22a3.356,3.356,0,1,0,5.68-3.576,11.723,11.723,0,0,0-4.085-3.86,11.471,11.471,0,1,0,0,19.968,11.751,11.751,0,0,0,4.091-3.868,3.355,3.355,0,0,0-2.835-5.149Z" transform="translate(-136.557 -13.078)"/><path class="a" d="M267.045,13.106a3.359,3.359,0,0,0-3.355,3.355v9.8a3.057,3.057,0,0,1-6.113,0v-9.8a3.355,3.355,0,1,0-6.71,0v9.8a9.767,9.767,0,0,0,19.533,0v-9.8A3.359,3.359,0,0,0,267.045,13.106Z" transform="translate(-210.322 -13.096)"/><g transform="translate(0.27 31.689)"><path class="a" d="M152.6,103.794H140.781a3.462,3.462,0,1,0,0,6.924h2.449v12.8a3.462,3.462,0,0,0,6.924,0v-12.8h2.45a3.462,3.462,0,1,0,0-6.924Z" transform="translate(-137.319 -103.307)"/><path class="a" d="M233.793,102.425a11.835,11.835,0,1,0,11.835,11.835A11.848,11.848,0,0,0,233.793,102.425ZM238.7,114.26a4.911,4.911,0,1,1-4.911-4.911A4.916,4.916,0,0,1,238.7,114.26Z" transform="translate(-191.937 -102.423)"/><g transform="translate(58.353)"><path class="a" d="M434.3,122.028l-2.947-16.747a3.461,3.461,0,0,0-6.661-.581l-2.859,7.836-2.859-7.836a3.461,3.461,0,0,0-6.661.581l-2.947,16.747a3.462,3.462,0,0,0,6.819,1.2l.709-4.032,1.685,4.615.005,0a3.46,3.46,0,0,0,6.505,0l1.685-4.615.709,4.032a3.462,3.462,0,0,0,6.819-1.2Z" transform="translate(-371.194 -102.42)"/><path class="a" d="M317.121,103.794H305.3a3.462,3.462,0,1,0,0,6.924h2.449v12.8a3.462,3.462,0,0,0,6.924,0v-12.8h2.449a3.462,3.462,0,1,0,0-6.924Z" transform="translate(-301.836 -103.307)"/><path class="a" d="M493.879,102.425a11.835,11.835,0,1,0,11.835,11.835A11.848,11.848,0,0,0,493.879,102.425Zm4.911,11.835a4.911,4.911,0,1,1-4.911-4.911A4.916,4.916,0,0,1,498.789,114.26Z" transform="translate(-418.126 -102.423)"/><path class="a" d="M371.583,120.6h-6.6v-1.44h5.379a3.075,3.075,0,1,0,0-6.149h-5.379v-1.443h6.6a3.462,3.462,0,0,0,0-6.924H361.52a3.466,3.466,0,0,0-3.462,3.462h0v15.955a3.466,3.466,0,0,0,3.462,3.462h10.063a3.462,3.462,0,0,0,0-6.924Z" transform="translate(-338.117 -103.858)"/></g></g><path class="a" d="M391.854,49.807q.206-.173.377-.306c.113-.089.222-.177.325-.263q.635-.584,1.289-1.1t1.346-.985a4.148,4.148,0,0,1,.448-.2,3.914,3.914,0,0,0,.449-.2c.137-.033.2.024.2.17a.711.711,0,0,1-.053.168q-.312.384-.576.772a2.2,2.2,0,0,1-.67.639c-.069.058-.134.109-.2.154a.618.618,0,0,0-.16.177,2.676,2.676,0,0,1-.319.354l-.355.332q-.362.3-.72.62t-.72.62a1.18,1.18,0,0,1-.868.391.955.955,0,0,1-.662-.245.82.82,0,0,1-.344-.6l-.083-.352a.089.089,0,0,0-.043-.052,2.092,2.092,0,0,0-.258.216q-.275.282-.533.56t-.533.56a1.183,1.183,0,0,1-.236.18c-.138.116-.273.22-.406.313s-.27.188-.413.284a1.754,1.754,0,0,1-.9.369,1.169,1.169,0,0,1-.511-.065,1.752,1.752,0,0,1-.515-.28,1.848,1.848,0,0,1-.415-.444.906.906,0,0,1-.15-.568,3.753,3.753,0,0,1,.077-.654,1.882,1.882,0,0,1,.245-.6q.373-.646.8-1.259a7.731,7.731,0,0,1,.982-1.147,1.5,1.5,0,0,1,.619-.395,1.862,1.862,0,0,1,.789.061q.156.4.1.5a1.355,1.355,0,0,1-.37.336l-.207.173a1.611,1.611,0,0,0-.2.2q-.363.428-.705.88a8.663,8.663,0,0,0-.626.954,5.464,5.464,0,0,0-.272.684.692.692,0,0,0,.088.63.909.909,0,0,0,.257-.092,7.785,7.785,0,0,0,1.515-1.319l.734-.825a4.3,4.3,0,0,0,.745-.843l.629-.939a1.479,1.479,0,0,0,.221-.44c.053-.168.11-.341.171-.521q.3-.815.6-1.645t.667-1.63q.48-.981.925-2.109.091-.269.174-.506t.174-.505l.031-.132q.144-.436.364-.489a1.255,1.255,0,0,1,.707.173.872.872,0,0,1,.188.142,1.814,1.814,0,0,0,.2.324,2.435,2.435,0,0,0-.342.716q-.111.383-.262.79-.091.27-.222.564t-.281.578q-.367.676-.682,1.37a12.148,12.148,0,0,0-.544,1.43q-.175.569-.379,1.081t-.378,1.081a9.234,9.234,0,0,0-.22.9q-.082.437-.125.912a.307.307,0,0,0,0,.139.863.863,0,0,1,.016.2" transform="translate(-297.291 -30.061)"/><path class="a" d="M411.664,55.061a3.99,3.99,0,0,0-.342,1.692.4.4,0,0,0,.511.065q.455-.17.89-.366A8.7,8.7,0,0,0,413.59,56q.677-.408,1.351-.77c.449-.24.491-.172.943-.444a1.13,1.13,0,0,1,.616-.146,1.068,1.068,0,0,1,.04.3.6.6,0,0,1-.144.375,1.26,1.26,0,0,1-.3.256c-.172.145.061-.046-.116.078s-.356.239-.537.344c-.2.11-.389.211-.563.3s-.362.194-.563.3a3.633,3.633,0,0,0-.445.276,3.533,3.533,0,0,1-.446.276,7.137,7.137,0,0,1-.838.385,3.411,3.411,0,0,1-.88.209,1.2,1.2,0,0,1-.889-.223.722.722,0,0,1-.112-.082.226.226,0,0,0-.106-.052.652.652,0,0,1-.287-.428,2.092,2.092,0,0,1-.027-.768,5.808,5.808,0,0,1,.326-1.239,8.359,8.359,0,0,1,.536-1.134,7.619,7.619,0,0,1,.629-.877q.338-.4.708-.8a7.346,7.346,0,0,1,1.2-1.06,1.052,1.052,0,0,1,.781-.17.967.967,0,0,1,.694.377.585.585,0,0,1,.157.272.811.811,0,0,1,.011.308,2.986,2.986,0,0,1-.393,1.085,8.145,8.145,0,0,1-1.9,1.907,1.239,1.239,0,0,1-.481.192c-.178.032-.346.067-.5.1a.256.256,0,0,1-.175-.021,1.171,1.171,0,0,0-.219-.072m.523-.93a3.073,3.073,0,0,0,.538-.344,6.47,6.47,0,0,0,.577-.508,5.049,5.049,0,0,0,.522-.6,3.593,3.593,0,0,0,.377-.631.636.636,0,0,0-.228.085c-.1.087-.211.174-.325.263a2.758,2.758,0,0,0-.318.292q-.3.319-.6.684a7.011,7.011,0,0,0-.547.764" transform="translate(-313.185 -37.483)"/><path class="a" d="M431.094,37.744q.218.032.437.077c.146.031.293.066.441.107a.6.6,0,0,1,.177.3,1.38,1.38,0,0,1,.032.345,7.073,7.073,0,0,1-.186,1.425q-.164.692-.343,1.386l-.2.758-.2.758q-.235.732-.467,1.479t-.463,1.508a5.119,5.119,0,0,0-.172.632,5.165,5.165,0,0,1-.172.632c-.058.171-.111.335-.161.493a2.772,2.772,0,0,1-.195.468.412.412,0,0,1-.452.032,1.51,1.51,0,0,1-.471-.331.759.759,0,0,1-.067-.265,2.506,2.506,0,0,0,.06-.343,2.572,2.572,0,0,1,.06-.343q.27-.919.537-1.853t.568-1.858q.238-.7.432-1.4t.339-1.416q.092-.438.176-.83t.175-.83c.021-.144.04-.294.06-.449s.038-.314.056-.48" transform="translate(-325.035 -28.995)"/><path class="a" d="M199.78,103.313a3.467,3.467,0,0,0-3.463,3.463V123.2a3.463,3.463,0,0,0,6.926,0V106.776A3.467,3.467,0,0,0,199.78,103.313Z" transform="translate(-175.121 -71.308)"/><g transform="translate(21.196 25.413)"><path class="a" d="M198.08,90.225a1.762,1.762,0,0,1-.882-3.287l3.4-1.975a1.761,1.761,0,1,1,1.761,3.051l-3.4,1.975A1.756,1.756,0,0,1,198.08,90.225Z" transform="translate(-196.316 -84.726)"/></g></g></g></svg>