<svg xmlns="http://www.w3.org/2000/svg" width="76.387" height="24.708" viewBox="0 0 76.387 24.708"><defs><style>.a{fill:#fff;}.b{fill:#ffb52e;}</style></defs><g transform="translate(0 0)"><path class="a" d="M395.5,394.631a3.411,3.411,0,0,0-3.407,3.407V414.5a3.407,3.407,0,1,0,6.815,0V398.039A3.411,3.411,0,0,0,395.5,394.631Z" transform="translate(-365.81 -393.203)"/><path class="a" d="M178.59,413.766l-2.9-16.483a3.406,3.406,0,0,0-6.556-.572l-2.814,7.712-2.814-7.712a3.406,3.406,0,0,0-6.556.572l-2.9,16.483a3.407,3.407,0,1,0,6.711,1.183l.7-3.968,1.658,4.542.005,0a3.406,3.406,0,0,0,6.4,0l1.658-4.542.7,3.968a3.407,3.407,0,1,0,6.711-1.183Z" transform="translate(-153.995 -393.058)"/><circle class="b" cx="3.407" cy="3.407" r="3.407" transform="translate(33.4 4.819) rotate(-45)"/><path class="a" d="M682.718,394.631a3.411,3.411,0,0,0-3.407,3.407v9.949a3.1,3.1,0,1,1-6.208,0v-9.949a3.407,3.407,0,1,0-6.815,0v9.949a9.919,9.919,0,1,0,19.838,0v-9.949A3.411,3.411,0,0,0,682.718,394.631Z" transform="translate(-609.738 -393.203)"/><path class="a" d="M485.794,394.631a3.411,3.411,0,0,0-3.407,3.407v9.949a3.1,3.1,0,1,1-6.208,0,3.407,3.407,0,0,0-6.815,0,9.919,9.919,0,0,0,19.838,0v-9.949A3.411,3.411,0,0,0,485.794,394.631Z" transform="translate(-434.551 -393.203)"/></g></svg>