<svg xmlns="http://www.w3.org/2000/svg" width="141.013" height="22.244" viewBox="0 0 141.013 22.244"><defs><style>.a{fill:#3b3836;}.b{fill:#009949;}</style></defs><g transform="translate(-74.933 -302)"><path class="a" d="M72.207,369.842l-2.71-15.4a3.182,3.182,0,0,0-6.125-.534l-2.629,7.2-2.63-7.2a3.182,3.182,0,0,0-6.124.534l-2.71,15.4a3.183,3.183,0,1,0,6.269,1.106l.653-3.707,1.548,4.243.005,0a3.181,3.181,0,0,0,5.98,0l1.549-4.243.653,3.707a3.183,3.183,0,0,0,6.27-1.106" transform="translate(65.4 -49.334)"/><path class="a" d="M132.516,366.441v-.055a5.982,5.982,0,0,0-2.2-4.615,9.6,9.6,0,0,0-4.727-1.98c-1.562-.192-3.142-.073-3.142-1.3,0-.513.632-.993,1.432-.993,1.071,0,1.92.583,3.221,1.338a3.041,3.041,0,0,0,3.737-.49,3.089,3.089,0,0,0-.618-4.755,11.69,11.69,0,0,0-6.489-1.743c-4.471.073-7.548,2.933-7.482,6.955v.054c0,4.16,3.08,5.794,7,6.365,2.9.424,3.044,1.081,3.044,1.574,0,.291-.435.949-1.671.994a7.78,7.78,0,0,1-4-1.575,3.1,3.1,0,0,0-3.972.345,2.958,2.958,0,0,0-.848,2.175,3.1,3.1,0,0,0,1.268,2.459,12.94,12.94,0,0,0,7.44,2.364h.207a8.631,8.631,0,0,0,5.577-1.875,6.531,6.531,0,0,0,2.219-5.247" transform="translate(43.621 -49.347)"/><path class="a" d="M178.345,351.815A10.881,10.881,0,1,0,189.226,362.7a10.893,10.893,0,0,0-10.881-10.881M182.86,362.7a4.516,4.516,0,1,1-4.515-4.515,4.519,4.519,0,0,1,4.515,4.515" transform="translate(26.721 -49.334)"/><path class="a" d="M101.205,351.829a3.187,3.187,0,0,0-3.183,3.183v9.294a2.9,2.9,0,1,1-5.8,0v-9.294a3.183,3.183,0,1,0-6.366,0v9.294a9.266,9.266,0,1,0,18.532,0v-9.294a3.187,3.187,0,0,0-3.183-3.183" transform="translate(53.419 -49.339)"/><path class="a" d="M155.484,367.024h-6.068V365.7h4.946a2.827,2.827,0,0,0,0-5.654h-4.946V358.72h6.068a3.183,3.183,0,0,0,0-6.366h-9.252a3.187,3.187,0,0,0-3.183,3.183h0v14.67a3.187,3.187,0,0,0,3.183,3.183h9.252a3.183,3.183,0,0,0,0-6.367" transform="translate(34.708 -49.511)"/><g transform="translate(0 -161.007)"><path class="b" d="M88.9,303.125a3.187,3.187,0,0,0-3.183,3.183v15.377a3.183,3.183,0,1,0,6.366,0V306.308a3.186,3.186,0,0,0-3.183-3.183" transform="translate(13.765 159.899)"/><path class="b" d="M72.206,321.129l-2.71-15.4a3.182,3.182,0,0,0-6.124-.534l-2.63,7.2-2.629-7.2a3.182,3.182,0,0,0-6.124.534l-2.71,15.4a3.183,3.183,0,1,0,6.269,1.1l.652-3.707,1.549,4.243h.005a3.181,3.181,0,0,0,5.98,0l1.549-4.243.653,3.707a3.183,3.183,0,1,0,6.269-1.1" transform="translate(25.702 159.907)"/></g></g></svg>