<svg xmlns="http://www.w3.org/2000/svg" width="140.457" height="22" viewBox="0 0 140.457 22"><defs><style>.a{fill:#ffb52e;}.b{fill:#3b3836;}</style></defs><g transform="translate(-74.933 -366)"><g transform="translate(0 -97.007)"><path class="a" d="M88.9,303.125a3.187,3.187,0,0,0-3.183,3.183v15.377a3.183,3.183,0,1,0,6.366,0V306.308a3.186,3.186,0,0,0-3.183-3.183" transform="translate(13.765 159.899)"/><path class="a" d="M72.206,321.129l-2.71-15.4a3.182,3.182,0,0,0-6.124-.534l-2.63,7.2-2.629-7.2a3.182,3.182,0,0,0-6.124.534l-2.71,15.4a3.183,3.183,0,1,0,6.269,1.1l.652-3.707,1.549,4.243h.005a3.181,3.181,0,0,0,5.98,0l1.549-4.243.653,3.707a3.183,3.183,0,1,0,6.269-1.1" transform="translate(25.702 159.907)"/></g><g transform="translate(-1164 -1846)"><path class="b" d="M-469.6-120.8h-6.058v-1.321h4.937a2.825,2.825,0,0,0,2.822-2.822,2.825,2.825,0,0,0-2.822-2.822h-4.937v-1.324h6.058a3.181,3.181,0,0,0,3.177-3.178,3.181,3.181,0,0,0-3.177-3.178h-9.235a3.181,3.181,0,0,0-3.177,3.178h0v14.644a3.181,3.181,0,0,0,3.177,3.177h9.235a3.181,3.181,0,0,0,3.177-3.177A3.181,3.181,0,0,0-469.6-120.8" transform="translate(1828.013 2348.442)"/><path class="b" d="M-26.473-135.442a3.117,3.117,0,0,0-3.114,3.114v14.772a3.118,3.118,0,0,0,3.114,3.114,3.118,3.118,0,0,0,3.114-3.114v-14.772a3.117,3.117,0,0,0-3.114-3.114" transform="translate(1346.587 2348.442)"/><path class="b" d="M-255.725-126.206h0a3.066,3.066,0,0,0-2.756-1.535h-5.473a2.732,2.732,0,0,0-2.729,2.729,2.732,2.732,0,0,0,2.729,2.729h1.718a4.1,4.1,0,0,1-1.241,1.106,4.545,4.545,0,0,1-3.393.434,4.363,4.363,0,0,1-2.717-2.029,4.364,4.364,0,0,1,1.6-5.954,4.341,4.341,0,0,1,4.2-.088,3.056,3.056,0,0,0,2.988-.049,3.076,3.076,0,0,0,1.125-4.2,3.065,3.065,0,0,0-1.244-1.19,10.74,10.74,0,0,0-5.008-1.191,10.47,10.47,0,0,0-5.131,1.393,10.436,10.436,0,0,0-4.894,6.378,10.437,10.437,0,0,0,1.049,7.971,10.436,10.436,0,0,0,6.379,4.894,10.565,10.565,0,0,0,2.736.363,10.444,10.444,0,0,0,5.235-1.412,10.463,10.463,0,0,0,3.772-3.75,10.764,10.764,0,0,0,1.474-4.941,3.065,3.065,0,0,0-.409-1.661" transform="translate(1600.322 2348.442)"/><path class="b" d="M-472.439,0a10.512,10.512,0,0,0-10.5,10.5,10.512,10.512,0,0,0,10.5,10.5,10.512,10.512,0,0,0,10.5-10.5A10.512,10.512,0,0,0-472.439,0m4.357,10.5a4.362,4.362,0,0,1-4.357,4.357A4.362,4.362,0,0,1-476.8,10.5a4.362,4.362,0,0,1,4.357-4.357,4.362,4.362,0,0,1,4.357,4.357" transform="translate(1760.939 2213)"/><path class="b" d="M-91.9,12.34a6.522,6.522,0,0,0,3.63-5.8A6.62,6.62,0,0,0-94.343.035,3.209,3.209,0,0,0-94.81,0h-6.11A3.181,3.181,0,0,0-104.1,3.177v0h0V17.823A3.181,3.181,0,0,0-100.92,21a3.181,3.181,0,0,0,3.177-3.177V15.267l3.858,4.6A3.17,3.17,0,0,0-91.448,21a3.162,3.162,0,0,0,2.04-.742,3.181,3.181,0,0,0,.392-4.476Zm-3.584-4.416h-2.256V6.351h2.256a.787.787,0,0,1,.786.786.787.787,0,0,1-.786.786" transform="translate(1404.097 2213)"/><path class="b" d="M-584.139,0a3.078,3.078,0,0,0-3.074,3.074v6.3l-5.753-8.213A2.722,2.722,0,0,0-595.267,0l-.115,0a3.078,3.078,0,0,0-3.074,3.074V17.926A3.078,3.078,0,0,0-595.382,21a3.078,3.078,0,0,0,3.074-3.074v-6.3l5.645,8.059.015.022a3.081,3.081,0,0,0,2.508,1.3,3.078,3.078,0,0,0,3.074-3.074V3.074A3.078,3.078,0,0,0-584.139,0" transform="translate(1960.456 2213)"/></g></g></svg>