<svg xmlns="http://www.w3.org/2000/svg" xmlns:xlink="http://www.w3.org/1999/xlink" width="295.296" height="254.61" viewBox="0 0 295.296 254.61"><defs><style>.a,.c,.m{fill:#fff;}.b,.g,.i,.j{fill:none;stroke:#fff;stroke-linecap:round;stroke-linejoin:round;stroke-miterlimit:10;}.b,.i{stroke-width:2px;}.b{opacity:0.407;}.c{opacity:0.283;}.d{clip-path:url(#a);}.e{fill:#4b4846;}.f{opacity:0.772;}.g,.j{stroke-width:5px;}.h{opacity:0.854;}.i,.j{opacity:0.617;}.k{opacity:0.222;}.l,.m{stroke:none;}</style><clipPath id="a"><circle class="a" cx="87.666" cy="87.666" r="87.666"/></clipPath></defs><g transform="translate(-41.942 -2474.437)"><path class="b" d="M4.582,7.905,9.139,5.262,4.582,2.643,0,0V10.574Z" transform="translate(43.041 2565.459) rotate(-84)"/><g transform="translate(0 3)"><g class="c" transform="translate(-1312.923 2643.077)"><path class="l" d="M 1500.12841796875 60.75644302368164 C 1493.300537109375 60.75644302368164 1486.47705078125 60.0685920715332 1479.84765625 58.71199035644531 C 1473.387329101562 57.39001846313477 1467.032348632812 55.41731643676758 1460.959350585938 52.8487434387207 C 1454.996215820312 50.32649230957031 1449.245361328125 47.20501708984375 1443.866333007812 43.57096862792969 C 1438.537719726562 39.97111511230469 1433.526977539062 35.83684158325195 1428.97314453125 31.28301620483398 C 1424.41943359375 26.72934150695801 1420.28515625 21.71859169006348 1416.685180664062 16.38999176025391 C 1413.050903320312 11.010666847229 1409.929443359375 5.259767055511475 1407.4072265625 -0.7029329538345337 C 1404.838989257812 -6.775107860565186 1402.866333007812 -13.13000774383545 1401.544067382812 -19.59108352661133 C 1400.1875 -26.22078323364258 1399.499633789062 -33.04413223266602 1399.499633789062 -39.87155914306641 C 1399.499633789062 -46.69905853271484 1400.1875 -53.52245712280273 1401.544067382812 -60.15225982666016 C 1402.866088867188 -66.61288452148438 1404.838745117188 -72.96785736083984 1407.4072265625 -79.04061126708984 C 1409.929321289062 -85.00333404541016 1413.050903320312 -90.75425720214844 1416.685180664062 -96.13368225097656 C 1420.28515625 -101.4622802734375 1424.41943359375 -106.4730606079102 1428.97314453125 -111.0267791748047 C 1433.526977539062 -115.5806045532227 1438.537719726562 -119.7148818969727 1443.866333007812 -123.3147583007812 C 1449.24560546875 -126.9490356445312 1454.99658203125 -130.0705261230469 1460.959350585938 -132.5925598144531 C 1467.032104492188 -135.1611633300781 1473.387084960938 -137.1338653564453 1479.84765625 -138.4558563232422 C 1486.47705078125 -139.8124542236328 1493.300537109375 -140.5003051757812 1500.12841796875 -140.5003051757812 C 1506.956298828125 -140.5003051757812 1513.779663085938 -139.8124542236328 1520.4091796875 -138.4558563232422 C 1526.869750976562 -137.1338348388672 1533.224609375 -135.1611328125 1539.297241210938 -132.5925598144531 C 1545.259399414062 -130.0708770751953 1551.01025390625 -126.9493865966797 1556.390258789062 -123.3147811889648 C 1561.71875 -119.7148818969727 1566.7294921875 -115.5806045532227 1571.283325195312 -111.0267791748047 C 1575.8369140625 -106.4731597900391 1579.971069335938 -101.4623794555664 1583.571166992188 -96.13368225097656 C 1587.20556640625 -90.75390625 1590.327026367188 -85.00298309326172 1592.848754882812 -79.04061126708984 C 1595.417114257812 -72.96858215332031 1597.389770507812 -66.61363220214844 1598.712036132812 -60.1522331237793 C 1600.068603515625 -53.52283477783203 1600.75634765625 -46.69943237304688 1600.75634765625 -39.87155914306641 C 1600.75634765625 -33.04375839233398 1600.068603515625 -26.22043228149414 1598.712036132812 -19.5910587310791 C 1597.389770507812 -13.12968254089355 1595.417114257812 -6.774807929992676 1592.848754882812 -0.7029329538345337 C 1590.326782226562 5.259767055511475 1587.205444335938 11.01064205169678 1583.571166992188 16.38999176025391 C 1579.97119140625 21.7186164855957 1575.8369140625 26.72936630249023 1571.283325195312 31.28301620483398 C 1566.7294921875 35.83676528930664 1561.71875 39.97101593017578 1556.390258789062 43.57096862792969 C 1551.010498046875 47.20539093017578 1545.259521484375 50.3268928527832 1539.297241210938 52.8487434387207 C 1533.224609375 55.41726684570312 1526.869750976562 57.38996887207031 1520.4091796875 58.71199035644531 C 1513.779663085938 60.0685920715332 1506.956298828125 60.75644302368164 1500.12841796875 60.75644302368164 Z M 1500.12841796875 -124.5276336669922 C 1494.384887695312 -124.5276336669922 1488.644897460938 -123.9489822387695 1483.06787109375 -122.807731628418 C 1477.632202148438 -121.6954345703125 1472.285522460938 -120.0357360839844 1467.176147460938 -117.8747329711914 C 1462.159301757812 -115.7527313232422 1457.321166992188 -113.1266326904297 1452.796142578125 -110.0693817138672 C 1448.3134765625 -107.0410079956055 1444.09814453125 -103.5631561279297 1440.267578125 -99.73240661621094 C 1436.436889648438 -95.90167999267578 1432.958984375 -91.68648529052734 1429.930541992188 -87.20388031005859 C 1426.872680664062 -82.67760467529297 1424.24658203125 -77.83938598632812 1422.125122070312 -72.82363128662109 C 1419.964111328125 -67.71421051025391 1418.304321289062 -62.36755752563477 1417.192138671875 -56.93213272094727 C 1416.050903320312 -51.35443115234375 1415.472290039062 -45.61443328857422 1415.472290039062 -39.87155914306641 C 1415.472290039062 -34.12865829467773 1416.050903320312 -28.38865852355957 1417.192138671875 -22.81100845336914 C 1418.304321289062 -17.37560844421387 1419.964111328125 -12.0289831161499 1422.125122070312 -6.919582843780518 C 1424.24658203125 -1.903833031654358 1426.872680664062 2.934341907501221 1429.930541992188 7.46054220199585 C 1432.958862304688 11.94299221038818 1436.436767578125 16.15814208984375 1440.267578125 19.98894119262695 C 1444.098266601562 23.81971740722656 1448.3134765625 27.29754257202148 1452.796142578125 30.32579231262207 C 1457.321533203125 33.3831672668457 1462.159790039062 36.00921630859375 1467.176147460938 38.13101577758789 C 1472.285400390625 40.29196548461914 1477.632202148438 41.95164108276367 1483.06787109375 43.06391525268555 C 1488.644775390625 44.20514297485352 1494.384765625 44.78379058837891 1500.12841796875 44.78379058837891 C 1505.871948242188 44.78379058837891 1511.611938476562 44.20514297485352 1517.18896484375 43.06391525268555 C 1522.62451171875 41.95164108276367 1527.97119140625 40.2919921875 1533.080444335938 38.13101577758789 C 1538.096435546875 36.00944137573242 1542.9345703125 33.38336563110352 1547.46044921875 30.32579231262207 C 1551.943481445312 27.29706764221191 1556.158569335938 23.81926727294922 1559.98876953125 19.98894119262695 C 1563.819458007812 16.15839195251465 1567.29736328125 11.94321727752686 1570.32568359375 7.46054220199585 C 1573.383422851562 2.934467077255249 1576.009521484375 -1.903707981109619 1578.130859375 -6.919582843780518 C 1580.2919921875 -12.02903270721436 1581.95166015625 -17.37565803527832 1583.063842773438 -22.81100845336914 C 1584.205078125 -28.38750839233398 1584.78369140625 -34.12750625610352 1584.78369140625 -39.87155914306641 C 1584.78369140625 -45.61558151245117 1584.205078125 -51.35560607910156 1583.063842773438 -56.93215942382812 C 1581.95166015625 -62.367431640625 1580.2919921875 -67.71408081054688 1578.130859375 -72.82363128662109 C 1576.009521484375 -77.83956146240234 1573.383422851562 -82.67778015136719 1570.32568359375 -87.20388031005859 C 1567.297485351562 -91.68633270263672 1563.819702148438 -95.90153503417969 1559.98876953125 -99.73240661621094 C 1556.158569335938 -103.5627593994141 1551.943481445312 -107.0406341552734 1547.46044921875 -110.0693817138672 C 1542.934814453125 -113.1268615722656 1538.0966796875 -115.7529602050781 1533.080444335938 -117.8747329711914 C 1527.97119140625 -120.0357055664062 1522.624633789062 -121.6954116821289 1517.18896484375 -122.807731628418 C 1511.61181640625 -123.9489822387695 1505.871826171875 -124.5276336669922 1500.12841796875 -124.5276336669922 Z"/><path class="m" d="M 1500.12841796875 60.25643539428711 C 1506.922607421875 60.25643539428711 1513.71240234375 59.57201385498047 1520.308959960938 58.22214508056641 C 1526.737182617188 56.90672302246094 1533.060302734375 54.94390869140625 1539.1025390625 52.38822555541992 C 1545.035034179688 49.87898635864258 1550.75732421875 46.77304077148438 1556.1103515625 43.15667343139648 C 1561.412475585938 39.57453918457031 1566.3984375 35.46072387695312 1570.9296875 30.92946243286133 C 1575.460815429688 26.39840888977051 1579.574584960938 21.41243553161621 1583.156860351562 16.11009407043457 C 1586.77294921875 10.75754070281982 1589.87890625 5.035277366638184 1592.38818359375 -0.8977224826812744 C 1594.943725585938 -6.939248561859131 1596.906616210938 -13.26232814788818 1598.22216796875 -19.6913013458252 C 1599.571899414062 -26.28767013549805 1600.25634765625 -33.07727432250977 1600.25634765625 -39.87156295776367 C 1600.25634765625 -46.6659049987793 1599.571899414062 -53.45561599731445 1598.22216796875 -60.0520133972168 C 1596.906616210938 -66.48104095458984 1594.943725585938 -72.80419921875 1592.38818359375 -78.84585571289062 C 1589.879028320312 -84.77843475341797 1586.773193359375 -90.50072479248047 1583.156860351562 -95.85375213623047 C 1579.574584960938 -101.1561965942383 1575.460815429688 -106.1421661376953 1570.9296875 -110.673225402832 C 1566.3984375 -115.2045669555664 1561.412475585938 -119.3184051513672 1556.1103515625 -122.9004592895508 C 1550.757202148438 -126.516960144043 1545.034912109375 -129.6229095458984 1539.1025390625 -132.1320648193359 C 1533.060180664062 -134.6878051757812 1526.737060546875 -136.6506195068359 1520.308959960938 -137.9659881591797 C 1513.71240234375 -139.3158569335938 1506.922729492188 -140.0003051757812 1500.12841796875 -140.0003051757812 C 1493.333984375 -140.0003051757812 1486.544311523438 -139.3158569335938 1479.947875976562 -137.9659881591797 C 1473.519653320312 -136.6506500244141 1467.196533203125 -134.6878051757812 1461.154052734375 -132.1320648193359 C 1455.221069335938 -129.6225891113281 1449.498779296875 -126.5166397094727 1444.146240234375 -122.9004592895508 C 1438.843872070312 -119.3183288574219 1433.85791015625 -115.2045135498047 1429.326782226562 -110.673225402832 C 1424.795532226562 -106.141960144043 1420.681640625 -101.1559600830078 1417.099487304688 -95.85375213623047 C 1413.483276367188 -90.50111389160156 1410.377319335938 -84.77883148193359 1407.867797851562 -78.8458251953125 C 1405.312133789062 -72.80356597900391 1403.349243164062 -66.48040771484375 1402.033935546875 -60.0520133972168 C 1400.68408203125 -53.45516967773438 1399.999633789062 -46.66548538208008 1399.999633789062 -39.87156295776367 C 1399.999633789062 -33.07772064208984 1400.68408203125 -26.2880916595459 1402.033935546875 -19.69132804870605 C 1403.349487304688 -13.26261711120605 1405.312377929688 -6.939538478851318 1407.867797851562 -0.8977224826812744 C 1410.377319335938 5.035251140594482 1413.483276367188 10.75751399993896 1417.099487304688 16.11009407043457 C 1420.681640625 21.41225051879883 1424.795532226562 26.3981990814209 1429.326782226562 30.92946243286133 C 1433.858032226562 35.46075057983398 1438.843994140625 39.57456588745117 1444.146240234375 43.15667343139648 C 1449.49853515625 46.77267074584961 1455.220825195312 49.87862014770508 1461.154052734375 52.38822555541992 C 1467.196655273438 54.94393539428711 1473.519775390625 56.90677642822266 1479.947875976562 58.22214508056641 C 1486.544311523438 59.57201385498047 1493.333984375 60.25643539428711 1500.12841796875 60.25643539428711 M 1500.12841796875 -125.0276412963867 C 1505.905395507812 -125.0276412963867 1511.679077148438 -124.4455642700195 1517.289184570312 -123.2975921630859 C 1522.757080078125 -122.1786727905273 1528.135498046875 -120.5090942382812 1533.275146484375 -118.3352508544922 C 1538.321166992188 -116.2008819580078 1543.18798828125 -113.5592498779297 1547.740356445312 -110.4836959838867 C 1552.249755859375 -107.4371185302734 1556.48974609375 -103.9388046264648 1560.342407226562 -100.0859603881836 C 1564.19580078125 -96.23258972167969 1567.694091796875 -91.99259185791016 1570.739990234375 -87.48377227783203 C 1573.815795898438 -82.930908203125 1576.457397460938 -78.06406402587891 1578.591430664062 -73.01840972900391 C 1580.765380859375 -67.8785400390625 1582.434936523438 -62.50003814697266 1583.5537109375 -57.03240585327148 C 1584.70166015625 -51.42295837402344 1585.28369140625 -45.64922332763672 1585.28369140625 -39.87156295776367 C 1585.28369140625 -34.09387969970703 1584.70166015625 -28.32014274597168 1583.5537109375 -22.71077537536621 C 1582.434936523438 -17.24306488037109 1580.765380859375 -11.86461734771729 1578.591430664062 -6.724827766418457 C 1576.457397460938 -1.679222464561462 1573.815795898438 3.187593221664429 1570.739990234375 7.740435600280762 C 1567.69384765625 12.24951457977295 1564.195556640625 16.48946189880371 1560.342407226562 20.34248733520508 C 1556.48974609375 24.19530296325684 1552.249755859375 27.69356727600098 1547.740356445312 30.74009323120117 C 1543.187744140625 33.81577682495117 1538.320922851562 36.45738220214844 1533.275146484375 38.59151458740234 C 1528.135375976562 40.76538467407227 1522.756958007812 42.4349365234375 1517.289184570312 43.55377578735352 C 1511.67919921875 44.70172500610352 1505.905517578125 45.2838020324707 1500.12841796875 45.2838020324707 C 1494.351196289062 45.2838020324707 1488.577514648438 44.70172500610352 1482.967651367188 43.55377578735352 C 1477.499633789062 42.43490982055664 1472.12109375 40.76538467407227 1466.9814453125 38.59151458740234 C 1461.935180664062 36.45714569091797 1457.068359375 33.8155403137207 1452.516235351562 30.74009323120117 C 1448.007202148438 27.69398880004883 1443.767211914062 24.19572448730469 1439.913940429688 20.34248733520508 C 1436.060668945312 16.48919868469238 1432.562377929688 12.24925136566162 1429.516235351562 7.740461826324463 C 1426.440307617188 3.187435388565063 1423.798583984375 -1.679380297660828 1421.66455078125 -6.724801540374756 C 1419.49072265625 -11.86448574066162 1417.821166992188 -17.24293327331543 1416.702270507812 -22.71077537536621 C 1415.554321289062 -28.32140731811523 1414.972290039062 -34.09514236450195 1414.972290039062 -39.87156295776367 C 1414.972290039062 -45.6479606628418 1415.554321289062 -51.42169570922852 1416.702270507812 -57.03237915039062 C 1417.821166992188 -62.50017166137695 1419.49072265625 -67.87864685058594 1421.66455078125 -73.01840972900391 C 1423.798583984375 -78.06382751464844 1426.440185546875 -82.93069458007812 1429.516235351562 -87.48380279541016 C 1432.562622070312 -91.9927978515625 1436.060791015625 -96.23277282714844 1439.913940429688 -100.0859603881836 C 1443.76708984375 -103.9391403198242 1448.007080078125 -107.4374618530273 1452.516235351562 -110.4836959838867 C 1457.068115234375 -113.5590362548828 1461.934936523438 -116.2006683349609 1466.9814453125 -118.3352508544922 C 1472.12109375 -120.5090942382812 1477.499633789062 -122.1786727905273 1482.967651367188 -123.2975921630859 C 1488.577514648438 -124.4455642700195 1494.351318359375 -125.0276412963867 1500.12841796875 -125.0276412963867 M 1500.12841796875 61.25643539428711 C 1493.266845703125 61.25643539428711 1486.40966796875 60.5651741027832 1479.747436523438 59.20185470581055 C 1473.254638671875 57.87322616577148 1466.867919921875 55.89067077636719 1460.764526367188 53.30922317504883 C 1454.772094726562 50.77459335327148 1448.992431640625 47.63756561279297 1443.58642578125 43.98527908325195 C 1438.231323242188 40.36748886108398 1433.19580078125 36.21277618408203 1428.61962890625 31.63656616210938 C 1424.043579101562 27.0605411529541 1419.888793945312 22.0250415802002 1416.270874023438 16.66990852355957 C 1412.618530273438 11.26377773284912 1409.4814453125 5.484224796295166 1406.94677734375 -0.5081434845924377 C 1404.365600585938 -6.610774993896484 1402.383056640625 -12.99748516082764 1401.05419921875 -19.4908275604248 C 1399.69091796875 -26.15327453613281 1398.999633789062 -33.01032638549805 1398.999633789062 -39.87156295776367 C 1398.999633789062 -46.73285293579102 1399.69091796875 -53.58998489379883 1401.05419921875 -60.25248718261719 C 1402.3828125 -66.74551391601562 1404.365356445312 -73.13224792480469 1406.94677734375 -79.23538208007812 C 1409.4814453125 -85.22782897949219 1412.618530273438 -91.00740814208984 1416.270874023438 -96.41356658935547 C 1419.888793945312 -101.7686996459961 1424.043579101562 -106.8042449951172 1428.61962890625 -111.3803253173828 C 1433.19580078125 -115.9565887451172 1438.231323242188 -120.1112976074219 1443.58642578125 -123.7290878295898 C 1448.992431640625 -127.3813781738281 1454.77197265625 -130.5184326171875 1460.764526367188 -133.0530700683594 C 1466.867797851562 -135.6345367431641 1473.254516601562 -137.6170959472656 1479.747436523438 -138.9456939697266 C 1486.40966796875 -140.3090362548828 1493.266845703125 -141.0003051757812 1500.12841796875 -141.0003051757812 C 1506.989868164062 -141.0003051757812 1513.847045898438 -140.3090362548828 1520.509399414062 -138.9456939697266 C 1527.002197265625 -137.6170959472656 1533.388916015625 -135.6345062255859 1539.492065429688 -133.0530700683594 C 1545.484375 -130.5185852050781 1551.263793945312 -127.3815383911133 1556.670166015625 -123.7290878295898 C 1562.02490234375 -120.1114349365234 1567.060424804688 -115.9567260742188 1571.636840820312 -111.3803253173828 C 1576.213012695312 -106.8041458129883 1580.36767578125 -101.7685623168945 1583.985473632812 -96.41356658935547 C 1587.637939453125 -91.00706481933594 1590.77490234375 -85.22748565673828 1593.309204101562 -79.23538208007812 C 1595.890502929688 -73.13282775878906 1597.873046875 -66.74606323242188 1599.201904296875 -60.25248718261719 C 1600.565185546875 -53.58995819091797 1601.25634765625 -46.73282623291016 1601.25634765625 -39.87156295776367 C 1601.25634765625 -33.01035308837891 1600.565185546875 -26.15330123901367 1599.201904296875 -19.4908275604248 C 1597.873046875 -12.99735450744629 1595.890502929688 -6.61064338684082 1593.309204101562 -0.5081434845924377 C 1590.77490234375 5.483856678009033 1587.638061523438 11.26338291168213 1583.985473632812 16.66990852355957 C 1580.36767578125 22.02488327026367 1576.213012695312 27.06040954589844 1571.636840820312 31.63656616210938 C 1567.060424804688 36.21290969848633 1562.02490234375 40.36759185791016 1556.670166015625 43.98527908325195 C 1551.263793945312 47.63767242431641 1545.484375 50.77470016479492 1539.492065429688 53.30922317504883 C 1533.388916015625 55.89067077636719 1527.002197265625 57.87322616577148 1520.509399414062 59.20185470581055 C 1513.847045898438 60.5651741027832 1506.989868164062 61.25643539428711 1500.12841796875 61.25643539428711 Z M 1500.12841796875 -124.0276412963867 C 1494.418579101562 -124.0276412963867 1488.712280273438 -123.4524078369141 1483.168090820312 -122.3178787231445 C 1477.764770507812 -121.2121963500977 1472.449829101562 -119.5623550415039 1467.370971679688 -117.4142456054688 C 1462.384399414062 -115.3050384521484 1457.57470703125 -112.6944885253906 1453.076049804688 -109.6550903320312 C 1448.61962890625 -106.6444625854492 1444.42919921875 -103.1870346069336 1440.62109375 -99.37885284423828 C 1436.812866210938 -95.57058715820312 1433.35546875 -91.38017272949219 1430.344848632812 -86.92398834228516 C 1427.305419921875 -82.42501068115234 1424.694702148438 -77.61545562744141 1422.585571289062 -72.62885284423828 C 1420.437377929688 -67.54972076416016 1418.78759765625 -62.23487854003906 1417.682006835938 -56.83190536499023 C 1416.547607421875 -51.2874870300293 1415.972290039062 -45.58119583129883 1415.972290039062 -39.87156295776367 C 1415.972290039062 -34.16190719604492 1416.547607421875 -28.45561790466309 1417.682006835938 -22.91122245788574 C 1418.78759765625 -17.50827598571777 1420.437377929688 -12.19343280792236 1422.585571289062 -7.114354133605957 C 1424.694702148438 -2.127801418304443 1427.305419921875 2.681725025177002 1430.344848632812 7.180645942687988 C 1433.355346679688 11.6367244720459 1436.812744140625 15.82706737518311 1440.62109375 19.63538360595703 C 1444.42919921875 23.44351387023926 1448.61962890625 26.90090942382812 1453.076049804688 29.91146087646484 C 1457.574829101562 32.95085525512695 1462.384399414062 35.56138229370117 1467.370971679688 37.67051315307617 C 1472.449829101562 39.81861877441406 1477.764770507812 41.46843719482422 1483.168090820312 42.57406616210938 C 1488.712158203125 43.70856857299805 1494.41845703125 44.2838020324707 1500.12841796875 44.2838020324707 C 1505.838256835938 44.2838020324707 1511.544555664062 43.70856857299805 1517.088745117188 42.57406616210938 C 1522.491943359375 41.46843719482422 1527.806762695312 39.81861877441406 1532.885620117188 37.67051315307617 C 1537.8720703125 35.56146240234375 1542.681518554688 32.95093536376953 1547.180541992188 29.91146087646484 C 1551.636962890625 26.9007511138916 1555.827392578125 23.44338226318359 1559.63525390625 19.63538360595703 C 1563.443359375 15.82740879058838 1566.900756835938 11.63701438903809 1569.911376953125 7.180645942687988 C 1572.950805664062 2.681672334671021 1575.561401367188 -2.127854108810425 1577.67041015625 -7.114354133605957 C 1579.818481445312 -12.19295883178711 1581.468383789062 -17.5078010559082 1582.573974609375 -22.91122245788574 C 1583.70849609375 -28.45501136779785 1584.28369140625 -34.16130065917969 1584.28369140625 -39.87156295776367 C 1584.28369140625 -45.58182907104492 1583.70849609375 -51.28808975219727 1582.573974609375 -56.83190536499023 C 1581.468383789062 -62.23532867431641 1579.818481445312 -67.55019378662109 1577.67041015625 -72.62885284423828 C 1575.561401367188 -77.61540985107422 1572.950805664062 -82.42498779296875 1569.911376953125 -86.92398834228516 C 1566.900756835938 -91.38048553466797 1563.443237304688 -95.57090759277344 1559.63525390625 -99.37885284423828 C 1555.827392578125 -103.186882019043 1551.636962890625 -106.6443023681641 1547.180541992188 -109.6550903320312 C 1542.681762695312 -112.6944351196289 1537.872314453125 -115.3049850463867 1532.885620117188 -117.4142456054688 C 1527.806762695312 -119.5623779296875 1522.491943359375 -121.2121963500977 1517.088745117188 -122.3178787231445 C 1511.54443359375 -123.4524078369141 1505.838256835938 -124.0276412963867 1500.12841796875 -124.0276412963867 Z"/></g><g transform="translate(99.508 2515.69)"><circle class="a" cx="87.666" cy="87.666" r="87.666"/><g class="d"><g transform="translate(37.965 35.197)"><g transform="translate(17.387 60.797)"><path class="e" d="M92.239,680.1A1.2,1.2,0,0,1,91.047,679a13.841,13.841,0,0,0-2.006-6.305,10.049,10.049,0,0,0-1.708-2.135,1.2,1.2,0,0,1,1.552-1.822,15.127,15.127,0,0,1,4.549,10.08,1.2,1.2,0,0,1-1.1,1.285Z" transform="translate(-86.918 -668.45)"/></g><g transform="translate(67.396 50.589)"><ellipse class="e" cx="3.528" cy="4.62" rx="3.528" ry="4.62" transform="translate(0 0.1) rotate(-0.815)"/></g><g transform="translate(23.023 60.11)"><path class="e" d="M125.8,708.386c-1.089,0-2.1-.054-3.006-.1a56.8,56.8,0,0,1-10.726-1.624,32.151,32.151,0,0,1-11.331-5.017A23.3,23.3,0,0,1,91.522,686.5l2.363-.386a20.666,20.666,0,0,0,8.291,13.616c5.386,4.032,14.249,5.829,20.747,6.167,5.331.278,13.388.7,18.48-10.07a93.987,93.987,0,0,0,7.939-27.936l2.375.294a96.409,96.409,0,0,1-8.15,28.666c-2.491,5.27-6.013,8.766-10.465,10.389A21.11,21.11,0,0,1,125.8,708.386Z" transform="translate(-91.522 -667.889)"/></g><g transform="translate(6.576)"><path class="e" d="M92.4,673.816s.686-21.583,1.853-24.472a9.748,9.748,0,0,1,3.336-4.139c.738-.414,1.582-1.054,1.629-1.836.084-1.4,4.845-1.715,4.845-1.715s3.359-.292,3.945-.862a4.992,4.992,0,0,1,4.34-.8,5.929,5.929,0,0,0,2.223.351l.075,0a7.574,7.574,0,0,0,3.122-.78,3.108,3.108,0,0,1,1.99-.3,4.029,4.029,0,0,0,2.139-.088,3.663,3.663,0,0,1,1.536-.242,6.043,6.043,0,0,1,2.745.906s.892.661,2.241-.367a4.234,4.234,0,0,1,3.893-.72,6.272,6.272,0,0,1,.64.255,4.216,4.216,0,0,0,1.9.421,1.89,1.89,0,0,0,.951-.217c.555-.393,2.317.353,2.317.353a2.577,2.577,0,0,0,2.409-.56c.97-.8,3,.316,3.769.793a4,4,0,0,0,.727.353,15.853,15.853,0,0,1,1.765.692c2.4,1.371,4.113,6.828,4.642,10.187.743,4.723.981,18.207.981,18.207l1.711,3.221a12.121,12.121,0,0,1,1.416-4.325c.532-.741,1.747-2.79.7-3.854a.519.519,0,0,1-.116-.563c.338-.809,1.143-2.927.907-4.154a.652.652,0,0,1,.169-.58c.639-.66,2.079-2.637.519-5.894a4.269,4.269,0,0,1-.076-2.87,1.534,1.534,0,0,0-.661-2.163c-1.086-.51-.628-2.249-.333-3.082a6.929,6.929,0,0,0,.41-2.039,3.016,3.016,0,0,0-.766-2.436,1.083,1.083,0,0,1-.393-.706,2.574,2.574,0,0,0-.744-1.708,1.343,1.343,0,0,1-.451-.618,4.458,4.458,0,0,0-2.146-2.309,4.371,4.371,0,0,1-2.37-4.03,3.2,3.2,0,0,0-2.166-2.823,2.4,2.4,0,0,1-1.492-1.375c-.426-1.064-1.569-2.545-4.642-3.042-4.986-.8-3.507-.264-5.421-1.745a3.5,3.5,0,0,0-2.72-.816,3.494,3.494,0,0,1-3.009-.932l-.043-.044a2.642,2.642,0,0,0-1.976-.8,4.391,4.391,0,0,0-1.254.234,2.475,2.475,0,0,1-2.243-.4,2.429,2.429,0,0,0-2.072-.385,2.085,2.085,0,0,0-.805.441c-1,.89-3.541-.3-3.541-.3a4.451,4.451,0,0,0-4.251.449,5.65,5.65,0,0,1-2.6.967c-.66.065-1.5.143-2.518.224a13.807,13.807,0,0,0-4.395,1.339,12.681,12.681,0,0,0-2.1,1.263,6.775,6.775,0,0,1-4.662,1.234c-2.315-.21-3.45,1.692-3.927,2.873a1.483,1.483,0,0,1-1.235.93c-1.393.126-3.872.7-4.163,3.125,0,0-.049,1.473-2.61,1.194-1.781-.193-3.1,3.417-3.741,5.635a9.839,9.839,0,0,0-.338,2.283,1.193,1.193,0,0,1-.943,1.122c-.677.218-.919,1.107-.881,1.769a3.022,3.022,0,0,1-.573,2.131,9.264,9.264,0,0,0-1.561,6.443,5.8,5.8,0,0,0,.41,1.757,1.743,1.743,0,0,1-.213,1.6,5.988,5.988,0,0,0,.354,5.181,3.869,3.869,0,0,1,.459,2.655c-.257.886.836,2.747,1.517,3.785a8.2,8.2,0,0,1,.895,1.818c.648,1.872,2.636,6.215,2.467,8.03C84.2,676.939,85.356,673.816,92.4,673.816Z" transform="translate(-78.086 -618.785)"/></g><g transform="translate(31.478 36.873)"><path class="e" d="M99.991,655.34a1.615,1.615,0,0,1-1.12-2.724,13.061,13.061,0,0,1,16.2-1.624,1.616,1.616,0,1,1-1.635,2.789c-7.054-4.14-12.014.852-12.222,1.068A1.618,1.618,0,0,1,99.991,655.34Z" transform="translate(-98.429 -648.906)"/></g><g transform="translate(60.602 37.765)"><path class="e" d="M137.025,655.974a1.611,1.611,0,0,1-1.1-.41c-2.521-2.249-5.111-3.1-7.7-2.523a8.012,8.012,0,0,0-3.3,1.6,1.616,1.616,0,0,1-2.183-2.385,10.965,10.965,0,0,1,4.605-2.332c2.557-.613,6.5-.552,10.728,3.227a1.616,1.616,0,0,1-1.053,2.822Z" transform="translate(-122.22 -649.635)"/></g><g transform="translate(38.258 50.589)"><ellipse class="e" cx="3.528" cy="4.62" rx="3.528" ry="4.62" transform="translate(0 0.1) rotate(-0.815)"/></g><g transform="translate(18.646 52.725)"><rect class="e" width="10.196" height="2.394" transform="matrix(0.993, -0.115, 0.115, 0.993, 0, 1.168)"/></g><g transform="translate(27.528 45.478)"><path class="e" d="M116.212,674.973H100.523a5.327,5.327,0,0,1-5.321-5.321v-8.393a5.328,5.328,0,0,1,5.321-5.323h15.689a5.329,5.329,0,0,1,5.323,5.323v8.393A5.328,5.328,0,0,1,116.212,674.973Zm-15.689-16.643a2.932,2.932,0,0,0-2.928,2.929v8.393a2.931,2.931,0,0,0,2.928,2.928h15.689a2.931,2.931,0,0,0,2.928-2.928v-8.393a2.932,2.932,0,0,0-2.928-2.929Z" transform="translate(-95.202 -655.936)"/></g><g transform="translate(57.643 46.127)"><path class="e" d="M140.253,675.034H125.008a5.211,5.211,0,0,1-5.205-5.205v-8.156a5.211,5.211,0,0,1,5.205-5.206h15.245a5.212,5.212,0,0,1,5.206,5.206v8.156A5.212,5.212,0,0,1,140.253,675.034ZM125.008,658.86a2.815,2.815,0,0,0-2.812,2.812v8.156a2.816,2.816,0,0,0,2.812,2.812h15.245a2.815,2.815,0,0,0,2.812-2.812v-8.156a2.814,2.814,0,0,0-2.812-2.812Z" transform="translate(-119.803 -656.466)"/></g><g transform="translate(52.165 53.301)"><path class="e" d="M121.609,665.536c-1.582-1.229-4.624-.785-5.662-.509l-.619-2.312c.2-.054,4.9-1.282,7.75.932Z" transform="translate(-115.328 -662.326)"/></g><g transform="translate(58.229 61.693)"><path class="e" d="M122.441,682.791a8.428,8.428,0,0,1-1.141-.07,1.2,1.2,0,0,1,.353-2.368,7.1,7.1,0,0,0,2.478-.16,3.263,3.263,0,0,0,2.61-2.727c.644-3.4-4.435-5.986-4.486-6.012a1.2,1.2,0,0,1,1.05-2.151,14.79,14.79,0,0,1,3.166,2.2c2.136,1.967,3.043,4.182,2.622,6.4a5.675,5.675,0,0,1-4.436,4.619A9.2,9.2,0,0,1,122.441,682.791Z" transform="translate(-120.282 -669.182)"/></g><g transform="translate(41.712 71.002)"><path class="e" d="M121.037,694.938a15.59,15.59,0,0,1-3.729-.486c-5.321-1.314-9.25-7.407-10.507-16.3a1.2,1.2,0,0,1,2.077-.966l.054.061a35.327,35.327,0,0,0,7.68,6.512c5.017,3.008,9.372,3.2,12.943.561a1.2,1.2,0,0,1,1.9,1.131c-.031.209-.774,5.162-4.742,7.843A9.909,9.909,0,0,1,121.037,694.938Zm-11.1-13.257c1.509,5.752,4.357,9.562,7.942,10.447,3.043.752,5.558.48,7.473-.807a8.478,8.478,0,0,0,2.877-3.544c-3.8,1.492-8.18.835-12.849-1.965A33.853,33.853,0,0,1,109.939,681.68Z" transform="translate(-106.789 -676.786)"/></g><g transform="translate(38.482 105.4)"><path class="e" d="M114.375,710.931a13.626,13.626,0,0,1-4.462-.746,13.767,13.767,0,0,1-5.763-3.771l1.842-1.528c.277.33,6.891,7.973,18.019.126l1.38,1.956C122.608,708.932,118.707,710.931,114.375,710.931Z" transform="translate(-104.15 -704.886)"/></g><g transform="translate(58.1 98.399)"><path class="e" d="M159.3,740.414a1.2,1.2,0,0,1-1.2-1.161,43.832,43.832,0,0,0-3.276-14.523c-1.918-4.766-4.406-8.729-6.826-10.874-3.8-3.368-9.65-6.566-16.918-9.25-1.277-.471-2.494-.889-3.61-1.251,5.21,4.442,11.37,10.71,11.735,11.082a1.2,1.2,0,0,1-.4,1.946,34.751,34.751,0,0,0-13.152,9.815,1.2,1.2,0,0,1-1.9-1.449,36.871,36.871,0,0,1,12.53-9.868c-4.127-4.123-12.3-11.956-15.42-13.437a1.2,1.2,0,0,1,.782-2.248c.742.171,18.27,4.288,27.948,12.868,5.618,4.979,10.612,17.4,10.907,27.115a1.2,1.2,0,0,1-1.16,1.233Z" transform="translate(-120.176 -699.167)"/></g><g transform="translate(64.172 121.807)"><path class="e" d="M126.823,736.128a1.2,1.2,0,0,1-1.12-1.621l4.409-11.647-4.342-2.32a1.2,1.2,0,1,1,1.127-2.112l5.27,2.816a1.2,1.2,0,0,1,.556,1.48l-4.781,12.629A1.2,1.2,0,0,1,126.823,736.128Z" transform="translate(-125.137 -718.289)"/></g><g transform="translate(0 95.206)"><path class="e" d="M73.911,741h-.039a1.2,1.2,0,0,1-1.157-1.235,39.509,39.509,0,0,1,3.5-14.157c2.08-4.714,4.713-8.587,7.416-10.907,9.37-8.047,27.3-17.6,28.055-18a1.2,1.2,0,0,1,1.432,1.878c-2.489,2.643-12.112,15.412-15.012,19.276a59.37,59.37,0,0,1,15.427,11.842,1.2,1.2,0,1,1-1.819,1.554,41.076,41.076,0,0,0-4.064-3.906,65.741,65.741,0,0,0-11.891-8.04,1.2,1.2,0,0,1-.4-1.774c.388-.519,7.164-9.584,11.956-15.668-6.171,3.518-16.108,9.487-22.124,14.653-2.4,2.063-4.875,5.728-6.785,10.058a37.123,37.123,0,0,0-3.3,13.27A1.2,1.2,0,0,1,73.911,741Z" transform="translate(-72.714 -696.559)"/></g><g transform="translate(29.383 125.736)"><path class="e" d="M102.927,735.912a1.2,1.2,0,0,1-1.055-.63l-5.012-9.333a1.2,1.2,0,0,1,.608-1.677l6.692-2.687a1.2,1.2,0,0,1,.891,2.222L99.6,726l4.379,8.153a1.2,1.2,0,0,1-1.053,1.764Z" transform="translate(-96.717 -721.499)"/></g><g transform="translate(38.102 95.234)"><path class="e" d="M115.55,740.994a1.2,1.2,0,0,1-1.138-.829L103.9,707.7a1.23,1.23,0,0,1-.058-.394l.209-9.554a1.2,1.2,0,0,1,2.393.053l-.2,9.351,10.45,32.272a1.2,1.2,0,0,1-1.138,1.566Z" transform="translate(-103.84 -696.582)"/></g><g transform="translate(50.874 98.399)"><path class="e" d="M120.492,740.415a1.2,1.2,0,0,1-1.151-.869l-3.45-12.12a1.2,1.2,0,0,1,.132-.956l4.1-6.641-5.635-8.131a1.2,1.2,0,1,1,1.967-1.364l4.393,6.34.652-9.459v-6.85a1.2,1.2,0,1,1,2.393,0v6.891c0,.028,0,.055,0,.083l-2.2,31.961a1.2,1.2,0,0,1-1.07,1.108A1.071,1.071,0,0,1,120.492,740.415Zm-2.154-13.137,1.432,5.03.57-8.274Z" transform="translate(-114.273 -699.167)"/></g><g transform="translate(43.205 109.179)"><path class="e" d="M114.617,738.441c-.027,0-.055,0-.082,0a1.2,1.2,0,0,1-1.114-1.275l.763-11.282-5.812-5.651a1.2,1.2,0,0,1-.26-1.345l4.553-10.2a1.2,1.2,0,0,1,2.186.976l-4.212,9.439,5.61,5.454a1.194,1.194,0,0,1,.36.939l-.8,11.835A1.2,1.2,0,0,1,114.617,738.441Z" transform="translate(-108.008 -707.973)"/></g><g transform="translate(10.75 53.343)"><path class="e" d="M93.584,688.918a5.7,5.7,0,0,1-3.18-.928,6.9,6.9,0,0,1-2.771-5.07c-.567-4.047-.808-5.047-4.281-9.139a7.3,7.3,0,0,1-1.837-5.31,6.935,6.935,0,0,1,2.057-4.446,5.516,5.516,0,0,1,7.879-.015,6.723,6.723,0,0,1,1.6,2.349c.093.189.195.4.311.624a1.2,1.2,0,1,1-2.135,1.082c-.121-.238-.226-.452-.323-.648a4.609,4.609,0,0,0-1.064-1.635,3.171,3.171,0,0,0-4.605-.038,4.645,4.645,0,0,0-.06,6.488c3.872,4.561,4.22,6.015,4.827,10.355A4.654,4.654,0,0,0,91.733,686a3.7,3.7,0,0,0,2.917.386,1.2,1.2,0,0,1,.6,2.318A6.652,6.652,0,0,1,93.584,688.918Z" transform="translate(-81.496 -662.361)"/></g></g></g></g></g><g class="f" transform="translate(74.561 2707.482) rotate(20)"><path class="g" d="M12.531,0C12.531,7.03,0,5.807,0,14.773" transform="matrix(-0.966, 0.259, -0.259, -0.966, 15.928, 14.269)"/></g><g class="h" transform="translate(335.325 2630.035) rotate(150)"><path class="g" d="M12.531,0C12.531,7.03,0,5.807,0,14.773" transform="matrix(-0.966, 0.259, -0.259, -0.966, 15.928, 14.269)"/></g><path class="i" d="M9.554,11.022A4.58,4.58,0,0,1,4.713,3.246a4.548,4.548,0,0,1,6.308,1.467A4.628,4.628,0,0,1,9.554,11.022Z" transform="translate(273.007 2479.701)"/><path class="j" d="M20.679,24.476A11.851,11.851,0,0,1,8.151,4.355a11.77,11.77,0,0,1,16.324,3.8A11.977,11.977,0,0,1,20.679,24.476Z" transform="translate(82.74 2474.42)"/><g transform="translate(0 3)"><g class="k" transform="translate(284.873 2693.979)"><line class="g" x1="13.349" y1="12.477" transform="matrix(0.966, -0.259, 0.259, 0.966, 0.002, 4.074)"/><line class="g" y1="13.349" x2="12.477" transform="matrix(0.966, -0.259, 0.259, 0.966, 0, 3.229)"/></g></g></g></svg>