<svg xmlns="http://www.w3.org/2000/svg" width="224.83" height="21.806" viewBox="0 0 379.394 36.979"><defs><style>.a{fill:#3b3836;}.b{fill:#004d9c;}</style></defs><path class="a" d="M576.161,375.676v-.089a9.788,9.788,0,0,0-3.594-7.553,15.723,15.723,0,0,0-7.736-3.238c-2.553-.315-5.141-.12-5.141-2.12,0-.839,1.034-1.624,2.344-1.624,1.751,0,3.144.954,5.272,2.189a4.948,4.948,0,0,0,7.5-4.361,4.992,4.992,0,0,0-2.4-4.221,19.119,19.119,0,0,0-10.617-2.852c-7.316.12-12.351,4.8-12.245,11.379v.089c0,6.806,5.042,9.48,11.451,10.416,4.75.693,4.981,1.768,4.981,2.574,0,.476-.712,1.554-2.734,1.628s-4.871-1.371-6.543-2.576a5.078,5.078,0,0,0-6.5.565,4.831,4.831,0,0,0-1.386,3.559,5.064,5.064,0,0,0,2.073,4.023,21.183,21.183,0,0,0,12.177,3.868c.11,0,.225,0,.335,0a14.123,14.123,0,0,0,9.127-3.068,10.685,10.685,0,0,0,3.63-8.585" transform="translate(-196.769 -351.764)"/><path class="a" d="M576.161,375.676v-.089a9.788,9.788,0,0,0-3.594-7.553,15.723,15.723,0,0,0-7.736-3.238c-2.553-.315-5.141-.12-5.141-2.12,0-.839,1.034-1.624,2.344-1.624,1.751,0,3.144.954,5.272,2.189a4.948,4.948,0,0,0,7.5-4.361,4.992,4.992,0,0,0-2.4-4.221,19.119,19.119,0,0,0-10.617-2.852c-7.316.12-12.351,4.8-12.245,11.379v.089c0,6.806,5.042,9.48,11.451,10.416,4.75.693,4.981,1.768,4.981,2.574,0,.476-.712,1.554-2.734,1.628s-4.871-1.371-6.543-2.576a5.078,5.078,0,0,0-6.5.565,4.831,4.831,0,0,0-1.386,3.559,5.064,5.064,0,0,0,2.073,4.023,21.183,21.183,0,0,0,12.177,3.868c.11,0,.225,0,.335,0a14.123,14.123,0,0,0,9.127-3.068,10.685,10.685,0,0,0,3.63-8.585" transform="translate(-196.769 -351.764)"/><path class="a" d="M576.161,375.676v-.089a9.788,9.788,0,0,0-3.594-7.553,15.723,15.723,0,0,0-7.736-3.238c-2.553-.315-5.141-.12-5.141-2.12,0-.839,1.034-1.624,2.344-1.624,1.751,0,3.144.954,5.272,2.189a4.948,4.948,0,0,0,7.5-4.361,4.992,4.992,0,0,0-2.4-4.221,19.119,19.119,0,0,0-10.617-2.852c-7.316.12-12.351,4.8-12.245,11.379v.089c0,6.806,5.042,9.48,11.451,10.416,4.75.693,4.981,1.768,4.981,2.574,0,.476-.712,1.554-2.734,1.628s-4.871-1.371-6.543-2.576a5.078,5.078,0,0,0-6.5.565,4.831,4.831,0,0,0-1.386,3.559,5.064,5.064,0,0,0,2.073,4.023,21.183,21.183,0,0,0,12.177,3.868c.11,0,.225,0,.335,0a14.123,14.123,0,0,0,9.127-3.068,10.685,10.685,0,0,0,3.63-8.585" transform="translate(-196.769 -351.764)"/><path class="a" d="M533.651,351.768a17.8,17.8,0,1,0,17.8,17.8,17.825,17.825,0,0,0-17.8-17.8m7.385,17.8a7.387,7.387,0,1,1-7.385-7.388,7.395,7.395,0,0,1,7.385,7.388" transform="translate(-200.413 -351.768)"/><path class="a" d="M533.651,351.768a17.8,17.8,0,1,0,17.8,17.8,17.825,17.825,0,0,0-17.8-17.8m7.385,17.8a7.387,7.387,0,1,1-7.385-7.388,7.395,7.395,0,0,1,7.385,7.388" transform="translate(-200.413 -351.768)"/><path class="a" d="M533.651,351.768a17.8,17.8,0,1,0,17.8,17.8,17.825,17.825,0,0,0-17.8-17.8m7.385,17.8a7.387,7.387,0,1,1-7.385-7.388,7.395,7.395,0,0,1,7.385,7.388" transform="translate(-200.413 -351.768)"/><path class="a" d="M401.426,371.072a5,5,0,0,0-4.277,2.436,7.579,7.579,0,0,1-6.387,3.453A7.388,7.388,0,1,1,397,365.614a5.21,5.21,0,1,0,8.818-5.55,18.209,18.209,0,0,0-6.342-5.993,17.807,17.807,0,1,0,0,31,18.261,18.261,0,0,0,6.35-6,5.208,5.208,0,0,0-4.4-7.993" transform="translate(-216.205 -351.768)"/><path class="a" d="M401.426,371.072a5,5,0,0,0-4.277,2.436,7.579,7.579,0,0,1-6.387,3.453A7.388,7.388,0,1,1,397,365.614a5.21,5.21,0,1,0,8.818-5.55,18.209,18.209,0,0,0-6.342-5.993,17.807,17.807,0,1,0,0,31,18.261,18.261,0,0,0,6.35-6,5.208,5.208,0,0,0-4.4-7.993" transform="translate(-216.205 -351.768)"/><path class="a" d="M401.426,371.072a5,5,0,0,0-4.277,2.436,7.579,7.579,0,0,1-6.387,3.453A7.388,7.388,0,1,1,397,365.614a5.21,5.21,0,1,0,8.818-5.55,18.209,18.209,0,0,0-6.342-5.993,17.807,17.807,0,1,0,0,31,18.261,18.261,0,0,0,6.35-6,5.208,5.208,0,0,0-4.4-7.993" transform="translate(-216.205 -351.768)"/><path class="a" d="M431.554,351.782a5.215,5.215,0,0,0-5.208,5.208V372.2a4.745,4.745,0,0,1-9.489,0V356.99a5.209,5.209,0,0,0-10.418,0V372.2a15.162,15.162,0,0,0,30.324,0V356.99a5.214,5.214,0,0,0-5.208-5.208" transform="translate(-212.505 -351.766)"/><path class="a" d="M431.554,351.782a5.215,5.215,0,0,0-5.208,5.208V372.2a4.745,4.745,0,0,1-9.489,0V356.99a5.209,5.209,0,0,0-10.418,0V372.2a15.162,15.162,0,0,0,30.324,0V356.99a5.214,5.214,0,0,0-5.208-5.208" transform="translate(-212.505 -351.766)"/><path class="a" d="M431.554,351.782a5.215,5.215,0,0,0-5.208,5.208V372.2a4.745,4.745,0,0,1-9.489,0V356.99a5.209,5.209,0,0,0-10.418,0V372.2a15.162,15.162,0,0,0,30.324,0V356.99a5.214,5.214,0,0,0-5.208-5.208" transform="translate(-212.505 -351.766)"/><path class="a" d="M499.768,352.286h-5.746a5.233,5.233,0,0,0-5.227,5.227v24a5.232,5.232,0,0,0,5.227,5.226h5.746a17.229,17.229,0,0,0,0-34.458m-.52,10.454h.52a6.771,6.771,0,1,1,0,13.542l-.52,0Z" transform="translate(-203.403 -351.711)"/><path class="a" d="M499.768,352.286h-5.746a5.233,5.233,0,0,0-5.227,5.227v24a5.232,5.232,0,0,0,5.227,5.226h5.746a17.229,17.229,0,0,0,0-34.458m-.52,10.454h.52a6.771,6.771,0,1,1,0,13.542l-.52,0Z" transform="translate(-203.403 -351.711)"/><path class="a" d="M499.768,352.286h-5.746a5.233,5.233,0,0,0-5.227,5.227v24a5.232,5.232,0,0,0,5.227,5.226h5.746a17.229,17.229,0,0,0,0-34.458m-.52,10.454h.52a6.771,6.771,0,1,1,0,13.542l-.52,0Z" transform="translate(-203.403 -351.711)"/><path class="a" d="M457.717,376.306h-9.93V374.14h8.093a4.625,4.625,0,0,0,0-9.251h-8.093v-2.171h9.93a5.208,5.208,0,0,0,0-10.417H442.578a5.213,5.213,0,0,0-5.208,5.208h0v24a5.213,5.213,0,0,0,5.208,5.208l.084,0h15.054a5.209,5.209,0,0,0,0-10.418" transform="translate(-209.086 -351.709)"/><path class="a" d="M457.717,376.306h-9.93V374.14h8.093a4.625,4.625,0,0,0,0-9.251h-8.093v-2.171h9.93a5.208,5.208,0,0,0,0-10.417H442.578a5.213,5.213,0,0,0-5.208,5.208h0v24a5.213,5.213,0,0,0,5.208,5.208l.084,0h15.054a5.209,5.209,0,0,0,0-10.418" transform="translate(-209.086 -351.709)"/><path class="a" d="M457.717,376.306h-9.93V374.14h8.093a4.625,4.625,0,0,0,0-9.251h-8.093v-2.171h9.93a5.208,5.208,0,0,0,0-10.417H442.578a5.213,5.213,0,0,0-5.208,5.208h0v24a5.213,5.213,0,0,0,5.208,5.208l.084,0h15.054a5.209,5.209,0,0,0,0-10.418" transform="translate(-209.086 -351.709)"/><path class="a" d="M369.583,376.306h-9.93V374.14h8.094a4.625,4.625,0,0,0,0-9.251h-8.094v-2.171h9.93a5.208,5.208,0,0,0,0-10.417H354.444a5.214,5.214,0,0,0-5.208,5.208h0v24a5.214,5.214,0,0,0,5.208,5.208l.087,0h15.052a5.209,5.209,0,0,0,0-10.418" transform="translate(-218.827 -351.709)"/><path class="a" d="M369.583,376.306h-9.93V374.14h8.094a4.625,4.625,0,0,0,0-9.251h-8.094v-2.171h9.93a5.208,5.208,0,0,0,0-10.417H354.444a5.214,5.214,0,0,0-5.208,5.208h0v24a5.214,5.214,0,0,0,5.208,5.208l.087,0h15.052a5.209,5.209,0,0,0,0-10.418" transform="translate(-218.827 -351.709)"/><path class="a" d="M369.583,376.306h-9.93V374.14h8.094a4.625,4.625,0,0,0,0-9.251h-8.094v-2.171h9.93a5.208,5.208,0,0,0,0-10.417H354.444a5.214,5.214,0,0,0-5.208,5.208h0v24a5.214,5.214,0,0,0,5.208,5.208l.087,0h15.052a5.209,5.209,0,0,0,0-10.418" transform="translate(-218.827 -351.709)"/><path class="a" d="M482.74,372.531a10.7,10.7,0,0,0,5.95-9.509,10.851,10.851,0,0,0-9.951-10.664,5.1,5.1,0,0,0-.766-.057H467.958a5.213,5.213,0,0,0-5.208,5.208v24.009a5.208,5.208,0,1,0,10.417,0v-4.19l6.324,7.538a5.209,5.209,0,0,0,7.981-6.7Zm-5.877-7.241h-3.7v-2.577h3.7a1.289,1.289,0,1,1,0,2.577" transform="translate(-206.281 -351.709)"/><path class="a" d="M482.74,372.531a10.7,10.7,0,0,0,5.95-9.509,10.851,10.851,0,0,0-9.951-10.664,5.1,5.1,0,0,0-.766-.057H467.958a5.213,5.213,0,0,0-5.208,5.208v24.009a5.208,5.208,0,1,0,10.417,0v-4.19l6.324,7.538a5.209,5.209,0,0,0,7.981-6.7Zm-5.877-7.241h-3.7v-2.577h3.7a1.289,1.289,0,1,1,0,2.577" transform="translate(-206.281 -351.709)"/><path class="a" d="M482.74,372.531a10.7,10.7,0,0,0,5.95-9.509,10.851,10.851,0,0,0-9.951-10.664,5.1,5.1,0,0,0-.766-.057H467.958a5.213,5.213,0,0,0-5.208,5.208v24.009a5.208,5.208,0,1,0,10.417,0v-4.19l6.324,7.538a5.209,5.209,0,0,0,7.981-6.7Zm-5.877-7.241h-3.7v-2.577h3.7a1.289,1.289,0,1,1,0,2.577" transform="translate(-206.281 -351.709)"/><path class="a" d="M343.288,372.531a10.693,10.693,0,0,0,5.951-9.509,10.851,10.851,0,0,0-9.951-10.664,5.123,5.123,0,0,0-.765-.057H328.508a5.214,5.214,0,0,0-5.21,5.208v24.009a5.209,5.209,0,0,0,10.418,0v-4.19l6.326,7.538a5.209,5.209,0,0,0,7.98-6.7Zm-5.874-7.241h-3.7v-2.577h3.7a1.289,1.289,0,0,1,0,2.577" transform="translate(-221.693 -351.709)"/><path class="a" d="M343.288,372.531a10.693,10.693,0,0,0,5.951-9.509,10.851,10.851,0,0,0-9.951-10.664,5.123,5.123,0,0,0-.765-.057H328.508a5.214,5.214,0,0,0-5.21,5.208v24.009a5.209,5.209,0,0,0,10.418,0v-4.19l6.326,7.538a5.209,5.209,0,0,0,7.98-6.7Zm-5.874-7.241h-3.7v-2.577h3.7a1.289,1.289,0,0,1,0,2.577" transform="translate(-221.693 -351.709)"/><path class="a" d="M343.288,372.531a10.693,10.693,0,0,0,5.951-9.509,10.851,10.851,0,0,0-9.951-10.664,5.123,5.123,0,0,0-.765-.057H328.508a5.214,5.214,0,0,0-5.21,5.208v24.009a5.209,5.209,0,0,0,10.418,0v-4.19l6.326,7.538a5.209,5.209,0,0,0,7.98-6.7Zm-5.874-7.241h-3.7v-2.577h3.7a1.289,1.289,0,0,1,0,2.577" transform="translate(-221.693 -351.709)"/><g transform="translate(0 1.384)"><g transform="translate(0 0)"><path class="b" d="M222.549,636.863H204.754a5.211,5.211,0,0,0,0,10.421h3.687v19.263a5.211,5.211,0,1,0,10.421,0V647.284h3.687a5.211,5.211,0,0,0,0-10.421" transform="translate(-199.543 -636.513)"/><path class="b" d="M169.054,636.548a5.216,5.216,0,0,0-5.211,5.211v15.215a4.747,4.747,0,1,1-9.494,0V641.759a5.212,5.212,0,0,0-10.424,0v15.215a15.17,15.17,0,0,0,30.339,0V641.759a5.217,5.217,0,0,0-5.211-5.211" transform="translate(-113.264 -636.548)"/><path class="b" d="M280.75,660.453l0-.089a9.792,9.792,0,0,0-3.595-7.556,15.706,15.706,0,0,0-7.739-3.239c-2.555-.316-5.141-.12-5.141-2.121,0-.839,1.034-1.625,2.345-1.625,1.752,0,3.143.955,5.272,2.19a4.954,4.954,0,0,0,7.507-4.363,5,5,0,0,0-2.4-4.223,19.137,19.137,0,0,0-10.622-2.853c-7.318.12-12.356,4.8-12.249,11.385l0,.089c0,6.81,5.044,9.485,11.453,10.42,4.752.693,4.983,1.769,4.983,2.576,0,.476-.712,1.554-2.735,1.628s-4.87-1.372-6.542-2.578a5.086,5.086,0,0,0-6.5.565,4.846,4.846,0,0,0-1.387,3.561,5.07,5.07,0,0,0,2.078,4.025,21.177,21.177,0,0,0,12.18,3.87c.112,0,.224,0,.338,0a14.117,14.117,0,0,0,9.128-3.069,10.685,10.685,0,0,0,3.635-8.59" transform="translate(-190.291 -636.546)"/></g></g></svg>