<svg xmlns="http://www.w3.org/2000/svg" width="159.777" height="25.132" viewBox="0 0 159.777 25.132"><defs><style>.a{fill:#fff;}</style></defs><g transform="translate(-46.306 -32)"><g transform="translate(46.306 32)"><path class="a" d="M180.03,351.815A12.566,12.566,0,1,0,192.6,364.381a12.58,12.58,0,0,0-12.566-12.566m5.214,12.566a5.215,5.215,0,1,1-5.214-5.214,5.219,5.219,0,0,1,5.214,5.214" transform="translate(-52.71 -351.815)"/><path class="a" d="M-25.991-135.442a3.6,3.6,0,0,0-3.6,3.6v17.06a3.6,3.6,0,0,0,3.6,3.6,3.6,3.6,0,0,0,3.6-3.6v-17.06a3.6,3.6,0,0,0-3.6-3.6" transform="translate(135.944 136.142)"/><path class="a" d="M-933.744-115.955l-5.981-16.433-.005-.014a4.726,4.726,0,0,0-4.4-3.04,4.726,4.726,0,0,0-4.4,3.04l-5.987,16.447a3.554,3.554,0,0,0,2.122,4.551,3.535,3.535,0,0,0,1.21.214,3.557,3.557,0,0,0,3.34-2.336l.737-2.024h5.954l.737,2.024a3.554,3.554,0,0,0,4.55,2.122,3.554,3.554,0,0,0,2.122-4.551m-11.306-6.109.92-3.237.92,3.237Z" transform="translate(1019.804 136.142)"/><path class="a" d="M567.95,368.508v-.062a6.849,6.849,0,0,0-2.515-5.285,11,11,0,0,0-5.413-2.266c-1.786-.221-3.6-.084-3.6-1.483,0-.587.723-1.136,1.64-1.136,1.225,0,2.2.668,3.689,1.532A3.462,3.462,0,0,0,567,356.755a3.493,3.493,0,0,0-1.678-2.954,13.378,13.378,0,0,0-7.429-2c-5.119.084-8.642,3.358-8.568,7.962v.062c0,4.763,3.528,6.634,8.012,7.288,3.323.485,3.485,1.237,3.485,1.8,0,.333-.5,1.087-1.913,1.139a8.919,8.919,0,0,1-4.578-1.8,3.553,3.553,0,0,0-4.547.4,3.38,3.38,0,0,0-.97,2.49,3.543,3.543,0,0,0,1.451,2.815,14.822,14.822,0,0,0,8.52,2.707l.235,0a9.882,9.882,0,0,0,6.387-2.147,7.477,7.477,0,0,0,2.54-6.007" transform="translate(-526.426 -351.805)"/><path class="a" d="M567.95,368.508v-.062a6.849,6.849,0,0,0-2.515-5.285,11,11,0,0,0-5.413-2.266c-1.786-.221-3.6-.084-3.6-1.483,0-.587.723-1.136,1.64-1.136,1.225,0,2.2.668,3.689,1.532A3.462,3.462,0,0,0,567,356.755a3.493,3.493,0,0,0-1.678-2.954,13.378,13.378,0,0,0-7.429-2c-5.119.084-8.642,3.358-8.568,7.962v.062c0,4.763,3.528,6.634,8.012,7.288,3.323.485,3.485,1.237,3.485,1.8,0,.333-.5,1.087-1.913,1.139a8.919,8.919,0,0,1-4.578-1.8,3.553,3.553,0,0,0-4.547.4,3.38,3.38,0,0,0-.97,2.49,3.543,3.543,0,0,0,1.451,2.815,14.822,14.822,0,0,0,8.52,2.707l.235,0a9.882,9.882,0,0,0,6.387-2.147,7.477,7.477,0,0,0,2.54-6.007" transform="translate(-408.174 -351.805)"/><path class="a" d="M424.013,351.782a3.649,3.649,0,0,0-3.644,3.644v10.642a3.32,3.32,0,0,1-6.64,0V355.426a3.645,3.645,0,0,0-7.289,0v10.642a10.609,10.609,0,0,0,21.218,0V355.426a3.648,3.648,0,0,0-3.644-3.644" transform="translate(-406.439 -351.782)"/><path class="a" d="M424.013,351.782a3.649,3.649,0,0,0-3.644,3.644v10.642a3.32,3.32,0,0,1-6.64,0V355.426a3.645,3.645,0,0,0-7.289,0v10.642a10.609,10.609,0,0,0,21.218,0V355.426a3.648,3.648,0,0,0-3.644-3.644" transform="translate(-363.756 -351.782)"/><path class="a" d="M476.738,366.456A7.485,7.485,0,0,0,480.9,359.8a7.592,7.592,0,0,0-6.963-7.462,3.57,3.57,0,0,0-.536-.04h-7.007a3.648,3.648,0,0,0-3.644,3.644v0h0v16.8a3.644,3.644,0,1,0,7.289,0v-2.932l4.425,5.275a3.645,3.645,0,0,0,5.585-4.686Zm-4.112-5.066h-2.587v-1.8h2.587a.9.9,0,1,1,0,1.8" transform="translate(-375.985 -351.601)"/></g></g></svg>